<svg id="Layer_1" data-name="Layer 1" xmlns="http://www.w3.org/2000/svg" xmlns:xlink="http://www.w3.org/1999/xlink" viewBox="0 0 2267.72 1700.79"><defs><style>.cls-1,.cls-13,.cls-14,.cls-16,.cls-17,.cls-18,.cls-3,.cls-7,.cls-9{fill:none;}.cls-2{fill:#f4b29c;}.cls-17,.cls-3{stroke:#2c2f53;}.cls-13,.cls-14,.cls-16,.cls-17,.cls-18,.cls-3,.cls-7,.cls-9{stroke-linecap:round;stroke-linejoin:round;}.cls-13,.cls-18,.cls-3,.cls-7{stroke-width:2px;}.cls-4{fill:#505c7b;}.cls-12,.cls-14,.cls-4{opacity:0.5;}.cls-5{fill:#dc6437;opacity:0.3;}.cls-6{fill:#0d1536;}.cls-14,.cls-7{stroke:#505c7b;}.cls-12,.cls-8{fill:#f06082;}.cls-15,.cls-8{opacity:0.25;}.cls-18,.cls-9{stroke:#fff;}.cls-14,.cls-16,.cls-9{stroke-width:3px;}.cls-10{fill:#2c2f53;}.cls-11{fill:#fff;}.cls-13{stroke:#f06082;opacity:0.75;}.cls-15{fill:#63cdf6;}.cls-16{stroke:#54c3e5;}.cls-17{stroke-width:4px;}.cls-19{clip-path:url(#clip-path);}</style><clipPath id="clip-path"><rect class="cls-1" x="773.66" y="258.94" width="160.6" height="264.46" rx="15.42" ry="15.42"/></clipPath></defs><title>Pria dan wanita terhubung via video calll</title><path class="cls-2" d="M1536.45,1240.66s4.16-34,12.84-54.12,24.63-51.69,39.55-74.59,45.31-83.23,51.8-112.56c-27.68,1.05-67,17.79-80.59,44.56-19,37.39-89.86,144-89.86,144Z"/><path class="cls-2" d="M1370.38,977.66s10.13-36,12.58-55.54,8.38-40.52,8.73-49.26-12.93-4.54-17.82,4.19-9.78,30.74-14.67,37.38c0,0-6.29,1.75-8.38,4.89,0,0-26.65-57.29-32.89-73s-10.78-29.34-12.18-33.19-14.67,1.75-12.58,13.62,19.91,61.48,18.86,63.58-8,9.78-11.53,7.69-22-34.93-33.19-53.8-17.47-36.68-21-35.63-13.62,7.69-6.29,22.36c0,0-15,9.08-8.73,21s34.52,63.61,37,68.12c1.18,2.12-1.6,7-5.69,4.07-10.53-7.67-35.59-23.87-42.11-31s-9.27-8.84-12-5.41-4.92,11.1-1.72,14.53,40.28,36.51,45.66,40.51,8.93,8.24,16.14,17.4,29.41,42.11,46.92,39.37c0,0,6.39,96.75,6.39,129.71s-.88,85.76,0,108.51,17.21,71.47,29.17,88.68,30.92,37.63,37,39.38,22.46,1.75,29.46-3.5,40.84-26.55,55.72-40.55,48.13-38.21,48.13-38.21L1357,1103l-23.84-118.17a5.28,5.28,0,0,1,5-6.32Z"/><path class="cls-3" d="M1433.25,1243.32c4.75,17.51,3,39.18,2.67,38.29"/><path class="cls-4" d="M1455.18,1174.16h-86.56a10.62,10.62,0,0,1-10.44-8.64l-34.87-183.81a10.62,10.62,0,0,1,10.44-12.61h86.56a10.62,10.62,0,0,1,10.44,8.64l34.87,183.81A10.62,10.62,0,0,1,1455.18,1174.16Z"/><path class="cls-2" d="M1943.09,1059.17c0,27.32-2.66,44.32-15.32,85.95s-39.65,122.6-49.64,151.58-18.32,57.29-36.31,93.94-35,49.3-48,52-26.32,6.66-38,0-63.63-24-77.62-34.32-114.93-87.94-136.91-103.94-78-49.3-78-49.3-14.66,1.67-36.65-7.67-52.17-29.22-60.13-34.61c-6.36-4.32-4.73-19.32-4.73-19.32s-5.39-2.51-8.2-10.68,0-21,0-21-2.17-3.76-8-14.73c-7.22-13.52-3.35-32.53-3.35-32.53s-18.61-21.29-22.48-26.11-1.07-6.43,2.4-8.44,9.64-3.08,17,1.88,28.39,20.49,44.6,32.94,32.66,24.9,44.71,27.84,14.33,1.07,14.6-2.94.81-25.84.54-38-1.07-14.87,4.15-20.89,13.26-9.1,14.19-2.15,6.83,37.63,7.9,48.74,1.47,20.49,3.75,26.24,10.31,24.91,9.64,36.82c0,0,31.21,16.53,49.76,25.65l2.05,1c18.21,8.83,82.75,37.43,112.47,49.67,34,14,75.62,15.92,103.77,37.65,0,0,10.3-29.23,19.46-50.78s36.12-119.06,36.12-119.06c-6.25-69.2-24.47-108.88-22.89-160.19a82.31,82.31,0,0,0,7.55,6.23c6.45,4.76,16.22,10.66,25.93,11.63,16.65,1.66,69.62,6.32,87.28,10S1943.09,1031.85,1943.09,1059.17Z"/><path class="cls-3" d="M1806.92,1134.54c10.57-32.8,15.16-52.67,15.16-52.67"/><path class="cls-3" d="M1751.34,1304.38c11.07,8.18,26.91,29.36,30.84,38.45"/><path class="cls-3" d="M1482.13,1179.22a43.8,43.8,0,0,1,1.15,11.19s25.88,13.71,44.52,23"/><path class="cls-3" d="M1504.53,1280.17c-20.91-13.08-41.14-25.12-41.14-25.12s-14.66,1.67-36.65-7.67-52.17-29.22-60.13-34.61c-6.36-4.32-4.73-19.32-4.73-19.32s-5.39-2.51-8.2-10.68,0-21,0-21-2.17-3.76-8-14.73c-7.22-13.52-3.35-32.53-3.35-32.53s-18.61-21.29-22.48-26.11-1.07-6.43,2.4-8.44,9.64-3.08,17,1.88"/><path class="cls-2" d="M1789.88,979.29c-34.11,45-71.68,41.27-93.24,32.61s-21.73-24-21.73-24,3.93-4.48,4.54-8.59c.28-1.87.6-6.23.84-12,.28-6.93.46-15.88.28-25a51.66,51.66,0,0,1-23.09-1.26,49,49,0,0,1-6.64-2.43c-17.44-7.89-44.13-51-48.53-63.59s-25.73-48.53-35.76-104.16,66.31-80.11,66.93-79.48S1751.66,774,1751.66,774c18.82-3.14,33.25,1.26,33.46,26.15S1765.9,832,1765.9,832c0,72.74,18.13,142.4,18.13,142.4Z"/><circle class="cls-5" cx="1707.92" cy="834.07" r="23.85"/><path class="cls-6" d="M1658.62,667.5c-15.07-18.53-18.77-17-19.76-34.09s2.72-25.69,12.35-29.89,18.77-6.67,18.53-14.33-5.43-22.48,6.18-31.87,21.24-1,29.89,2.22,18.28,5.68,23.72,1.73,32.61-5.93,41.5,10.62,7.41,35.33,4,43c0,0,19.76,9.14,20.75,23.22s0,14.82-14.08,29.4c0,0,12.78,15.32,8.24,25s-12.69,15.07-19.11,15.56-31.37,2-31.37,2Z"/><path class="cls-7" d="M1702.31,593.48c2.48-17.39,31.21-21.74,33.69,3.57"/><path class="cls-7" d="M1734.18,589.46c9.71-17.6,33.67-12.47,29.79,12.18"/><path class="cls-7" d="M1674.63,673.33c-3.43-18-2.78-26.66,3.93-35.49s26.17-13.57,33.53-2.62-2.26,16.11-6.71,11c-6.21-7.2-.16-38.27,29.93-32.22"/><path class="cls-8" d="M1920.07,1147.35s-3.35,20-7.83,46.84c-5.93,35.47-13.8,83-18.53,112.49-8.3,51.82-25.76,129.7-27.55,143-3.48,26.09,0,45,0,45a890.27,890.27,0,0,1-92,25.59c-7.93,1.7-16.56,3.21-25.53,4.53-12.38,1.83-25.45,3.3-38.33,4.41-33.8,2.89-66.4,3.33-82.41,1.27-26.53-3.41-49-17-49.67-24.5s-.68-46.94-4.76-88.44c-3.06-31.1-13.26-80.21-18.19-102.89-1.63-7.58-2.7-12.22-2.7-12.22s109.3,84.47,123.51,93.65,57.4,29.53,81.69,38.12,36.24,2.91,59.64-24,33.41-65.32,37.26-76C1887.57,1243,1920.07,1147.35,1920.07,1147.35Z"/><path class="cls-8" d="M1814.5,1133.17c-40.29,143.66-62.62,181.38-62.62,181.38-17.29-18.35-107.56-37.7-129.45-49s-70.72-32.74-90.84-41.21q.63-4.18,1.46-8.28c11.52-57.77,50.08-103,74.42-154.58,17.25-36.51,24.9-61.18,24.9-61.18s9.59-.9,26.39-3.3,20.69-17.7,20.69-17.7c3,15.6,15.6,33,50.09,29.39S1784,974.35,1784,974.35a82.31,82.31,0,0,0,7.55,6.23c-1.47,18.37,5.29,46.92,9.64,67.41C1806.32,1072,1814.5,1133.17,1814.5,1133.17Z"/><circle class="cls-9" cx="1669.73" cy="1033.65" r="19.75"/><circle class="cls-10" cx="1348.7" cy="996.45" r="6.65"/><circle class="cls-11" cx="1363.36" cy="993.84" r="2.63"/><circle class="cls-10" cx="1353.06" cy="1013.9" r="6.65"/><path class="cls-4" d="M1371.56,1059.66c1,7.15,8.36,7.32,11.88,1.35,4.44-7.53,10.33-13.52,12.84-6.47s-6.76,19.22-15.35,19.8S1368.57,1069.22,1371.56,1059.66Z"/><path class="cls-3" d="M1342.3,1114.49c13.78,18.7,39.3,43.34,39.3,43.34"/><path class="cls-3" d="M1353.68,1161.76c16.35,16,27.92,23.68,27.92,23.68"/><path class="cls-3" d="M1361.88,1193.45a123.55,123.55,0,0,1,18.24,13.06"/><path class="cls-3" d="M1350.82,919.32c-10.56,12.13-14.74,24.44-15.48,29.85"/><path class="cls-3" d="M1240.08,830.94c14.28,24.62,42.09,76.64,42.09,76.64"/><path class="cls-12" d="M1680.76,1110.86c-2,8.2.68,14.85,5.9,14.85s11-6.65,13-14.85-.68-14.85-5.9-14.85S1682.72,1102.66,1680.76,1110.86Z"/><path class="cls-3" d="M1756.84,872.73c-3.29,6.83-9.28,15.19-16.65,23.84a275.86,275.86,0,0,1-33.71,33.06c-10.68,8.74-20.61,11.78-25.92,12.68"/><path class="cls-3" d="M1765.9,832c-3.13-22.88-15.38-51.54-15.38-51.54"/><path class="cls-13" d="M1676.79,994.87c-8.14,20.15,9.36,90.45,13.42,93.42s8.23,2.18,11.8,0,40.11-28.4,81.23-100.89"/><path class="cls-6" d="M1625.14,673.33s18-21.24,42-17.4,23.37,10.95,34,13.31,36.68,1.48,46.44,16.86,8,36.09,8,36.09,13.9,16.57,16.57,27.51,1.28,26.82-14.7,28a34,34,0,0,1-3.51,19.62c-5.17,9.76-14.63,26.62-13.45,40.82s15.69,24.21,25.39,31.62c14.88,11.37,24,42-16.51,40.35,0,0,10.85-7,8.82-22.9s-10.59-19.5-22.48-25.21-17.6-12.37-20-22.83,14.74-28.3,14.27-40.66-5.52-40.66-28.2-52.08-52.65-6.18-87.6-33.77c0,0-16.88,2.38-27.11,22.35s-10.94,22.12-10.7,43.75,1.9,30.5,3.8,33.56,14.52,32.39,18.31,47.53,5.72,21-5.71,30.44c-15,12.36-33.77,30.91-6.42,42.8,0,0-20.33,8.95-25.81-15.45s24.39-52.52,23.57-69.62-21.07-35.91-27-45-5.37-27.68-4.82-40.57,6.58-51.26,24.39-68.25S1611.58,670.46,1625.14,673.33Z"/><path class="cls-7" d="M1625.14,673.33s18-21.24,42-17.4,23.37,10.95,34,13.31,36.68,1.48,46.44,16.86,8,36.09,8,36.09"/><path class="cls-7" d="M1552,769.55c10.3-38.13,32.54-63,58.76-72.28"/><path class="cls-7" d="M1614.22,712.7c2.67-18.34,10.92-39.37,10.92-39.37"/><path class="cls-7" d="M1623.7,677.21c14.65-9.67,36.47-12.34,46.71-7s15.14,12.25,31.62,10.91,44.81,1.56,53.57,41.08"/><path class="cls-7" d="M1622.45,697.27c15.24-6,33.44-7.7,48.68,0s18.4,23.53,36.81,30.45,27.51,1,29.49-7.32-8.51-16.23-12.86-5.34,3.17,28.5,11.87,32.65,20,12.65,21,30"/><circle class="cls-10" cx="1604.99" cy="825.41" r="5.81"/><circle class="cls-10" cx="1672.82" cy="810.7" r="5.81"/><path class="cls-3" d="M1592.83,822.24c1.24,3.2,8.89,3.68,9.83,3.17"/><path class="cls-3" d="M1673.57,810.22c3.55-.47,10.72-2.55,12.32-6.87"/><path class="cls-3" d="M1612.91,791.23C1627.83,807,1633,816.51,1635,862"/><path class="cls-3" d="M1622.45,862c4.05,3.65,7.54,6.8,9.69,6.8s11.94.33,13.93-.83,23.21-13.66,23.21-13.66"/><path class="cls-3" d="M1672.82,917.91c4.75-1.33,9.72-6.8,9.72-6.8"/><path class="cls-6" d="M1638.7,767.18c1.61-2.54,18.9-9,25.05-9.45s40.34-.53,46.79,20c0,0-9.92-17.13-32.78-11.58s-35,7.5-37,6.3S1637.9,768.44,1638.7,767.18Z"/><path class="cls-6" d="M1572.58,787.58c5.7-3.75,16.49-7.32,26.6-6.45,3.48.3,3,8.4-1.44,8.55s-14.22-.9-23.52,3Z"/><path class="cls-7" d="M1572.58,919.47c-1.83-17.06,7.83-24.55,12.8-38.19s11.81-41-6.51-49.15"/><path class="cls-10" d="M1665.27,879.75c-14.51-.52-22.74,4.19-19.41,11.87s16.35,19.9,24.28,16.94c15.74-5.87,26.54-25.08,23.75-39.69a25.29,25.29,0,0,1-10.3,2C1677.31,870.85,1671,870.15,1665.27,879.75Z"/><path class="cls-3" d="M1697.54,863.35a28.85,28.85,0,0,1-9,10.16c-9.86,7.36-24.69,12.24-36.82,15.32-2.21.57-4.32,1.07-6.3,1.52"/><path class="cls-11" d="M1690.84,878.18c.35,6.21-29.07,17.3-31.84,17.57-2.26.23-5.57-3.44-7.28-6.92,12.13-3.08,27-8,36.82-15.32C1689.67,874.25,1690.69,875.63,1690.84,878.18Z"/><path class="cls-10" d="M1740.19,896.57c-2.44,11.75-6.87,29.32-11.25,39.3-6.17,14.08-24,31-48.66,31.41.28-6.93.46-15.88.28-25,5.31-.9,15.24-3.94,25.92-12.68A275.85,275.85,0,0,0,1740.19,896.57Z"/><path class="cls-9" d="M1748.82,1439.23a19.76,19.76,0,1,0,37.69,8.3,19.89,19.89,0,0,0-.27-3.3"/><circle class="cls-9" cx="1766.76" cy="1096.01" r="19.75"/><circle class="cls-9" cx="1685.03" cy="1174.16" r="19.75"/><path class="cls-9" d="M1748.7,1522.81a19.36,19.36,0,0,1-.11,2c-12.38,1.83-25.45,3.3-38.33,4.41a19.76,19.76,0,1,1,38.44-6.44Z"/><circle class="cls-9" cx="1598.81" cy="1379.86" r="19.75"/><circle class="cls-9" cx="1595.95" cy="1199.98" r="19.75"/><circle class="cls-9" cx="1759.78" cy="1170.64" r="14.8"/><circle class="cls-9" cx="1675.41" cy="1431.45" r="14.8"/><circle class="cls-9" cx="1838.91" cy="1471.58" r="14.8"/><circle class="cls-9" cx="1733.51" cy="1262.47" r="14.8"/><circle class="cls-9" cx="1628.3" cy="1496.31" r="14.8"/><circle class="cls-9" cx="1650.47" cy="1105.23" r="14.8"/><path class="cls-4" d="M976.67,215.33h-525A49.31,49.31,0,0,1,500.89,169H927.46A49.31,49.31,0,0,1,976.67,215.33Z"/><path class="cls-14" d="M451.59,882.38V218.29c0-1,0-2,.08-3A49.31,49.31,0,0,1,500.89,169H927.46a49.31,49.31,0,0,1,49.22,46.33c0,1,.08,2,.08,3V904.12"/><path class="cls-14" d="M976.76,1140.6v23.45c0,1.18,0,2.36-.12,3.51a49.3,49.3,0,0,1-49.18,45.77H500.89a49.29,49.29,0,0,1-49.3-49.29"/><path class="cls-10" d="M600.72,755.09c-1.07-1.07-28.64-24.7-42.6-34.72s-26.49-21.48-27.21-47.61,12.17-38.66,22.55-47.61,37.95-32.58,44.39-44c3-5.27,11.1-26.85,31.5-38.3,19.89-11.17,44.72-9.38,61.93,13.25,0,0,27.95-5.15,46.18,8.95,20.3,15.7,47.67,83.22,10,130.3C708.08,744.58,600.72,755.09,600.72,755.09Z"/><path class="cls-7" d="M587.63,733.62c11.21-8.3,26.67-16.18,27.89-38.91s-3.94-71.83,1.21-90.63,18.49-38.8,39.4-36.68"/><path class="cls-7" d="M535.87,696c25.7,1.1,44.8-12.84,51.77-30.42s10.31-41.83,9.7-57.59,5.16-33.09,9.1-42.76"/><path class="cls-7" d="M535.87,674.4c35.28-21.52,55.76-37.51,54.37-83.47"/><path class="cls-2" d="M771,760.6c-2.32,14.21-7.28,34.37-10.26,41.64s-23.14,13.56-23.14,13.56a216.13,216.13,0,0,0,6.07,27.36c4.95,16.94,10.13,26.48,10.13,27.84-2,20.49-19.82,27.77-58.18,20.83s-55.53-40-55.53-40-1-11.57-2.65-16.53-18.83-62.8-18.83-62.8c-26.11,11.56-46.61-26.45-34.39-38.89s21.49,1.87,21.49,1.87c23.14-9.59,30.08-39.33,30.08-39.33,58.83-32.4,42.81-60.53,43.3-95.87.34-24.14,14.88-27.43,14.88-27.43,16.86,56.19,56.85,64.46,56.85,64.46s.34,14.54,1.33,21.48,14.21,46.28,18.84,59.51S773.3,746.39,771,760.6Z"/><path class="cls-10" d="M718.65,649.68c6.56-7.06,12.11-8.07,17.82-8.24s19,4.12,19,4.12l-2.35-11.35s-19.22-4.19-27.07,0C719.49,637.71,718.65,649.68,718.65,649.68Z"/><path class="cls-2" d="M986.28,1121s46.95,33.24,56.35,36.79,21.9,15,24.79,15.49,29.56,1.78,33.37,0,10.16-10.16,19.81-16.76,38.35-55.37,42.16-84.83S1172.92,965.49,1176,936s10.92-105.15,17.78-112.77,15.49-7.87,21.33-24.38,9.14-23.62,9.14-30.48,1.27-11.94,8.64-22.86,23.26-38.91,25.4-43.18c3.14-6.27-4.49-20.69-7.8-17.71-4,3.63-25.76,41.41-30.37,46.85-1.6,1.88-7.11,1.24-6.28-3.4s7.79-40,10.78-51.74S1227.24,654,1213,648.5c0,0,2.49-6.3-3.81-11.94s-12.77-8.46-14.76,0-16.4,78.16-17.9,81.21c-1.83,3.7-10.12,3.54-10.12,1.21s.83-52.24.5-58.54-15.59-14.1-18.57-10.61-2.49,70.64-3.32,76.61-4,13.6-4,26c0,0-4.81,3-6.3,5.47,0,0-17.08-22.06-22.55-29.68s-20.13-4.44-22.22-2.16c-1.82,2,0,5,8.62,19.73s25.54,43.28,28.52,50.08,8.79,17.25,13.43,19.73c0,0-.5,5.14-5.64,27.36s-18.08,70.15-29.52,98.34c-9.21,22.7-26,59.65-34.42,72.62l-3.22-3.72c-.47.68-.86,1.21-1.16,1.58-4.19,5.31-13.11,14.92-15.6,43.78Z"/><path class="cls-2" d="M648.94,1217.86s2.78.45,8.38,15.52a68.29,68.29,0,0,0,34.25,38.17c11.42,5.53,18.19,8.92,18.19,8.92s5.17,6.42,10.88,20.33,8.2,20.33,7.67,27.82-5.17,18.73-3.75,25.33,16.41,14.8,19.62,13.73,7.85-33.53,9.27-41-7-27.65-7-27.65,21.58,33.53,32.11,42.63,22-3.76,22-3.76c16.11,1.43,26.18-7.66,21.84-13.6-2.87-3.93-41.69-59.69-41.69-59.69s34.89,22.46,42.41,27.12,19.38-6.25,21.17-9.83-4.7-9.5-23-19.88-40.81-30.43-49.76-37.23-36.15-29.71-59.06-46.18-34.36-22.91-44-21.84-27.56-2.86-56.2-5.73S509,1130.39,502.71,1129.62l3-5.07a274.23,274.23,0,0,0-33.41-8.6c-28-21.25-65.14-8.47-65.14-8.47l-42.28-23.12s-20,34-30.21,60.68-11,30-9.5,40.2,5.12,13.89,11.33,14.25,11,11.33,36.55,16.08S648.94,1217.86,648.94,1217.86Z"/><path class="cls-15" d="M1070.93,1014c-10.13,13.55-15.61,46.75-15.61,46.75-19.25,22.59-61.48,63.49-78.56,79.86-4.62,4.42-7.4,7-7.4,7l7.28,19.92a49.3,49.3,0,0,1-49.18,45.77H746c-17-12.49-50.35-37-55.83-42.27-7.44-7.08-18.42-6-23.74-6s-73-8.49-73-8.49-10.45-24.95-20.29-47.94c-3.48-8.13-6.87-16-9.71-22.48-3-6.81-5.34-12-6.5-14.26a73,73,0,0,1-6.72-21.61l-13.17,22-15.2,25.41-19.1,31.94s-26.93-2.12-34-6.73a54.1,54.1,0,0,0-17.11-6.81c-21.31-5-46.32-1.69-46.32-1.69s-41-14.91-66.16-40.52c0,0,9.31-15.48,23.15-38.75,3.79-6.36,7.92-13.31,12.3-20.69,3.57-6,7.32-12.34,11.15-18.86,13.56-23,28.46-48.38,42.37-72.44q4.13-7.14,8.12-14.1c5.26-9.16,10.33-18.18,15.39-26.65C465.44,859.15,479.15,840,496,833.19c33.63-13.54,80-1.12,100.82,5.9a189.07,189.07,0,0,0,26,6.34c13.56,2.44,24.88,3.49,24.88,3.49a113.45,113.45,0,0,0,23.52,24c14.88,11.24,37.13,16.08,55.95,14.68s18-20.22,18-20.22a258.82,258.82,0,0,0,32.38-7.92l2.12-.72c15.17-5.33,91-28.37,119.95-24.5,17.46,2.33,43.88,25,52.06,37.44,3,4.57,8.77,12.12,15.46,20.55,3.06,3.84,6.3,7.86,9.57,11.88,9,11,18.09,21.91,23.81,28.56l12.17,14.08,12.38,14.29,16.15,18.67Z"/><path class="cls-15" d="M1012.74,946.77c-13,15.74-40.9,40.94-98.62,65.65-52.45,22.45-159.81,35.7-244,42.85-66.51,5.64-118.4,10.48-118.36-7.93,0,0-117.46-30.35-166-51.76,13.56-23,28.46-48.38,42.37-72.44,26.21,3.77,44.49,7.86,63.75,16.07,31.73,13.5,51.2,26.32,101.37,24.63s105.87-1.34,156.49-7.42,77.63-1,129.27-19.92c34.72-12.71,69.29-32.58,88.21-44.25,3.06,3.84,6.3,7.86,9.57,11.88,9,11,18.09,21.91,23.81,28.56Z"/><path class="cls-15" d="M1041.27,979.73c-12.57,9.39-40.66,30-71.91,50.29C927,1057.5,848,1088,751.21,1101.76c-72.12,10.23-145.42,8.44-178.09,6.85-3.48-8.13-6.87-16-9.71-22.48,26.5.41,92,.79,139.88-4.2,61.35-6.42,166.36-25.34,226.19-55.26,45.59-22.79,81.25-52.66,95.64-65.6Z"/><path class="cls-15" d="M777.59,859.48c-9.46,39.21-36.39,55.23-82,48.35-40.44-6.1-63.63-36.16-72.77-62.4,13.56,2.44,24.88,3.49,24.88,3.49a113.45,113.45,0,0,0,23.52,24c14.88,11.24,37.13,16.08,55.95,14.68s18-20.22,18-20.22A258.82,258.82,0,0,0,777.59,859.48Z"/><path class="cls-16" d="M574,1014.53c8.44-11,16.15-20.15,19.17-24"/><path class="cls-16" d="M550.19,1050.26c4.55-8.77,11.13-18.55,17.83-27.7"/><path class="cls-16" d="M562.74,1036.4s17.45-10.92,32.41-13.85"/><path class="cls-16" d="M900.37,967.83c0,11.91,2.77,17.45,9.14,33.24s59.85,146.58,59.85,146.58"/><path class="cls-3" d="M1142,761.6c13.09,0,28.25,14.47,30.32,26.87"/><path class="cls-3" d="M1140.51,815.66c4.73,3,10.87,3,10.87,3"/><path class="cls-3" d="M1213,648.5c-7,26.15-16.95,75.33-16.95,75.33"/><path class="cls-3" d="M1055.32,1060.74a136.48,136.48,0,0,0,2.21,35.15"/><line class="cls-3" x1="618.6" y1="772.5" x2="605.71" y2="735.48"/><path class="cls-3" d="M631.63,790.38a113.37,113.37,0,0,0,22.53,19.1,31.13,31.13,0,0,0,8.8,4.11c13.31,2.93,49.6,6.51,74.13,1.68,2.07-.41,4-.88,5.93-1.4"/><path class="cls-7" d="M561.86,739.09c32.52,9.64,72.92-14.28,74-45.52,1.54-46.32-11-78.52,8.14-100.78"/><path class="cls-7" d="M692.44,563.2c6.13,34.4,37.31,88,82.52,69.15"/><path class="cls-7" d="M700.28,565.27c7.15-.46,16.83,8.76,22.13,22.13s20.67,35.2,42.15,32.93"/><path class="cls-3" d="M378.28,1121.26c10-3.78,20.31-6.25,27-6.88"/><path class="cls-3" d="M746.5,1299c-5.28-14.16-9.07-22-9.07-22"/><path class="cls-3" d="M750.16,1257.15c.45,5.81,2.23,7.6,7.6,15.64s42.82,65.1,42.82,65.1"/><path class="cls-3" d="M762.68,1239c6.26,8,18.05,25.54,18.05,25.54"/><path class="cls-16" d="M639.36,875.25c25,38.4,108.39,48,128.68,8"/><path class="cls-15" d="M537,1072.27l-15.2,25.41c-26.87-9.23-104.48-35.56-159.55-62.58,3.79-6.36,7.92-13.31,12.3-20.69C413.86,1031.64,504.44,1064.85,537,1072.27Z"/><path class="cls-3" d="M718.65,649.68c-4.08,13.35-5.11,18.64-5.4,26s1.32,8.37,6.76,12.78,9.84,6.17,12.19,15.13S741.71,734,741.71,734"/><path class="cls-10" d="M727.47,735c-12.38-3.42-15.47,3.28-11.9,5C718.62,741.38,725.41,735.42,727.47,735Z"/><path class="cls-3" d="M720,735.48c6,.1,19.48,2.33,21.69-1.45S744,721.28,744,721.28"/><path class="cls-17" d="M658.94,714.27c6.64-12.72,15.76-14.24,23.25-14.14"/><path class="cls-17" d="M730.13,681.05c4.83-6.21,9.89-6.62,16.33-5.41"/><path class="cls-10" d="M724.3,778.78c-19.09.95-29.85-10.65-32-13.69l11-3.22L743,750.32c.19,2.31.33,4.53.37,6.62C743.7,769.6,740.7,778,724.3,778.78Z"/><path class="cls-11" d="M743.39,756.94c-10.44,5.32-32.55,10.86-33.94,10.77-1.24-.07-3.94-2.25-6.11-5.83L743,750.32C743.21,752.63,743.35,754.85,743.39,756.94Z"/><circle class="cls-4" cx="730.51" cy="1088.49" r="36"/><path class="cls-11" d="M750.12,1081.89c-6.67-2.6-15.87-2.79-19.61-2.74s-12.95.14-19.61,2.74c-4.21,1.64-5.42,6.23-5.65,10.07a5.58,5.58,0,0,0,5.6,5.87h2.26c3.1,0,5.31-2.31,5-6.87a97.41,97.41,0,0,1,12.37-1.64,97.4,97.4,0,0,1,12.37,1.64c-.27,4.55,1.94,6.87,5,6.87h2.26a5.58,5.58,0,0,0,5.6-5.87C755.54,1088.13,754.33,1083.53,750.12,1081.89Z"/><circle class="cls-4" cx="873.16" cy="1088.49" r="36"/><polygon class="cls-11" points="894.48 1078.55 883.7 1084.77 883.7 1077.01 851.84 1077.01 851.84 1099.96 883.7 1099.96 883.7 1092.2 894.48 1098.42 894.48 1078.55"/><circle class="cls-4" cx="587.86" cy="1088.49" r="36"/><path class="cls-18" d="M600.45,1071.93v15.72a12.59,12.59,0,0,1-12.59,12.59h0a12.59,12.59,0,0,1-12.59-12.59v-15.72"/><path class="cls-11" d="M592.73,1106.75h-3.35v-11.61a8.89,8.89,0,0,0,7.38-8.75v-13a8.89,8.89,0,0,0-8.89-8.89h0a8.89,8.89,0,0,0-8.89,8.89v13a8.89,8.89,0,0,0,7.38,8.75v11.61H583a5.79,5.79,0,0,0-5.79,5.79h21.31A5.79,5.79,0,0,0,592.73,1106.75Z"/><path class="cls-10" d="M743.66,843.17c-22.06,1.94-48.6-3.82-64.57-9.85-11.64-4.4-19.94-15.3-24.92-23.84a31.13,31.13,0,0,0,8.8,4.11c13.31,2.93,49.6,6.51,74.13,1.68l.5.54A216.13,216.13,0,0,0,743.66,843.17Z"/><path class="cls-4" d="M934.26,280.64V501.7a21.71,21.71,0,0,1-21.71,21.71H844.7c-3.56-19.51-4.9-35.09-5.15-38.26-.2-.1-.39-.2-.58-.31-21.09,10.94-45.14,11.92-65.32,9.67V280.64a21.71,21.71,0,0,1,21.71-21.71H912.55A21.71,21.71,0,0,1,934.26,280.64Z"/><g class="cls-19"><path class="cls-2" d="M931.45,571.61l-77.39-9.91-4.28-.55c-12.15-42.15-14-70.85-14-70.85-29,15.17-67.71,8.4-92,2.8l.63-4.34c6.83-46.45,15.08-101.83,15.48-101.83.7,0,82.38,9.85,82.38,9.85l6.4,30.07.63,3s-6.78,16.26-10.88,30.5c-.37,1.34-.73,2.66-1.06,3.94-1.24,4.91-2,9.36-1.91,12.49.15,4.21,1.27,6.63,3.49,8,.18.11.38.21.58.31,4.69,2.36,13.64,1.08,28.08,1.53,22.52.7,59.84-4.22,71.34,35S931.45,571.61,931.45,571.61Z"/><path class="cls-10" d="M849.33,429.88s-6.78,16.26-10.88,30.5c-20.44,6.64-33.78-4.79-40.09-12.32-7.64-9.16-15.15-43.43-15.15-43.43L842,422.25s2.94,1.77,6.71,4.62Z"/><path class="cls-6" d="M874.12,412q-.53,1.1-1,2.17c-7.23,16-6,26.83,2.92,34.55,9.34,8.06,27.51-2.33,26.38-2.33s-13.65.85-13-9.76,17-11.46,18.25-18.68-1.27-12.31-6.58-19.1-7.08-12.73,1.34-18.68,20.94-5.94,23.7-24.83S922.72,307,913.6,284.5,884.73,241,883.25,241s-137.1,5.09-137.1,5.09l2.33,155.56Z"/><path class="cls-2" d="M765.35,383.6c6.61,17.34,33.58,54.77,49.54,59.17s40.73-4.68,53.67-15.69,14.59-18.17,19.27-40.46,14.59-61.93,14.59-61.93S888.1,271,862,269.11c0,0-7.48,22.81-24.22,28.35-38.26,12.66-37.71,10.73-47.61,33S765.35,383.6,765.35,383.6Z"/><path class="cls-3" d="M765.35,383.6c6.61,17.34,33.58,54.77,49.54,59.17s40.73-4.68,53.67-15.69"/><path class="cls-3" d="M806.24,308.66c12.46-4.93,27.26-5.91,39.69-1.09"/><path class="cls-3" d="M872.63,316.84c11.12-1.3,19.56,2.39,27.77,16"/><path class="cls-3" d="M873.63,352.62a23.22,23.22,0,0,0,13-2.41"/><path class="cls-3" d="M812.09,336c3.71,4.63,10.57,6.3,11.68,6.3"/><path class="cls-3" d="M824.05,374.13c7.79,5.75,16.87,13.38,23.92,12.81a53.7,53.7,0,0,0,11.94-2.26"/><path class="cls-3" d="M858.17,331.86c-5.1,4.45-8.53,18.35-10.2,55.08"/><circle class="cls-10" cx="823.11" cy="342.27" r="5.18"/><circle class="cls-10" cx="873.63" cy="352.74" r="5.18"/><path class="cls-10" d="M853.06,405.37s-2.18,8.38-8.31,10.63-14.65,2.49-17.57,1.22c-5.49-2.39-17.36-15.12-13.27-24.92,1.18.62,2.58,1.28,4.12,1.94,9.87,4.27,26,9.09,32.35,10.63A13.53,13.53,0,0,0,853.06,405.37Z"/><path class="cls-10" d="M853.06,405.37c-1.67-5.37-8.4-6.65-12.25-6.33a22.5,22.5,0,0,0-13.72-5.41,92.1,92.1,0,0,1-13.18-1.31s-2.42,10.74,11.2,16.5S849.28,416.67,853.06,405.37Z"/><path class="cls-8" d="M790.34,647.39,685.7,585.66,729.79,484a145.55,145.55,0,0,0,14.64,4.8C765.65,494.69,806,502,839,484.83c.18.11.38.21.58.31.41,5.11,3.63,42.51,14.51,76.56,4.86,15.2,11.23,29.73,19.57,40.43C902,638.58,790.34,647.39,790.34,647.39Z"/><path class="cls-3" d="M850.39,406.48c-.66,0-27.94-4.84-39.92-15.92"/><path class="cls-13" d="M839,484.83c-.85.43-18.58,36.76-53.66,54.55"/><path class="cls-11" d="M850.39,404.88c-.91,2.22-2.13,4.53-3.28,4.94-2.29.82-27.72-8.71-28.7-10.26-.56-.89-.53-3.29-.37-5.31C827.91,398.51,844,403.34,850.39,404.88Z"/><circle class="cls-5" cx="787.7" cy="362.62" r="20.21"/></g><path class="cls-12" d="M575.6,491.5c12.6-40.52-3.88-92.33-28.59-84.41-20.87,6.7.63,52.26.63,52.26s-39.21-35.12-54.42-1.63C482.93,480.35,530.56,506.83,575.6,491.5Z"/><path class="cls-12" d="M592.47,347.54c14.82-12,21.63-35.38,10.44-38.6-9.45-2.72-12.83,19.63-12.83,19.63s-5.83-22.89-19.87-14.21C560.73,320.23,571.86,342,592.47,347.54Z"/><path class="cls-12" d="M653.08,427.75c-16.34-22.1-17.31-57.3-.51-57.72,14.19-.35,10.75,32.1,10.75,32.1s16.49-29.84,32.94-12.6C707.38,401.19,683.89,427.53,653.08,427.75Z"/><line class="cls-3" x1="692.29" y1="765.1" x2="743.02" y2="750.32"/></svg>