<svg id="Layer_1" data-name="Layer 1" xmlns="http://www.w3.org/2000/svg" viewBox="0 0 2267.72 1700.79"><defs><style>.cls-1,.cls-14,.cls-3,.cls-5{opacity:0.25;}.cls-11,.cls-13,.cls-16,.cls-17,.cls-2,.cls-7{fill:none;stroke-linecap:round;stroke-linejoin:round;}.cls-17,.cls-2{stroke:#505c7b;}.cls-2{stroke-width:3px;}.cls-3{fill:#505c7b;}.cls-4{fill:#fcc9a1;}.cls-15,.cls-5{fill:#63cdf6;}.cls-19,.cls-6,.cls-8{fill:#dc6437;}.cls-6{opacity:0.75;}.cls-7{stroke:#dc6437;}.cls-11,.cls-13,.cls-16,.cls-17,.cls-7{stroke-width:2px;}.cls-10,.cls-15,.cls-18,.cls-8{opacity:0.5;}.cls-9{fill:#2c2f53;}.cls-10,.cls-14{fill:#f06082;}.cls-11{stroke:#2c2f53;}.cls-12{fill:#fff;}.cls-13{stroke:#f06082;}.cls-16{stroke:#54c3e5;}.cls-19{opacity:0.3;}</style></defs><title>Pria menemani pasangannya berbelanja</title><g class="cls-1"><path class="cls-2" d="M1415,923.62c21.7,4.63,46.88,8.1,46.88,8.1s-8.68,39.06-14.76,71.18-10.71,54.11-10.71,54.11"/><path class="cls-2" d="M1432.89,1072.64c-4.63,20.55-6.37,26-6.37,26"/><path class="cls-2" d="M1424.21,1116.62c-4.92,17.65-9.26,44-9.26,44"/><line class="cls-2" x1="1387.11" y1="1155.8" x2="1407.41" y2="1161.32"/><polyline class="cls-2" points="1372.61 1153.87 1338.06 1147.35 1334.19 1161.32 1300.85 1155.81"/><line class="cls-2" x1="1381.07" y1="931.81" x2="1372.37" y2="976.03"/><line class="cls-2" x1="1370.15" y1="993.67" x2="1359.08" y2="1043.93"/><line class="cls-2" x1="1355.94" y1="1059.15" x2="1347.97" y2="1099.96"/><line class="cls-2" x1="1338.06" y1="1147.35" x2="1346.03" y2="1116.62"/><path class="cls-2" d="M1282.48,1151.7s-23.92-4.11-23.68-4.35,4.11-27.79,4.11-27.79"/><path class="cls-2" d="M1267.26,1100c0-.46,10.39-48.79,10.39-47.82"/><line class="cls-2" x1="1279.34" y1="1038.13" x2="1290.94" y2="978.93"/><path class="cls-2" d="M1294.08,965.15c0-1,7.49-38.18,7.49-38.18"/><path class="cls-2" d="M1379.57,976a116,116,0,0,1,13.49,1"/><path class="cls-2" d="M1408.82,978.93c23,3.61,36.78,6.27,36.78,6.27"/><path class="cls-2" d="M1406.6,1018.8c18.83,1.85,36.49,4.81,36.49,4.81"/><path class="cls-2" d="M1372.37,1018c10.74.66,14.95.81,14.95.81"/><path class="cls-2" d="M1319.08,985.2c23.93,3.55,45.54,6.2,45.54,6.2"/><line class="cls-2" x1="1298.91" y1="982.06" x2="1304.68" y2="983.43"/><line class="cls-2" x1="1290.94" y1="1031.29" x2="1298.91" y2="1031.29"/><path class="cls-2" d="M1314.2,1033.65c13.52.74,41.37,4.48,41.37,4.48"/><path class="cls-2" d="M1081.38,1046.2c-6.31,7.15-47.54,65-58.9,92.43s-15.57,32.94-18.51,35c0,0,28.19,3.37,50.49,2.94s52.59-2.94,63.53-8,66.43-47.66,70.66-49.07"/><path class="cls-2" d="M1089.79,991.4s1.81,14.89,1.68,21.25c0,1.92-1.79,8.43-3.23,14.33"/><path class="cls-2" d="M1022.2,984.23q4.4-.46,9.11-.81a147.19,147.19,0,0,1,50.94,5.46"/><path class="cls-2" d="M961.45,1016.73c6.23-8.79,11.11-15.37,12.23-17.85,2-4.48,13-9,30.29-12.1"/><path class="cls-2" d="M919.05,1107.15a373,373,0,0,1,11.71-37.8,134.51,134.51,0,0,1,6.71-14.73"/><path class="cls-2" d="M911.41,1135.63a113.19,113.19,0,0,0,3.25-11.12"/><path class="cls-2" d="M913,1140.41c9.82,12,24.63,22,42,22.73s42.2,7.15,42.2,7.15"/><path class="cls-2" d="M961.45,1060.74c23,1.39,48.85,8.32,48.85,8.32"/><path class="cls-2" d="M1001.06,1163.31c4.39-2.31,4.39-9.75,5.78-17.46l3.47-19.27"/><path class="cls-2" d="M1014.46,1107.15a77.94,77.94,0,0,1,6.24-15"/><path class="cls-2" d="M1032.94,1069.06c9-19.87,14.78-28.18,14.78-28.18"/><path class="cls-2" d="M1059,1040.87c3.7,3.23,8.09,10.86,8.09,10.86"/><path class="cls-2" d="M1034.09,1079c2.31,5.78,4.39,10.86,4.39,10.86"/><path class="cls-2" d="M1059,1024.24c7.85-10.63,18.71-23.33,21.25-24"/><path class="cls-2" d="M884.86,955.17c13.4,21.71,35.81,59.37,35.81,59.37"/><path class="cls-2" d="M867.77,951C865,960.25,860.84,973,860.84,973l18,32.34"/><path class="cls-2" d="M893.87,1030c.69.46,25.18,52,25.18,52"/><line class="cls-2" x1="930.14" y1="1033.65" x2="937.48" y2="1046.3"/><path class="cls-2" d="M873.05,932.22a206.7,206.7,0,0,1,40-23.87"/><path class="cls-2" d="M933.84,858.31c-4.67-20.11-9.13-31.67-20.79-39s-20.73-11.05-20-14.26c1.45-6.39,10.06-3.44,9.81-5.9s-10.57-6.64-11.8-10.82-.49-9.26,6.88-9.18c0,0-17.21-5.33-11.06-12s5.65-4.92.74-10.08-7.87-15.24,3.69-15.49c0,0-11.8-17.75-4.43-23.38S908.56,733,908.56,733s-5.21-17.7-4-25.32,8.11-16,12.78-8.11,14.26,34.65,14.26,34.65-4.67-15.05,1.23-24.11,12-11.66,13.28,1.93,2.46,30.56,2.46,30.56,6.64-11.8,12-10.08,2.7,17.65-1.48,28.37c0,0,6.53.15,4.5,8s-1.3,10.57,1.4,11.31,5.51-1.72,3.86,14.51-1.16,38.35,4.25,55.07"/><path class="cls-2" d="M928.23,863.77c6.59-7.87,12.74-10.08,23.8-12.54s27-2.21,31.22,0,10.33,14.26,10.33,14.26"/><path class="cls-2" d="M1028.46,1176.66c23-10.31,46.69-36.25,46.69-36.25"/><path class="cls-2" d="M1080.29,1135.63c5.78-6.56,13.69-13.71,13.69-13.71"/><path class="cls-2" d="M1106.78,1107.15c7.15-7.45,11.2-12,11.2-12"/><path class="cls-2" d="M1132.39,1082c11.3-12.79,19.2-21.25,19.2-21.25"/><path class="cls-2" d="M1194.52,1035.89c9.41-3.59,16-11.65,16-11.65"/><path class="cls-2" d="M1097.8,1030.06c5.47-3.71,17.15-8.09,17.15-8.09"/><path class="cls-2" d="M1130.83,1016.73a76.13,76.13,0,0,1,12-4.07s29.38-.2,66.06,0"/><path class="cls-2" d="M1223,1013.76c5.66,0,6.75.89,6.75.89l1.09,20.28"/><path class="cls-2" d="M1218.65,1098.13c4.58-9.67,8.26-17.65,8.26-17.65,4.46-11,3.92-31.88,3.92-31.88"/><path class="cls-2" d="M1270.64,1071.37c-16.24,1.68-45,11.77-45,11.77"/><path class="cls-2" d="M1230.84,1053.14a78.05,78.05,0,0,0,16.28,12.62"/><path class="cls-2" d="M1258.8,1065.76a169.06,169.06,0,0,0,10.88-13.63"/><path class="cls-2" d="M1146.53,1163.31c20.45-1.42,34-6.83,56-13.17s52.12-12.69,53.53-15.51"/><path class="cls-2" d="M923.2,878.19c.51,15.67,5.41,45.3,15.42,58.89"/><path class="cls-2" d="M947.72,945.17c12.64-12.39,29.53-22.75,49.52-26.54"/><path class="cls-2" d="M949.49,855.7c1,.25,15.92,11.88,15.92,11.88"/><path class="cls-2" d="M951.26,865.49c1-.69,13.14-9.79,13.14-9.79"/><line class="cls-2" x1="973.18" y1="869.51" x2="981.59" y2="858.31"/><path class="cls-2" d="M980.07,896.64c1.26.25,13.51,11,13.51,11"/><line class="cls-2" x1="977.38" y1="913.67" x2="993.58" y2="890.83"/><line class="cls-2" x1="959.6" y1="884.51" x2="972.48" y2="892.85"/><path class="cls-2" d="M957.83,909.79c1.26-.76,22.24-25.28,22.24-25.28"/><path class="cls-2" d="M947.72,925.56c.76-1.62,6.07-6.93,6.07-6.93"/><path class="cls-2" d="M937.48,916.61c1.14-1.26,16.31-22,16.31-22"/><path class="cls-2" d="M930.91,894.62c.88-2.27,7.71-12.89,7.71-12.89"/><path class="cls-2" d="M928.23,884.51c1.54.51,12.44,11.63,42.5,25.28"/><path class="cls-2" d="M940.7,959c-3.71,6.34-3.22,16.39-3.22,16.39"/><path class="cls-2" d="M1023.74,920.28c-11.58-3.86-12.24-2.55-12.24-2.55"/><path class="cls-2" d="M1139,988.3c11.1,6.8,28.59,20.23,28.59,20.23"/><path class="cls-2" d="M1197.87,976c-3.33,14.35,1,26.56,4.66,29.89"/><path class="cls-2" d="M1225.69,943.19c20.2-11.38,54.83.9,61.94,22"/><path class="cls-2" d="M1230.57,1030.06c12.09,4.35,34.42,9,51.91-4"/><path class="cls-2" d="M1238.52,914.47c-2.13,7.38.82,16.88,3.28,18.68"/><path class="cls-2" d="M1243.27,899.89c10.33-16.06,25.69-32.63,60-22.38"/><path class="cls-2" d="M1244.09,899.89s-4.43-26.55-20.16-32.94"/><path class="cls-2" d="M1143.62,884.77c10-16.51,31-35.69,67.86-23.72"/><path class="cls-2" d="M1222.62,915.13c4.43,2.13,7.31,11.72.16,16.68"/><path class="cls-2" d="M1127.24,915.13c13.76,7.21,21.79,9.39,34.25,10.43s21.31,1.78,29.34,6.25,12.95,1.68,15.73,1.35,4.59,8.2,1.15,15.08a29.91,29.91,0,0,1-9.18,10.65"/><path class="cls-2" d="M1132,900.87c14.59,2.29,19,6.88,31.47,8.69s33.44.33,40,2"/><path class="cls-2" d="M1112.81,907.64c-12.95-6.93-20.16-11.69-20.16-11.69"/><path class="cls-2" d="M1087.89,856.29c6.72,11.31,18.15,22.78,22.68,26.06"/><path class="cls-2" d="M1092.65,853.67c3.61-.66,7-8.36,5.74-10.33s-14.26-10-24.26-12.62-27.37-1.8-28.52,0,0,6.88,0,6.88-21.55,6.06-28,35.4"/><path class="cls-2" d="M1014.3,891.53c2.62,19.67,15.57,48.19,33.11,59.5"/><path class="cls-2" d="M1051.51,893.82c5.08,15.73,18.68,46,61.3,58.18"/><path class="cls-2" d="M1128.38,981c7.21-3.11,11.64-11.15,9.67-12.95"/><path class="cls-2" d="M1066.26,967.09c13.28,7.54,32.29,11.64,47.86,10.82"/><path class="cls-2" d="M1133.45,955.61c12.66,3.28,23.45,3.93,44.1,4.26"/><path class="cls-2" d="M1051.51,841.17c14.61,9.85,28.75,9.05,33.09,12.94"/><path class="cls-2" d="M1068.05,860.59c4.2,9.3,13.17,18.94,13.17,18.94"/><path class="cls-2" d="M1051.51,852c.8,4.9-1.91,17.08-1.74,23.17"/></g><path class="cls-3" d="M837.65,1448.34a43.86,43.86,0,0,1-60,40.79,48.11,48.11,0,0,0-27.12-33.47A43.88,43.88,0,0,1,770.81,1411l46.78.51A43.83,43.83,0,0,1,837.65,1448.34Z"/><path class="cls-3" d="M1381.45,1448.34a43.86,43.86,0,0,1-60,40.79,48.11,48.11,0,0,0-27.12-33.47,43.84,43.84,0,0,1,12.73-38.81l61.7.67A43.71,43.71,0,0,1,1381.45,1448.34Z"/><circle class="cls-3" cx="730.77" cy="1499.42" r="56.68"/><circle class="cls-3" cx="1274.57" cy="1499.42" r="56.68"/><path class="cls-4" d="M594.33,1360.78c20.41,8,43.08,17.54,67.46,21,0,0-16.76,42.73-18.67,52.3,0,0-10.52,2.87-7,24.24,0,0-26.47,8-35.72,8s-15.63-5.74-19.45-11.48-12.12-12.76-13.71-13.39c0,0,8.29-20.41,12.12-30.29S594.33,1360.78,594.33,1360.78Z"/><path class="cls-4" d="M310.31,1337.8a255.4,255.4,0,0,1-16.45,30.48s9.54,11.22,12.15,16.83,7.85,22.25,11,25.05,17.58,10.28,31.22,10.1,19.82-2.8,19.82-2.8,1.5-28,11.41-40.76C379.49,1376.69,335.55,1361.36,310.31,1337.8Z"/><path class="cls-5" d="M680.08,1511.39c-4.33-32.78,13.75-45.07,13.75-45.07a182.4,182.4,0,0,1-18.45-7.81c-8.6-4.34-16.77-11.83-16.77-11.83a157.67,157.67,0,0,0-16.77,1.7c-9.64,1.47-32.07,9.22-40.67,10.06s-13.63-6.29-18.45-13.84-10.31-16-12.86-9.67c-.37.91-4.54,10.56-6.7,15.25s-6,15.29-6.85,33.85-5.89,22.4,12.23,24.06c24.47,2.24,28.32-2.45,42.82-2.45,5.71,0,9.18,2.85,22,4.08S680.08,1511.39,680.08,1511.39Z"/><path class="cls-4" d="M1053.35,224.49c-2.92,4.65-9.94,9.38-14.43,12.09-1.15-7.17-2.21-13.21-2.21-13.21s-21.5.82-30.93,0c-8.83-.77-23-8.11-28.21-9.52l.05-.22c-44-14-72.6-9.21-72.6-9.21s-3.35-8.49,0-15.37,17-16.4,34.77-15.79a135.69,135.69,0,0,1,41.07-3.65c23.29,1.41,57.11,20.86,65.81,32.8S1057.8,217.41,1053.35,224.49Z"/><path class="cls-4" d="M703.05,729.4c-2,4.81-2.81,12.1,1.22,13s7.29-3.1,7.29-3.1-1.4,6.67,2,9,9,0,9,0,7.13,7.44,10.55,5.12,6.66-7.37,6.66-7.37,4.8,9.22,9.78,5.51c1.66-1.24,2.33-9,2.33-9S732.07,735,703.05,729.4Z"/><path class="cls-4" d="M701.07,673.62c21.81,10.84,37.87,14.91,39.7,15.89s9.79,23.64,9.79,23.64-43.34-11.26-55.45-10.55-14.92,7.18-14.78,12c0,0-13.09-.42-18.43-4.64s-6.36-13.3-6.36-13.3C673.81,688.79,694.24,679.38,701.07,673.62Z"/><path class="cls-4" d="M800.89,707.11c-.56,1.48-4.26,3-4.26,3a4.12,4.12,0,0,1-1.48,4.49c-2.41,2-7.77,2.35-10,2s-4.06,4.07-4.06,4.07L753,713.75c4-1.1,10.88-3.15,14.83-5.06,5.74-2.76,6.41-5.79,5.81-9.94a14,14,0,0,0-6-9.67c-3.22-2.33-9.21.27-11.55.77-1.94.42-13.76,4-13.76,4-1.58-3.34-3.16-2.65-3.16-2.65l-2.61,4.33-4.14-1.41S744,675.62,754,665.92c0,0,14,2.15,21,2.33s18.88.38,22.58,5.38,2.77,7.95,3.33,18.68S801.44,705.64,800.89,707.11Z"/><path class="cls-4" d="M893.78,304c4.8-8,6.79-11.23,4.92-22s-7.73-31.39-7.26-38.65,3.75-24.12,13.58-38.88c0,0,28.57-4.77,72.6,9.21l-22.25,81.43Z"/><path class="cls-6" d="M1053.35,224.49c-2.92,4.65-9.94,9.38-14.43,12.09-1.15-7.17-2.21-13.21-2.21-13.21s-21.5.82-30.93,0c-8.83-.77-23-8.11-28.21-9.52l.05-.22c-44-14-72.6-9.21-72.6-9.21s-3.35-8.49,0-15.37,17-16.4,34.77-15.79a135.69,135.69,0,0,1,41.07-3.65c23.29,1.41,57.11,20.86,65.81,32.8S1057.8,217.41,1053.35,224.49Z"/><path class="cls-7" d="M982.7,218.68c5.89-7.13,32.87-16.59,47.91-12.71s18.45,15.19,18.45,17.83-5.58,6.67-5.58,6.67"/><path class="cls-7" d="M999.22,216.84c3.89-5,14.88-11.08,14.88-11.08"/><path class="cls-7" d="M1000,226.39a140.22,140.22,0,0,1,20.16-15.68"/><path class="cls-7" d="M1009,227.92c14.86-13.56,20-14.28,20-14.28"/><path class="cls-7" d="M1036.7,223.38c3.31.54,9.56-.76,9.56-.76"/><path class="cls-7" d="M960.2,204.12c10.13-11.69,33.47-24.31,49.92-22.89"/><path class="cls-7" d="M945.33,207.52c-.24-9.32,15.8-27.95,34.19-30.54"/><path class="cls-7" d="M920.92,199.86c-.47-6.84,8.7-24.49,18.86-26.59"/><path class="cls-8" d="M893.78,304c4.8-8,6.79-11.23,4.92-22s-7.73-31.39-7.26-38.65,3.75-24.12,13.58-38.88c0,0,28.57-4.77,72.6,9.21l-22.25,81.43Z"/><path class="cls-4" d="M1031.94,279.64c-1.75,5.48-.57,13.55,0,22s-7.29,27.22-12.59,34.88-7.07,14.14-9.13,19.73-15.6,7.65-23.26,6.19a54.78,54.78,0,0,1-12.75-4.65c-2.43-1.19-4-2.12-4-2.12-14.16,3.72-24.3,8.83-31.48,13.87-13.28,9.34-16.51,18.52-16.51,18.52-8.23-2.65-14.72-15.31-22.08-29.45s-18-29.45-21.5-51.24c16.39-8.77,43-25.44,43-25.44-7.67-21.63,7.47-25,11.64-24,7.12,1.78,7.94,10.14,7.94,10.14s16.29-22.19,15.33-24.23-4-8.9-2.61-13.28,18.62-17.52,22.73-17,19.71,8.9,29.15,9.72,30.93,0,30.93,0,2.23,12.74,3.76,23.21c.69,4.76,1.23,9.06,1.35,11.48a8.88,8.88,0,0,1,0,1.72C1041.08,263.48,1033.69,274.16,1031.94,279.64Z"/><path class="cls-7" d="M1231.31,255.35c3.17-8.76,17.94-6.86,25.23-21s13-25.54,31.77-29.24,29.55-20.58,29.55-20.58"/><path class="cls-7" d="M1230.43,293.15c1.26,23.77-5.51,37.26-15.78,47.12-23.77,22.83-41.23,19.56-54.7,42.29-18,30.38-4.63,55.12-15.36,73.21-12,20.18-43.55,10.73-46.28,35.34"/><path class="cls-7" d="M1132.46,313.58c21.24-12.87,35.54-20,41-36.46a507.55,507.55,0,0,1,26.21-62.2c10.72-21.21,21.25-31.22,30.88-31.46s19.89,2.86,14.52,9.06-25.08,0-13.79-14.06,27.84-24.79,43.28-23.36,19.49-2.38,19.49-2.38"/><path class="cls-7" d="M1283.21,145.47c13.69,8.92,32.4,21.33,41,41.3"/><path class="cls-7" d="M1090.73,411.66c20.93-18.39,33.44-24.94,41.74-46.52s17.75-36.86,43.94-46.56,46.07-17.94,47.77-50.44"/><path class="cls-6" d="M1233.3,274.11s10.44,30.48,10.75,50.65-10.16,23.11-13.42,33.39c-5.73,18.11-34.81,26.79-42,44.8-10.41,26.19,8.85,40.69-5.36,67.89S1143,487.1,1143,520.17c0,0-27.23,2.47-44.68-13.29s-24.24-34-38.46-39.25c0,0,4-33,23.11-48.83s20.18-25.83,20-49.7,16.28-48,43-65.76c9.33-6.23,16-23.87,18.54-42.75s21.17-68.8,35.5-88.11,38.2-27.35,72.92-27.78,53.61,28.86,55.56,32.34-.1,23.87-1.14,28.21S1233.3,274.11,1233.3,274.11Z"/><path class="cls-4" d="M1339.59,260.41c-.45,11.43-5.84,31.16-7.18,41s-.67,14.34-4,18.62-14.36,9.87-20.18,9.19c-2.44-.27-6.65-1.12-10.7-2-5.62-1.22-11-2.5-11-2.5-4.76,5.56-9.13,13.4-12.55,20.53-4.59,9.53-7.5,17.81-7.5,17.81s-15.46-2.47-35.85-4.95c9.41-29,7.28-58.52,2.67-72-7-2.47-13.84-9.61-14-21.86-.11-9.4,5.43-16.44,18.23-12.68,14.36,4.2,22.86.77,31.16-15.47,8-15.76,13.93-21.6,22.88-25.56,23.31-10.32,23.76-34.54,23.76-34.54,14.8,14.13,21.08,35.65,24.22,48.21S1340,249,1339.59,260.41Z"/><path class="cls-9" d="M1286.53,324.76c-4.76,5.56-9.13,13.4-12.55,20.53-6.41-5.41-15.68-13.75-17.54-16.76-2.41-3.89-4.24-15.71-4.76-19.41l-.15-1.13c2.46,4.17,5.48,7.84,9.52,9.17C1269.19,319.84,1286.53,324.76,1286.53,324.76Z"/><path class="cls-4" d="M1273.65,361.13c9.64-1.35,33.81,9.86,44.54,31s9.81,32.25,11,52.94.5,66.48,0,95.41-1.46,41-1.65,66.67-2.3,66.86-2.3,87-1,66.86-1,86.4-1.92,52.49-1.34,54,40.42,18.78,42.53,20.69,9.39,40.62,8.43,42.34-9.2,16.28-11.5,16.67-12.26-1-12.26-2.49c0,0-9.77,11.69-11.88,11.69s-4.6-6.51-4.6-6.51-6.13,8.81-8.24,8.62-7.47-8.81-4.6-12.84,9.58-12.45,9.58-12.45l-8.81-27.21s1.72,27.4,1.34,29.5-16.28,19.73-18.78,20.31-8.81-7.09-7.09-11.69,9-13,9-13l-3.64-26.06s-25.29-6.13-26.63-22.61,3.4-18.89-.38-45.41c-3.39-23.78-11.88-83.72-14.18-105s.19-53.64,0-74.72-1-61.31-3.26-81.62-12.64-89.85-16.86-113.42S1242.33,365.51,1273.65,361.13Z"/><path class="cls-10" d="M1266.91,703.83c-18.14,6.16-30.69,8.17-32.74,8.17s-12.32-36.62-18.48-57.49-29.09-93.42-38.33-124.91S1165,479.3,1165,479.3s17.45-11,15.74-31.14-10.27-50,17.45-68.44,26.35-26,26.35-26,33.54,2.05,61.94,11c0,0-29.82-2.94-36.65,31.21-5.24,26.21-1,34.5,3.11,69.06s14.58,72.41,13.22,149.75S1266.91,703.83,1266.91,703.83Z"/><path class="cls-10" d="M1319.39,690.89c19.74-4.43,68.59-25.38,72.21-31.42s-.4-14.5-5.64-44.31-12.08-78.54-12.89-94.66-10.07-21.75-19.74-44.31-33-65.25-33-65.25,4.83,52.36,3.63,100.29S1319,657.06,1319.39,690.89Z"/><path class="cls-11" d="M1233.3,286.19a11.43,11.43,0,0,0,6.69,0"/><path class="cls-11" d="M1286.53,324.76s-17.35-4.93-25.49-7.61c-4-1.32-7.05-5-9.52-9.17s-4.47-9-6.43-12.42"/><path class="cls-11" d="M1241.63,252.67c-.21,14.75-.58,28-.58,28"/><path class="cls-11" d="M1289.8,235.66c5.82-11,25.1-13.57,28.75-8.44"/><path class="cls-11" d="M1342,220.91c-10,3.1-15,14.5-11.7,26.2s10.3,20.9,11.2,23-5.3,5.5-16.4,4.1"/><path class="cls-11" d="M1335.72,240.15s6.82,1,9.25-3.23"/><path class="cls-11" d="M1296,242.73c2.14,2.38,8.56,5.47,12.45,4"/><path class="cls-9" d="M1329.9,274.53c-5.6-3-8.91-2.36-9.29-.84S1323.6,277.05,1329.9,274.53Z"/><circle class="cls-9" cx="1335.03" cy="240.48" r="3.56"/><circle class="cls-9" cx="1307.74" cy="246.68" r="4.8"/><path class="cls-9" d="M1296,287.32c.78-1.82,4.27-.84,15.73-.65s15.1.08,15.55,1.67-3,19.58-14.71,19.64C1297.39,308.05,1293.39,293.34,1296,287.32Z"/><path class="cls-12" d="M1298.24,288.79a6,6,0,0,0,2.65,4.84c1,.46,14.86.93,17.31.73s3.52-4.91,3.45-5.24S1298.29,288,1298.24,288.79Z"/><path class="cls-11" d="M1321.64,873.06c-.3-8.95,0-10.6,0-10.6"/><path class="cls-11" d="M1341.53,863.91c-.21,7.21,1,10.3,3.09,20.61s3.5,16.28,2.06,17.93-13,14.49-13,14.49"/><path class="cls-11" d="M1350.19,911.76c5-5.18,10.06-9.4,10.7-10.68s-2.94-34-3.45-36.27-2.94-4.6-2.94-4.6"/><path class="cls-13" d="M1234.17,712c-.46,16.69.28,21.52,3.25,35.64s7.8,38.63,8.54,47.18,1.76,39.49,27.12,67.65"/><path class="cls-13" d="M1393,663.81c-.24,6.7,10.38,36.5,18.24,50.36"/><path class="cls-13" d="M1396.68,757.83c9-9.93,16.4-28.87,16.4-28.87"/><path class="cls-13" d="M1421.16,735.42c-1.39,10.16-6.93,24.95-6.93,24.95"/><path class="cls-13" d="M1421.16,722.45c41.64.33,230.13-8.41,239-8.29"/><path class="cls-13" d="M1424,877.51c37-2.85,132.67-17.73,212.15-35.78"/><path class="cls-13" d="M1638,833.81c6.33-13,21.85-37,28.18-41.48"/><path class="cls-13" d="M1516,865c14.92,13.94,83.83,96.41,83.83,96.41"/><path class="cls-13" d="M1632.95,857.46c-3.65,2.92-3.28,5.47-4.38,14.6s-16.79,83.22-21.53,109.86-18.25,75.55-25.18,82.85c0,0,20.44,4.38,61.68,0s83.58-15.33,83.58-15.33"/><path class="cls-13" d="M1680.4,711.83c9.49,2.19,40.88,27.74,46.72,48.18s5.11,41.61,3.65,49.64-3.65,17.15-3.65,28.83,2.19,60.59-1.82,201.48"/><path class="cls-13" d="M1727.69,905.79c31.08,37.25,75.39,74.17,95,93.75s61.13,57.59,61.13,57.59c-29.39,51-106.34,98.6-106.34,98.6s-70.27-68.67-94.59-96.75"/><path class="cls-14" d="M1813.79,1118.71c16.1-11.1,56-50.4,59.88-59,0,0,13.43,11.22,23.7,13.44s43.3,4.44,56.35,6.11,33.59,11.38,37.75,26.65c-4.51,13-69.75,36.57-74.62,34.35-27.71-2.3-43.73,3.77-45.56,13.4,0,0-19.71,9.44-51.9,7.22C1819.38,1160.84,1813.24,1127.87,1813.79,1118.71Z"/><path class="cls-13" d="M1811.52,1147.37c11.91,1.12,47.86-4,50.33-5.17s13.26-12.58,30.11-12.58,17.08.9,35-5.62,55.49-24,55.49-24"/><path class="cls-14" d="M1589,1059.69c30.72-.05,67.92-2.22,83.49-7,0,0-.87,35,5.62,49.32s10,33.74,20.33,43.69,33.36,29,21.8,57c0,0-32.18-.74-53.38-13.71s-27.69-16.87-33.74-29.85-19.9-24.23-35-26.39-29.42-22.31-29.42-22.31Z"/><path class="cls-13" d="M1710.75,1191.72c-31.25-11-58.18-18.47-68.15-36s-27.59-27.5-36.57-30.49-26.81-17.31-33.18-25.28"/><path class="cls-15" d="M859,305.12c6.9-6.84,22.94-5.43,25.35,3s.6,6.64,6.94,19.92,23.84,48.89,29,51.31,8.85,13.67,3.3,16.62-3.67,4.83-4.21,10.84c-3.79,42.58-5.85,78.45-11.63,88.76S876,539.7,831.47,588.35,751.06,670,736.63,695.51l-33.58-15.35s-32.33,15.92-39.27,18.7c0,0-6.11,10.89,25,9.78,0,0-5,7.4.81,10.73s20.51,5.81,20.51,5.81-3.76,9.74-2.74,9.92,8.52-2.63,9-1.1-2.83,14.77,7.21,10.41c0,0,5.72,5.84,16.61,1.48l.18,15s-50.19,0-133.59-14.6C565,738.93,522,728.54,504.07,711.94c0,0,1.83-13.51,10.77-32.12s37.6-70.08,48.91-82.67c0,0-19.89-36.14-28.29-52.74s-13.14-39.24-13-44.71.55-27.56,11.86-42.16,21.17-21.35,56.58-38.69,102.38-53.66,118.26-62.42,33.59-17.91,56.21-19.16c3.29-.18,29.38-12.59,47.09-17.16S853,311.12,859,305.12Z"/><path class="cls-6" d="M967.76,249.72c11.6-3.11,29.54-6.4,40.29,4.09,0,0,4.52-4.4,3.91-8.43s-3.72-7.32-5.3-7.69c-9.57-2.24-27.57,2.12-32.82,5.53S967.76,249.72,967.76,249.72Z"/><path class="cls-6" d="M1041.81,258.07c-4.08-.12-9.26.74-12.76,4.95,2.17-9.55,2.57-14.37,2.88-15,.21-.43,4.66-1.68,8.53-1.43C1041.15,251.35,1041.69,255.65,1041.81,258.07Z"/><path class="cls-9" d="M1009.43,309.17c-5.17-5.17-10.78-4.8-11.24-1.78C997.46,312.32,1006.26,307.9,1009.43,309.17Z"/><circle class="cls-9" cx="996.32" cy="275.69" r="4.82"/><circle class="cls-9" cx="1026.9" cy="278.65" r="3.48"/><path class="cls-11" d="M921.59,282c2.79,6.47,9,9.44,12,9.44"/><path class="cls-11" d="M941.09,267.62c-1.3,6.24-2.6,21.44-2.6,21.44"/><path class="cls-11" d="M1002.84,307c2.94.5,3.85.46,6.59,2.2s5.42,3.17,8.36,1.58,5.88-6,5.21-8.65-1.43-11.67-1.6-17.46-.25-11.08.34-12.09,5.56-5.86,7.31-9.52"/><path class="cls-11" d="M996.32,275.15c-3.4.28-8.47-2-9.57-4.7"/><path class="cls-11" d="M1027.25,278.39c1.69,1.33,6.83,2.22,9.24.26"/><path class="cls-11" d="M970.15,355.69c-17.39-10.1-28.34-25.24-30.36-28.7-1.6-2.74-2.54-7.95-2.95-15.39q-.16-3-.22-6.42"/><path class="cls-11" d="M990,334.55c4.05,2.74,11.17,2.14,11.17,2.14"/><path class="cls-11" d="M1004.28,328.59c-9.65-1.31-19.54-8.1-23.24-11.8"/><path class="cls-9" d="M985.27,320.3c-3.6-.68-8.1-2.8-6.48-5.35S983.1,316.91,985.27,320.3Z"/><path class="cls-16" d="M913.37,394.18c-12-14.46-44.37-65.49-47.86-80.61"/><path class="cls-16" d="M856.29,320.3c2.24,10.57,19.62,53.49,62.66,91.36"/><path class="cls-16" d="M787.06,348.3c17.07,20.08,23.6,48.7,19.83,78.82"/><path class="cls-16" d="M638.21,520.25C663.82,508.45,768,467,768,467"/><path class="cls-16" d="M631.44,517.49c2-21.59,5-31.38,5-31.38"/><path class="cls-16" d="M626.36,515.48c-1.27-16.89,0-26.6,0-26.6"/><path class="cls-16" d="M613.7,507c10.34,11.61,19.63,27.44,28.07,46.86s36.73,77.89,42.64,88.23,15.83,28.28,15.83,28.28"/><path class="cls-16" d="M563.75,597.14c9.81,14.24,9.56,15.23,9.56,15.23s-3,18.45,3.49,27.67,16.2,15,23.93,16.2,15,5.88,23.68,14.16,24.46,28.93,24.46,28.93,35.52-14.09,49.48-23"/><path class="cls-16" d="M622.94,659.25c17.18-9.82,43.06-21.87,43.06-21.87"/><path class="cls-16" d="M630,676.38c24.8-14.67,55.37-20.92,55.37-20.92"/><path class="cls-16" d="M640.34,689.08c19.63-11.53,52.88-24.25,52.88-24.25"/><path class="cls-11" d="M729.85,708.17a84.83,84.83,0,0,0-5-8.83"/><path class="cls-11" d="M736.19,699.34a57.09,57.09,0,0,1,6,11.72"/><path class="cls-11" d="M786.17,677.12c1.52,12.56.76,39.56.76,39.56"/><path class="cls-11" d="M795.4,680.16c1.52,10.65,1.23,29.92,1.23,29.92"/><path class="cls-11" d="M740.23,745.88c1.84-4.25,2.69-6.38,2.69-6.38"/><path class="cls-11" d="M729.85,735.63c-2.81,4.47-7.28,12.68-7.28,12.68"/><path class="cls-11" d="M711.56,739.32c2.44-4,4.72-7.28,4.72-7.28"/><path class="cls-16" d="M668.51,763.78c-3.4,18.85-7.11,37.4-8.65,43s0,5.87,4.33,5.1,12.67-11,14.22-18.08,4.95-21,2.47-32.91"/><path class="cls-16" d="M600.35,862.69c33.45-24.61,71-42,79.52-41.34S678,830.5,678,830.5"/><path class="cls-16" d="M652.6,842c5.58-4.12,16.73-6.22,16.73-6.22"/><path class="cls-16" d="M523.21,732c-1.35,22.82,0,53.43,0,53.43s18.69-18.69,19.24-27.91.81-14.82,1.9-18.25"/><path class="cls-16" d="M739.77,773.29c6.77,34,25.67,121.5,37.55,179.28s22.3,87,15.12,128.52c-10.26,59.4-74.71,178.83-74.71,178.83"/><path class="cls-16" d="M671.73,1392.66c-63-9.28-108.57-37.94-108.57-37.94s47.63-131.58,56.91-155.79,27.45-83.14,31.08-89.2,4.84-9.69,1.21-20.18,4.73-17.76,9.43-21.39-.19-8.18-3.27-12.44,1.92-13,7.17-13.39,3.11-8.88-3.89-31.48-18.31-53.28-18.31-53.28"/><path class="cls-16" d="M676.59,1052.18c9.47-.25,20.07-3.49,20.07-3.49"/><path class="cls-16" d="M679.71,1063.15c20.44,2.12,30.17,7,30.17,7"/><path class="cls-16" d="M507.19,714.57c-8.21,33-6.73,101.6-5.25,153.41s.93,103.59-1.29,127.64c-1.36,14.74-15,15.22-9.08,30.26,3.21,8.18,1.74,9.64-5.89,14.63s3.81,16.14-6.75,17.9-20.83,10-31.69,32.86-17.6,35.21-30.51,54.57-120.59,189.83-120.59,189.83,40.2,40.2,95.65,52.52"/><path class="cls-16" d="M309.16,1347c40.38-69.17,84-143.37,103.39-168.69S462,1105.87,462,1105.87"/><path class="cls-16" d="M478.18,1090.89c4.66-6.07,8-10.31,8-10.31"/><path class="cls-16" d="M494.7,1074.93c7.2-5.65,12.49-10,12.49-10"/><path class="cls-16" d="M513.62,1051.38c.56-7.24,1.27-10.77,5.37-13.88s-6.07-21.61,2.26-32.9"/><path class="cls-16" d="M523.65,993c4-12.71,5.65-19.63,3.67-37.14s-4.52-34.6-5.37-49.14-1.27-100.68-1.27-100.68"/><path class="cls-16" d="M383.67,1386.17c32.68-47.3,101.89-138,125.73-171.87s63.44-91.89,74.59-103.81,28.07-41.14,36.14-64.21,24.61-92.27,30-122.65,11.67-75.74,11.67-75.74"/><path class="cls-16" d="M629,1444.26c.12-10.43,4.47-16.54,16-16.9s21.24-.24,22.86,3.73-1.61,9.41-11.43,15.7"/><path class="cls-16" d="M560.13,1496.73c4.17,4.17,15.34,3.87,30,2.69s56.25-5.16,72.88,1.48"/><path class="cls-16" d="M336.68,1408.51c.93-4.72,7.16-12.66,12.07-13.23s33.95.38,34.92,3-7.9,11.52-17.35,12.66"/><path class="cls-5" d="M297.08,1363c6.15,2.31,11.11,9.92,14.64,18.94s7.61,18.59,8.84,21.06,11.32,17.19,47.94,9.56c0,0,1.42,14.84,4.6,22.27s11.14,29.89,12,31.31,3.89,1.42,10.44,11,10.48,22.13,7.61,41.75c-1.06,7.25-55.19,1.42-61.73-8.14s-19.46-35.55-25.12-44.58-24.41-37-31-45.93-9.73-18.46-9-20.05S297.08,1363,297.08,1363Z"/><path class="cls-16" d="M279.55,1397.91c4.67,10.08,21.1,25.34,29.6,39.1s31,57,31,57"/><path class="cls-16" d="M345.2,1502.65c10.33,5.65,44.25,17.46,63.43,7.13"/><circle class="cls-3" cx="730.77" cy="1499.42" r="24.56"/><circle class="cls-3" cx="793.79" cy="1448.35" r="19"/><circle class="cls-3" cx="1274.57" cy="1499.42" r="24.56"/><circle class="cls-3" cx="1337.6" cy="1448.35" r="19"/><g class="cls-1"><path class="cls-17" d="M1370.15,1423.93c-5.41-.17-143-1.92-177.93-2.09s-228-3.14-252.25-3.14-198.34.17-222.59-3.84-47.62-30.88-54.6-74.49,24.42-68,42-75.19,93.68-38.38,115.83-48.15,24.75-29.85,25.07-40.38c1-34.19-11.16-94.29-15-115.92s-49.49-258.52-53.51-279.11S772,753.89,757,745.52s-56.69-17.27-65.77-19.36-10.88-6.72-10.41-15.09c.27-4.84,6.19-10.46,20.58-8.16s75.5,15.52,83.78,19.87,10,11.54,12.41,21.56,12.19,54.87,17,83.18,24.61,127,30.49,160.92,28.74,136.31,31.79,160.48.65,67.5-25.48,84.92-118.89,53.35-133.48,59.23-29.83,35.49-20.69,60.1,24.61,33.32,30.05,34.41,194.45,2.83,212.75,3,410.25,6.31,413.08,6.75"/><line class="cls-17" x1="745.38" y1="1448.35" x2="745.38" y2="1412.33"/><line class="cls-17" x1="716.54" y1="1410.95" x2="716.54" y2="1448.35"/><line class="cls-17" x1="1289.19" y1="1450.28" x2="1289.19" y2="1418.79"/><line class="cls-17" x1="1260.34" y1="1418.82" x2="1260.34" y2="1448.35"/><path class="cls-17" d="M742.39,693.83c11.8-4,17.64-4.75,17.64-4.75"/><path class="cls-17" d="M766,688c6.57,3.41,8.52,10.71,7.66,14.84s-5.6,6.69-19.71,10.34"/><path class="cls-17" d="M795.4,718.2c20.76,4,43.24,8.23,50.27,19.23s7,41.68,7,41.68"/><path class="cls-17" d="M800.89,692.31c35.17,7.88,56.25,11.86,64.21,27.08s10.77,23.18,10.54,56.67"/><line class="cls-17" x1="808.72" y1="1392.84" x2="808.72" y2="1368.58"/><line class="cls-17" x1="783.95" y1="1363.77" x2="783.95" y2="1392.84"/><path class="cls-17" d="M1376.74,1422.66c6-2.39,15.52-9.15,17.91-21.69s2.19-20.1-2.59-25.27-5.17-5.37-16.32-6.37-107.47-6-146.27-6.77-193.24-7-224.09-8.16-130-3.18-156.82-5.17-52.54-1-68.26-12.34-17.91-25.08-18.11-31.84,0-29.75,0-29.75"/><path class="cls-17" d="M734.57,1286.43c-.94,29.57,3.4,61.47,32.55,75.85S913.26,1381,954.62,1382s152.84,6.11,179.82,6.7,131,7.07,149.88,7.4"/><path class="cls-17" d="M748.3,1247.36c11.58-16.39,24.6-25.47,93.31-48.77"/><path class="cls-17" d="M876.21,1187.63c7.73-2.78,13.3-5.43,13.3-5.43"/><path class="cls-17" d="M860.64,1225.53c27.15-14.54,59.92-32.58,59.92-32.58"/></g><g class="cls-18"><path class="cls-2" d="M1479.22,880.92c6.47-4.91,9.82-7.86,9.82-7.86"/><path class="cls-2" d="M1500.86,871.77c-1.34,16.51-16.73,191.21-18.52,212.63s-2,39.49-5.35,45.52-28.56,26.33-34.36,27.67-68.94,7.14-107.1,8.7-310.13,19.93-329.55,21.34-113.57,7.89-113.57,7.89-15.27-45-16-49.54"/><path class="cls-2" d="M889,772.11c-36.28,7-81.82,16.54-81.82,16.54s64.64,9.56,109,16.7,138.78,20.75,163.55,24.1S1253,855,1279.25,858.31"/><path class="cls-2" d="M968.93,785.65c37.59,6,252.49,38,283.29,41.64"/><path class="cls-2" d="M1366.68,873.06c20.9,1.76,98.75,11,105.83,11.7"/><path class="cls-2" d="M1475.39,896.52c-6.46,59.63-19.88,218.64-21.37,233.54"/></g><g class="cls-18"><path class="cls-2" d="M1404.88,890.42c2.53,82.93-24,242.83-23.81,261.27"/><path class="cls-2" d="M1316.14,921.25c-2.94,41.23-20.54,199.85-21.21,233.08"/><path class="cls-2" d="M1215.16,869.51c1.26,64.37.16,206.54-4.63,286.3"/><path class="cls-2" d="M1118,845.11c1.26,50.91,3.37,107.7,5.47,180.9s3.79,119.83,3.79,119.83"/><path class="cls-2" d="M1040.15,1158.56c-10.94-51.78-20.59-132.62-24.18-163.09s-18.73-157.94-18.73-156.26"/><path class="cls-2" d="M913.1,829.12c-.84,22.72,9.68,106,23.14,171.65s34.5,132.94,34.5,132.94"/><path class="cls-2" d="M893.87,1116.62c34.46-.09,180.72-2.84,213.76-3.18s158.27-2.06,211.45-4.47,102.52-1,113.81,0"/><path class="cls-2" d="M878.85,1016.6c46,6.92,188.27,15.44,284.53,21.52s237.08,13.95,266.33,25"/><path class="cls-2" d="M1427.21,988.89c-39-2.81-120.93-15.67-175-19s-162.18-12.3-209-12.3-162-14-178.2-18.44"/><path class="cls-2" d="M841.61,862.47c39,3.43,127.54,18.46,198.72,23.52s222.5,24.06,247.3,27.68"/><path class="cls-2" d="M1348,921.25c34.08,5.57,52.53,5.72,52.53,5.72"/></g><circle class="cls-19" cx="1281.1" cy="269.6" r="16.89"/><path class="cls-9" d="M970.15,355.69c-14.16,3.72-24.3,8.83-31.48,13.87-3.66-12.47-8.78-30.38-9.18-33.91-.61-5.54,7.13-24.21,7.13-24.21l.22.16c.41,7.44,1.35,12.65,2.95,15.39C941.81,330.45,952.76,345.59,970.15,355.69Z"/></svg>