<svg id="Layer_1" data-name="Layer 1" xmlns="http://www.w3.org/2000/svg" viewBox="0 0 2267.72 1700.79"><defs><style>.cls-1,.cls-11,.cls-6{fill:#f06082;}.cls-1,.cls-17{opacity:0.75;}.cls-2{fill:#e7a184;}.cls-3{fill:#fcc9a1;}.cls-10,.cls-12,.cls-15,.cls-16,.cls-17,.cls-4,.cls-7{fill:none;stroke-linecap:round;stroke-linejoin:round;stroke-width:3px;}.cls-4{stroke:#2c2f53;}.cls-5,.cls-8{fill:#2c2f53;}.cls-20,.cls-5,.cls-6,.cls-7{opacity:0.5;}.cls-10,.cls-15,.cls-7{stroke:#505c7b;}.cls-9{fill:#0d1536;}.cls-11,.cls-13,.cls-14,.cls-15,.cls-18{opacity:0.25;}.cls-12{stroke:#54c3e5;}.cls-13{fill:#63cdf6;}.cls-14,.cls-19{fill:#505c7b;}.cls-16,.cls-17{stroke:#f06082;}.cls-19{opacity:0.1;}.cls-21{fill:#dc6437;opacity:0.3;}</style></defs><title>Pria dan Wanita dinner di restaurant</title><path class="cls-1" d="M1011.57,609.7c-2.08,5.13,10.21,6.18,21,4.34s28-25.79,30.88-34.52,4-17,0-17C1055.14,562.51,1021.41,585.41,1011.57,609.7Z"/><path class="cls-1" d="M1011.57,609.7c2.87,2.15,16.79-21.82,32.55-32.63,0,0-19-16.22-34.29-21.16C1009.82,555.91,999.41,600.63,1011.57,609.7Z"/><path class="cls-1" d="M1009.83,553.18c-1.94,1.56-2,5.15,4.81,8.46s26.09,18,26.09,18,12.63-9.83,21.83-14.22c0,0-8.13-17-10.8-19.15S1025.45,540.67,1009.83,553.18Z"/><path class="cls-2" d="M957.36,394.08s-.86-11.67-12.53-28.1S883,308.47,840.4,310.2,765,332.69,741.61,361.87s-28.44,57-27.67,77.4c1.3,34.16,17.29,44.1,5.22,93.21Zm4.57,91.29c-.71-4.91,9.48-15.1,9.48-20.36s-11.94-60.4-14-70.93l-238.2,138.4c-8.32,9.65-19.16,21.45-19.16,21.45l97.59,129.84c1-1.36,20.92-27,38.63-49.81l27.38-35.17s11,6.26,22.43,11.62a133.13,133.13,0,0,0,14.44,5.94c14,4.57,23.18,6,25.64,5.27s10.18-11.58,14-28.09,10.18-41.43,13.34-46,9.13-2.81,11.58-2.1,10.54-7,11.59-10.54S962.63,490.29,961.93,485.37Z"/><path class="cls-3" d="M1365,1088.05c15-.24,27.39-.48,31.75,2.42s33.69,34.66,40.72,43.38c0,0,29.81-14.06,54.29-32.72s46.53-38.78,58.89-52.11a395.6,395.6,0,0,1,44.11-40.47c15.51-12.12,22.3-19.87,25.93-36.35s7.51-34.42,14.06-66.65,27.11-137.19,27.11-137.19,55.54-11.57,104.25-5.51c0,0-15,58.35-21.57,86.23s-20.6,82.16-26.66,104S1706,989.65,1706,996.19s-3.23,34.1-7.51,38.29c-5.38,5.27-7,4.6-15.51,17.93s-41.12,41.44-85.63,71.5-60.27,37.08-69,40-15.75,6.3-33.93,18.18-52.35,40.47-74.89,7c0,0-18.42,12.12-43.63-8s-77.8-41-78-43.38S1312.68,1098.71,1365,1088.05Z"/><path class="cls-4" d="M1622.67,990.68c16.61-2.52,28.6,0,28.6,0"/><path class="cls-4" d="M1368.73,1104.32c8.76-1.63,21.2-1.43,23.23-1.22"/><path class="cls-4" d="M1338.57,1141c16-12.74,32.41-17.92,37.71-20.38s12.43-2.25,12.43-2.25"/><path class="cls-4" d="M1403.79,1160.23c5.41,10.5,10.46,22.32,15.77,28.89"/><path class="cls-4" d="M1437.5,1133.86a187.17,187.17,0,0,0,17.17,16.68"/><path class="cls-2" d="M943.66,1134.08c51.84,14,80.13,16.68,141.43,20.29s113.59-1.35,124.41-3.61,65.81-47.78,74.37-54.09,7.91-6.72,33.27-9.15,62.61-7,64.5-6.21,2.7,21.05-3.51,24.29-14.11,5.85-25.91,7.56c-28.07,4-32.92,7-41.29,15.92,0,0,15.65,5.94,42.64,9.18s49.93,4,52.09,6.75,8.1,23.21,2.7,24.83-23.21,3-23.21,3,1.08,11.33-.27,13-24.56,19.43-24.56,19.43,1.35,18.35-.81,21.59-12.41,7-17.81,12.41-3.78,5.67-13.49,7.56-33.46,1.62-45.34,2.16-47.77,2.16-57.21-1.35-14-7.83-18.08-7.56-105.79,14.84-149.51,19.16S914.23,1274,914.23,1274,940.94,1190.61,943.66,1134.08Z"/><path class="cls-5" d="M719.17,532.48s20.28-1.33,33.47,2.34,9.94-4.54,19.67-19,16.65-24,40.43-27.46c0,0-1.51-13.4,4.54-21.19s22-7.76,29.19,8.43c.86,1.95-3.28,11.46-1.73,30.05.22,2.59,16,5.4,17.51,3.68s-.22-24.43,7.78-36.1a98.75,98.75,0,0,1,25.29-25.73c8.22-5.62,16.41-12.27,21.17-49,.92-7.08,22.07-9.35,40.87-4.39,0,0-.86-11.66-12.53-28.1S883,308.47,840.41,310.2s-75.45,22.48-98.8,51.67-28.45,57-27.67,77.4C715.23,473.42,731.23,483.37,719.17,532.48Z"/><path class="cls-5" d="M910.38,465.89c9.95-11.8,14.59-15.52,17-16.45s28.78-5,31.3-4.77,5.7,15.38,1.46,15.25-21.75-2.12-25.73-1.86S918.34,461.91,910.38,465.89Z"/><path class="cls-3" d="M1271.27,762.91c-1.9,1.07-8.54,2.62-14.21,5.92-3.51-12.74-6.15-22.21-6.15-22.21s-7.79-2.85-17.11-6.65-20.92-14.65-23-19.21,3-14.51,3-14.51c-14.45-8.61.79-23.38.79-23.38-7.57-10.13-6.88-19.15-5-21.06s6.48-1.61,6.48-1.61a24.88,24.88,0,0,0-6.48-6c-3.64-2.09-7.41-14.45-4.17-16.86s12-10.91,14.26-10.91c7.71,0,11.41,14.09,10.27,16.17s-7,7.29-7,7.29a104.9,104.9,0,0,0,10.84,10.59s15.39-.76,18.72,0,17.22,7,17.22,7c7.5-3.3,14.65-9.68,20.92-23.76s0-39.51,0-39.51c1.9-5.32,18.25-7.23,19.2-4.19s-4,18.45-4.75,32.19,1.13,46.73.95,62.74-7.61,23.54-8.16,25.64,1.12,8.94,8.16,31.76c.92,3,1.93,6.78,2.92,9.7-11.29-.52-25.23-2.23-27.16-3.43-3.32-2.05-6.51-15.62-8.4-30.82s-.67-13.57-3-12.77-1.66.5-.87,8.42S1273.79,761.49,1271.27,762.91Z"/><path class="cls-6" d="M1214.62,636.31s-4.84,2.66-5,4.68-.17,6.25-.17,6.25c-7.8,16.29-35.23,48.33-59.57,39.43a54,54,0,0,1-13.8-8.13,25.5,25.5,0,0,0,3.25-4.56c1.67-3.57-4.23-17.84-4.9-17.62-.38.12-5.59,5.47-10.11,10.14a27.73,27.73,0,0,1-4.12-8c-4.88-16.45-1.31-26-1.13-26.31l7.72.33c-2.12.67-3.29,1.42-3.29,2.21,0,3,17.46,5.49,39,5.49,19.2,0,35.16-2,38.4-4.53Z"/><path class="cls-3" d="M1399.62,886.4s-52.11,55.14-54,55.91-11.6.38-16.35,0-11.23-5.14-27.76-24.91-15-24.15-17.3-36.51-6.09-31.76-11.23-52.68c-2.45-9.94-7.83-32-12.53-49.1,6.64.55,16.55,2.06,28.45-.95,13.68-3.47,19-7.86,22-10.6,5.85,16.35,13,32.71,16.66,40.62,4.94,10.57,10.65,15.48,10.65,15.48,7.6-9.7,33.09-47.36,33.09-47.36s32.51-5.52,47,28S1399.62,886.4,1399.62,886.4Z"/><path class="cls-7" d="M1264.14,713.09s3.23,17.14,3.39,31.36.89,15.08-3.39,16.65-25.07,12.45-24.75,17.56,16.31,9.11,39.18,6.4,41.75-14.21,40.45-20c-1.76-7.84-18-7.47-28.94-8.79-5.28-.64-7.2-2.72-10.87-21.75-2.4-12.39-4.94-26.12-4.94-26.12S1265.55,707.33,1264.14,713.09Z"/><path class="cls-6" d="M1269.37,671.14l-.25.09c-5.74-2.29-14.3-5.65-15.84-5.94a114.46,114.46,0,0,0-19.49-1.43c-10.15-6.81-14.94-13.58-14.94-13.58s6.68-5,8.31-8.51c.79-1.69-1.31-5.38-2.87-7.17,5.7,1.61,19,2,34.34.76,20.35-1.65,36.65-5.53,36.39-8.67a.1.1,0,0,0,0-.05l3-.19S1299.34,660.37,1269.37,671.14Z"/><path class="cls-3" d="M1609.07,615.28c16.11,12.82,34.85,15.45,62.46,17.75s86.46-.33,93,50c0,0-29.79-2.65-113.08,29.59C1567.59,745.05,1522.62,781,1522.62,781s-40.42-60.57-69.24-74c0,0-90.19-197.15-76.06-251.07s40.43-92,119.66-54.24,120.32,150.56,120.32,150.56Z"/><path class="cls-8" d="M1535.26,588.14c-2.67,6.91-10,25.26-38.57,45.2-7.87-15.33-6.67-26.18-6.67-26.18,17.85-8.92,27.34-18.39,40.69-37.06,4.76-6.67,9.13-17.39,10.48-27.16C1541.19,542.94,1539.7,576.65,1535.26,588.14Z"/><path class="cls-9" d="M1557.88,525.4c9.69,26.5,47.1,86.89,51.19,89.88s30.25-15.88,30.57-46.9-16.8-78.53-32.32-112.14-40.4-74.33-65.6-86.61-62-6.46-62-6.46-3.88-8.08-29.08-5.17-53,9.37-71.74,40.4-21,57.52-13.9,81.76,12.28,76.91-1,114.08-25.53,67.22-.65,90.81,27.47,35.87,15.51,49.12-21.33,22.94-14.87,41.36,31,29.73,34.58,32.64c0,0,15.51,37.16,2.26,55.58s-26.82,39.43-10,67.86c0,0,84.35,11,132.82,32,0,0,2.59-20.68-20.68-34.9s-36.52-24.56-40.4-31.67a80.59,80.59,0,0,1,14.54-13.25c9.69-7.11,13.9-24.56,4.2-41.36s-19.71-29.41-21-53.64,7.43-61.08,21.33-85.64S1519.75,662.42,1512,645s-22-37.81-22-37.81-25.83,10.79-35.56,9.69c-9.35-1-16.47-5.17-28.1-26.5s-22.94-60.43-27.47-92.42-4.66-68.51,23.59-90.49c5.82-4.52,31,0,47.83,20s24.24,43,37.81,47.5a35.37,35.37,0,0,0,32.32-4.52c7.11-5.17,23.75,0,25.53,20.68C1568,515,1557.88,525.4,1557.88,525.4Z"/><path class="cls-10" d="M1605.46,610.75c14.41-15,16.86-24.13,13.43-43.72s-13-34.48-26.66-42.14-19.36-14.25-20.85-21.1c-1.39-6.35-1.68-10.33-5.05-15.13"/><path class="cls-10" d="M1422.48,407.45c5.51-13.14,46.84-41.53,57.2-44.27"/><path class="cls-10" d="M1451.82,379.56c17.19.19,40.06,24.72,45.24,43.46,6,21.65,10.09,50.33,39.33,49.49"/><path class="cls-10" d="M1468.89,368.37c20.18,3.08,50.14,30.31,59.21,49.07s31.2,28.44,42.08,34.5,42.37,21.89,57.94,57.24"/><path class="cls-10" d="M1447.34,382.85c.1-9.82-9.8-18.71-36.51-14.48"/><path class="cls-10" d="M1375.81,403.65c15.82-21.62,44.51-24.1,54.91-6.77"/><path class="cls-10" d="M1411.17,416.95c-10.59-8.68-25.19,8.25-26.58,21.83-1.43,13.95-1.43,30.39,4.29,53.26s9.65,58.25-.71,86.48-43.94,62.05-24.83,106.53"/><path class="cls-10" d="M1373.06,694.94c19.28,14.34,28.29,29.89,22,41.84S1355,771,1388,801.56"/><path class="cls-10" d="M1469.57,615.81c17.92,34.9,21.56,48,15.79,63.14s-12.92,29.59-10.45,37.9"/><path class="cls-10" d="M1458.82,902.51c24.82-73.15-30.05-109.75-39.2-134.89s-2.61-44.1,9.14-70.87q1.13-2.57,2.29-4.93c11.36-23,24.91-30.7,31.27-21.52,6.79,9.8-5.81,31-31.2,21.56l-.08,0c-25.3-9.5-22.85-34.62-17.31-62.56,4.8-24.2,5.94-35.95,3.43-57.45"/><path class="cls-10" d="M1465.49,943.17c-10.74-11.49-17.62-27.41-2.94-46.13"/><path class="cls-10" d="M1402.8,929c-8.81-14.35-8.56-33.24,1.76-44.06s16.37-22.16,16.12-38.53a79.15,79.15,0,0,0-6.07-30.15"/><path class="cls-11" d="M1512.24,813.08c50.91-19.29,147.61-46.2,253.91-42.87,23.69.74,16.12-3.62,15.64-20.36-.49-17-3.43-55.93-6.86-64.26s-9.06-11.26-28.16-9.06-118,20.32-220.86,93.78c0,0-14.2-18.36-22.53-28.16s-20.57-26.69-32.32-32.32a193.25,193.25,0,0,0-16.61,61S1490.72,788.77,1512.24,813.08Z"/><path class="cls-12" d="M354.42,1324.66c43-182.79,83.17-368.33,106-455.16s42.11-158.85,104.19-215.7c79.24-72.56,106-79.52,106-79.52"/><path class="cls-12" d="M557,780c36.69-57.66,114-82.12,154.2-58.53"/><path class="cls-12" d="M631.65,691.31c14.42-24,34.51-68.15,34.51-68.15"/><path class="cls-13" d="M666.16,566.88l114.05,164.9s29.76-17.67,43.09-22.63c0,0-53-74.08-81.52-115S694,532.48,694,532.48Z"/><path class="cls-12" d="M823.29,709.16c5.26,6.33,5.26,7,4.92,13.17s-3.76,34.84-8.2,50.89-6.15,23.23-6.49,32.79S805,892.08,804,903.7s-3.42,27.67-3.42,27.67"/><path class="cls-12" d="M771.83,780c0,16.66,1.27,26.79,10.13,68.57S800.52,933,805.2,951.69,817.79,1006,819.59,1015s9.72,41.38,15.11,48.22,10,16.23,2,28.85c-1.7,2.7-.26,6.33,7.26,5.65,9.36-.85,6.32,12.64,3.25,16.23"/><path class="cls-12" d="M849.29,1118.57c3.25-6.66,5.29-7.86,5.29-7.86"/><path class="cls-12" d="M801.88,1288.16c-.83-4.15,4.15-18,13.27-44.17s16.38-47.7,23.43-72.79,14.51-47.84,18-52.62"/><path class="cls-13" d="M858.43,1113.79c15.88-1.2,51,4.27,62.76,4.79s28.35,6.83,31.43,9.22c.39,7.46-4.37,49.54-8.48,70.62s-15.81,57.59-17.61,65.3-4.5,20.7-5.78,22.75-11.57,4.24-22,4.37-71.73,1.54-78.54.9-7.42,1.36-11.57-3c-6.15-6.39-5.56-9.27-3.76-14.78s34.28-106,38.78-120.2S858.43,1113.79,858.43,1113.79Z"/><path class="cls-12" d="M842.92,1116.22c-5.22,14-21.9,37.9-24.74,41.42"/><path class="cls-12" d="M789.25,1129.27c6.24-6.13,34-23.37,40-24.51"/><path class="cls-12" d="M693.07,1289.63c10.69-32.68,22.39-64.35,23.8-68.38s.81-16.54.81-16.54"/><path class="cls-12" d="M585.73,907.89c16.51,56.41,66,161.89,79.8,188s58.24,124.74,68.79,139.88,37.61,32.56,43.11,35.31,26.59,5.68,26.59,5.68"/><path class="cls-4" d="M1310.94,1129.08c-6.79-4.19-7.3-6.75-8-8.45"/><path class="cls-4" d="M1385.15,1172.8c-1.35-.91-21.74,3.34-21.74,3.34"/><path class="cls-4" d="M1360.32,1205.18c-6.83,5-11.22,8.35-11.22,8.35"/><path class="cls-4" d="M863.6,598.79c-13.75-8.92-22.73-27.05-25.63-41.45a48.55,48.55,0,0,1-1-8.66"/><path class="cls-4" d="M844.73,505.64c-.84,11.79-3.16,34.93-3.16,34.93"/><path class="cls-4" d="M831.26,523.1c-8.62-6-17.29-21.29-18.53-34.76"/><circle class="cls-8" cx="941.29" cy="484.32" r="5.6"/><path class="cls-4" d="M931.55,476.56c.32,3.66,5.75,7.5,10.34,6.57"/><path class="cls-4" d="M958.51,542.39a57.45,57.45,0,0,0-12.45-8.22"/><path class="cls-8" d="M953.38,538.43c-7.07,2.25-12.62-1.17-10.74-4.78S951.28,534.61,953.38,538.43Z"/><path class="cls-4" d="M917.71,550.84c2.79-1.09,7.13-.78,7.13-.78"/><path class="cls-4" d="M921.28,552.39c3.26,7.13,11,10.85,15.44,11.63s7.6,2.24,9.65,4.68"/><path class="cls-4" d="M922.63,570.47c2.68,3,8.8,3.8,9.84,3.8"/><path class="cls-12" d="M819.3,1013.61c6.75,1.85,14.63,1.06,49.8-16.52"/><path class="cls-12" d="M818.48,778.82c10.3,31.24,19.12,62.93,21.32,64.31s6.06-.28,7.72,2.2-1.93,11.57,0,13.78,7.72,4.13,7.72,4.13"/><path class="cls-12" d="M824.15,883.92c8.61-7.5,16.33-18.87,16.33-18.87"/><path class="cls-12" d="M833.64,911.63c7.84-14.57,15.73-31.12,16.64-32.78s4.11-1.88,5.54,8.5,5.41,23.62,7.28,29.36,8.5,35.21,9.49,47.13,6.07,29.36,6.07,29.36"/><path class="cls-2" d="M886.29,852.08s42-19.74,60.73-31.82c41.23-26.64,86.32-64.18,89.2-66.8s13.08-21.19,16-28.77,10.46-17,17-27.73,17.26-29,19.62-33.22,16.48-11,35.31-22c0,0-1,12,3.14,16.74,0,0,6.3-6,8.12-6.54s9.67,15.69,7.31,23.28c0,0,8.37,13.86,29.56,4.45,0,0,2.09,20.66,1.31,23.8s-8.11,7.06-8.11,7.06.52,13.34-.26,16.22-19.39,12.75-23.54,14.65c-6.27,2.87-8.27,0-8.27,0s-4.15,13.9-10.17,25-12.22,11.49-23.35,12-14,.36-17.33,4.56-30.83,42.5-54.36,69.87-42.5,52.9-55.09,69.14-33.15,37.65-47.56,46.35c0,0-8-34.5-15.12-54.2s-17.87-40.75-19-47.92A48.17,48.17,0,0,0,886.29,852.08Z"/><path class="cls-4" d="M1076.07,697.24c12.84-5.42,35.05-22.14,51.18-38.74"/><path class="cls-4" d="M1091.76,751.72c13.41-11.12,18.82-33.66,20.54-45.92,0,0,20-13.76,30.39-30.55"/><path class="cls-4" d="M1133.37,741.47c-3.64-3.67-2.53-7.29-2.06-8.5s8.54-9.74,8.54-9.74"/><path class="cls-4" d="M1158.63,688c.54,2.72.72,5.07,0,5.62s-19.2,15.76-20.65,17.75-2.54,12.5,3.8,13,7.27-1.79,10.87-3.8c4.53-2.54,12.79-10.06,12.79-10.06"/><path class="cls-7" d="M1081.41,779.19c1.19-3.15,8.19-5.15,12.64-4.88s15.59-.7,20-4.07,8.61-13.48,17.78-36c0,0,2.95,4.39,5,4.52s6.62-2.11,6.62-2.11-9.85,26.36-10.66,34.59,1.89,10.39,11.06,17.68,18.9,12,16.87,16.2-29.83.67-44.81-3.11S1078,788.1,1081.41,779.19Z"/><path class="cls-7" d="M1154.41,687.44s-9.06-.55-12.36-5.35"/><path class="cls-7" d="M1158.42,697.65s-16,14.5-16.36,14.09,2.63-17.08.63-28.86"/><path class="cls-7" d="M1162.2,688c10.64-1.89,31.67-11.34,47.42-41.09"/><path class="cls-7" d="M1120.21,658.51c-3.32-16.14-2.8-24.36,2.1-36.43s20.57-48.75,32.29-86.72"/><ellipse class="cls-7" cx="1180.82" cy="539.48" rx="3.66" ry="26.54" transform="translate(464.15 1621.97) rotate(-81.05)"/><ellipse class="cls-1" cx="1162.49" cy="632.83" rx="31.38" ry="4.53"/><path class="cls-14" d="M987.11,799.48A207.72,207.72,0,0,0,1011.33,780s-3.24-13.62-.81-18.82,3.13-14.13,3.14-31.13c0-5.6-35.85-3.83-36.93,2.24-.81,4.57,1.23,17.48,4,19.37s5.2,3.27,5.2,13S987.11,799.48,987.11,799.48Z"/><path class="cls-14" d="M987.81,890.79c.17-.92,32-36.47,32-36.47s7.26,22.44,8.8,34.32,9.9,49.94,9,53.68-9.24,15.4-24,15.62-29-3.3-30.8-10.34S982.75,917.62,987.81,890.79Z"/><path class="cls-7" d="M1002.64,883.92c-.75,18.92.61,33.9,11,57.31"/><path class="cls-7" d="M996.68,779.33a389.66,389.66,0,0,1,0-39.53"/><path class="cls-15" d="M997.58,729.7c3.14-36.83,10.56-99.49,17.52-115.66"/><path class="cls-15" d="M998.62,664c-.8-9.15-6.56-11.74-14.32-15.72s-14.72-5.84-16.7-8-3.59,6.6,1.19,14.36,12.13,12.79,25.06,12.86"/><path class="cls-15" d="M1004.56,666.62c6.07,6.87,10.89,10.51,15.25,11.25s9.8,2.24,17.58-2.63,17.26-11.72,17.73-13.27-5.13-4.84-11.82-5.61-20.4,3.28-29.64,10.27"/><path class="cls-16" d="M1005.67,554.59c6.2,1,20,8.5,27.54,14.12"/><path class="cls-16" d="M1053.27,548.07a10.14,10.14,0,0,1-5.24,12.74c-4.71,2.11-22.29,4.51-24,1.05s5.93-8.64,11.61-9.22,9.62.58,7.7,3.84"/><path class="cls-17" d="M1773.51,761.1c-.71,42.83,2.84,120.18,8.52,162.76s8.27,73.28,9.84,79.83c5,20.94,74.59,61.85,121.44,235.25"/><path class="cls-17" d="M1548.54,519.15v83.67"/><circle class="cls-1" cx="1549.06" cy="615.81" r="7.45"/><path class="cls-10" d="M1398.57,808.17c17.95,11.14,27.11,8.83,39.65,26.05,15.89,21.81,9.65,26.42,1.75,41.87s-24.66,40.78,3.29,60.84"/><circle class="cls-8" cx="1450.11" cy="496.99" r="7.02"/><circle class="cls-8" cx="1409.85" cy="509.18" r="5.89"/><path class="cls-4" d="M1524.12,476.75A439.88,439.88,0,0,1,1537.29,523"/><path class="cls-4" d="M1452.36,495.77c4.37-1.13,9.17-4.72,10-8.1"/><path class="cls-4" d="M1393.86,505.66c3.29,2.4,10,5.79,15.58,2.31"/><path class="cls-4" d="M1426.71,471.47c7.92-12.29,15.72-16,23.4-16.56s16.85,4.27,19.25,8.28"/><path class="cls-4" d="M1392.36,479.65c8.36-.44,23.91,8.65,25.52,22.73s-.88,39.74-1,44,2.49,5,6,5.43,14.81-2.35,18.33-4.69"/><path class="cls-4" d="M1540.55,546.62c-1.8,8.69-5.67,17.64-9.84,23.48-13.34,18.66-22.84,31.74-40.69,40.65"/><path class="cls-4" d="M1557.88,525.4c-7.79,9.59-16.28,10.47-16.28,10.47"/><path class="cls-4" d="M1443.1,584.32c7.42,1,11.84-.17,19.23-6.13"/><path class="cls-8" d="M1432.46,574.55c7.63,1.44,11.69,2.65,20.25-4.47s11.38-10.76,13-12.92-2.32-1-4.64,0-11.42,3.66-13.74,9.11-3.32,4.57-6.17,3.64C1434.12,567.6,1428.45,573.8,1432.46,574.55Z"/><path class="cls-4" d="M1508.4,637.52c8.82,19.19,14,31.5,14,31.5"/><path class="cls-7" d="M1216.55,634.75c-6-11.36-6.5-13.54-6.93-34.95s-3.13-62-2.55-65.26c1.16-6.53,42.65-16.88,61.84-13,3,.6,6.75,20.48,12.53,39.46S1298,610.43,1298,626.44s-7.14,34.13-25.26,43.58"/><path class="cls-7" d="M1264.81,520.44a2.65,2.65,0,0,1,.65.57c2.72,3.45-14.79,8.73-36.71,11.95-16.13,2.37-20.06,1.37-20.06-.57"/><ellipse class="cls-1" cx="1258.01" cy="627.75" rx="29.75" ry="5.01" transform="translate(-46.55 103.55) rotate(-4.63)"/><path class="cls-4" d="M1216.11,660.2a141.9,141.9,0,0,1,17.68.29"/><path class="cls-4" d="M1269.73,667.47c7.23,3.89,10.44,6.41,10.44,8.36s-6.77,8.48-9.08,9.22-19.76-1.47-19.76-1.47"/><path class="cls-4" d="M1214.62,682.88c11.18-2.2,30.32-1.55,32.66-.79s28.7,10.87,31.59,12.85.36,8.89-7.76,16.81"/><path class="cls-4" d="M1213.83,706.26c2.75-4.29,5-4.29,15.41-3.16s29.68,3.16,29.68,3.16"/><path class="cls-4" d="M1223.66,722.73c10.45.37,26.26,2,28.86,2.58s12-7.37,12-14.93"/><g class="cls-18"><path class="cls-10" d="M1176.2,1294.51c-4.71-6.28-7.06-2-7.46,6.67s-2,58.07-14.13,89.46"/><path class="cls-10" d="M1261.74,1291.91c-2.66,32.36,1.18,39.88,0,87.36"/><path class="cls-10" d="M1300.12,1286c0,13.34,4,21.65,5.79,38s7.3,38,6,53.63"/><path class="cls-10" d="M1573.63,1259.1c-.61,25.29,5.18,83.47,6.7,89"/><path class="cls-10" d="M1597.39,1174.41c-.3,18,6.4,32,10.66,50.57s13.71,50,18.89,76.77,14,52.7,17.36,60.32"/><path class="cls-10" d="M1632.24,1105.43c0,21.75,6.11,37.89,14.12,72.18s14.5,63.68,21,86.57,15.26,59.15,17.55,65.64"/><path class="cls-10" d="M1065,1252.23c41,6.15,199.91,23.06,309.25-7.17"/><path class="cls-10" d="M1403.79,1234.37c36.54-7,137-36.65,204.28-107.48"/><path class="cls-10" d="M1363,924.87c24.6,2.05,44.19,4,55.23,5.48,72.47,9.43,161.27,40.72,172.31,73.39"/><path class="cls-10" d="M1180.51,915.57c40.16.44,84.09,2.47,123.65,5"/><path class="cls-10" d="M1075.38,918.85q24.17-1.68,53.18-2.77c10.69-.38,22.07-.57,33.92-.59"/><path class="cls-10" d="M1030,922.83q14.5-1.57,31.75-3"/><path class="cls-10" d="M993.15,927.63c8.09-1.27,17.4-2.55,27.95-3.79"/><path class="cls-10" d="M958.55,934.71c5.46-1.65,14.7-3.76,27.75-6"/></g><path class="cls-4" d="M1250.91,746.63c3.71.78,9.53,0,9.53,0"/><path class="cls-4" d="M1338.19,823.65c10.61,17,16.05,27.58,16.57,66.66"/><path class="cls-19" d="M1092.94,945.73c1.09-3.07,4.44-2.82,13.31-2s25.9-.05,29.67-.51,7.38.49,7,12.89c-.27,9.18,0,20.24-1.08,26.72s-.67,9.45-17.95,9.72-33.87.81-33.33-7.56c.29-4.54,1.6-12.55,2-21.45C1093,956,1092.41,947.22,1092.94,945.73Z"/><g class="cls-20"><path class="cls-12" d="M1098.29,947.43c3.67,2.83,8,3.33,34,3"/><path class="cls-12" d="M1116.77,950.52a57.25,57.25,0,0,1,0-7.77"/></g><path class="cls-11" d="M1116.65,903.31c3.22-1,5.25,4.75,6.08,10.62s.56,18.44-.65,23.56-2.39,6.57-5.39,6.56-4.49-.69-5-6.84.91-9.27,2.33-14.37C1116.77,912.81,1113.92,904.14,1116.65,903.31Z"/><g class="cls-20"><path class="cls-12" d="M1084,883.16c29,8.27,49.2,7.48,65.75.76"/><path class="cls-12" d="M1082.52,991.75c-11.18-6.12-23.63-23.94-26.17-49s7.81-48.32,16.46-59.59"/><path class="cls-12" d="M1183,923.62a73.9,73.9,0,0,1-1.46,19.49c-5.91,28.17-28.28,51.81-42.2,54.55-9.47,1.87-27.15,1.29-41-1.19"/><path class="cls-12" d="M1168.41,883.92c3.9,4.49,9.38,13.67,12.42,25.83"/><path class="cls-12" d="M1078.52,878.22c9.92-6.12,12.75-8,38.13-8.23,15-.12,27.84,2,37.32,5.32"/><path class="cls-12" d="M1080.19,982.25c4.24-1.94,10.84-1.85,10.84-1.85"/><path class="cls-12" d="M1142.08,981.32a13.5,13.5,0,0,1,7.32,3.84"/></g><path class="cls-19" d="M1353.82,1053.5c2.65-2.13,9.49-2.76,18-2.24s22.78,0,28.13-.34,10.8-1.56,10.67,9.83-1.11,42.8-2.87,45.91c0,0-11.08-12.82-13.49-13.4s-16.22-.75-16.22-.75,1.21-6.39.17-6.9-26.51,2-26.51,2,.07-5.63.62-14.24C1352.78,1065.28,1352.79,1054.32,1353.82,1053.5Z"/><g class="cls-20"><path class="cls-12" d="M1322.36,1078.85c-15.06-27.86-12-66.25,9-93.61"/><path class="cls-12" d="M1342,986c7,.33,14.74,4.3,33.78,5.63s34.77-.83,40.56-7.12"/><path class="cls-12" d="M1338.25,979.15c11.15-5.49,14.71-7.11,28.6-7.76s42.39,0,55.05,5.17"/><path class="cls-12" d="M1450.8,1019c4.07,20.58,3.65,65.86-37.17,88.27"/><path class="cls-12" d="M1430,981.09c10.56,9.28,14.2,16.23,18.09,28.27"/><path class="cls-12" d="M1407.7,1093.26c5.89.31,8.68,3.72,8.68,3.72"/><path class="cls-12" d="M1359.81,1056.13c1.9,3.23,7.8,3.8,37,2.76"/><path class="cls-12" d="M1379.87,1053c-.1,3.42,0,6.37,0,6.37"/></g><path class="cls-11" d="M1379.87,1054.67c3.5.34,5.78-2.69,7.26-7.39s.52-20.25,0-25.72-2.61-7.3-4.26-11.73-4.35-3-4.57-1.3,1.6,8.78,0,13.56-2.65,6.08-2.91,13.64S1374.53,1054.15,1379.87,1054.67Z"/><g class="cls-18"><path class="cls-16" d="M1108.58,1114.92l-23.29,6.23"/><path class="cls-16" d="M966.74,1046.91c2.86,8.1.64,7.38,5.68,10.48s109.4,63.68,110.1,63.76.07-10.41.07-10.41"/><path class="cls-16" d="M1094.62,1107.34c-6,1.72-10.61,3.45-12.73,3.45s-114.22-65.37-114.22-65.37,163.85-45.24,175.77-49.08"/><path class="cls-16" d="M1154.93,995.51c4.1,2.25,14.14,6.62,14.14,6.62"/><path class="cls-16" d="M1197.1,998.76c23.77,14.69,76.05,43.21,99,51.06"/><path class="cls-16" d="M1297.16,1071.59c-10.74,1.36-39.33,9.38-74.73,16.19s-102.87,28.14-105.14,28.14-28.59-17.85-52.95-28.9-58.55-30.11-58.55-30.11"/><path class="cls-16" d="M1126.18,1095.12c22.37-5.18,47.05-11.94,80.82-19.11s78.92-13.93,78.92-13.93"/><path class="cls-16" d="M1075.09,1043.17c16.1-.74,20.52.21,17.57,3.73s-2.21,8.06,7,8.56,21.87-.12,23.22,4.18-6.14,6.39-2.09,11.92,20.52,2.83,20.52,2.83"/><path class="cls-16" d="M1107.81,1110.79c2.7-4.75,5.35-8.72,4-10s-34.1-21.19-53.8-31a458.63,458.63,0,0,0-42.38-17.88"/><path class="cls-16" d="M1003.19,1055c.2-4.36.89-10.11,2-10.71s29.74-8.82,66.41-17.84,114.19-28.35,117.36-29.44"/></g><g class="cls-18"><path class="cls-16" d="M1301.24,1053c5.29,7.4,3.78,9.82,1.82,13"/><path class="cls-16" d="M1008.07,1043.31c-1.1,1.39-2.27,2.95-.47,4.43a19.62,19.62,0,0,0,4.76,2.58"/></g><circle class="cls-21" cx="1494.31" cy="525.4" r="31.4"/><path class="cls-17" d="M1512.24,813.08c36.62,7.93,50.7,27.22,36.62,36.6S1519.92,847.9,1512.24,813.08Z"/><path class="cls-17" d="M1512.24,813.08c-4,21.84-15.14,35.11-22.08,30.28S1491.2,822.9,1512.24,813.08Z"/><path class="cls-13" d="M882,999.42c15.12-12,50.76-25.3,49.86-30.09-9.6-51.2-23.36-78.16-28.15-89.23s-7.49-24.26-9-28-3.89-5.52-7.49-5.37-5.39,5.24-6.44,6.14-1.8,1.65-9.28,4.19-11.08,3.89-14.52,4.49-3.14,3.29-4.19,8.83c0,0,1.49,9.88,3.28,18.8s5.5,21,7.64,29.68,6.12,25.84,7.38,34.27S876.09,991.3,882,999.42Z"/><path class="cls-8" d="M863.6,598.79,836.22,634c-4.52-16.38-8.6-34-7.88-38.6,1.26-8.09,7.93-32,9.63-38C840.87,571.74,849.85,589.88,863.6,598.79Z"/></svg>