<svg id="Layer_1" data-name="Layer 1" xmlns="http://www.w3.org/2000/svg" viewBox="0 0 2267.72 1700.79"><defs><style>.cls-1,.cls-6{fill:#505c7b;}.cls-1,.cls-19,.cls-2,.cls-5{opacity:0.25;}.cls-10,.cls-13,.cls-16,.cls-18,.cls-2,.cls-20,.cls-22,.cls-4,.cls-8{fill:none;stroke-linecap:round;stroke-linejoin:round;}.cls-10,.cls-2,.cls-8{stroke:#505c7b;}.cls-10,.cls-2{stroke-width:3px;}.cls-3{fill:#fff;}.cls-20,.cls-22,.cls-4{stroke:#f06082;}.cls-13,.cls-16,.cls-18,.cls-20,.cls-22,.cls-4,.cls-8{stroke-width:2px;}.cls-14,.cls-15,.cls-21,.cls-4{opacity:0.75;}.cls-25,.cls-5,.cls-9{fill:#f06082;}.cls-10,.cls-17,.cls-20,.cls-23,.cls-26,.cls-6,.cls-9{opacity:0.5;}.cls-7{fill:#2c2f53;}.cls-11{fill:#f4b29c;}.cls-12{fill:#fcc9a1;}.cls-13{stroke:#2c2f53;}.cls-14,.cls-24{fill:#54c3e5;}.cls-15,.cls-26{fill:#dc6437;}.cls-16{stroke:#dc6437;}.cls-17,.cls-19{fill:#63cdf6;}.cls-18{stroke:#54c3e5;}</style></defs><title>Pria dan wanita terhubung lewat Tinder</title><path class="cls-1" d="M1381.27,413l-2.47,20-82.27-7.49,2.35-25.86a36.91,36.91,0,0,1,36.28-33.56c1.08,5.52,3.43,9.85,6,12.37,4.17,4.11,5.31,10.7,2.3,13.87s-9.19-.57-9.19-.57C1328.92,419.26,1366.2,425,1381.27,413Z"/><path class="cls-1" d="M1897.65,454.06l-2.35,25.86-380.57-34.6c5-15,8-32.57,8.22-45a90.51,90.51,0,0,0-1.17-17.53L1864.24,414A36.91,36.91,0,0,1,1897.65,454.06Z"/><path class="cls-1" d="M1801.57,1510.8l-5.28,58a36.91,36.91,0,0,1-40.1,33.41l-525.27-47.76a36.91,36.91,0,0,1-33.41-40.1l5.28-58Z"/><path class="cls-2" d="M1281.2,594.08l17.68-194.47A36.91,36.91,0,0,1,1335.16,366"/><path class="cls-2" d="M1873.8,716.48l-77.5,852.33a36.91,36.91,0,0,1-40.1,33.41l-525.27-47.76a36.91,36.91,0,0,1-33.41-40.1l57.26-629.73"/><path class="cls-2" d="M1521.79,382.82,1864.25,414a36.91,36.91,0,0,1,33.41,40.1l-12,131.54"/><rect class="cls-3" x="1534.73" y="412.49" width="128.07" height="17.8" rx="6.67" ry="6.67" transform="translate(44.73 -143.05) rotate(5.2)"/><circle class="cls-3" cx="1497.87" cy="1530.96" r="22.33" transform="translate(-162.44 2884.03) rotate(-84.8)"/><circle class="cls-4" cx="1881.41" cy="651.04" r="65.44"/><path class="cls-5" d="M1927.19,622.48a10.57,10.57,0,0,0-14.92,0l-34.43,34.46-15.88-17a10.55,10.55,0,1,0-15.44,14.39l23.34,25a10.6,10.6,0,0,0,7.51,3.35h.2a10.48,10.48,0,0,0,7.46-3.09l42.16-42.19A10.57,10.57,0,0,0,1927.19,622.48Z"/><path class="cls-6" d="M1101.26,1185.1,1108,1243a36.91,36.91,0,0,1-32.41,40.91l-523.92,60.77a36.91,36.91,0,0,1-40.91-32.41L504,1254.37Z"/><path class="cls-7" d="M829.24,376.76c15.26-9.18,17.86-23,0-36.79,0,0,11.55,4.42,12.44-6.9s-17.28-17.67-27-19.32c0,0,1.86-13.25-12.2-16.56,0,0,6-8.85-2.93-13.46,9.41-10.65-7.18-46.59-37.85-24-5.28-24.63-47.26-27.65-58.82,3,0,0-11.81-23.88-45.5-14.58-32.5,9-24.13,40.72-24.13,40.72-18.15-5.14-32.19,19.73-13.67,39.42-47-1.22-58.8,64.3-32.35,82.2,0,0-7.72,37.32,43.14,37.64-35,16.6-.61,67.55,27.88,47.41,9.16,11.6,31.95,5.7,36.19-16.17L824.7,390Z"/><path class="cls-8" d="M721.76,390c-15.53-3.64-13.5-13.17-7.4-14.27S721.76,390,721.76,390Z"/><path class="cls-8" d="M800.14,364.44c-2.37-14.13-2.37-21.35,2.88-22.23S807.54,349.24,800.14,364.44Z"/><path class="cls-8" d="M802.52,297.19c-13.3-3.64-28.94,2.41-38.84,11.83a35.92,35.92,0,0,0-7.41,9.76s0,0,0,0"/><path class="cls-8" d="M807.42,311.86c0,4.53,5.36,6.69,7.29,1.89"/><path class="cls-8" d="M702.91,262.78c2,4.76,1.29,8-1.09,8C699.59,270.79,699.87,265.24,702.91,262.78Z"/><path class="cls-8" d="M761.73,259.76c-4.62,4.52-5.75,11.58-3.26,11.77C762.24,271.83,763.68,265.64,761.73,259.76Z"/><path class="cls-8" d="M633.28,288.92c10.5,1,13.38,7,11.18,9.08C642,300.23,637.71,297.24,633.28,288.92Z"/><path class="cls-8" d="M587.25,410.54c10.55,3.58,27.24,2.79,22.79-8.43C606.86,394.11,591.69,397.28,587.25,410.54Z"/><path class="cls-8" d="M658.26,495.6c-2.38-8.9-2-11.51,1.1-11.27S662.39,488,658.26,495.6Z"/><path class="cls-9" d="M763.68,309a35.92,35.92,0,0,0-7.41,9.76s0,0,0,0c-49.36,6.32-60.19,35.52-67.12,64.71s-2.11,53.29,9,81.27l-12.24-5.41c-24-35.52-16.94-106,10.44-130.34C725.44,303.22,755.87,307.38,763.68,309Z"/><path class="cls-6" d="M979,131.06l3,25.8L384.76,226.13l-3-25.8a36.91,36.91,0,0,1,32.41-40.91L938.09,98.66A36.91,36.91,0,0,1,979,131.06Z"/><path class="cls-10" d="M390.14,272.53l-8.37-72.19a36.91,36.91,0,0,1,32.41-40.91L938.09,98.66A36.91,36.91,0,0,1,979,131.06l11.52,99.28"/><path class="cls-10" d="M1007.3,375,1108,1243a36.91,36.91,0,0,1-32.41,40.91l-523.92,60.77a36.91,36.91,0,0,1-40.91-32.41L400.5,361.9"/><path class="cls-11" d="M904.75,843.16,981,794.7s6.89,54.75,7.71,79.9,2.43,38.55,11.36,55.37,31.63,55.76,40.56,89,33.66,116.26,42.58,122.21,58.81,19.74,74.22,22.17,35.68,2.84,39.94,4.46,7.51,9.38,7.51,9.38,10,6.68,19.11,8.54,11,1.4,10.71,3.88-2.95,7.45-2.95,7.45,8.23,1.71,9.31,2.79-6.52,11.79-9.16,12.26-36.32-8.07-41-9.31-49.82-1.86-54.32-.93-6.52,3.72-4.81,4.35,39.26,5.28,42.06,5.28,19.86,19.52,24.68,22.19c2.79,1.55-9.31,10.24-18.93,4.5s-16.92-9.62-20.64-10.55-65.49-3.1-65.49-3.1,9.31,19.87,11.48,30-7.45,22.19-12.11,18.31-14.28-25.14-22.66-38.64-10.86-19.09-13.35-40.35-5.28-29.18-12.26-41-54-84.12-68.6-104-39.58-65-45.63-80.7-9.7-22.93-10.71-48.43C918.13,881.56,904.75,843.16,904.75,843.16Z"/><path class="cls-11" d="M436,628.79c0-9.63-3-16.39-5.59-26.17s.77-26.56,12.17-26.58c3.73,0,2.75,12.38,8.25,29.66s12,35.95,15.91,42.83,8.84,15.32,3.93,38.9c0,0,26.13,61.68,45.58,96.65s35.6,71.8,35.6,71.8l9.19-48.23s61.49,23.18,87.22,28.88c0,0-13.55,44.61-17.88,67.68s-8.45,32.51-17.48,47.63-17.09,25.15-24.75,38.5-6.68,16.5-23.18,18.27-25.54,2.95-29.07-5.11-12.18-21-26.13-36.34-31.63-47.34-36.74-79.76-14.93-102.74-19.64-125.73-13.95-47.74-13.95-47.74-10.41-.39-14.34-2.16-34.56-20.63-43.6-25.34S332,659.72,328.07,657.37s-4.52-14.14,0-13.16,34.79,18,49.7,23.77c2.55,1,7.28-7.66,3.74-10.61S332,620.83,326.9,618.08s-4.13-14.93,2.16-16.89c0,0-17.11-15.43-1.86-21.93,2.9-1.23,39.5,28.58,76.12,54,1.93,1.34,4.91-3.84,3.52-5.37S374.19,594.08,366.55,587s-11.3-18.9-6-24.59c2.08-2.22,25.84,21.67,36.53,32.5S436,628.79,436,628.79Z"/><rect class="cls-3" x="615.72" y="151.37" width="128.07" height="17.8" rx="6.67" ry="6.67" transform="translate(-13.94 79.39) rotate(-6.62)"/><circle class="cls-3" cx="808.12" cy="1267" r="22.33" transform="translate(-140.6 101.55) rotate(-6.62)"/><path class="cls-12" d="M1181.35,628.88c2-7.4,12.59,5.11,21.64,10.17s26.5,14.34,31.14,18.32,13,4,23,12.15,10.82,15.45,10.16,18.88,2.43,6.3,6.85,6.3,11.93,3.53,13.47,18.11-3.31,21.3-11.93,35.94-16.56,25.46-19,24.13c0,0,5.3,10.82,6.85,11.26s2.87.88,9.72,6.85,8.39,8.17,7.73,12.37-3.31,10.38-6.18,8.61-28.4-19.66-28.4-19.66,8.09,15.9,8.09,18.77-6.18,16.34-9.05,15-6.4-11.26-6.4-11.26-9.72,15.24-12.81,14.13-12.81-38-18.11-51.46c0,0-6.63,22.53-9.05,25.62s-12.37,4.2-12.81,2,0-43.06-.44-47.7,9.26-30.92,27.49-71.11c0,0-6.32-8.74-5.85-17.23,0,0-22.1-16.58-24.07-18.33S1178.92,637.93,1181.35,628.88Z"/><path class="cls-13" d="M1221.91,698.95c11.74,11.33,31.73,10.71,38.12,8.24"/><path class="cls-13" d="M1263.5,784.13c-7.34,1.1-8.55,4.59-8.55,4.59"/><path class="cls-13" d="M1242.48,763.15c-2,8.41-4.7,15.25-3.33,17.53s7.21,11.63,7.21,11.63"/><path class="cls-13" d="M1239,814.83c1.15-6.52-1-15.34-4.89-26.1s-6.29-17.74-7.1-21,3.66-12.43,3.66-12.43"/><path class="cls-13" d="M1208.07,777.51c0-9.7-.8-17.89-.66-19.41s11-20.78,11-20.78"/><path class="cls-14" d="M1218.45,684.74l-23.17,55.66-15-9.36a76.59,76.59,0,0,1,5.29-41.67c5.86-13.79,17.63-20.63,25.63-23.83h0l2,3.64S1212.1,678.5,1218.45,684.74Z"/><path class="cls-9" d="M1291.43,655.27c-24.42,3.14-37.31,18.25-37.31,18.25,9.18,7.61,8.38,13.31,8.26,13.93a9.5,9.5,0,0,0,2,8,12.38,12.38,0,0,0,9.68,4.22c3.27,0,7.46,3.58,8.53,13.67,1.25,11.78-2,17.36-9.27,29.55-.63,1.08-1.3,2.19-2,3.35-7.62,13-12.35,18.91-14.5,21.09l-7.32-1.77,2.65,9.51c6.27,12.81,8.14,13.35,9.94,13.86.71.2,1.69.48,7.81,5.82,6.44,5.6,6.32,6.34,6.08,7.83a15.85,15.85,0,0,1-1,3.59c-4.15-2.82-13.11-9.05-25.34-17.59l-.45-.32-11.86-5.57,4.6,11.9c2.71,5.29,6.79,14,7.47,16.57a36,36,0,0,1-3.35,7.67,50.52,50.52,0,0,1-2.41-5.65l-3.4-9.57-5.46,8.57a96.32,96.32,0,0,1-7,9.55c-2.14-5.54-5.26-15.62-7.52-22.89-2.84-9.13-5.51-17.73-7.64-23.12l-5.3-8.78-4.09,9.19c-2.87,9.77-6.75,21.48-8.17,23.89a11.19,11.19,0,0,1-4.12,1.22c-.06-4.4-.06-12.32-.06-19,0-13.92,0-22.61-.24-25.14,0-.51.37-4.06,5.86-18.6l1.73-4.57-4.54-1.8a59.79,59.79,0,0,1-7.73-3.5c-5.81-3.24-12.11-7.09-18.21-11.14-14.08-9.31-23.65-17.11-25.74-19.43-.47-2.71-.61-13.12.71-26a29.45,29.45,0,0,0-4.71-2.82c-24.25-9.93-65.6-9.91-75,39.52-10.59,55.92,13.17,97,58.83,133.73s112.16,52.82,112.16,52.82,20.52-1.29,58.4-42c21.33-22.92,42.54-51.93,53.14-90.06l0-.15C1353.08,731.46,1352.37,647.41,1291.43,655.27Z"/><path class="cls-12" d="M1562.44,976.44c-51.86,17.74-86.06,33.11-89.65,35.07s-4.91,5.89-14.72,9.48-36.63,14.39-50,18-22.89,6.54-24.53-4.58-8.83-8.5-14.06-17,4.25-11.45-2.62-18.64-3.6-16-3.27-22.89-12.15-1.48-14.72-13.08c-1.6-7.2,7.52-14.46,23.22-19.33,0,0,6.58-12.71,7.74-13.68s23.75-2.22,30.71-2.17,21.63-3.43,24.33-4.2,11.33,11.82,16.22,15.5c4.06,3,77.52-33.74,84.08-37.87C1535.14,901,1555.11,925,1562.44,976.44Z"/><path class="cls-15" d="M1381.28,413c-15.07,12-52.36,6.25-47-21.29,0,0,6.17,3.74,9.19.58s1.87-9.75-2.3-13.87-7.77-13-6.33-24.11,15.82-22.58,20.28-22.44,9.06-1.87,19.28-3.6,54.52.86,69.77-3.74,23.88-8.49,36.11,2.16,17.84,24.45,10.36,33.23c0,0,12.08-2.88,19,2s13.81,12.66,13.38,38.41-13.09,73.79-29.78,74.51-117.81-14.1-117.81-14.1Z"/><path class="cls-16" d="M1467.65,403.52c6.07,5.62,9.9,6.3,19.79,7a161.38,161.38,0,0,0,26.09-.9c3.07-.47,9.2-4.05,9.2-4.05"/><path class="cls-16" d="M1477.58,429.11c7.32-.25,7.61,1,16.34,1.91s17.35,2.72,25.95-5.13"/><path class="cls-16" d="M1461.46,382.92c8.3-4.65,25.43-20,29.14-23"/><path class="cls-16" d="M1451.18,327.2c10.75,1.43,26.55,12.36,29.53,20.36,4.38,11.76-3.73,14.19-3.73,14.19"/><path class="cls-16" d="M1500.15,456.67c8.24-3.56,17-19.28,17-19.28"/><path class="cls-16" d="M1334.26,391.71c4.26,10.87,14.2,14.79,20.7,9.52s7.47-21.46,1.35-20.85c-7.36.74-7.25,18.89,4.1,17.54s8.41-18,4.73-22.57-7.77-20,2.7-28.33c14.35-11.41,48.08-8.58,74.57,31.4"/><path class="cls-16" d="M1377.93,347.9c10.39.74,35.17,16.92,36.21,42.74"/><path class="cls-16" d="M1363.93,351.38c9.4.08,32.25,12.7,38.34,40"/><path class="cls-16" d="M1366.21,366.75c13.36-.3,25.67,7.87,28,23.15"/><path class="cls-12" d="M1528.82,554.65c-24.35,18-61,85.17-61,85.17S1450,603,1436,576.65c-6.38-12-12-21.79-14.72-24.94a64.39,64.39,0,0,1-12.44,3.4c-11.27,2-24.07,1.87-29.34-2.43-7.44-6.07-6.2-15.23-6.44-20.08s-9.54-16.1-10.78-21.93-5.57-46.82-4.9-51.41,5.52-15,5.4-17.22c-.1-1.69-3.81-10.28-5-16.56a19.16,19.16,0,0,1-.37-3,6.84,6.84,0,0,1,.19-2c1.35-5.08,8.29-21.55,11.15-27s7.46-15.06,7.46-15.06c23.42,8.79,38.13,5,53.38,3.45,12.34-1.28,33.19-.66,33.34,2.2.45,8.73-5,8.12-5.55,17-.87,13,1.59,16.28,7,18.26s13.3,9.73,13.3,9.73c.6,5.75,1.87,10.63,4.33,12.65,1.63,1.34,1.22,13.55,1.22,13.55,9.73-16.08,19.26-14.69,21.64-4.37s-4.77,20.25-4.62,21C1502.66,485.49,1528.82,554.65,1528.82,554.65Z"/><path class="cls-7" d="M1476,538c-3.3,9.36-28.74,29.9-40,38.69-6.38-12-12-21.79-14.72-24.94,13.88-5.56,45-26.94,56.28-37.55C1478.17,521.91,1478.28,531.61,1476,538Z"/><path class="cls-17" d="M1422.81,545c10.41,14.27,45,84.3,44.78,84.89s5.93-12.65,20.28-38.18a131.86,131.86,0,0,1,35.11-40l-27.79-76.82,2.45-7.56c89.4-1.93,110.8,11.44,117,17.38s3.09,18.78,5,24.42,18.78,11.72,29.72,22.89,8.08,36.85,8.08,36.85c-9.51-9-44.94-17.16-44.94-17.16-29.72,1.14-85.6,44.27-101.53,58.3s-44.94,44-46.84,44-46.36-30.43-59.2-40.66-15.22-22.11-14.27-43.75c.34-7.74,2.72-13.23,5.64-17.09C1396.28,552.49,1413.31,551.7,1422.81,545Z"/><circle class="cls-7" cx="1372.95" cy="445.16" r="5.28"/><circle class="cls-7" cx="1417.57" cy="451.83" r="5.28"/><path class="cls-13" d="M1361.45,441.24c1.68,1.76,6.72,3.36,8.81,3"/><path class="cls-13" d="M1419.56,451.41c2.56,1.68,10.17-.08,11-1"/><path class="cls-15" d="M1386.09,427.24s-13.15.26-15.84-1.22c-2.09-1.14-7.66-1-12.5-.55a19.16,19.16,0,0,1-.37-3c6.54-5.26,16.18-8.31,19.18-8C1380.18,414.89,1386.09,427.24,1386.09,427.24Z"/><path class="cls-15" d="M1403.58,429.29c4.64,2.47,16.8.1,22.78.72s22.89,10,24.95,12.77c0,0,.21-4.33-.82-6.75s-17.61-14.68-23-16-14-.62-15.63,0S1404.82,425,1403.58,429.29Z"/><path class="cls-13" d="M1386.09,427.24c2.16,4.32,2.64,4.64,1.68,14s-3.36,21.21-5.76,26.5-2.68,16.29-2.36,26.54"/><path class="cls-13" d="M1371.12,487.65c1.71,4.64,3.05,6.11,4.4,6.23s9.9,1.22,12.09,0,10.87-6.84,15.15-7.45"/><path class="cls-13" d="M1500.15,472c-8.89,12.07-17.37,13.38-17.37,13.38s.16,17.94-1.13,23.75c-.22,1-1.71,2.79-4.11,5-11.24,10.6-42.4,32-56.28,37.55"/><path class="cls-7" d="M1419.56,506.3s-1.53,2.15-4,5.13c-6.32,7.66-18.78,20.88-27.34,17.64-5.12-1.94-8.72-20-8.72-20,1.09,0,2.38-.1,3.84-.17C1395.82,508.28,1419.56,506.3,1419.56,506.3Z"/><path class="cls-3" d="M1419.56,506.3s-1.53,2.15-4,5.13c-8.9,2.94-21.18,6.79-23.44,6.51-2.92-.36-6.62-4.43-8.78-9C1395.82,508.28,1419.56,506.3,1419.56,506.3Z"/><path class="cls-13" d="M1483.13,455.31c-.19,22-.35,24-.35,24"/><path class="cls-18" d="M1457.57,655.29c19.53-55.93,47.66-91.7,65.42-103.59s32-21.65,30.05-33.76-14-17.42-25.8-17.42"/><path class="cls-18" d="M1504.07,616.27c31.88-26,68.2-58.2,120-71"/><path class="cls-18" d="M1647,556.32c10.75,7.88,21.56,16.56,25.5,27.34s51,132.76,65.72,180.35,22.35,88.33,24.45,105.95-2.37,23.4-11.57,33.91-53.89,30.5-79.92,42.59-28.66,12.62-39.43,11.3-17.61-3.15-21-3.15"/><path class="cls-18" d="M1565.8,649.16c-.62-8.84-.41-11.1,2.47-16.65s19.32-38.44,19.32-38.44"/><path class="cls-18" d="M1572,688.65a534.12,534.12,0,0,0,28.42,63.2c6.62,12.42,37.26,69,37.26,69"/><path class="cls-18" d="M1549.11,722.21c18.51,11.92,38,24.47,47.69,29.18"/><path class="cls-18" d="M1564.85,748.74c10.07,5.54,13.85,8.37,34,9.79"/><path class="cls-18" d="M1186.87,734.69c-1.08-.58-2.17-1.18-3.27-1.79-6.28-3.5-12.64-7.42-18.54-11.34-14.4-9.51-26.09-18.83-27.46-21.26-2-3.6-.51-43.37,6.67-58.76s31.56-32.33,34.39-33.62,13.6.26,28.48,1.29,57.73-10.27,73.9-15.15,15.66-4.11,19.75-8.21,10.53-5.65,16.43-5.1,8.22,9,10.78,6.89,11.3-11.79,18.23-15.13,8.21-.51,17.18-3.85,20.78-9,30.49-12.35"/><path class="cls-18" d="M1246.36,624.11c10.95,10.95,13.74,32.84,12.58,46.58"/><path class="cls-18" d="M1572,877.9c11.73-7.48,30.56-16.62,35-20.22s5-6.09,11.35-5.54c0,0,2.77-12.74,10.25-14.68s34.89,3.6,41,5.82"/><path class="cls-18" d="M1633.3,837.06c.81-6.24,1.42-6.85,19.46-12.52s36.49-2.43,36.49-2.43"/><path class="cls-17" d="M1531.44,903.66c11.88,17.12,26.2,69.86,26.9,74.41s48-16.56,57.88-22.78c0,0-7.8-43.37-33-84C1583.2,871.29,1554.14,887.25,1531.44,903.66Z"/><path class="cls-18" d="M1562.44,967.18c15-9.3,53.77-28.28,53.77-28.28"/><path class="cls-18" d="M1553,958.25c13.23-8.73,55-28.09,58.6-29.61"/><path class="cls-18" d="M1556.18,939.85c17.65-10.44,50.49-24.49,50.49-24.49"/><path class="cls-18" d="M1544.14,931.2c15.65-10.14,60.07-28.55,60.07-28.55"/><path class="cls-18" d="M1538.45,916.92c15.07-9.72,61.38-27.37,61.38-27.37"/><path class="cls-18" d="M1528.28,911c7-5.31,59.73-31.56,59.73-31.56"/><path class="cls-18" d="M1340.25,703.81c11.93.24,32.28.29,32.28.29"/><path class="cls-18" d="M1336.28,658.67c11.43,17.15,26.4,37,32.39,41.92"/><path class="cls-18" d="M1355.06,621.62c-.54,13.1-.27,16.64,5.44,39s16.33,76.22,78.12,193.8"/><path class="cls-18" d="M1470.38,926.15c-3.24-12.16-30-63-31.76-66s.4-9.46,1.75-9.46,34.6,2.43,55.41,1.08,54.44-8.92,57.22-8.65,17.11,19.46,24.41,20"/><path class="cls-18" d="M1713.94,986c9-10.25,18.63-17.08,18.63-21.73s-6.33-5.48-10.67-16.35S1718,931.2,1718,931.2"/><path class="cls-13" d="M1372.06,943.45c23.08-5.25,37.72-4.55,37.72-4.55"/><path class="cls-17" d="M1464.82,1012.74c12.08,4.72,43.92,8.84,56.59,9.14s94.32,2.65,119.66,1.47,77.22.33,77.22.33V989.16s-62.48,3.24-100.8,1.77-102.86-1.77-102.86-1.77S1478.38,999.18,1464.82,1012.74Z"/><path class="cls-18" d="M1493.52,1002.36c.1,8.18,0,12.25,0,12.25"/><path class="cls-18" d="M1512.8,999.3c-.78,10.08,1.36,15.31,1.36,15.31"/><path class="cls-18" d="M1530.44,992.32a220.89,220.89,0,0,0,0,24.22"/><path class="cls-18" d="M1545.75,994.26c-.39,11.82,0,24.22,0,24.22"/><path class="cls-18" d="M1567.84,995.23c1.74,2.91,5.8.26,3.87,27.84"/><path class="cls-18" d="M1586.25,1023.34c3.1-6.79,4.07-14.43,4.46-21s2.91-7.91,4.65-3.06,5.43,18.8,7.36,19.18,1.32-21.31,4-22.09,14.26,25.19,16.2,24.22,1-25.39,1-25.39"/><path class="cls-18" d="M1634.11,995.23c.19,9.5,0,27.84,0,27.84"/><path class="cls-18" d="M1645.54,1023.34c3.88-6.21,3.68-25.2,3.88-28.11,0,0,5.82,26.55,8.33,27.71"/><path class="cls-18" d="M1664.34,1022.9c1.55-7.71.19-27.67,1.55-28.64s7.94,24.42,10.46,24.22,3.88-26.16,3.88-26.16"/><path class="cls-18" d="M1693.79,994.26c0,7.17,1.36,23-1.55,28.64"/><path class="cls-18" d="M1707.75,995.23V1021"/><path class="cls-6" d="M1363.36,946.69c-3.68-12.13-6.49-21.11-7.28-22.8-3.94-8.53-83.61,13.81-91.91,21.55-10.78,10.07,17.68,90.22,23.48,104.74s8.08,16.3,14,18.47c9.85,3.62,54.6-4.76,71.49-15.57,7.46-4.78,11.21-9.2,13.1-12.71a24.61,24.61,0,0,0,1.49-13.45v0c-2.14-4.41-5.36-6.47-7.91-8.1a13.71,13.71,0,0,1-5.08-4.66c-1-1.66-.88-2.14-.16-4.37,1-3.12,2.86-8.91-3.24-15.3-3.19-3.35-2.88-7.19-2.1-13.19.22-1.68.45-3.41.52-5.14a9.35,9.35,0,0,0-4.13-8.5,17.68,17.68,0,0,0-5.6-2.23c-3.7-1-4.56-1.44-5.12-4-.31-1.43,2.21-5,10.23-8.73l-1.8-6"/><path class="cls-10" d="M1275.2,948.76c11.64.6,66.47-13.84,73.46-18.26"/><path class="cls-19" d="M1718.3,1023.68v-6.21c-2.37-.06-28-.77-51.21-.77-10.91,0-19.75.15-26.3.46-4.56.2-11.37.31-20.25.31-29.33,0-73.34-1.14-92.14-1.63l-6.84-.17c-10.79-.25-36.74-3.46-50.49-7.41l-3.36-1-2.56,2.37a22.22,22.22,0,0,1-7,4.59l-1.69,7.31c-4.15,13.68-9.62,30.43-14.29,40.28-8.89,18.76-32.09,73.59-44.45,92.84s-56.79,95.81-69.64,111.62-47.4,85.44-48.4,113.11,1.48,41,7.91,61.73c3.75,12.13,7.28,24.46,9.55,32.6,40.41,3.7,100.63,9.25,163.22,15-1.89-15.54-5.51-44-8.31-56.53-3.95-17.78-3.95-53.83-3.95-53.83s55.81-92.84,58.28-96.31l.46,211,174.38,16.1c2.09-32.31,9.72-150.71,11.84-185.57,2.47-40.5,23.74-196.57,25.2-232.12S1718.3,1023.68,1718.3,1023.68Z"/><path class="cls-18" d="M1659.87,1044.73c2.31,15.52,14.67,31.69,34.24,66.69"/><path class="cls-18" d="M1513.4,1030.29c0,22.38-8.78,35.76-7.75,51.71"/><path class="cls-18" d="M1499.23,1026.56c-2.43,9.39-4.57,26.45-4.78,32.85"/><path class="cls-18" d="M1489.55,1072.29c9.29,15.14,13.77,17.55,13.77,24.44s5.16,124.72,3.1,185.4"/><path class="cls-17" d="M1213.25,669.18c-8.86,3.65-20.6,14.34-26.33,28.43-3.69,9-3.82,24.84-3.32,35.29-6.28-3.5-12.64-7.42-18.54-11.34-2.41-9.11-5.12-23.24-3.71-37,2.35-22.94,24.9-37.82,24.9-37.82l24.31,17.53Z"/><path class="cls-17" d="M1200.55,642.07s21,14.15,23.34,15.07,22.79,10.66,26.47,14.34c0,0,5-10.66-2.39-18.93S1218.57,633.8,1200.55,642.07Z"/><path class="cls-18" d="M1199.5,626.59c16.05-1.43,38.71,12,44.65,22.48"/><path class="cls-18" d="M1217.59,639.05c9.14,10.7,16.54,18.32,16.54,18.32"/><path class="cls-18" d="M1230.45,641.82c6,7.52,13.7,20.25,13.7,20.25"/><path class="cls-18" d="M1179,662.08c9.35,9.21,19.8,17.55,19.8,17.55"/><path class="cls-18" d="M1170.65,670.69c5.89,6.29,16.43,16.84,20.51,18.68"/><path class="cls-18" d="M1162.8,677.35c8.66,7.35,19.05,18.54,24.12,20.26"/><path class="cls-18" d="M1161,689.37c10.9,9,18.77,16.29,23.57,17.5"/><path class="cls-18" d="M1162.06,706.87c7.37,5.27,18,14.81,21.34,15.83"/><circle class="cls-5" cx="1029.6" cy="299.11" r="79.08"/><path class="cls-9" d="M1018.77,253a54.33,54.33,0,0,1,44.4,45c4.43,26.59-11,45-30,47-35.53,3.72-53.49-42.26-20.65-65.62,0,0-3.92,19.5,2.35,19.74S1034.41,279,1018.77,253Z"/><path class="cls-18" d="M362.16,279.66a551.94,551.94,0,0,1,66.51-12.9,21.06,21.06,0,0,1,22.71,14.81c4.12,13.65,9.39,31.6,9.92,35.89s10.8,13.32,18.67,19.61a3.75,3.75,0,0,1-2.39,6.69c-12.18-.19-29.92-.37-31.48.21-1.9.71-38.51,17.2-64.28,22a21.05,21.05,0,0,1-23.44-13.15c-4.12-10.6-9.12-27.27-11.8-50.33A21.1,21.1,0,0,1,362.16,279.66Z"/><path class="cls-19" d="M402.4,312.28c1-19.2,11.6-28.13,20.58-22,11.14,7.65.79,34.44-13.66,46.71,0,0-39.32-11.7-35-27.31C378.91,292.88,402.4,312.28,402.4,312.28Z"/><path class="cls-11" d="M731.87,562.11c-.87-25.4-1.74-45-1.74-45s-13.86-7.21-16.75-11.26-9.82-18.49-9.82-18.49-18.19,0-27.43-14.72-2.31-35.6,25.41-16.54c0,0,9.81-9.45-.58-21,0,0,17.9-9.24.87-24.55,0,0,19.63-3.75,19.93-20.5,20.37,5.54,47.86-10.23,39.84-38.13,11,26.3,33.88,28.11,38.53,12.55,0,0,1.22,23.64,29.1,12.32,0,0,4.12,10.12,6.43,17.16a40.33,40.33,0,0,1,1.45,5.28c.09.51.15,1.15.2,1.91.5,6.83,0,22.53,0,22.53s5-8.84,10.5-4.23c8.9,7.47,7.49,39.8-6.87,43a54.3,54.3,0,0,1-1.39,15.07c-1.13,5.23-7.3,21.23-13.17,36.34a70.54,70.54,0,0,1-3.95,8.69c-3.68,6.56-7.31,8.63-13.14,10.34.37,8.38.2,14.74.6,19.58.55,6.69,2.17,10.5,7.83,12.81,9.77,4,92.76,23.53,106.07,30.63l-306.22,24s22.75-11.26,56.53-21.08S732.73,587.53,731.87,562.11Z"/><path class="cls-9" d="M722.81,588.54s-18.06,8.13-23.94,8.8c0,0-1.35-45,6.47-74.44-13.07,15.49-38.59,40.66-49.63,49.1-1.63-43.34,17-59.47,28.69-65.38,7-3.51,20.67-5.74,30.77-6.93a18.2,18.2,0,0,0,7.92,9.18C726,533.59,726.1,578.25,722.81,588.54Z"/><circle class="cls-4" cx="700.9" cy="486.75" r="9.77"/><path class="cls-4" d="M851.07,461.64a9.76,9.76,0,0,1-9.76,9.77l-.71,0c.21-6.21.43-14.39.57-19.51h.14A9.76,9.76,0,0,1,851.07,461.64Z"/><path class="cls-13" d="M837.32,423.64c-.51,10.95,2.2,23.15,3.71,33.8"/><path class="cls-13" d="M701.55,456.06c3.72,20.11,4.23,22.24,4.23,22.24"/><path class="cls-13" d="M809.31,532.88s-14.64,4.17-24.27,3.25c-8.13-.78-15.33-3.81-39.56-13.17-4.49-1.74-9.57-3.7-15.35-5.9"/><path class="cls-13" d="M701,435.06a47.63,47.63,0,0,0-8.54,0"/><path class="cls-13" d="M772.47,489.35c5.16,4.73,10.11,4.73,24.3,4.52s17.94-4.52,17.94-4.52"/><path class="cls-13" d="M785.81,507.85c4.09,2.58,17.14,2.58,20.61,0"/><path class="cls-13" d="M783.65,471.42c7.1,5.46,9.48,7,15,6.88s7.55-.9,12.57-6.88"/><path class="cls-13" d="M803.67,477c-5.74-21.33-8.86-33-6.25-48.23s16.34-26.46,26.32-30"/><path class="cls-7" d="M837.32,401.1c-13.1,1.43-28.89,7.66-29.13,7.9,6.47-10.09,19.7-13.77,27.48-15.09a40.33,40.33,0,0,1,1.45,5.28C837.21,399.7,837.27,400.35,837.32,401.1Z"/><circle class="cls-7" cx="819.71" cy="431.1" r="6.71"/><circle class="cls-7" cx="758.73" cy="440.54" r="6.71"/><path class="cls-13" d="M821.74,429.5c4.65,1.11,10.05-1.56,10.87-4.47"/><path class="cls-13" d="M744,436.8c3.58,4,12.38,3.3,13.48,2.75"/><path class="cls-7" d="M719.68,418c15.1-5.38,44.84-10.16,56.8-5.53,0,0-2.39-5.53-18.39-9.57C750.08,400.85,728.35,405.86,719.68,418Z"/><path class="cls-4" d="M721.52,512.14c-8.41,11.2-10.18,32.06-10.85,39"/><path class="cls-4" d="M674.71,538.73c9-15.09,30.61-28.79,36-30.88"/><path class="cls-20" d="M698.15,907.19s-8.52-36.34-17.13-56c-16.57-3.87-31.81-7.83-45.66-11.75-23.8-6.7-43.54-13.24-59.14-18.9C547.6,810.21,533,802.81,533,802.81S569.75,685.68,573.41,680l1.23-1.91c3.23-5,6.25-10.11,6.25-16,0-6.67,2.91-12.22,14.51-24.3,2-2.09,3.92-4.16,5.9-6.17,9.5-9.72,20.05-18.18,45-20,57.78-4.17,251.24-19.84,251.24-19.84a130.15,130.15,0,0,1,13.28-.6c19.07.3,34.23,7.45,47.65,40.51,15.69,38.63,61.45,149,61.45,149l-49.82,31.54-73.61,46.58s-1.66,45.59-2.5,84.23,13.62,144.52,7.78,193.88-13.62,81-13.62,81l-19.73,2.21-69.17,7.72-43.53,4.87-67.18,7.5-83.3,9.31-18.16,2s-.55-57.16,13.91-122.82S643,995,669.1,969.47s30.57-40.87,30.57-40.87"/><path class="cls-5" d="M635.35,839.47c-23.8-6.7-43.54-13.24-59.14-18.9-3-23.48-3.05-33.89-1.89-68.82.74-21.89.63-50.11.31-73.64,3.23-5,6.25-10.11,6.25-16,0-6.67,2.91-12.22,14.51-24.3,2-2.09,3.92-4.16,5.9-6.17,1.07,15.27,4.15,42.46,12.19,90C625,789.65,632.2,825,635.35,839.47Z"/><path class="cls-5" d="M774.08,909.42c-.47,4.74-13.74,41.24-48.36,147.9-27.22,83.87-35.07,156-37.19,183l-83.3,9.31c1.66-123.46,70.78-242.54,86.35-270,16.13-28.44,27.5-56.42,27-64.47s-7.11-34.13-15.17-61.62-14.7-42.67-28.44-69.35-17.06-61-19.39-89.93c-2-25.15-4.87-55.7-9.32-82.56l68.67-5.1C712,657.33,749.84,769.4,763.18,831.67,772.23,874,774.56,904.67,774.08,909.42Z"/><path class="cls-20" d="M704.41,912.37c50.54-7.44,140.25-12.14,185.7-3.53"/><path class="cls-20" d="M709.89,921.41c45.05-6.68,107.74-14.21,177.08-4.73"/><path class="cls-5" d="M853.12,904.91c-6.88,26.77-16.57,72.42-29.91,142.82-10.14,53.59-19.89,141.33-24,180.19l-43.53,4.87c11.53-171.3,49.65-266.59,56.83-316C820,865.35,804,778.39,798.43,749.33c-5-26.31-27-103.51-40.18-146l71-5.33C888.64,802.45,859.86,878.69,853.12,904.91Z"/><path class="cls-5" d="M894,943.06c-.83,38.64,13.62,144.52,7.78,193.88s-13.62,81-13.62,81l-19.73,2.21c5.89-77.29,9.85-132.75,7.71-181.39-2.41-55,7.93-149.2,23.73-207.45s18-102,0-151.72c-11-30.44-18.11-63.92-22-85.32l33.06-2.52a226.28,226.28,0,0,0,15.61,50c16.89,37.76,46,111,43.55,170.43l-73.61,46.58S894.81,904.42,894,943.06Z"/><path class="cls-13" d="M1093.47,1224.54c-3.19-7.23-4.4-9.44-4.4-9.44"/><path class="cls-13" d="M1151,1183c26.07,0,36.5-.66,42.52,2.08s38.19,12,38.19,12"/><path class="cls-13" d="M1170.29,1171c9.23,1,18.43,0,23.6,2.05s11,4.16,11,4.16"/><path class="cls-13" d="M437.48,680.73c-12.56-7.57-17.1-40.09-1.46-51.94"/><path class="cls-13" d="M329.06,601.18c47.09,35,64.4,46.32,64.4,46.32"/><path class="cls-13" d="M551.87,855.88c4.62,10.69,17.45,35.14,27.16,64.74,4.06,12.37,4.14,22.8-2.8,36.67"/><path class="cls-18" d="M940.07,1079c29.1-10.27,32.46-16.58,29.11-21.26S952.68,1062.66,940.07,1079Z"/><path class="cls-18" d="M970.84,1101.47c28.47,11.89,35.2,9.47,35.85,3.76S991.16,1097.81,970.84,1101.47Z"/><path class="cls-7" d="M809.9,552.46c-9.51,1.07-23.88,2.11-33.46.19-12.06-2.41-26.21-19.94-31-29.69,24.22,9.36,31.42,12.39,39.56,13.17,9.63.92,24.27-3.25,24.27-3.25C809.68,541.27,809.51,547.62,809.9,552.46Z"/><path class="cls-18" d="M668,1093.61c-10.81-15.7-10.2-20.08-6.83-21.2S667.62,1080.86,668,1093.61Z"/><path class="cls-18" d="M949.86,1142c19,1.59,22,4.83,20.73,8.15S960,1149.83,949.86,1142Z"/><path class="cls-18" d="M632.9,1111.28c-29.1-10.27-32.46-16.58-29.11-21.26S620.28,1094.94,632.9,1111.28Z"/><path class="cls-18" d="M635.37,1148c-30,7.19-46.42,3.4-46.15-2.34S615.9,1141.1,635.37,1148Z"/><rect class="cls-17" x="660.91" y="1097.39" width="265.54" height="90.91" rx="11.34" ry="11.34" transform="translate(-136.91 108.43) rotate(-7.2)"/><path class="cls-3" d="M697.11,1133.5l10.86-1.37,11.15,24.41,4.74-26.42,10.47-1.32,10.81,41.72-8.71,1.1-7.51-29.37-5.56,31-4.15.52-13.38-28.89.27,30.55-8.85,1.12Z"/><path class="cls-3" d="M761.17,1125.41l7.08-.89,22.63,40.22-9.2,1.16-4.45-7.9L761,1160.06l-2.27,8.75-9.15,1.16Zm5.29,13.44L763.06,1152l10.08-1.27Z"/><path class="cls-3" d="M785.07,1122.4l28.52-3.6,1.14,9L805,1129l4.22,33.39-9.14,1.15-4.22-33.39-9.66,1.22Z"/><path class="cls-3" d="M850.31,1116.46l1.3,10.33q-7.4-3.26-12.57-2.61a10.51,10.51,0,0,0-7.82,4.6q-2.65,3.95-1.89,10a12.7,12.7,0,0,0,4.41,8.68,11.6,11.6,0,0,0,9.15,2.31q4.78-.6,10.95-5.29l1.3,10.27a41.23,41.23,0,0,1-12.12,4.06,19.46,19.46,0,0,1-15.33-4.45,21.57,21.57,0,0,1-7.91-14.57,21.9,21.9,0,0,1,4.12-16.35,19.86,19.86,0,0,1,14-8.25A30.14,30.14,0,0,1,850.31,1116.46Z"/><path class="cls-3" d="M856.8,1113.34l9.14-1.15,2.06,16.34,15-1.9L881,1110.29l9.14-1.15,5.35,42.4-9.14,1.15-2.13-16.86-15,1.9,2.13,16.86-9.14,1.15Z"/><rect class="cls-9" x="1359.14" y="1361.06" width="265.54" height="90.91" rx="11.34" ry="11.34" transform="translate(132.78 -128.69) rotate(5.17)"/><path class="cls-3" d="M1399.59,1376.71l10.9,1,5.67,26.24,10.29-24.79,10.51,1,1.63,43.06-8.74-.79-1-30.3-12.08,29.11-4.16-.38-6.88-31.08-6.28,29.89-8.89-.8Z"/><path class="cls-3" d="M1463.9,1382.53l7.11.64,13.49,44.14-9.23-.84-2.65-8.67-16.34-1.48-4.09,8.06-9.18-.83Zm2.29,14.26-6.14,12.09,10.12.92Z"/><path class="cls-3" d="M1487.89,1384.7l28.63,2.59-.82,9-9.76-.88-3,33.52-9.17-.83,3-33.52-9.69-.88Z"/><path class="cls-3" d="M1552.88,1392.86l-.94,10.37q-6.53-4.77-11.72-5.24a10.51,10.51,0,0,0-8.62,2.82q-3.43,3.29-4,9.32a12.7,12.7,0,0,0,2.45,9.42,11.6,11.6,0,0,0,8.44,4.21q4.8.43,11.83-2.82l-.93,10.31a41.23,41.23,0,0,1-12.71,1.37,19.46,19.46,0,0,1-14-7.63,21.57,21.57,0,0,1-4.61-15.93,21.9,21.9,0,0,1,7.53-15.09,19.86,19.86,0,0,1,15.44-5.06A30.14,30.14,0,0,1,1552.88,1392.86Z"/><path class="cls-3" d="M1559.9,1391.21l9.17.83-1.48,16.4,15.08,1.36,1.48-16.4,9.17.83-3.85,42.57-9.17-.83,1.53-16.92-15.08-1.36-1.53,16.92-9.17-.83Z"/><g class="cls-21"><path class="cls-22" d="M1363.19,1316.38c-25-18.12-26.41-25.12-21.87-28.65S1355.74,1297.13,1363.19,1316.38Z"/><path class="cls-22" d="M1320.71,1335.24c-30.16-6.54-34.29-12.38-31.55-17.43S1306.15,1320.61,1320.71,1335.24Z"/><path class="cls-22" d="M1615.57,1339.38c10.24-29.11,16.54-32.48,21.22-29.14S1631.89,1326.75,1615.57,1339.38Z"/><path class="cls-22" d="M1705.55,1400.22c29.88-7.7,44.27-4.38,44.1,1.37S1725.13,1406.74,1705.55,1400.22Z"/><path class="cls-22" d="M1669.19,1364.7c12-14.78,16.42-15.42,18.43-12.5S1681.32,1360.78,1669.19,1364.7Z"/></g><g class="cls-23"><polygon class="cls-24" points="915.98 1141.35 921.67 1072.32 905.62 1074.35 907.86 1141.15 915.98 1141.35"/><path class="cls-24" d="M911.84,1146.11a5.26,5.26,0,0,0-3.91,1.51,5.35,5.35,0,0,0-1.68,3.88,5.21,5.21,0,0,0,1.5,3.87,5.5,5.5,0,0,0,7.74.17,5.2,5.2,0,0,0,1.7-3.77,5.33,5.33,0,0,0-1.51-3.94A5.24,5.24,0,0,0,911.84,1146.11Z"/></g><g class="cls-23"><polygon class="cls-25" points="1615.93 1363.58 1603.81 1429.31 1611.7 1431.24 1632.04 1365.03 1615.93 1363.58"/><path class="cls-25" d="M1606.64,1435a5.26,5.26,0,0,0-4.15.63,5.35,5.35,0,0,0-2.47,3.43,5.21,5.21,0,0,0,.63,4.1,5.5,5.5,0,0,0,7.52,1.82,5.2,5.2,0,0,0,2.47-3.32,5.33,5.33,0,0,0-.63-4.17A5.24,5.24,0,0,0,1606.64,1435Z"/></g><circle class="cls-26" cx="741.32" cy="476.14" r="22.36"/><path class="cls-13" d="M1378.24,509.12c1.29,0,41.33-2.82,41.33-2.82"/></svg>