<svg id="Layer_1" data-name="Layer 1" xmlns="http://www.w3.org/2000/svg" viewBox="0 0 2267.72 1700.79"><defs><style>.cls-1{fill:#e7a184;}.cls-14,.cls-17,.cls-18,.cls-19,.cls-2,.cls-20,.cls-21,.cls-9{fill:none;stroke-linecap:round;stroke-linejoin:round;stroke-width:3px;}.cls-19,.cls-2{stroke:#2c2f53;}.cls-3{fill:#0d1536;}.cls-11,.cls-12,.cls-4{fill:#f06082;}.cls-10,.cls-21,.cls-4{opacity:0.25;}.cls-12,.cls-20,.cls-5{opacity:0.5;}.cls-6{fill:#63cdf6;}.cls-7{fill:#fcc9a1;}.cls-8{fill:#2c2f53;}.cls-21,.cls-9{stroke:#505c7b;}.cls-13,.cls-15,.cls-18,.cls-19{opacity:0.75;}.cls-14,.cls-18,.cls-20{stroke:#f06082;}.cls-15,.cls-22{fill:#dc6437;}.cls-16{fill:#fff;}.cls-17{stroke:#54c3e5;}.cls-22{opacity:0.3;}</style></defs><title>Pria dan wanita menonton di bioskop</title><path class="cls-1" d="M1648.47,1052.16c3.12,67.72-3.94,95.36-5.3,105s-1.77,17.93-7.47,25.81-13.18,6-20.24,5.71-17.66,3.4-45.5,7.74-72.26,1.22-84.35.54-59.5-6.38-83-8.29-57.87-1.63-57.87-1.63c-4.62,8.42-30.56,27.3-36,30.43s-14.53,12.36-18.88,14-26.35,1.09-34.37.41-23-.35-26.18-1-24.79-6.19-31.37-9.4,5.25-11.75,5.25-11.75-13.11-1.51-20.33-3.57,3.82-11.32,3.82-11.32c-3.49.16-11.12-1.07-11.28-3.77-.54-9.24,14.15-14.58,19.06-14.33,2.41.13,34.56,4.07,45.72,5.24,4.6.48,32.55-9.84,33.18-13.81.37-2.33-30.78,7.09-30.78,7.09-21.93-7.4-39.88-10.87-47.34-13.44s-6.72-7.91,4.77-13.31c9-4.25,33.53,1.42,45.61,1.16s35.33-12.79,36.82-22.05c.66-4.07.71-34.78.71-34.78s14.67-.42,19.38.1,30.59,13.51,36.24,14.66,33.94,1.36,45.46.31,34.46-3.25,51-5.24,36.66-4.92,56.56-8.17,44.73-10.27,50.91-11.42c0,0-2.3-18.54-4-29.22s-8.2-55.22-12-79.12-10.05-71.72-13.58-89.38-15.21-74.71-16.84-97.26-.52-68.21,13.19-79.2c0,0,19.14-2.3,37.07,6.67s34,36.95,41.84,53.52,30.43,103.55,36.68,141S1646.36,1006.5,1648.47,1052.16Z"/><path class="cls-1" d="M1156.71,966.61c-2.83-19.09,17.53-18.91,21.2-10.18.22-6.85,11.36-13.57,18-5.77,17-12.75,25.58,2.71,25.58,2.71,1.12-9.67-10.23-65.47-16.6-93a311.83,311.83,0,0,1-7.35-51.46c19.29-6.6,25.57-33.47,25.11-43a158.69,158.69,0,0,1,.46-19.35s11.16-7.29,12.3-6.15,10.25,15.26,10,17.3c-1.14.91-10,8.88-11.84,13.21s5.69,15.26,9.56,13.21,10.93-13.21,18.44-21.63,9.56-9.56,4.94-15.26-47.56-76-47.56-76L1197.61,673s-17.76,40.7-22.22,50-28.33,53.74-29.69,58.52-1.59,31.65-1.59,31.65c-12.07,7.06-20.95,32.79-22.54,65.8s6.6,77.64,10.7,99.07a33.75,33.75,0,0,1,7.32-1C1138.55,973,1144.19,961.28,1156.71,966.61Z"/><path class="cls-2" d="M1144.13,810.84c-.4,34.8-.59,112.56-.5,142"/><path class="cls-2" d="M1205.88,693c10.56-3.46,16.68-3.63,16.68-3.63"/><path class="cls-2" d="M1216.44,702.05c10.75-2.34,16.33-2.47,16.33-2.47"/><path class="cls-2" d="M1230.47,712.28a125.18,125.18,0,0,1,20-1.81"/><path class="cls-1" d="M1433.38,738.84c-24.5,52.07-49.31,106.84-77.33,171.26-38.54-26-81.81-113.29-81.81-113.29,20.21-3.66,20.52-7.41,19.71-11.15-.39-1.81-6.38-15.52-12.48-29.22-6.55-14.7-13.21-29.39-13.21-29.39a92.69,92.69,0,0,1-23.75-12.58,154.23,154.23,0,0,1-31.64-31c-15,2.14-38.26-2.67-45.23-23.82-6.23-18.93,6.5-22.81,6.5-22.81l5.43-6.36V564.12s1.23-23.07,6.8-27.88,16.06-11.77,19-12,17.66,14.18,22.21,13.36,113.73,6.18,113.73,6.18l17.4,32.11c11.24-6.15,31.84-.17,29.17,19.64s-22.47,35-22.47,35c4.54,36.13-6.42,56.74-6.42,56.74,9.37,28.91,29.17,58.34,36.39,65.83S1432.58,739.4,1433.38,738.84Z"/><path class="cls-3" d="M1174.14,636.8c6.09,1,10.26,1.6,11.54,0s30.77-25,12.18-80.14c0,0,30.45,51.29,73.08,22.44,0,0,33.5,2,44.08-14.67,0,0,18.46,11.41,37.34,7.94,0,0,1.93,10,2.24,10.9.61,1.78,8.55-9.49,8.55-10.79s-.95-29.82-21.62-56.33c-21.9-28.08-62.49-49.6-102.32-43.2-24.84,4-59.63,29.25-72.34,70.57S1167.63,630.11,1174.14,636.8Z"/><path class="cls-3" d="M1174.14,636.8c6.09,1,10.26,1.6,11.54,0s30.77-25,12.18-80.14c0,0,30.45,51.29,73.08,22.44,0,0,33.5,2,44.08-14.67,0,0,18.46,11.41,37.34,7.94,0,0,1.93,10,2.24,10.9.61,1.78,8.55-9.49,8.55-10.79s-.95-29.82-21.62-56.33c-21.9-28.08-62.49-49.6-102.32-43.2-24.84,4-59.63,29.25-72.34,70.57S1167.63,630.11,1174.14,636.8Z"/><path class="cls-3" d="M1202.39,490.94c-24-6-33.23-34.44-30-57.12s24-52.06,63.56-52.7,89.81,48.86,36.41,94.54Z"/><path class="cls-4" d="M1354.61,894.11c15.21-37.51,60.28-136.23,66.58-147.62,0,0,21-12.2,39-20.95s38.37-17.76,55.13-16.65c0,0-11.66,15-11.41,52.35s3.64,64.36,10,90.1,11.41,46.14,17.24,97.14,20.63,139.44,20.63,139.44-23.64,7.26-40.88,10.31c-17,3-60.11,11.43-105.07,14.66-41.73,3-68.61,4.46-68.61,4.46s-32.87-15.49-37.76-16.3-24.18.27-24.18.27l-2.69-103.07s.31-27.68-19.71-23.4c1.84-9.8-1.19-18.79-14.55-12.63,7.76-8.51-3.74-16.45-15.42-4.3,0,0-1.11-8.63-7.16-10.21-2.47-10.44-6.9-25.46-8.67-34.65-2.72-14.14-19-79.9-18.86-110.06,17.25,2.45,88.77-4.64,96.29-8.65C1284.44,794.38,1319.92,866.46,1354.61,894.11Z"/><g class="cls-5"><path class="cls-6" d="M1449.87,690.56c-9.45-1-30.39-2.28-50.19-3,1.79,11.82,3.29,23,4.52,32.87,18,3.59,34.78,10.55,41.6,15.12a7.51,7.51,0,0,1,2.76,3.34c-4.12,1.92-9.48,4.4-15.24,7a134.3,134.3,0,0,0-27.24-9.5c1.1,9.82,1.79,17.06,2.11,20.51-8,3.3-14,5.43-14.74,4.77h0a8.31,8.31,0,0,1-.22-1.28c0-.24-.91-10.65-2.76-26.69a65.33,65.33,0,0,0-13.57-.09c-2.63-4.6-5.34-9.37-8-14a67.1,67.1,0,0,1,19.67-1.29c-1.21-9.5-2.66-20.08-4.38-31.19-12.2-.24-22.41-.13-26.82.58a7.66,7.66,0,0,1-4.38-.61,44.83,44.83,0,0,0,6.43-14.88c5.42-.38,13.32-.46,22.3-.33-.84-5-1.73-10-2.68-15,5,.26,10.28.52,15.62.78q1.35,7.34,2.56,14.58c21.84.72,45.37,2.18,55.23,3.26A123.22,123.22,0,0,0,1449.87,690.56Z"/><path class="cls-6" d="M1189.68,691.11c-9.64,2.34-28.45,6.55-52.73,10-1.52-14-2.84-26.75-3.81-37.39-5.06.15-10.25.33-15.24.49,1,11,2.37,24.35,3.94,38.85-9,1.05-18.19,1.92-27.38,2.49-.38,5.12-.77,10.31-1.15,15.3,10.17-.55,20.35-1.49,30.21-2.63,1.36,12.17,2.8,24.84,4.28,37.43-11.37,2-23.84,4.23-36.81,6.65l-5.34,1-6.94,1.31c-.43-2.55-.87-5-1.28-7.48-5-3.67-11.29-8.28-17.58-12.76,1.16,6.94,2.48,14.71,3.92,23.12-13,2.54-26.06,5.22-38.68,8-.12,2.22-.25,4.48-.4,6.74q0,1-.13,2c-.09,1.33-.17,2.66-.28,4,0,.66-.09,1.34-.15,2-.35,4.69-.77,9.41-1.26,14-.08.65-.14,1.29-.22,1.93l-.33,2.83c-.51,4.23-1.1,8.33-1.75,12.21-.1.6-.2,1.18-.3,1.77-.32,1.75-.64,3.46-1,5.11-.11.55-.23,1.1-.35,1.63l-.46-.66h0l0,0-.37-.53q1.4,9.24,2.88,19.06c-7.1,1-13.89,1.88-20.21,2.53-12.06,1.25-24.12,3-36.37,5.23-3.51-19.18-5.93-32.84-6.68-38.2-.4-2.83-.78-5.67-1.15-8.51q7-2,14.09-4.09c8.28-2.42,17.65-4.88,27.73-7.32L997.7,796c-.61-1-1.21-2.09-1.81-3.14-1.76-3.06-3.53-6.23-5.28-9.45-8.75,2.15-16.91,4.32-24.23,6.47q-5.92,1.74-11.71,3.4c-1.74-14.81-3-28.16-3.8-36.51-4.63,3.87-9.41,8.12-14.09,12.39.79,8.05,1.83,17.91,3.08,28.37q-33.32,9.47-63.2,17.44c-2.91-16.51-5.72-32.31-8.33-47,8.41-2.35,16.28-4.48,23.23-6.31-.64-2.72-1.3-5.43-2-8.11-.55-2.2-1.14-4.42-1.75-6.66-6.69,1.77-14.2,3.8-22.21,6-3-16.54-5.68-31.24-8-43.34l-14.52,5.07c2.28,11.92,4.9,26.29,7.81,42.39-17,4.84-35.19,10.23-52,15.5-3.67-15.78-6.9-29.19-9.23-38.78L775.3,739c2.34,9.67,5.49,22.84,9.05,38.14-14.65,4.78-27.41,9.29-36.15,13-6.56,2.76-14.2,5.76-22.76,8.91-4.48-13.19-8.85-25.23-12.88-36.09-5.47,2.13-10.15,3.94-14.18,5.49,4,10.75,8.3,22.67,12.73,35.72-10.28,3.55-21.53,7.22-33.49,10.85-2.27.68-4.57,1.38-6.9,2.06-3.79-11.81-7.36-22.78-10.55-32.56A130.82,130.82,0,0,0,647,793c3,9.11,6,18.54,9.13,28.21-10.48,2.91-21.35,5.75-32.5,8.42-.4,2.15-.78,4.35-1.17,6.6a93.5,93.5,0,0,1-2.61,9.93c14.09-3.27,27.82-6.8,40.91-10.45,3.47,10.93,7,22.09,10.45,33.34-13.74,3-28.45,6.06-44.32,9-2.77-10.67-5.36-20.68-7.67-29.84-2.24,7.19-5.38,16.46-8.9,26.55q.77,3,1.55,6l-3.89.66c-1.89,5.39-3.87,10.92-5.84,16.42q6.91-1.14,13.56-2.3c3.77,14.54,7.72,29.75,11.58,45-14.21,1.81-28.13,3.19-42,4.28-3.13,8.67-7.27,19.93-11.78,32.18q3.57,16.53,6.11,30.81-9,1.34-18.53,2.83l-6,16.33q14.12-2.23,27-4.16c2.31,14.69,3.84,27.4,4.78,38.27,1.35,0,2.7.1,4,.16l3.09.12,4.53.17,1.85.08,1.81.07c-1-11.56-2.54-25.2-5-41.08,17.42-2.51,33.19-4.61,47.58-6.39,3.86,18,6.94,34.49,8.73,48.15l6.89.07h1.25l2.5,0h1.27l3.42,0c-1.78-14.24-4.93-31.39-8.92-50.12,19.38-2.27,36.06-4,50.82-5.34,5.38,21.28,9.69,40.37,12.44,56l2.78,0,2,0h1.39l9.27.1c-2.72-16.18-7.1-35.89-12.52-57.52l2.21-.2,7.35-.65c8.23-.73,15.81-1.4,23-2.1,3.84,20.22,7.82,41.48,11.74,62.68l-9.92,2.1-19,4,3.11,14.29.05.25c18.59-4.19,37.68-8.74,42.7-10.74-.32-1.68-.64-3.46-1-5.29-3.79-20.78-9-50.75-12.46-68.9a370.54,370.54,0,0,0,36.87-5.91c4.14-.9,9.32-2,15.39-3.22,3,16.6,6.48,35,10.37,54.49.33,1.62.65,3.26,1,4.9,0,0,5.65-3.18,14-7.81-.34-1.68-.67-3.37-1-5-3.51-17.68-6.68-34.38-9.38-49.54,14.08-2.8,31-6.1,49.64-9.67,2.13,11.42,4.22,22.45,6.24,32.9.37,1.95.75,3.88,1.12,5.78l4.91-2.6c2.8-1.47,5.32-2.76,7.43-3.81l.58-6.19,1.87-20,2.45-26.19-6.34,1.2-6.07,1.16c-4.3-23.36-8.74-48-13.14-72.71,22.09-6.29,42.66-11.61,62.48-15.74,1.92,10.44,4.09,22.1,6.44,34.77q.82,4.4,1.66,9,4.53.1,8.83.4,3.49.24,6.82.62c-1.63-8.8-3.21-17.28-4.71-25.32-1.46-7.89-2.85-15.37-4.13-22.34,2.06-.37,4.12-.74,6.17-1.08l2-.35c5.91-1,11.77-1.83,17.62-2.56q4.68-.59,9.36-1.06c6.56-.68,13.58-1.58,20.89-2.62.39,2.66.79,5.35,1.18,8.05,2.63,17.87,5.36,36.73,8.14,56.16.41,2.88.83,5.76,1.24,8.66,3.94,2.14,6,3.59,6,3.59l-3.38,14.94c.36,2.56.73,5.15,1.09,7.73q1.12,7.86,2.24,15.78l4.75,33.85q-6.47,1.09-13.17,2.27l-8.75,1.54-3.64,16.07,8.73-1.56q9.7-1.73,18.94-3.3c2.06,14.79,4.13,29.51,6.15,44q1.55,11,3,21.47c-14.84,2.71-30.06,5.14-44.64,6.92l-1.91.24c0-.26-.09-.51-.14-.77q-1.16-6.52-2.34-13.08l-3.11,13.72-.45,2-2,9-3,13.45q1.42,8,2.8,15.92c2.83,16.19,5.53,31.85,8,46.64-22,4.55-42.68,8.67-59.15,11.65-.26-1.33-.53-2.66-.8-4-.47-2.34-.65-3.23-1.13-5.61a68.28,68.28,0,0,1-15.75-1.17c.55,2.79.74,3.73,1.3,6.47q.7,3.47,1.38,6.88c-6.73,1.08-12.12,1.8-15.77,2.06-5.61.41-12.77.83-21.07,1.3l-13.11.77c-3.48-16.67-7.1-33.87-10.78-51.37-.21-1-.42-2-.63-3l-1.27-6c-4.1,3.51-8.94,6.52-14,7.28.34,1.63.68,3.26,1,4.89,0,.08,0,.16.05.24,3.5,16.65,6.94,33.06,10.27,49-17.73,1.17-37.73,2.74-58.29,5l-.26-1.65c-1.86-11.91-4.23-26.22-7-42.14q-.59-3.39-1.18-6.9l-13.54,11c.41,2.38.8,4.74,1.2,7,2.11,12.43,4,23.69,5.46,33.36.05.38.11.75.17,1.13-13.33,1.72-26.72,3.76-39.72,6.24.27,5.38.53,10.52.79,15.34,13.43-2.62,27.36-4.76,41.25-6.54,5.78,37.65,10.27,68.48,12.68,85.32l15-2.37c-2.42-16.84-6.88-47.43-12.61-84.75,20.89-2.31,41.21-3.88,59.1-5,3.52,17,6.85,33.37,9.89,48.76l-.42.07c-15.91,2.55-30.93,5-44.93,7.48a7.61,7.61,0,0,0,1.33,15.1,8.07,8.07,0,0,0,1.35-.12c13.89-2.49,28.84-4.9,44.67-7.44l.91-.14c1.09,5.61,2.11,11.07,3.09,16.35l15-2.38q-1.47-8-3.1-16.41c15.6-2.53,31.92-5.26,49-8.37,1.28,6.43,2.41,12.05,3.34,16.67,5.32-.92,10.35-1.81,15-2.66-.92-4.64-2.05-10.31-3.36-16.82,17.84-3.43,36.48-7.35,56-12,.93,6.66,1.72,12.7,2.34,18l15-3c-.65-5.55-1.48-11.81-2.45-18.7l4.8-1.2c12.9-3.29,25.12-6.13,36.57-8.56l1.11-.24q1.78,11.64,3.19,20.17l14.89-3c-.92-5.72-2-12.53-3.16-20.24,37.28-11.78,78.73-5.72,78.84-5.73,2.29-3.39,4.82-6.87,6.11-8.63l-26.21-2.37-1.31-7.77q-2.89.33-6.13.74c-13.54,1.71-31.7,4.42-53.55,8.68-1.83-12.33-3.85-26.24-6-41.23,17.92-3.9,35.73-7.84,52.61-11.57l5.53-1.23c-.83-4.86-1.66-9.89-2.52-15l-5.38,1.2c-14,3.09-32.29,7.14-52.4,11.53-3-20.82-6.11-43.25-9.3-66.12,18.14-3.55,35.11-7.32,49.05-10.61l2.22-.52,5-1.2c-.87-5.39-1.68-10.46-2.41-15.11l-5,1.2c-5,1.18-10.42,2.43-16.19,3.74-10.64,2.39-22.45,4.91-34.78,7.35l-2.9-20.74c-2-14.65-4.12-29.51-6.22-44.43,17.62-2.88,33.49-5.22,46.88-6.85l3.14-.55a42.37,42.37,0,0,1,4.66-.63l-1.68-11h3.62a11.21,11.21,0,0,1-.16-3,10.05,10.05,0,0,1,2.1-5.67c-.32-1.73-.63-3.49-1-5.29-2.75-15.12-5.93-32.62-9.33-51.4,6.17-1,10.79-1.8,15.47-2.55l5.12-.83c-.63-5-1.42-10-1.9-15.1l-5.11.8c-5,.79-9.76,1.6-16.3,2.68-4.36-24.14-9-49.75-13.41-74.61,12.92-2.66,23.14-4.87,33.24-7.14,2.38-.52,4.75-1.06,7.15-1.61a57.43,57.43,0,0,1,9.9-17.63,27.78,27.78,0,0,1,4.81-4.57c-1.4-11.49-1.86-24.3-3-37.85-.35-4.24-.75-8.55-1.26-12.91,3.49-.6,6-1,8.19-1.39,2.52-.43,4.76-.8,7.81-1.31,2.85-5.51,5.34-11.31,8.19-16.78l-7.25,1.18c-4.88.82-10.37,1.74-18.72,3.17-1.45-12.39-2.88-24.83-4.21-36.76,19-2.66,32.43-5.12,43.17-7.34,2.22-.47,4.32-.91,6.34-1.36,2.68-6.05,6.32-13.16,8.54-18.23C1196.15,689.47,1193.73,690.13,1189.68,691.11Zm-336.1,81c2.61,14.62,5.4,30.35,8.3,46.78l-24.62,6.55c-8.52,2.27-16.8,4.47-24.91,6.64-3.41-15.64-6.82-30.79-10-44.67C818.79,782.25,836.75,776.93,853.58,772.12Zm-99.5,32.06c8.08-3.4,20-7.6,33.71-12.09,3.15,13.7,6.51,28.61,9.85,44q-6,1.61-11.93,3.24c-6.82,1.87-13.77,3.81-20.93,5.81-7.37,2.05-15,4.19-23,6.39-3.77-13.46-7.65-26.15-11.49-38C739.21,810.19,747.23,807.05,754.09,804.17Zm-49.57,122.7c-4.57-15.64-9.28-31.31-14-46.59q6.21-1.47,12.16-2.91c10-2.45,19.38-4.86,28.33-7.24,3.91,14.89,7.65,30.68,11.07,47.34q-18.08,4.91-34.94,8.79ZM683.8,829c11.43-3.49,22.2-7,32.1-10.42,3.73,11.51,7.48,23.8,11.14,36.85-9.18,2.43-18.84,4.91-29.09,7.41q-5.82,1.42-11.89,2.85c-3.65-11.8-7.26-23.24-10.71-34.14Q679.63,830.3,683.8,829Zm-89.14,176.63c-2.45-13.69-5.52-28.83-9.38-45.51,15.08-1.16,30.21-2.66,45.71-4.67,3.71,14.93,7.28,29.74,10.48,43.88C627.28,1001.12,611.76,1003.19,594.66,1005.66Zm47.76-67.12c-3.91-15.5-7.9-30.91-11.74-45.66,16.13-3,31-6.09,45-9.18,4.75,15.52,9.42,31.11,13.9,46.44Q680.63,932,672,933.6,656.87,936.42,642.42,938.53Zm14.21,59c-3.21-14.26-6.78-29.14-10.5-44.15,14.68-2.18,29.76-4.84,45.49-8.12l2.17-.45.62,2.16c2.79,9.75,5.48,19.34,8,28.68q2.3,8.43,4.43,16.55C692.22,993.58,675.72,995.27,656.63,997.52Zm77.7-7.8-9.53.85-2.5.22q-1.68-6.42-3.46-13-2.45-9.11-5.05-18.45-2.48-8.83-5-17.81l2-.47c11.07-2.56,22.49-5.42,34.34-8.63,3.19,16.2,6.85,35.06,10.71,55.33C749.1,988.4,742,989,734.33,989.71Zm22.47-76.35c-3.43-16.6-7.17-32.35-11.07-47.19,8.05-2.21,15.75-4.35,23.15-6.42,7.13-2,14.05-3.92,20.85-5.79l11.12-3c3.28,15.41,6.49,31,9.39,46.08l-11.92,3.73L782,905.82C773.37,908.52,765,911,756.8,913.36Zm50.69,67A364,364,0,0,1,771,986.18c-4.06-21.28-7.89-41-11.2-57.84q13-3.72,26.73-8l16.31-5.1,10.23-3.18c2.76,15.05,5.13,29.26,6.88,41.85,1,7,2.18,14.8,3.58,23.12C817,978.37,811.59,979.5,807.5,980.39Zm17.34-87.92c-2.88-14.91-6-30.31-9.28-45.49l25.61-6.82,23.36-6.22c2.55,14.42,5.16,29.22,7.81,44.11C857.3,882.46,841.54,887.28,824.84,892.47Zm13.62,81.59c-1.34-8-2.5-15.46-3.43-22.23-1.85-13.29-4.38-28.36-7.32-44.31,16.65-5.16,32.35-10,47.33-14.39,4.31,24.2,8.66,48.38,12.89,71.31C869.25,968,852.39,971.28,838.46,974.05ZM887,873.8c-2.62-14.75-5.21-29.41-7.73-43.68,0,0,0-.09,0-.13q29.52-7.94,62.46-17.21.42,3.21.88,6.4c.79,5.64,3.21,19.31,6.8,39C929.57,862.28,909,867.56,887,873.8Zm10.45,392.75c-2.93-14.94-6.16-30.79-9.57-47.27l10.87-.64c8.37-.48,15.58-.9,21.3-1.31,4.11-.3,10.13-1.11,17.66-2.31,3.18,15.91,6.12,30.56,8.65,43.18C929.37,1261.31,913.09,1264,897.5,1266.55Zm181.3-413.67c4.41,24.71,9,50.15,13.33,74.13-13.28,2.27-27.83,4.81-43.12,7.54-3.35-23.47-6.64-46.22-9.78-67.55-.33-2.27-.66-4.53-1-6.77l6.79-1.13C1056.17,857.2,1067.59,855.08,1078.8,852.88Zm-12.42-70.42c2.94,17,6.27,35.8,9.75,55.4-13.39,2.64-27,5.17-40.13,7.31-3-20.1-5.85-38.57-8.45-54.73C1040.19,787.71,1053.31,785,1066.38,782.46Zm-105,472.93c-2.51-12.56-5.43-27.12-8.61-43,16.21-2.92,36.46-6.94,58.66-11.54,2.54,15.42,4.81,29.68,6.7,42.34C998.34,1247.92,979.43,1251.91,961.35,1255.39Zm108-66.81q3.31,23.16,6,41l-.82.17c-11.93,2.54-24.74,5.51-38.34,9l-3.25.82c-1.89-12.57-4.13-26.63-6.64-41.8,13.88-2.9,28.29-6,42.82-9.14Zm-2.15-15.09-.11,0c-14.17,3.06-28.86,6.22-43.33,9.25-3.61-21.47-7.66-44.72-11.92-68.75,15.07-1.8,30.74-4.28,46-7q4.09,29.19,7.59,53.85Q1066.36,1167.3,1067.24,1173.48ZM1094.85,942c4.06,22.44,7.82,43.1,10.91,60-13.4,1.64-29,4-46.26,6.76-2.78-19.83-5.57-39.66-8.33-59.12C1066.71,946.9,1081.47,944.31,1094.85,942ZM1091,834.85c-3.48-19.58-6.8-38.38-9.74-55.28,17-3.24,33.56-6.23,48.28-8.8,2.33,19.68,2.6,38,4.52,53.74C1121.27,827.44,1107.66,831.43,1091,834.85Z"/></g><path class="cls-7" d="M821.61,1152c-2.36.7,32.92,6.12,40.56,3.69,2.27-.72,14.15-5,25.93-20,6.83-8.73,18.27-23.15,19.83-24s42.41,7,45.39,8.5,11.9,15.08,17.21,20,17.42-5.1,17.84-6.37-14.44-24.22-16.36-26.34-37.6-20.82-37.6-20.82,33.14,5.1,36.11,6.16,9.77,10,17,17.73,17.84-4.14,17.84-5.2-3.82-7.22-3.82-7.22c4,2.76,13.17-1.7,15.51-4.46s.42-5.31-3.82-7.86S992.4,1066,992.4,1066c6.7-1.81,11.3-7.26,11.26-11.47s-4.69-7.13-12.11-12.32c-12.92-9-17.42-22.09-22.82-22.3s-27.95-5.31-35-7.65-17.84-7.86-21-7.43-41,20.18-58.63,31.44-43.55,23.79-69.25,34.41a837.87,837.87,0,0,1-113.86,37c-44,10.62-70.31,20-84.76,26.13s-29.1,19.33-29.1,19.33l-28.46,3s-5.31,62.33-5.71,78.14-2.37,33.14,13.83,47.58,30,20,38.71,12.86,10.27-8.3,24.49-7.51,45.43-7.11,73.08-20.54S794,1174.15,821.61,1152Z"/><path class="cls-7" d="M1048.88,693s-21.19,34.15-22,37.63-.28,64.71-7.91,99.06c0,0-30.22-43.62-43.78-78.92,0,0-54.79-39.83-60.44-45.48a114.56,114.56,0,0,0,0-21.81,95.32,95.32,0,0,0-1.95-12.32c-2.89-12.63-7.9-39.4-10.37-52.87-.92-4.94-1.49-8.1-1.49-8.1l133.23-8.67C1036.45,628.17,1047.47,687.73,1048.88,693Z"/><path class="cls-8" d="M1032.28,603.72s-18.14,56.37-24,63.64c-4.43,5.46-61,13.82-93.55,16.12a95.32,95.32,0,0,0-1.95-12.32c-2.89-12.63-7.9-39.4-10.37-52.87Z"/><path class="cls-7" d="M1063.76,513.17c-8.16,13.45-15.74,18.75-15.74,18.75s.53,17.33-.88,36.78-9.55,28.66-14.87,35-17.68,23.69-21.21,29.18-6,10.79-14.33,17.15-38.9,6.37-49.87,4.25-13.27-8.49-16.27-11.67-17.52-12.74-32-25.47-21.57-22.64-24.23-29-9.9-33.24-9.9-33.24c-26.7-4.6-37.14-38-37-47,.16-8.65,4.89-18.43,18.36-16.57,2.45,11.86,6.13,30.75,9.43,30,4.11-1,4.15-2.56,3-12.49s-3-49.26-3-54.9c0,0-11.1-11.87-3-26.17s24.84-33.13,26-34.07a80.67,80.67,0,0,0,14.31-1.33c9.22-1.5,27.67-5.27,45.55-6.77s48.37-5.47,54.2-6.78a41.16,41.16,0,0,0,13.75,10.92c9.23,4.71,22.78,15.81,23.34,16.94s1.51,20.52-2.83,24.09c0,0,10.17,11.11,13.37,33.13s3.19,29.55,3.76,30.49,5.47,2.06,6.22,1.7c.36-.18.68-11,.22-25.65C1068.21,458.45,1078.1,489.53,1063.76,513.17Z"/><path class="cls-2" d="M1032.28,603.72c-5.3,6.36-17.68,23.69-21.21,29.18s-6,10.79-14.33,17.15-38.9,6.37-49.87,4.25-13.27-8.49-16.27-11.67-17.52-12.74-32-25.47"/><path class="cls-9" d="M1140.17,637.77c13.15,1.24,32.26-8.24,44.46-35.86,13.45-30.43-1.27-59.72-11.81-73.53"/><path class="cls-9" d="M1197.86,556.66c-7.1-11-7.85-19.11-7.85-19.11"/><path class="cls-9" d="M1179.57,516.37c16.18-7.6,29.68-7.48,39.36,5,12.58,16.2,28.21,62.89,91.53,47.88"/><path class="cls-9" d="M1190,502.73c22.49-14.55,49.75-18.12,61.4-10.41s22.56,38.12,40.6,36.07,32.14-9.57,26.88-21.22-22.93-5.26-19.36,9,17.67,31.58,40.79,28.95,33.27-17.83,31-33.92"/><path class="cls-9" d="M1215.6,481.83c-10-15-12.41-41.34-5.68-54.8s27.37-24.52,44.86-13.31,25.27,46.66,4.93,48.45-23.48-43.34,6.73-53.07,64.3,24.51,33.8,55.91"/><path class="cls-9" d="M1207.93,486.73c-20.32-11-33.21-76.91-1.82-98.63"/><path class="cls-9" d="M1315,564.43c-14.9-7.19-26.68-24.65-26.68-24.65"/><path class="cls-9" d="M1270.95,579.1c-26.45-2.79-44-16.86-52-30"/><path class="cls-2" d="M1185.68,636.8c14.75,31.16,27.19,46.63,27.19,46.63"/><path class="cls-2" d="M1354.61,583.27a279.22,279.22,0,0,1,10.81,47.18"/><path class="cls-2" d="M1201.32,593c3.92-5.35,13.45-12.37,20.63-13.89"/><path class="cls-2" d="M1251.86,585.29c8.1,6.53,18.94,14.89,20.63,19.59s8.62,31.74,13.58,45.06"/><path class="cls-2" d="M1266.53,651.06c6.31.29,16,.23,20.56-1.13s13.67-9.2,17.3-15.12"/><circle class="cls-8" cx="1308.77" cy="587.01" r="7.91"/><circle class="cls-8" cx="1230.47" cy="611.42" r="7.91"/><path class="cls-2" d="M1308.77,585.29c5-.47,11.82-4.41,12.07-9.95"/><path class="cls-2" d="M1211.64,609.45c4.92,2.46,12.3,3,17.35-.49"/><path class="cls-2" d="M1267.78,675c7.89,1.6,33.41-.57,51.27-14.9"/><path class="cls-2" d="M1292,687c6.34.12,13.14-1.84,16-5.65"/><path class="cls-2" d="M1359,687.18a92.62,92.62,0,0,1-9.1,13.26,118.71,118.71,0,0,1-21,20.14c-10.89,8-39.21,14.28-60.66,6.48"/><path class="cls-2" d="M1276.09,1136.44c10.37-9.53,18.45-15.55,20.34-16.24"/><path class="cls-2" d="M1186.68,1194.84c13.41.8,39.32,8.59,46.72,8.39s41.1-6.43,41.1-6.43"/><path class="cls-2" d="M1203.19,1209.73c7.61.9,32.35,6.94,34.88,6.55s39.54-2.14,39.54-2.14"/><g class="cls-10"><path class="cls-9" d="M1148.82,988.57c.55-11.28,17.27-16.09,26.57-10.35s5.23,17.93-1.42,14.79-4.44-18.63,6.87-22.19c12.32-3.88,19.2,7.77,15.88,13.31"/><path class="cls-9" d="M1218.71,978.78c-1.36-12.78,21.59-17.06,18,3"/><path class="cls-9" d="M1113.53,1006.91c-1.46-8.64,1.95-15.2,9.24-17.88,0,0-4.13-14.59,13.62-16-1.55-7.83,6.59-14.26,14.89-11.43-.59-12.82,13-21.61,24.91-13.54,1.87-9.51,15.42-11.38,19.88-3.1,5.91-10.73,26.59-5.73,29,5.84,4.25-8.13,20.42-6.06,21.25,4.62,8.29-2,14.62,5.49,12,14.68,0,0,20.94-6.08,20.32,21.18"/></g><g class="cls-5"><path class="cls-11" d="M1160.11,1196.4c-3.54-.35-7.51-.79-11.21-1.34-4.13-26.35-16.19-104.42-21.82-154.66l11.06,1.1C1144.08,1093.69,1156.57,1174,1160.11,1196.4Z"/><path class="cls-11" d="M1179.86,1196.65c-3.3.16-7.59.34-10.94.39-3.76-23.87-16-103-21.91-154.64l11.07,1.15c5.21,45.08,15,109.72,19.84,140.79.58,3.69,1.08,6.92,1.5,9.57C1179.58,1194.91,1179.72,1195.82,1179.86,1196.65Z"/><path class="cls-11" d="M1194.46,1176.74a22.17,22.17,0,0,0-8.68,2.13c-5.13-33.22-14-92.32-18.83-134.39l11.07,1.17c3.83,32.67,9.93,74.94,14.8,107.34.43,2.87.86,5.66,1.26,8.36.86,5.63,1.66,10.86,2.39,15.57C1195.44,1176.82,1194.75,1176.75,1194.46,1176.74Z"/><path class="cls-11" d="M1200.81,1148.17c-4.73-31.61-10.33-70.84-13.92-101.57,3.9.41,7.64.8,11.08,1.18,3.6,30.33,9,68.37,13.65,99.14C1207.3,1146.84,1203.5,1147.15,1200.81,1148.17Z"/><path class="cls-11" d="M1216.52,1179.26l-11.19-1.33c-.65-4.24-1.37-8.89-2.12-13.86,3.26.85,7.11,1.81,11.44,2.94C1215.33,1171.43,1216,1175.52,1216.52,1179.26Z"/><path class="cls-11" d="M1227.35,1148.18c-3.72-.41-7.51-.82-11.1-1.05-4-30.79-8.68-68.52-11.67-98.64l11.05,1.18C1218.7,1080.09,1223.38,1117.81,1227.35,1148.18Z"/><path class="cls-11" d="M1231.71,1181l-11.14-1.3c-.49-3.56-1-7.43-1.55-11.55,3.55.95,7.37,2,11.39,3.22C1230.88,1174.84,1231.31,1178.07,1231.71,1181Z"/><path class="cls-11" d="M1240,1149.46c-1.46-29.44-3.51-68-5.72-100.18,3.41-2.25,6.94-4.43,10.44-6.53,2.36,33.39,4.59,74.95,6.13,106.21a26.46,26.46,0,0,1-5.21.7C1244,1149.69,1242.06,1149.62,1240,1149.46Z"/><path class="cls-11" d="M1252.27,1178.95a64.39,64.39,0,0,1-10.74,3q-.16-3.24-.34-7.13l1.39.47s4.14-1.25,9.39-2.73Q1252.14,1176,1252.27,1178.95Z"/><path class="cls-11" d="M1265.48,1143.4a67.78,67.78,0,0,1-10.74,4.52c-.91-30.13-2.43-73.06-4.56-108.4,3.65-2.11,7.2-4.09,10.52-5.9C1262.91,1068.47,1264.5,1112,1265.48,1143.4Z"/><path class="cls-11" d="M1266.33,1173.21c-3.14,1.55-7,3.15-10.76,4.56,0-1.79-.1-3.87-.15-6.2,3.68-1,7.59-2,10.8-2.75C1266.25,1170.38,1266.29,1171.84,1266.33,1173.21Z"/><path class="cls-11" d="M1273.37,1168.17c-.12.75-1.23,1.73-3,2.83,0-.95,0-1.93-.07-3C1272.27,1167.71,1273.44,1167.7,1273.37,1168.17Z"/><path class="cls-11" d="M1280.16,1132.29c-2.33,3-6.16,6.09-10.6,8.79-.95-31.1-2.52-74.66-4.72-109.7,4.17-2.23,7.79-4.1,10.53-5.48C1277.55,1058.87,1279.15,1100.46,1280.16,1132.29Z"/></g><path class="cls-2" d="M1542.74,1083.08c32.85-4.93,52.47-4.66,79.42,4.95"/><path class="cls-12" d="M1410,1024.13c-.11-.29-10.06-26.62-21.46-52.7.53.16,1.06.3,1.59.41a15,15,0,0,0,3.12.34,11.52,11.52,0,0,0,9.82-5.24c1.58-2.29,3-6.3.66-12.36-4.59-12-23-28.17-43.29-33.37l-.64-.17-.23,0-.46-.05h-.33c-.15,0-.3,0-.46.07l-.33.1a2,2,0,0,0-.24.07c-.85.36-1.7.73-2.52,1.13-15.92,7.61-29,23.07-30.21,36.23-.63,6.6,1.81,12.08,6.9,15.45a12.69,12.69,0,0,0,7,2.24,12.1,12.1,0,0,0,6.13-1.72c6.51-3.79,11.5-13.33,14.42-24.23,8.41,36.62,13,70.84,13.05,71.23a3.26,3.26,0,0,0,3.23,2.83,2.93,2.93,0,0,0,.43,0,3.25,3.25,0,0,0,2.8-3.65c-.05-.38-4.44-33.14-12.52-69A59.76,59.76,0,0,0,1379,966c12.73,28.23,24.77,60.07,24.89,60.39a3.25,3.25,0,0,0,3.05,2.11,3.31,3.31,0,0,0,1.15-.21A3.26,3.26,0,0,0,1410,1024.13Zm-68.21-55.24a5.36,5.36,0,0,1-6.26-.33c-3.06-2-4.41-5.19-4-9.39.87-9.08,10.25-22.36,24.37-29.88C1355.67,945.91,1349.26,964.53,1341.76,968.89Zm41.45-7.68c-7.8-6.14-15.87-18-19.78-32.27,16.24,5.69,30.6,18.59,34.18,28,1,2.74,1.06,4.88.07,6.34s-2.54,3-6.25,2.22a19.91,19.91,0,0,1-7.39-3.62A3.09,3.09,0,0,0,1383.21,961.21Z"/><path class="cls-7" d="M1633.67,954.44c-3.7,10.84-9.86,24.42-9.86,24.42-3.21,1.23-27.37,16.52-36.49,24.17s-9.86,10.6-10.36,16.77-.25,14.06,7.89,10.36l46.85-27.86c-1.23.74-36.74,36.49-40.93,45.13s1.54,21,4.19,19c2-1.58,12.82-9.43,13.91-8.88-5.08,11.59,0,19.73,4.34,19.73,2.47,0,10.36-11.59,10.36-11.59-1.4,7.5.53,11.42,3.81,9,4-2.93,28.24-24.77,30.22-28.23s8.88-28.85,9.37-31.07,2-4.44,4.69-8.38,3.45-20,4.19-43.65,4.19-49.07,3.21-71.26-4.69-22.19-13.32-43.89-30.08-78.41-50.55-115.4-32.55-43.15-39.7-47.59-12.58-18.49-20-21.45-25.4-3.61-25.4-3.61c-12.08,8.72-22.44,40.84-21.45,53.7,0,0,29.38,2,38.7,9.49s29,31.4,36.72,52.42,22.35,77.82,29.27,104.77c0,0-12,13.11-17.83,24s-13.84,25.54-21.29,32.46-6.65,12.24,1.6,14.9,15.7,5.59,21.29-1.6,21.75-28.68,25.54-30.6,4.06-.45,4.06-.45Z"/><g class="cls-13"><path class="cls-14" d="M1508.81,880.49c10.65-5.43,13.9-16.39,9.19-21.1s-36,5-29.3,11.92,27.06-8.69,27.06-22.84-26.21-16.64-28-8.44,18.32,4.47,25.52-9.19-6.21-24.08-20.86-17.63-10.77,12.43,2.48,6,17.38-15.39,15.15-23.84-20.71-13.26-30.89-4.57,15.31,13.07,25.33-6-6.5-30.1-20.31-23.31c-16.5,8.12,23.29,15.83,26.86-7.88,3-20.21-34.1-18.37-33.68-11.42s29.17-1.24,29.16-17.23-10.38-10.08-10.38-10.08"/><path class="cls-14" d="M1441.57,735.13c-11.39,30.3-68.21,159.17-82.57,189.07,0,0-39.95-14.11-95.75-125.69"/><path class="cls-14" d="M1405.45,753.66c-10.65,4.93-13.42,13.06-7.56,17.45s37.76-.07,36.28-11.88c-.78-6.18-24.89-.81-37.74,17.24s3.2,26.42,25.7,14.15c7.16-3.9-3.42-12.22-24.89,2.51s-17.1,25.52-12.13,30.94,24.49,4.61,25.47-1.73-34-7.32-40.66,5.86,5.71,25.1,18,28.14c13.83,3.42,23.43-4.88,3.58-11.39s-33,8-29.77,21.47,28.63,21.15,31.4,12.85-27.17-17.41-36.76-7S1350,895,1359.13,903s19.09,9,21.2,2.95-21.12-15-29.76-7.65-11.73,24.56-3.92,27.65,9.76-39.69,3.42-42.78-32.31,11.82-28.24,21.42c5.19,12.26,25-20.12,20.92-31.67s-17.08-8.78-26.84-1.14-9.76,18.54,5.21,10.09,11.55-28.31,7.81-32.37-16.59-2.11-26.68,6.18-13,23.39,7.48,9.6,10-39.26-6.46-36.79-29.49,8.81-27.05,13.2,29.44-.16,33.67-16.27S1280.28,809,1265.47,815s6.59,9.38,19.83,2.54c14.36-7.42,16.5-25.35,1-19.48"/><path class="cls-14" d="M1197.55,822.08c13.29-3.88,16.23,11.49,1.73,17.82"/><path class="cls-14" d="M1201.21,846.62c12.31.22,17.23,11,5.59,21.93"/><path class="cls-14" d="M1207.31,872.35c11.13-.9,19.41,9.85,4.64,21.93"/><path class="cls-14" d="M1213.41,899c10.4-.9,19.37,9.77,4.36,25.22"/><path class="cls-14" d="M1218.65,929.86c10.4-3.72,16.81,9.86.92,18.13"/></g><path class="cls-2" d="M855.58,522.36c4.61,17.27,8.86,32.54,8.86,32.54"/><path class="cls-2" d="M1048,531.91c-.32-10.26-.33-23.22-.23-34.47"/><path class="cls-15" d="M855.29,521.25c4.1-1,4.15-2.57,3-12.49s-3-49.26-3-54.91c0,0-11.1-11.86-3-26.17s24.85-33.13,26-34.07a80.53,80.53,0,0,0,14.31-1.32c9.22-1.51,27.67-5.27,45.55-6.78s48.38-5.46,54.21-6.78a41.16,41.16,0,0,0,13.74,10.92c9.22,4.71,22.78,15.81,23.34,16.94s1.51,20.52-2.82,24.09c0,0,10.16,11.11,13.36,33.13s3.2,29.55,3.76,30.49,5.46,2.07,6.21,1.69,1.32-46.12-4.89-77.55-18.64-51.26-24.09-56.5-44.42-29.15-62.31-30.84-42-2.07-57.79,7S863.2,366.33,853,384.59s-14.87,37.08-13.74,59.86,3,31.25,5.27,40.85S851.33,522.2,855.29,521.25Z"/><circle class="cls-8" cx="996.27" cy="479.99" r="8.17"/><circle class="cls-8" cx="903.21" cy="492.56" r="8.17"/><path class="cls-2" d="M998,478.67c6.16-1.78,11.74-4.82,14.24-12"/><path class="cls-2" d="M884.49,488.91a56.88,56.88,0,0,0,20.59,2.68"/><path class="cls-15" d="M964.87,455.62c3.38,2.39,5.87-4.84,19.36-10s33.3-3.67,37.55-1c0,0-9.24-13.2-12.17-14.81s-26.4-.62-40.84,6.79C963.86,439.1,962.38,453.86,964.87,455.62Z"/><path class="cls-15" d="M862.63,471.82c6.41-5.6,9.92-8.08,13.23-9.52s22.44-3.51,27.34-3.51,20.2,6.52,20.2,6.52.62-5.7-2.27-9.21-7.32-9.09-9.76-9.71-30.14,2.27-32.41,2.48S863.67,461.5,862.63,471.82Z"/><path class="cls-2" d="M923.46,464.46c16.18,8.87,21.11,14.53,22.92,25.84s4.11,14.11,5.26,29.57,5.43,32.89,5.43,32.89"/><path class="cls-8" d="M942.63,550.06c-14-8.69-23-7.83-22.36-3.23S935.43,548.82,942.63,550.06Z"/><path class="cls-2" d="M929.8,546.74c8.4.79,15.84,6.37,22.1,7s10.17.25,14.38-3.64,14.18-10.93,18.29-12.4"/><path class="cls-8" d="M975.94,542.62c9.68-1.37,16.82-3.28,13.57-7.26C987.41,532.8,977.55,538.56,975.94,542.62Z"/><path class="cls-8" d="M968.43,596.68c-16.94,4.94-47.11-16-48.18-19.55s4.78-5.23,9.55-2.61a9.86,9.86,0,0,0,3.92.42c6.77-.05,20.13-1.89,28.71-3.33,9.16-1.53,20-3,25.35-4.94a9.5,9.5,0,0,0,2.52-1.25c3.39-2.62,6.19-5.52,9.39-3.1S985.37,591.74,968.43,596.68Z"/><path class="cls-16" d="M987.79,566.67c-1.2,4.54-3.75,11.39-7.1,12.75-4.85,2-19.09,5.23-29.74,4.67-9.69-.5-13-3.41-17.22-9.15,6.77-.05,20.13-1.89,28.71-3.33C971.6,570.09,982.44,568.62,987.79,566.67Z"/><g class="cls-10"><path class="cls-9" d="M1502,611.42c-1.77-38.51,23-98.3,76.62-106.27,64-9.52,126.67-5.76,126.67-5.76"/><path class="cls-9" d="M1344.8,490.94c58.9-4.21,118.7,24.47,132.43,112.57"/><path class="cls-9" d="M489.56,502.8c153.06,8.8,207.6-6.19,223.44,100.71"/><path class="cls-9" d="M754,630.92c6.53-42.22,36.13-86.83,48.75-93.36"/><path class="cls-9" d="M1375.75,637.88c115.09-9.87,166.89-.8,216,9.89"/><path class="cls-9" d="M1608.87,654.71c39.52,13.89,79,53.4,103.07,133s42.72,143.13,50.73,268.09,15.49,228.25,15.49,226"/><path class="cls-9" d="M1071.07,481.83c42.37.14,87-.14,98.87,0"/><path class="cls-9" d="M1048.88,642.36c34.07,4,57.21,13.72,62.35,15.91"/><path class="cls-9" d="M511.48,1370.62c.82-166.36,4.12-189.46,4.12-189.46"/><path class="cls-9" d="M513.54,1110.46c8.85-156.55,14.65-300.72,60.29-360.13s105-79.09,192-92.07,142.12-10.5,142.12-10.5"/></g><path class="cls-17" d="M915.21,695s36.42,29.74,65,46l34.55,67.89s3.6-68.49,4.51-83.51c0,0,27-46,32.74-61.28"/><path class="cls-17" d="M970.83,742.33c-5.49,2.89-12.53,8.17-20,14.41-4.63,3.87-9.41,8.12-14.09,12.39-16.46,15-31.57,30.36-33.5,31.13-3,1.18-7-18.67-11.73-38.6-.64-2.72-1.3-5.43-2-8.11-.55-2.2-1.14-4.42-1.75-6.66-5.59-20.54-13.07-42.07-13.07-42.07s16-15.94,33.2-27.4"/><path class="cls-17" d="M1041.64,654.11c17.6.78,51.68,7.55,54.18,10.88,1.36,1.81.12,20.64-1.36,40.54-.38,5.12-.77,10.31-1.15,15.3-.82,11.13-1.52,21.26-1.65,27.37-.15,7-.33,11.39-.66,14.07-.6,4.85-1.72,4-4.13,2-.24-.21-.65-.53-1.21-1-1.64-1.26-4.57-3.47-8.23-6.16-5-3.67-11.29-8.28-17.58-12.76-11.23-8-22.37-15.55-25.62-16.73"/><path class="cls-17" d="M1168.81,662.63s-17,.49-35.66,1.08c-5.06.15-10.25.33-15.24.49-8.36.28-16.19.55-22.08.79"/><path class="cls-17" d="M540.8,1068.06c2-6.86,7.56-22.54,14.3-41l6-16.33c4.13-11.23,8.42-22.81,12.42-33.63,4.51-12.25,8.65-23.5,11.78-32.18.86-2.41,1.65-4.62,2.35-6.6,3.78-10.74,9.12-25.43,14.49-40.41,2-5.5,3.94-11,5.84-16.42q1.21-3.37,2.34-6.65c3.52-10.08,6.66-19.35,8.9-26.55q.33-1.06.62-2.05a93.5,93.5,0,0,0,2.61-9.93c.39-2.25.77-4.44,1.17-6.6,2-10.69,4.8-20.33,14.55-29.37A102.14,102.14,0,0,1,647,793a130.8,130.8,0,0,1,13.2-8.52,149.57,149.57,0,0,1,26.47-11.8c3.16-1.05,7-2.47,11.75-4.27,4-1.54,8.72-3.36,14.18-5.49,14.55-5.67,34.63-13.52,62.73-23.93l14.37-5.28c15.54-5.68,33.23-12,53.4-19.1l14.52-5.07,7-2.41"/><path class="cls-17" d="M1039.78,974.87c3.77,26.09,7.07,49.07,9.1,63.21,6.7,46.83,27.79,208,27.79,208"/><path class="cls-17" d="M1024.62,870.52c2.51,17.1,5.3,36.28,8.11,55.62"/><path class="cls-17" d="M1016.34,814.9c1.22,7.8,3.34,22,6,39.78"/><path class="cls-17" d="M563.31,1160.82c-20.76-2.72-38.77,6.9-43.19,6.9s-10.08-6.81-6.57-13.27,11.68-31.31,13.72-49.35,5.11-44.58,7.15-45.6,67.73,2.72,86.44,2.72,118.78,1,118.78,1l6.81,31.31s-101.81,29.06-124.22,35.05C587.84,1138.79,566,1158.78,563.31,1160.82Z"/><g class="cls-10"><path class="cls-9" d="M973.35,868.55c-.72,9.84-4.92,53.83-4.6,55.66.88,5,14.2,7.58,14.84,1.08.93-9.42,4.22-39.07,4.66-42s1.75-4.68,8.55-6.43,48.43-10.52,49.09-12.05-2.85-14.46-5.26-14.68-20.16,5.06-28,7.46-25.64,6.35-30.68,6.78S973.49,866.57,973.35,868.55Z"/><path class="cls-9" d="M971.27,865.46c4.12,2.8,12.33,11.38,12.33,11.38"/><path class="cls-9" d="M993,859.52c-.16,5.28,0,18.52,0,18.52"/><path class="cls-9" d="M970.11,881.86c4.29.59,18,2.59,18,2.59"/><path class="cls-9" d="M970.11,907.69c-43,0-64.11,8.17-64.42,18.45s59.3,31.29,125.62,22.47"/><path class="cls-9" d="M985.29,909.25c42.82,9.78,63.62,27.19,64.53,32.62S1047.7,959,1046,960.35c-5.88,4.75-125.88-2-139.26-19.39-2.26-2.94-1-14.82-1-14.82"/><path class="cls-9" d="M1038.07,948s8.14,1.11,11.76-6.13"/></g><g class="cls-5"><path class="cls-18" d="M891.64,1124.74c-1.62,16.53-6.16,44.74-3.89,46.68s18.71,19.9,47.61,21.94,53.86-8,53.86-8l22-87.28"/><path class="cls-18" d="M1043.95,961c-.92,2.2-5.73,22.49-11.18,46.17-4,17.52-8.41,36.87-11.84,52.11-3.61,16-6.16,27.43-6.16,27.43"/><path class="cls-18" d="M910.48,945c-1.49,14.89-2.71,27-3.65,36.39-1.74,17.3-2.58,25.56-2.58,25.56"/></g><path class="cls-12" d="M1032.76,1007.22c-4,17.52-8.41,36.87-11.84,52.11-7.8,2.06-19.26,4.18-26.48,1.39,0,0,5.23-5.48,3.74-7.23s-17.07-11.16-27.81-24.68c-5.06-6.38-27.84-1.86-49.19-15.78-8-5.19-6.85-2.79-18.31,2.93l1.39-9.05s.84-8.26,2.58-25.56c12.67,8.9,37.37,24,56.23,25.56C983,1008.61,1017.29,1007.74,1032.76,1007.22Z"/><path class="cls-17" d="M666.36,790.22c18.18,39.45,37.26,84,36.32,87.82"/><path class="cls-17" d="M702.06,918.52c2.59,14.76,10.12,37.48,17.9,63.41s19.67,81.3,19.67,81.3"/><path class="cls-17" d="M642.81,918.52c14.12,5.49,50.52,27.21,70.09,40.22"/><path class="cls-17" d="M718.71,977.77c-12.2-.74-47-8-60.05-8.76"/><g class="cls-5"><path class="cls-18" d="M1218.88,1050l-3.25-.36-11.05-1.18-6.61-.71c-3.44-.38-7.18-.77-11.08-1.18l-8.87-.95-11.07-1.17-8.87-.92L1147,1042.4l-8.87-.9-11.06-1.1-3.18-.29"/><path class="cls-18" d="M1226.83,1023.23c-.33,17.21,5,114.13,6.29,119.12"/><path class="cls-18" d="M1280.78,1023.22s-2,1-5.4,2.68c-2.74,1.38-6.36,3.25-10.53,5.48l-4.15,2.24c-3.31,1.81-6.87,3.79-10.52,5.9q-2.71,1.56-5.47,3.23c-3.5,2.1-7,4.28-10.44,6.53l-1.15.75"/><path class="cls-18" d="M1226.38,1011.32,1108.8,1001c2.65,9.63,36.86,228.51,36.86,228.51,18.6,0,94.74,11,94.74,11l15.93-8.56,4.52-2.42h0l4.39-2.37-8.52-.63-.78-.05c-4.11-.35-9.87-.45-15-.52-4-.07-9.41-.15-10.63-.38-3-.61-20-5-27.79-8a27.11,27.11,0,0,1,3.8-3.43l11.26-8.19-13.83-1.6c-.11,0-9.49-1.1-16.38-2.63a27,27,0,0,1,2.75-2.71l7.85-8.43-11.6-1.15h-.4a20.63,20.63,0,0,1-4.67-.6,7,7,0,0,1,1-1.25c3.16-3.35,9.43-5.4,11.79-5.4h.07c1.23.08,11,1.24,19.7,2.26,9.48,1.12,20.22,2.38,25.74,3a8.28,8.28,0,0,0,.91,0c5.46,0,18.76-5.25,20.26-5.85,15.7-6.26,17.47-9.63,18-12.54a5.66,5.66,0,0,0-1.28-4.58,6.29,6.29,0,0,0-5-2.1c-5.11,0-22.4,5-29.75,7.19-13.14-4.36-24.81-7.34-33.43-9.53-5.37-1.37-9.61-2.45-12.23-3.36l-.12,0a26.54,26.54,0,0,1,5.43-3.23c1-.48,3.27-1.06,8-1.06a177.16,177.16,0,0,1,18.26,1.45,157.83,157.83,0,0,0,16.17,1.31h1c8-.16,18.14-4.43,25-8.37a52.77,52.77,0,0,0,12.44-9.6V980.43Z"/></g><path class="cls-9" d="M1269,473.06a93.81,93.81,0,0,0-29.75-.11c-9.56,1.54-20.6,6.23-31.29,13.77"/><path class="cls-8" d="M1349.9,700.43c-.88,12.34-3.65,29-11.79,39.59-10.82,14.06-42.19,16.2-56.63,16.42-6.55-14.7-13.21-29.39-13.21-29.39,21.45,7.8,49.77,1.51,60.66-6.48A118.72,118.72,0,0,0,1349.9,700.43Z"/><path class="cls-8" d="M1275.68,676.1c-10.08-6.5-16.76-4.13-15.46.1S1271.55,678.16,1275.68,676.1Z"/><path class="cls-17" d="M1448,660.12s-27.24-1.15-53.28-2.42c-5.34-.26-10.63-.52-15.62-.78-7.69-.4-14.67-.8-20.06-1.15"/><path class="cls-17" d="M1441.57,725.55c1.54-29.81,3.72-64.46,8.57-69.8s8-2.91,18.9-2.42,62.77,1.7,64.95,2.42,1.45,3.88-2.42,9.21-12.43,19.21-19.15,45.32"/><path class="cls-2" d="M1618.24,877.4c6.17-4.61,8.59-6.23,12.22-6.43s23.19-1,25,0,5.45,6,5.85,6.43"/><path class="cls-2" d="M1639.77,919.2c-6.87-.29-14,.18-15.55.86"/><path class="cls-2" d="M1633.68,955.51c2.29-5.73,4.32-11.12,4.32-11.12"/><path class="cls-2" d="M1631.7,1003.36c6.22-3.82,9.43-5.14,21.51-28.93"/><path class="cls-2" d="M1608.87,1058.59c17.37-15.4,26.16-24.48,33.59-32.37s18.23-22.28,19.26-24.16,0-10.62,0-10.62"/><path class="cls-2" d="M1623.56,1066.73c7.34-7.24,23.51-19.8,24.37-22.2s15.82-25.79,15.82-25.79"/><path class="cls-14" d="M1576.8,1203.23c.38,24.6,3.79,46.57,3.79,54.15"/><path class="cls-17" d="M759.71,1276.36s-1.18-17.12-2.59-42.75c-.26-4.82-.52-10-.79-15.34q-.34-6.85-.68-14.19"/><path class="cls-19" d="M544.27,1172.25c2.49-5,3.79-9.14,6.87-11.75"/><path class="cls-19" d="M907.93,1027.87c1.52,0,4.24-1.36,15.35,3.51s46.72,18,50.9,18.65,18.22,16,18.22,16"/><path class="cls-19" d="M911.75,1048c12.57,2.72,29.27,11.31,38.41,13.2s17.52,1.68,21.5,4.82,29.87,32.08,29.87,32.08"/><path class="cls-19" d="M914.06,1078.78c4-.63,21.3,8,21.3,8"/><path class="cls-20" d="M1171.38,1197.32s-.91-.05-2.46-.17c-2.05-.15-5.22-.4-8.81-.75s-7.51-.79-11.21-1.34a87.57,87.57,0,0,1-8.91-1.7"/><path class="cls-21" d="M1237.07,976.78c5-5.75,14.21-1,13.27,6.19"/><path class="cls-2" d="M925.32,574.3c4.29,1.27,53.52-3.81,68.61-10"/><circle class="cls-22" cx="1235.2" cy="662.63" r="22.33"/><circle class="cls-22" cx="1334.88" cy="630.44" r="22.33"/></svg>