<svg id="Layer_1" data-name="Layer 1" xmlns="http://www.w3.org/2000/svg" viewBox="0 0 2267.72 1700.79"><defs><style>.cls-1,.cls-8{fill:#dc6437;}.cls-1,.cls-11{opacity:0.75;}.cls-12,.cls-15,.cls-18,.cls-2,.cls-20,.cls-5,.cls-7{fill:none;stroke-linecap:round;stroke-linejoin:round;}.cls-2{stroke:#dc6437;}.cls-12,.cls-2,.cls-5,.cls-7{stroke-width:2px;}.cls-3{fill:#fcc9a1;}.cls-14,.cls-4{fill:#2c2f53;}.cls-5{stroke:#f06082;}.cls-6{fill:#f06082;}.cls-10,.cls-14,.cls-15,.cls-17,.cls-18,.cls-19,.cls-6{opacity:0.5;}.cls-7{stroke:#2c2f53;}.cls-8{opacity:0.3;}.cls-9{fill:#fff;}.cls-10,.cls-16{fill:#505c7b;}.cls-12,.cls-18{stroke:#505c7b;}.cls-13{fill:#e7a184;}.cls-15,.cls-20{stroke:#54c3e5;}.cls-15,.cls-18,.cls-20{stroke-width:3px;}.cls-16,.cls-21{opacity:0.25;}.cls-17{fill:#81b3e1;}.cls-19,.cls-21{fill:#63cdf6;}</style></defs><title>Pria melamar wanita pasangannya</title><path class="cls-1" d="M1445.73,250.87c-2.61-1-7.43-8.53-9.9-19.19-6.84-29.52-4.86-52.38,2.52-63.72s29.53-32.08,63.18-25.74c30.6,5.76,38,29.52,38,29.52s9.91-.15,13.87.21,22.85,12.58,24.29,24-1.44,34.47,0,46,13.51,34.91,30.06,39.43c19.08,5.21,61.8-4.37,77.22,12.23,11.7,12.6,19.44,44.28,26.28,59.94s18.36,36,40.86,43.92,45.9,5.58,56.34-3.78c0,0,4.32,14-1.08,25.56s-26.64,21.24-63.36,34.38-51.48,21.24-49.86,42.12,18.54,36.54-1.08,57.42-61.92,7-69.3,5l14.58-35.64s2.52,11.88,5.76,9.36.18-23.4.18-23.4,16.38,5.76,23.22-10.8,9-87.12,8.28-96.48-10.58-36.78-43-36.18c-27.58.51-59.4-8.28-59.4-8.28l-35.82-69Z"/><path class="cls-1" d="M1445.73,250.87c-15.51,16.45-44.93,44.07-47.77,59.81s-3.83,26.65,1.81,34.07c13.52,17.81,27.35,12.84,18.57,45.36,0,0,17.28-22.2,23.41-23.16s20.12,1.72,20.12,1.72l51.52,3.07s-4.25-88.32-5.37-89.28S1445.73,250.87,1445.73,250.87Z"/><path class="cls-2" d="M1808.44,393.69c-8.35-18.19-7.37-31-1.45-32.25S1822.72,378.07,1808.44,393.69Z"/><path class="cls-2" d="M1572.62,185.91c.59,7.15-2.19,20.79-13.35,33.54"/><path class="cls-2" d="M1566.76,222.39c5.66-4.6,10.61-10.49,11.32-16.39"/><path class="cls-2" d="M1527.73,178.87c7.19-1.06,13.21-.67,19.22,15.1,6.83,17.91,14.88,37,33.14,38.57,20.64,1.77,29.13-13.45,29.13-13.45"/><path class="cls-2" d="M1511.84,185c10.33,5.88,10.33,16.59,13.35,29.19s11.8,27.88,23.37,32.83c8.13,3.48,24.25-1.46,28.86-7.91"/><path class="cls-2" d="M1464.7,146.19c26-3.14,48.41,9.1,51.91,30.07"/><path class="cls-2" d="M1449.87,208.13c-5.56-15-7.91-39.58,16.77-44.1,20.82-3.81,32.75,21.08,32.75,21.08"/><path class="cls-2" d="M1459.61,194.55c-1.63-11.94,6.62-28.23,19.19-29.53"/><path class="cls-2" d="M1473.66,185.88c.67-10.34,9.39-17.17,12.45-16.88"/><path class="cls-2" d="M1558.48,262.06c7.37,16.52,19.2,31.83,40.61,31.82s57.91-4.09,68.72-1.64,24.72,10.29,30.07,24.84"/><path class="cls-2" d="M1554.77,268.31c6.78,26.28,13.76,46.84,38.19,48.78s62.2.65,77.2,18.16c22.38,26.13.21,62.63,35.52,92.6,36.68,31.13,69.93,13.55,69.93,13.55"/><path class="cls-2" d="M1679.09,465.81c1.94,13.45,3.92,24,4.79,29.71,3.58,23.66,4.06,41.1-33.42,40.15"/><path class="cls-2" d="M1437.24,365.59c-.76-10.91-2.28-12.94-8.88-18.26s-9.89-19.78-2.54-22.32,7.61,16-4.18,13.7-7-25.73-2.41-38.55c6.09-17,32.46-31.67,37.79-52"/><path class="cls-3" d="M1442.63,278.87c-1.05-11.75-.18-13.68,1.4-14.38s7.06,3.51,9.58,9.82,38.3,55.36,38.3,55.36-2.63,8.84-1.58,14.8,5.17,12.4-3.51,24.38c-4.6,6.35-8.13,9.66-11.58,15.82-3.63,6.49-15.48,41.52-23.5,65.88-7.07,21.46-15.85,68.25-26.07,88.47s-27.17,26.35-30.85,27.17-8,5.31-14.1,1.23-6.33-9.6-5.72-12.87-1.43-4.7-5.11-15.12-5.52-18.3,3.68-36.63,28.81-47.54,38-63.48,36-63.53,36-70.48c0-5.4-4.71-57.27-6.83-79.27C1440.05,282.77,1440.19,278.3,1442.63,278.87Z"/><path class="cls-3" d="M1587.32,352.93c-17,15.68-80.56,129.6-80.56,129.6-5.17-4-26.24-98.86-27.13-124.76,0,0,16.57,4.86,25.09-1.1,2.24-1.57,2.49-3.8,1.4-7.85-1.22-4.53-4.09-11.33-7.68-22-.17-.47-.32-1-.49-1.46l46.37-43.94s6.27,10,17.23,41.51C1571.95,352.8,1587.32,352.93,1587.32,352.93Z"/><path class="cls-4" d="M1538.65,335c-4.09,6.94-23.59,12-32.52,13.84-1.22-4.53-4.09-11.33-7.68-22l22.43-1.08S1544,326,1538.65,335Z"/><path class="cls-5" d="M1505.71,474.47c-14.31,1.5-41.78,23.47-44.94,32.46s-.83,12.61.83,13.71,8.32,2.88,16.15-6.42S1502,479,1505.71,474.47Z"/><path class="cls-5" d="M1478.48,572.86c.65-29.9,9.63-68.1,16.52-82.85"/><path class="cls-5" d="M1505.71,474.47c5.25,17.08,13.65,37.11,25.8,44.62s14.3,1.28,12.83-9.18S1519.82,484.28,1505.71,474.47Z"/><path class="cls-5" d="M1518.08,504c14.19,23.65,15.4,66.31,9.09,78.2"/><path class="cls-6" d="M1449.68,360.16c-3.7.1-9.6-.94-16.61,5.44s-23.7,25-39.56,54.88c-14.4,27.11-12,40.64-10,48.89.91,3.76,8.69,7.52,8.69,7.52,19.45-30.61,38-61.65,44.77-75.14s12.81-26.57,13.85-30.2S1449.68,360.16,1449.68,360.16Z"/><path class="cls-7" d="M1458.28,328.19c9.36,12.24,14.19,25.61,10.18,42.79"/><path class="cls-7" d="M1482.29,337.41c-4.58-10.37-9.43-21.29-9.43-21.29"/><path class="cls-7" d="M1451.17,314.22c7.41-3.48,20.07-2.54,20.07-2.54"/><path class="cls-7" d="M1442.11,278.83c5.62.43,7,4.58,7.55,9.34s2.38,21.41,2.38,21.41"/><path class="cls-3" d="M1560,279.61l-11.75,27s-20.38,27-41.6,27.65-36-12.46-43.27-26.28-17.66-57.08-17.66-57.08c3-7.44,4.61-13.4,5.24-19.68a63.72,63.72,0,0,0,.25-8.86,141.06,141.06,0,0,0-1.35-14.21c5-14,27.24-30.77,49.52-23,0,0,0,12.28,7.45,27.82a88.12,88.12,0,0,0,5.16,9.23c.72,1.13,1.5,2.26,2.3,3.4,14.92,20.95,26.42,21.35,39,21.63,0,0,3.83-10,12.87-4.24S1567.67,269.62,1560,279.61Z"/><circle class="cls-8" cx="1530.89" cy="276.2" r="17.51"/><path class="cls-7" d="M1560,279.61l-11.75,27s-20.38,27-41.6,27.65-36-12.46-43.27-26.28-17.66-57.08-17.66-57.08"/><path class="cls-3" d="M1546,280c2.67-13.23,7.52-18,10-18,0,0,3.41-6.36,8.72-6.39.64,0,.31,5.17-.46,12.63,10.56-14.3-5.17,41.45-5.79,50.69,0,0,3-14.37,10.62-15.9,3.52-.7,1,7.46-.7,15.9s-10.28,31.26-15.76,44c-.84,2,6.47,31,12.1,47.14s13.88,39.4,25.09,57.55,17.27,26,17.83,51.36c0,0,3.24-1.13,6.19,2.81s4.93,7.18,8.87,7,5.5-6.21,9.43-3.52,5.63,12,5.63,11.4-12.52,28.57-15.34,34.62-10.27,9.43-28.28,11.26-19.54.26-21.67-7.32c-2.43-8.65-2.85-2.94-12.52-21.25-10.83-20.48-14.49-31.24-17.59-59.1s-9.29-62.2-11.68-86.54-3.8-40.1-3.8-40.1-5.91-6.19-8-12.95-.14-14.92,8.44-37.71S1537.3,280.16,1546,280Z"/><path class="cls-6" d="M1536.69,420.29c-12.28,23.66-23.53,42.24-29.67,54.61,0,0-19.38-76.73-21.58-110.2,0,0-9.89,12.08-12.89,16.69s-17.92,46-25.33,68.86-16.41,59.58-16.41,59.58,15.43,33.28,23.85,60.93,8.22,27.25,4.61,58.52-14.65,108.27-20.5,154.38-15.48,126.63-17.55,220.22-5.41,180.46-5.41,180.46,24.16-10.13,45.84-4.28,41.36,23.12,65.19,28.29c25.52,5.53,54,.42,101.78-20.91s92-22.75,92-22.75-14.11-74.44-20.3-124.68-11.36-151.75-12-204-23.3-131-46.8-182c-18-39.05-18.27-40.27-15.14-52.3,4.75-18.28,17.45-66.29,17.4-66.3s-8.31-5.54-8.31-5.54-16.84,38.69-18.92,43.07-22.95,5.2-30.31,5-10.15,1-10.61-5-6.8-11.06-13.24-22.11-12.65-25.71-14.46-41.82C1544.74,481.39,1536.69,420.29,1536.69,420.29Z"/><path class="cls-7" d="M1561.74,339.92c-3,8.2-6.43,16.87-9.11,23.12-.36.83.74,6.45,2.54,13.88"/><path class="cls-7" d="M1530,310.27c6.33-18.51,8.31-30.13,16-30.25,2.67-13.23,7.52-18,10-18,0,0,3.41-6.36,8.72-6.39.64,0,.31,5.17-.46,12.63,4.18-5.66,4.24-.36,2.75,8.69"/><path class="cls-7" d="M1530.68,408.49c-2.39-24.34-3.8-40.1-3.8-40.1s-5.91-6.19-8-12.95"/><path class="cls-3" d="M1589.12,1433.41c-.64,18,4.16,23.71,4.16,23.71-9,24-45.18,75-53.51,78.52s-35.25-2.88-35.25-2.88c25.64-44.54,44.86-86.21,45.18-92s.32-29.8-3.52-74.67c-3.07-35.68-11.43-80.88-14.73-97.9,1.22.57,2.34,1.14,3.33,1.61,5.13,2.49,20.5,7.87,26.28-6.46s9.05-23.52,23.13-22.13c8.7.86,14.33,2.44,18.79,1.79-.73,24-3.89,65-7.77,98.1C1590.08,1384.69,1589.76,1415.47,1589.12,1433.41Z"/><path class="cls-3" d="M1840.82,1410.34c-4.77,5.94-3.38,28.84-7,50.09-6.37,37.4-20,51.47-30,57.47-19.37,11.62-37.29,8.21-37.29,8.21,23.72-70.06,20.91-109.09,19.81-116.5s-8.53-20.39-31.88-53.75c-21.43-30.62-70.35-91.84-94.64-122.31a11,11,0,0,0,5.72-3.1c6.67-6.41,8-15.28,14.83-18.42s10.17,1.55,15.7,2.05,10.69-11.26,18.48-11.82c11.65-.84,15.78,6.84,19.63,5.12,12.84,19.71,32.2,60.41,41.63,80.31,11,23.12,45.22,94.1,52.33,105.06A192.24,192.24,0,0,0,1840.82,1410.34Z"/><path class="cls-1" d="M1464.67,225.63a24.64,24.64,0,0,0-13.7,5.56,63.72,63.72,0,0,0,.25-8.86,18.52,18.52,0,0,1,6.91-3.67C1465.11,217,1469.34,225.46,1464.67,225.63Z"/><path class="cls-1" d="M1512,222.15c-10.05-.27-22.88-.05-24.06-2-2.24-3.77,3.64-6.64,9.53-7.24a44.8,44.8,0,0,1,9.37.05A88.12,88.12,0,0,0,1512,222.15Z"/><path class="cls-7" d="M1466.64,238c9.29,2.36,11.65,7.08,12.28,14.15s-3.3,30.19-2.83,33,5.53,5,10.06,3.84c5.38-1.43,8.09-3.44,10.45-3.44"/><circle class="cls-4" cx="1508.02" cy="255.08" r="4.7"/><circle class="cls-4" cx="1463.01" cy="258.7" r="4.7"/><path class="cls-7" d="M1508,254c3.33,0,9.57-1.36,10.74-4.81"/><path class="cls-7" d="M1453.62,251.6c2.13,4.27,7.7,6.25,9.76,6"/><path class="cls-4" d="M1500,314c-7.72,1.52-11.33-3.45-16.71-13.37,1.1-.23,2.75-.59,4.74-1,7.15-1.58,18.69-4.16,24.7-5.2,2.33-.41,3.83-.59,3.91-.39C1518.2,297.69,1507.75,312.44,1500,314Z"/><path class="cls-9" d="M1512.77,294.36c-.47,2.66-1.25,5.79-2.37,7.07-2.13,2.41-15.5,3.28-16.51,3.28-.82,0-3-1.43-5.82-5.15C1495.22,298,1506.76,295.4,1512.77,294.36Z"/><path class="cls-5" d="M1593.43,450.55c4.94-17.83,29.64-62.72,29.64-62.72"/><path class="cls-6" d="M1649.28,513.48s18.76,2.93,24.26-16.35c7.15-25,8.7-68.24,7.32-94.71-1.81-34.86-33.13-44.15-53.43-43.81s-34.31-3.87-44.82-7.07c0,0-6.79,6.48-27.15,39.16,0,0,10.82,39.2,16.43,51.1s11.73,24.14,18.19,33.67,10.87,18.54,11.55,22.62c0,0,11.15-1.76,23.06,6.06s26.26,20.94,26.26,20.94Z"/><path class="cls-5" d="M1382.34,463.09c7.14,8.91,12.06,10.36,12.06,10.36"/><path class="cls-5" d="M1377.42,475.62a103.54,103.54,0,0,1,8.27-8.71"/><path class="cls-5" d="M1379.29,465.37c-6.39.66-13.21,8.82-12.39,12.67s8,1.1,8.87,2.09-4.92,7.91,6.57,6.87"/><path class="cls-5" d="M1389,470c-1.14,1.61-7.46,11.11-7.46,11.11"/><path class="cls-5" d="M1491.23,421c4.66-1.17,36.62-1.51,36.62-1.51"/><path class="cls-5" d="M1496.56,443.84c3.28,1.23,32.79.17,35,0"/><path class="cls-5" d="M1708.76,1158.56c-55.87,2.1-120.16,43-156.87,45.35s-64.29-20.34-85.8-28.29-47-1.17-53.54,3a89.61,89.61,0,0,1-9,17.12c-6.2,9.39-14.92,21.45-15.59,26.48s3.52,14.92,6.7,13.91,1.51-13.24,3.52-14.08,3.35,4.53,4.36,8.55,3.52,11.06,11.4,10.9,15.09-9.39,25.31-11.4,18.27,8.21,21.62,16.43,7,12.57,13.91,11.9,12.74-5.87,16.76-2.85,4.53,20.45,9.22,21.79"/><path class="cls-5" d="M1505.44,1278.85c6,1.13,10.56-1.89,15.46-5.41s12.44.63,17,2.82c5.12,2.48,20.49,7.86,26.27-6.47s9.05-23.51,23.13-22.13,20.11,4.65,26.15-2.64,10.94-15.71,17-11.82,17,6.79,22.5,4.78c0,0,6.66,5.66,13.33-.75s9.55-16.11,16.34-19.24,11.06,2,16.59,2.52,10.69-11.44,18.48-11.82,10.56,6.54,15.46,6.29,9.05-12.7,18.73-17.35"/><path class="cls-5" d="M1714.65,1161.24c13.59,13.59,26.07,23.7,31.13,26.86s12.33,5.15,10.75,9.53"/><path class="cls-5" d="M1724.4,1154.66c9.66,11.08,15.43,14.35,25.37,19.58,12,6.32,15.61,13.89,6.17,20.12"/><path class="cls-5" d="M1398.21,1222.11c9.28-11,25.14-31.71,28.15-43.89"/><path class="cls-5" d="M1438.09,1224.55c9.53-21.72,16.16-48.47,16.16-48.47"/><path class="cls-5" d="M1479.14,1183.77c-1.72,9-13.11,42.64-13.9,49"/><path class="cls-5" d="M1486.95,1187.87c-.26,9.14-2.91,48.07-2.91,48.07"/><path class="cls-5" d="M1504.43,1197c-1.19,5-4.11,42.11-7.55,47.54"/><path class="cls-5" d="M1524.42,1259.51c-1.72-17.88,2.25-45.69,5.3-45.55s7,33.9,6.36,43.3"/><path class="cls-5" d="M1561,1206.94c-.13,12.84-.26,40,.53,46.08"/><path class="cls-5" d="M1586.4,1207.87c4.63,18.41,10.06,29.79,10.86,33.24"/><path class="cls-5" d="M1606.13,1194.49c1.59,6.22,17.74,29.13,19.86,31.65"/><path class="cls-5" d="M1634.2,1200.85c8.21,13.77,16.29,22.91,21.45,21.45s-9.4-27.94-9.4-27.94"/><path class="cls-5" d="M1653.93,1174.51c5.69,11.9,24.9,30.86,29.66,33.9"/><path class="cls-5" d="M1691,1165.76c9.14,13.77,25,31.38,27,33.9"/><path class="cls-7" d="M1542.22,310.27c2-9.58,6.54-25.94,7.08-27.8C1550,280,1546,280,1546,280"/><path class="cls-7" d="M1556,262.06c2,.3,3.46.77,2.47,4.69s-4.62,21.29-7.67,39.32"/><path class="cls-7" d="M1564.27,268.31c-3.33,15.89-7,35.75-7,35.75"/><path class="cls-7" d="M1558.48,319c-.85,7.5-1,10.67-1,10.67"/><path class="cls-7" d="M1553.31,247.18c1.84,8.58,2.7,14.89,2.7,14.89"/><path class="cls-10" d="M1764.6,1523c3.87-4.31,11.64.82,27-5.41s28.89-23.39,33.77-44.09c8-34.09,3.44-57.53,11.95-67.6,0,0,3.13-.43,12.64,20.06s11.64,29,15.9,43.44,10.16,35.24,10.65,37.54-3.44,6.06-5.9,4.75-7.7-33.44-11.47-39.34-7.54-9.83-13.44,3-22.29,50.16-28.68,56.71-45.56,27.7-56.55,27.7c-4.43,0-9.88-3.28-10.18-6.88S1751.65,1537.46,1764.6,1523Z"/><path class="cls-10" d="M1530.07,1529.91c8.54.84,9-1.56,26.9-24.17s33.46-55.69,33.46-55.69,4.16,2.47,4.74,13,2.53,26.9,0,41.13-.78,48.54-1.17,50.88-7.21,1.95-7.41,0-.19-46.2-4.09-54c0,0-6.63,9.55-13.84,21.44s-12.09,23.59-18.71,28.46-66.47,9.36-70.56,4.87,16.12-24.27,28.37-28.77C1507.76,1527.06,1512.14,1528.15,1530.07,1529.91Z"/><g class="cls-11"><path class="cls-5" d="M1607.26,523.35c3.25.62,4,.86,6.06,4.78s4.77,5.75,9.91,5.5,6.12-5.87,8.2-3.55,2.5,9.79,9.75,10.52,9.94-3.83,10.19-9.5a60.64,60.64,0,0,0-1.45-13.13"/><path class="cls-5" d="M1609.78,495.34c7.46.86,17.82,2.49,35.46,21.67"/><path class="cls-5" d="M1622.1,502.81c-4,4.38-7.3,14.21-7.3,14.21"/><path class="cls-5" d="M1633.44,505.77c0,5.95-1,14.87-1,14.87"/><path class="cls-5" d="M1642.6,514.23c.54,4.76,0,15.1,0,15.1"/></g><path class="cls-7" d="M1607.65,519.1c-.73,8.68-1.39,12-1.39,12"/><path class="cls-7" d="M1483.33,300.59s26.7-6.12,33.35-6.62"/><path class="cls-4" d="M781.92,568.58c-19.43.93-53-6.7-58.53-21.05-4.16-10.79,6-25.22,6-25.22a24.7,24.7,0,0,1-7.08-13.57c-1.41-8.59-.36-12.8,7.71-29.45s25.42-47.16,54.52-54.52,55.22,3.51,58.2,9.12c1.44,2.71,3.16,10.17,3.16,10.17s2.29-6.38,10.34-4.38c9.54,2.36,13.85,23.84,4.47,46.28S781.92,568.58,781.92,568.58Z"/><path class="cls-12" d="M729.42,522.31c9.27-10.07,17.71-16.33,24.38-18s12.93,4.08,9.53,9.8-14.83,5.72-14.7-9.25,8.17-39.6,27.22-57.16S821.21,431,826.33,442c2.72,5.85-8.71,23.54-8.71,23.54"/><path class="cls-12" d="M835.41,428.51c2.49,7,6.79,15.55-6.93,35.83"/><path class="cls-12" d="M731.19,538.78c6.65,5.28,31,.52,46-23.52"/><path class="cls-7" d="M1132.41,673.16a10.08,10.08,0,0,0,1.22,12.3"/><path class="cls-7" d="M1145.91,669.73a10.1,10.1,0,0,1,5.14,8.8,10.31,10.31,0,0,1-.32,2.54"/><polygon class="cls-13" points="1153.98 696.06 1172.55 715.61 1147.34 734.46 1126.36 733.18 1153.98 696.06"/><path class="cls-13" d="M1055.95,699.69c.72-.18,46.91-2.72,46.91-3.26s-13.26-56.82-13.26-56.82l-10.19,1.94-23.46,19.13S1023.35,692.81,1055.95,699.69Z"/><path class="cls-7" d="M1073.06,670.65c9.33.29,21.88,1,21.88,1"/><path class="cls-13" d="M1019.75,725.45c-2.19,12.35-6,14.66-6,14.66l22.24,21.7s5-6.28,8.76-7.77,14.21-9.25,17.35-13.72,6.61-22.64,7.44-23.14,36-13.39,39.16-14.54-5.45-10.91-7.93-10.58-32.27,2.64-39.69,2.48-9.72-.66-11.71-4.63.66-11.73,1.65-13.55,12.56-16,13.39-17,23.47-14.54,24.79-16.36-.5-14.71-2.15-14.38-22.47,11.57-27.43,14.21-28.42,27.76-29.58,29.91S1021.63,714.81,1019.75,725.45Z"/><path class="cls-13" d="M1105.87,696.16l-7.75.79-1.39-5.95c1.3-.11,2.2-.2,2.55-.25C1100.63,690.58,1103.78,693.38,1105.87,696.16Z"/><path class="cls-7" d="M1093.42,692.7c-10,.79-27,2-32.38,1.84-7.41-.17-9.72-.66-11.71-4.63s.66-11.73,1.65-13.55,12.56-16,13.39-17c.6-.71,12.53-8,19.64-12.62"/><path class="cls-13" d="M1090.46,775.62c4.84,6.06,26.56,30.17,26.56,30.17s7.07-18.09,8.21-19.48,28.36-14.25,36-17.76,9-4.84,9.18-7.68-.33-10.85,0-13,4.08-11.19,0-15.86c0,0,10.49-6.68,11.49-7.35s4.68-40.58,5.34-44.42-6.51-2.17-9.69-.67-6.85,7.85-7.18,11.86-1.84,20.54-2.34,21-17.7,12.36-19.71,12.86-13.53,0-13.53,0,14.7-14.7,18.54-18.7,3.17-8.09,2.67-11.4-2.34-9.65-5.18-8.31-21.24,16.65-29.22,21.88c-8.45,5.53-20.51,15.86-24,20.94C1092.5,737.13,1092.28,768.2,1090.46,775.62Z"/><path class="cls-7" d="M1168.12,712.44c-.5.5-17.7,12.36-19.71,12.86s-13.53,0-13.53,0,14.7-14.7,18.54-18.7"/><path class="cls-13" d="M1035,1374.16s-14,21-24.91,56c0,0,43.14,26,111.78,36.91,0,0-.62-4.75-13.68-17-5.34-5-16.23-17.84,2.29-29.08,0,0-12.62-7-12.31-11.29s5.16-24,5.16-24Z"/><path class="cls-13" d="M491.11,1410.61s-27.61-19.48-32.65-17.93-13.16,13.55-13.16,13.55-5.81-61.94,24.78-81.3l28.8,9.32C492.72,1360.09,489.78,1385.59,491.11,1410.61Z"/><path class="cls-13" d="M881.56,562.72,855.5,602.65l-.5,1.07L848,619l-13.18,28.69-2.39,5.21a100.68,100.68,0,0,0,4.49,19.22c3.42,9.83,6.62,42.51,6.62,42.51a67.88,67.88,0,0,1-8.11-7.26c-2.78-3.21-6.63-11.54-6.63-11.54s-36.52-26.27-48.49-35.67-31.89-26.43-31.89-26.43c21.64-39.37,20.14-44.71,20.14-48.77-11.51-2.66-25.73-12.53-24.67-23.86s17.62-7.33,17.62-7.33A54,54,0,0,0,773.84,541h0c17.65-26.25-1.42-56.44-1.42-56.44,33.11-26.69,67.71-28.41,73.9-26.91s14.52,16.66,18.8,25.43L866,485a64.23,64.23,0,0,1,3.76,8.81,30.14,30.14,0,0,1,1.08,5.51c.64,5.35,2.56,20.29,5.77,32.47,2.53,9.64,4.13,23.43,4.69,28.76C881.48,561.9,881.56,562.72,881.56,562.72Z"/><path class="cls-4" d="M848,619l-13.18,28.69c-14.28-6.74-37-18.54-40.67-23.45-4.77-6.46-8.61-25.66-9.4-29.88,5.13,7.3,10.15,13,13.87,14.22C803.34,610.09,833.56,616.29,848,619Z"/><path class="cls-7" d="M768.56,584.93a47.9,47.9,0,0,0,10.94,1"/><path class="cls-13" d="M877.9,610.91c-9,8.4-16.29,10.11-23.14,9.2-1.23-.17-3.61-.58-6.75-1.16-14.44-2.66-44.67-8.87-49.38-10.43-11.66-3.85-36-51.54-37.11-54.78A54,54,0,0,0,773.84,541c.23,3.5.92,6.58,1.8,7.94,1.43,2.22,12.69,23.31,19.51,28.86s12.84,9.35,25.21,11.1c0,0,6-16.65,18.08-22.83s40.49-6.8,42.91-5.54,2.75,11.93,3.22,24.43S886.94,602.51,877.9,610.91Z"/><path class="cls-14" d="M877.9,610.91c-9,8.4-16.29,10.11-23.14,9.2-1.23-.17-3.61-.58-6.75-1.16-14.44-2.66-44.67-8.87-49.38-10.43-11.66-3.85-36-51.54-37.11-54.78A54,54,0,0,0,773.84,541c.23,3.5.92,6.58,1.8,7.94,1.43,2.22,12.69,23.31,19.51,28.86s12.84,9.35,25.21,11.1c0,0,6-16.65,18.08-22.83s40.49-6.8,42.91-5.54,2.75,11.93,3.22,24.43S886.94,602.51,877.9,610.91Z"/><circle class="cls-4" cx="828.48" cy="530.18" r="5.21"/><circle class="cls-4" cx="865.35" cy="519.87" r="4.6"/><path class="cls-4" d="M792.86,513.27a28.31,28.31,0,0,0,0,9s5.38-6.3,11.56-12.48,11.79-8.93,14.65-9.27,10.53,1.72,11.22,0-1.8-7.55-11.56-8.13C808.17,491.82,795.27,509.49,792.86,513.27Z"/><path class="cls-4" d="M869.8,493.76c-3.56.1-7.95.5-10.7,1.71,0,0-1-7.23,1.09-8.3A62.39,62.39,0,0,1,866,485,64.23,64.23,0,0,1,869.8,493.76Z"/><path class="cls-4" d="M861.42,560.67c-5.39-4.62-13.85-5-15-2.3S850.27,562,861.42,560.67Z"/><path class="cls-7" d="M859.09,495.47c-3.43,6-7.8,11-8,14.38s-.46,12.27.56,12.92,9,3.75,11.71,11.4,7.92,22.25,4.94,26"/><path class="cls-7" d="M831.28,543.29a7.76,7.76,0,0,0,5.34-6.12"/><path class="cls-7" d="M819.08,531a32.83,32.83,0,0,0,7.68-.77"/><path class="cls-7" d="M866,518.92c2.08.21,4.73-1.07,6.22-1.91"/><path class="cls-13" d="M849.13,572.05c7.79-2.45,22.46-5.34,24.85-4.77s6.63,13,3.79,16c-7.82,8.42-36.08,11.23-38.61,9.41s-6.07-5.62-5.21-8.42S846.34,572.93,849.13,572.05Z"/><path class="cls-7" d="M838.31,579.48c11,2.3,27-1.18,31.64-5.27"/><path class="cls-7" d="M849.75,587.06c4.32.24,12.73-1.32,14.53-3.24"/><path class="cls-7" d="M832.43,652.85c-2,5.45-7.22,16.75-7.22,16.75"/><path class="cls-15" d="M836.91,634s13.11,11.62,16.31,12.8c0,0,2.36,13.83,6.07,20.58s2.19,15.35,2.19,15.35-9.11-5.9-13.16-7.42l2.7,36.78"/><path class="cls-15" d="M848.33,675.34a169.25,169.25,0,0,1,0-24.68"/><path class="cls-15" d="M749.57,626.29c4.63,5.23,62.61,49.73,84.25,62.41,0,0,8.16,18.72,20.84,28.39,0,0,11.68,27.78,28.59,103.68"/><path class="cls-15" d="M854.45,652.85c12.58,5.52,28.47,26.3,39.47,45.86s40.09,67.72,42.78,68.45,8.31.24,11,2.93,1,12.47,2.93,11.25,4.89-3.91,7.09-2.93,2.93,8.8,4.64,7.82,1.22-8.56,2.2-10.27,48.16-46.69,48.16-46.69"/><path class="cls-15" d="M993.42,733.18c7,7.9,43.27,40.34,43.27,40.34"/><path class="cls-15" d="M1015.06,733.18c9.66,10.27,35.32,34,35.08,35s-10.27,12.47-10.27,12.47,4.52,12.47-7.27,28.11"/><path class="cls-15" d="M870,682.58c9.53,25.18,29.34,84.58,38.62,160.12"/><path class="cls-15" d="M754.25,622.86c-5.12-.26-4.54,1.08-7.62,7.05s-12.32,19.25-12.32,19.25,18.86,17.34,29.06,26.19S823,729.79,823,729.79s7.31-23.1,7.31-36.76"/><path class="cls-15" d="M734.31,649.15c-8.22,11.52-31.45,44.39-47.07,70.43S665.91,768.67,670.48,791s19.24,69.9,23.81,93.14,21.33,112.37,21.9,119,2.29,6.86,7.24,7,152.56-.76,167.23,0,18.28.76,18.47-7.24-.91-37.09-.91-37.09"/><path class="cls-15" d="M680.95,754.7c11.16-15.8,31.2-33.07,62.89-36.65"/><path class="cls-15" d="M776.89,736.38c37.15,40.17,75.77,68.48,102,85.87s38.92,30.66,46,30.37,14.74-1.18,15,5-3.54,13.56,0,13.27,8.25-6.49,10.61-5.31,7.37,6.8,11.5,5.32,3.54-3.84,8.55-7.38,92.41-75.37,106.73-90a118.76,118.76,0,0,1,9.92-9.2c1.43-1,36.62,42.67,37.89,44.4s-9.35,6.8-10.46,14.41"/><path class="cls-15" d="M1076,774.81c8.94,12.79,32.49,37,34.32,38.5"/><path class="cls-15" d="M716.06,842.7c30.74,31.16,101.7,71.22,133.29,90.32s74.91,42.85,87.49,44.25,13,5.46,22.42,4.09,7.74-5,15.31-5.68,13.59,1.72,19.79-5.51,37-37,48.52-48.52S1084,881.39,1095,869s16-19.27,17.2-27.7a64.55,64.55,0,0,0,.86-12.73"/><path class="cls-15" d="M953,876.94c-.61,27-1.91,35.29-1.91,35.29"/><path class="cls-15" d="M961.56,880c10.74,17.19,16.88,34.06,18.41,39.59"/><path class="cls-15" d="M892.35,957.61c4,31.35,3,45.65,3,45.65"/><path class="cls-7" d="M1170.49,732c-8,5-11.77,8.93-11.77,8.93"/><path class="cls-7" d="M1058.35,675.1c4.35,6.53,8.49,16.35,9.68,19.26"/><path class="cls-7" d="M1093.42,660.68c-6.38,3.19-26.47,12.49-33.35,17.17"/><path class="cls-16" d="M1174.93,693l-2.8,26.56-20.65-18s2.38-9.94-1.47-8.36l-25.92,19.91s-5-5.25-5.85-8.05-3-9.9-3-9.9l-9.4,1-7.75.79-1.39-5.95-11.18-47.61a12.85,12.85,0,0,0,2.16-1.72,3.85,3.85,0,0,0,.41-1.81l21.21-3.88,7,51.26,53.19-13.82Z"/><path class="cls-7" d="M1064.33,686s13.49-1.61,19.67-.84"/><line class="cls-7" x1="1147.34" y1="712.79" x2="1154.76" y2="721.56"/><polygon class="cls-17" points="1140.71 658.15 1131.39 660.6 1127.42 666.38 1139.98 674.36 1146.99 661.24 1140.71 658.15"/><line class="cls-18" x1="1116.74" y1="623.97" x2="1099.79" y2="613.44"/><line class="cls-18" x1="1126.36" y1="591.99" x2="1129.9" y2="615.18"/><line class="cls-18" x1="1148.07" y1="616.78" x2="1158.47" y2="603.59"/><path class="cls-19" d="M902.15,991.55S966.52,994,1031,998.63s117.23,11,140.29,18.12,40.91,26.63,42,48.59-.55,31.85-27.73,132.6-51.06,201-51.06,201l-105.93-16.17s23-86,29.61-118.9,26.9-117,26.9-117-12.9,4.67-13.73.27,8.24-11.81,8.24-11.81-86.2,0-169.66-.27c0,0-9.38,168.86-17.12,255.05s-9.81,116.65-17,129-36.65,45.94-85.16,29.94-161.55-65.55-306.59-107.87c0,0-3.87-84.13,7.74-108.39,0,0,70,13,156.13,42.58,71.11,24.41,104.52,39.74,104.52,39.74s-1.29-10.32,3.1-10.06,16.26,11.61,16.26,11.61-11.36-76.39-16.26-104.26-20.13-91.1-28.9-134.71-10.58-152.78-7.23-161.81a67.44,67.44,0,0,1,7.48-14.73H901.37Z"/><path class="cls-20" d="M777.09,1422.75c8.5,16.4,14.27,21.26,14.27,21.26"/><path class="cls-20" d="M763.12,1427.31a92.35,92.35,0,0,0,6.07,20"/><path class="cls-20" d="M897.06,1016.37c1.52,16.1,1.52,59.83,3,59.83s9.29-11.24,9.05-13.67-1.76-46.17-1.76-46.17"/><path class="cls-20" d="M859.4,1135.43c24.6-27.94,75-66.82,80.79-68.94s-34.43,42.22-31,44.34,15.85-8.2,15.85-8.2"/><path class="cls-20" d="M910.73,1078.33c1.21,17.92-.76,56.75-.76,56.75"/><path class="cls-20" d="M1089,1130.88c13.36-2.73,33.71-12.45,33.71-12.45"/><path class="cls-20" d="M1092.36,1145.76a253.66,253.66,0,0,1,28.25,0"/><path class="cls-16" d="M1105.3,1417.62s36.56,20.62,50.83,27.61,75,26.12,64.39,65.3c0,0-21.26.91-61.35-2.43s-71.07-11.54-86.26-14.88-19.13,0-17.62,6.38c0,0-44.65-3.34-56.19-6.38,0,0,2.9-49.66,13.6-68.87,0,0,38.36,23.92,97.73,36.07,0,0-9.58-7.59-13.83-12.76S1090.91,1426.15,1105.3,1417.62Z"/><path class="cls-16" d="M481,1396.63c-5.21,6.94-11.57,16.78-12.73,22.57s-4.63,24.18-3.18,28.15,9.55,13.23,14.18,15.25,16.78,17.94,11.57,30.09-20,7.23-37.62,3.18-31-7.81-41.38-18.81-8.1-17.94-9.26-44-.87-39.64-1.74-46-8.68-6.37-8.68-6.37-5.21-52.37,7.52-64.24c0,0,39.64.58,50.64,2.89s26.71,7.81,26.71,7.81-21.8,9.55-25,62.5c0,0,6.08-5.5,9.84-4.34S481,1396.63,481,1396.63Z"/><path class="cls-21" d="M849,814.28,822.5,797.23c-4.49-33.85-11.87-64.75-21.94-97.51L819,714.58l4-11.32S840.14,733.85,849,814.28Z"/><path class="cls-21" d="M854.2,922.69c-.11,28.71-1.23,60.71-3.72,96.27l-24-.65s4.88-46.18,3.88-110.46A195.22,195.22,0,0,0,854.2,922.69Z"/><path class="cls-7" d="M761.51,553.74s6.14,12.29,11.33,21.58"/></svg>