<svg id="Layer_1" data-name="Layer 1" xmlns="http://www.w3.org/2000/svg" viewBox="0 0 2267.72 1700.79"><defs><style>.cls-1{fill:#fcc9a1;}.cls-2{fill:#505c7b;}.cls-10,.cls-16,.cls-2,.cls-21,.cls-7{opacity:0.5;}.cls-15,.cls-19,.cls-3{fill:#dc6437;}.cls-12,.cls-17,.cls-18,.cls-3,.cls-4,.cls-9{opacity:0.75;}.cls-12,.cls-14,.cls-18,.cls-21,.cls-5,.cls-6,.cls-9{fill:none;stroke-linecap:round;stroke-linejoin:round;stroke-width:2px;}.cls-21,.cls-5{stroke:#dc6437;}.cls-6{stroke:#2c2f53;}.cls-7,.cls-8{fill:#63cdf6;}.cls-8{opacity:0.25;}.cls-9{stroke:#54c3e5;}.cls-10,.cls-17{fill:#f06082;}.cls-11{fill:#f4b29c;}.cls-12,.cls-18{stroke:#f06082;}.cls-13{fill:#2c2f53;}.cls-14{stroke:#505c7b;}.cls-15{opacity:0.6;}.cls-18{stroke-dasharray:7;}.cls-19{opacity:0.3;}.cls-20{fill:#fff;}</style></defs><title>Pria menggendong pasangannya</title><path class="cls-1" d="M915.1,1034.92c-.33,2.11-1.46,12.08-3.05,24-30.67-1.06-45.85,4.43-70.7,7.34-20.75,2.44-39.94-5.12-52.63-12.3,19.61-3.26,54.71-8.28,55.87-9.42s5.52-19.77,5.52-19.77C874.49,1031.41,915.1,1034.92,915.1,1034.92Z"/><path class="cls-2" d="M912.58,1054.95c-.17,1.29-.35,2.63-.52,4-1.95,14.51-4.56,31.93-7.26,41.64-4.92,17.69-26.54,5.4-36.37,2.21s-52.33-10.32-72.72-12-45.7-10.82-45.7-15c0-8.77,16.46-17.94,34.89-21.14,1.2-.21,2.47-.42,3.83-.64,2.75-.45,5.8-.95,9-1.45a66,66,0,0,0,39.85,8.48C861.38,1058.41,893.5,1052.78,912.58,1054.95Z"/><path class="cls-3" d="M1198.51,306.72c21.75-13.4,46.38-25.78,60.67-27.52,0,0,1.09-24.23-10.5-33.89s-26.61-12.75-38.41-12-24,4.25-29.37-18.35-12.75-41.52-21.63-45.58c0,0-1.74-12-29.74-32.64s-55-10.62-59.67,5.21a24,24,0,0,0-19.12-2.7s-21.53-7.95-45.38,21.44c-29.16,35.92-1.93,66.72-2.51,76.91s-18.54,38-18.54,38,21.24,115.49,21.24,116.06,60.64,15.76,61.41,16,36.9-9.67,36.9-9.67.75-30.85,11.76-37.22,15.08-12,17-15.82l14.52-14.28Z"/><g class="cls-4"><path class="cls-5" d="M1063.27,149c-1.4-5.3-8.7-8.23-12.53-9.72"/><path class="cls-5" d="M1074.17,151c4.83-4.83,12.31-1.71,22,4.52s31.16,13.86,45.64,7.63"/><path class="cls-5" d="M1070.59,156.33c6.39-.47,18.23,12.15,29.75,18.38s31.62,4.52,38.79,0,20.11-4.84,24.93-1.56"/><path class="cls-5" d="M1005.47,310.07c.16-23.35,3.24-38.53,8.26-51.08,8.1-20.25,4-41.12,3.12-64.34-1-25.9,31.93-46.27,45-31.47"/><path class="cls-5" d="M1052.1,168.8a18.6,18.6,0,0,0-17.47-5.5"/><path class="cls-5" d="M1022.7,175c8.35-3.67,16.54-1.83,18.16-1.07"/><path class="cls-5" d="M1017.61,186.61c4.52-3.11,12.63-2.33,12.63-2.33"/><path class="cls-5" d="M1031.25,249.43c-2.53,9.17-16.2,32.71-9.11,47.65s18.95,30,16.42,46.07c-3.27,20.8-15.16,28.1-12.63,51.13"/><path class="cls-5" d="M1061.87,290.49c2.85,18.07,8.75,26.64,14.66,32.55s7.81,15.24,0,24.2-17.69,19.62-11.24,50.74"/><path class="cls-5" d="M1148.21,214.78c14,5.44,24.92,14.33,27.46,28.94s16.33,32.77,28,28,3.09-15-4-11.12-1.13,13.24,7.15,18.32c10.31,6.32,9.55,13.08,9.55,13.08"/><path class="cls-5" d="M1181.63,217.73c5.66,20,12.8,22.19,25.15,25.18s28.11,13.1,33.41,37.15"/></g><path class="cls-1" d="M1282.62,454.57c16.67,1.28,56.7,6.82,68.58,33.23,1.79,4-11.46,34.21-16.39,36.07s-39.91,8.66-57.07,3.91-55.54-32.78-72-47.9-38.22-29.55-43.65-31.25c0,0-21.23-1.19-29.55-2.38-6.3-.9-12.94-7.81-14.81-11.89s-11.73-4.57-21.46-2.17c-7.81,1.93-14.72,4.75-20.76,5.65-5.61.83-9.87-3.95-9.87-6.22,0-3,17.3-7.71,38.35-14.14,0,0-27.76,4-38.22,6.71s-11.55-2.16-11.55-5.53c-3.15,1.62-4.61,1.43-8.36-.66-2.29-1.27-2.51-4.36.26-6.43a9.5,9.5,0,0,1-7.52-2c-3.93-3.08,14.27-14.38,20.18-18.09s25.58-14.48,28.34-15.92,12.82-1.22,20.45,2.32,75.7,37.13,89.75,44.54C1217.21,432.95,1270.34,446.9,1282.62,454.57Z"/><path class="cls-1" d="M1117.35,503.33c-.19,1.49-13.24,5.41-13.24,5.41,2.61,0,10.44,3.35,10.07,5.22s-19,10.45-29.1,10.83-28.68,2.63-28.68,2.63l12.08,8.37s14.17-2.8,19.77-3,8.77,6.15,7.66,7.57-9,4-20.53,6.37-14.55.42-20.7-2.93-42.53-23.7-42.53-23.7-89.35.19-105.21-3.17-30-13.42-33.39-16-9.51-3.17-11-3.17-10.45-12.12-8.21-23.88c.85-4.49,6.26-12.84,12.62-21.46,5.34-4.55,8.23-5.47,14.38-6.12s16.38,0,21.75,0,32,11.3,32,11.3c5.79,2.14,21.83,10.13,35.44,12.73s45.52,5.41,45.52,5.41S1036,453,1039,455.39s24.44,13.42,26.86,16.41-.93,6.53-.93,6.53,29.1,3,32.82,3.55,10.64,2.62,11.76,5.41-4.85,6.92-4.85,6.92C1115.48,495.51,1117.54,501.84,1117.35,503.33Z"/><path class="cls-6" d="M1039.5,473.42c5,2.68,11.49,5.75,12.71,5.94,2.24.36,9.37.47,12.71-1"/><path class="cls-6" d="M1055,498.63c9.84-1.39,49.7-4.41,49.7-4.41"/><path class="cls-6" d="M1058.62,513c5.8-.63,39.15-4,45.49-4.27"/><path class="cls-7" d="M926.58,459.39l.31.11C926.64,459.59,926.54,459.56,926.58,459.39Z"/><path class="cls-7" d="M1210.32,477.35l-2.38,4.52C1182,529,1136,554.57,1136,554.57c-1.91-1.8-3.74-3.57-5.51-5.28-105.18,28.15-172.24,27.08-194.68,25.55-.78-4.51-1.6-9.24-2.38-13.82-9.75-7.35-23.77-29.75-30.19-45l-1.93-4.34s38,6.08,111.52,4.34c0,0,47.75,28.76,51,29.22s28.83-4,29.59-5.8-3.05-5.62-4.27-5.32-20,4.92-21.51,4.13-18-12.77-18-12.77,34.82-2.72,38.63-3.45,21.05-6.53,21.51-7.9-12.06-4.94-12.06-4.94,18-6.35,16.78-7.58-5.39-4.25-18-6.78c0,0,12.54-4,9.19-7.71s-51.72-6.25-51.72-6.25,12.36-4.62,9.31-7.83-24.32-14.22-26.46-13.46-19.11,20-19.11,20-43.39-4.49-50.11-6.17S936.94,463,926.89,459.5c1.86-.7,11.68-8.78,20.11-17.12,7.68,4.95,23.31,14.1,37.31,18,19.38,5.46,19.53,5.83,35.81-5.77,11.5-8.2,24.79-24.31,33.23-38.46,1.69-.31,3.06-.68,3.06-.68s.65,6.52,2.8,7.29,44.86-11.49,55.32-6.15c0,0-45,12.65-46.54,14.79s5.28,5.71,12.06,3.36c8.89-3.08,22.08-7.17,28-7.17s12.08,3.28,14.55,7.4,10.17,8,14.14,8.49,25,.61,26.8,1.08S1187.79,458.25,1210.32,477.35Z"/><path class="cls-8" d="M1177,613.82c-33.22,7.86-172.42,39.32-230.07,28.2-3.38-20.94-6.77-41.42-7.82-48.16-.76-4.81-1.95-11.65-3.23-19,22.43,1.52,89.5,2.6,194.68-25.55,1.77,1.72,3.61,3.49,5.51,5.28,11,10.38,24,22,35.33,31.84C1172.8,595.13,1174.84,604.73,1177,613.82Z"/><path class="cls-7" d="M1058.28,1531.48c.36.22,31.09-19.1,31.09-19.1l-10.47-7.22,3.36-9.65c17.85-1.12,86.3-8.5,86.3-8.5s1.39,3.49,2.54,7.54c2.91,10.25,7.44,25.92,8.32,34.89.43,4.41,0,24.38,0,24.38s.94,6.73-2.82,7.89S994,1566.8,994,1566.8c-.57-6.28,8.47-19.34,15.36-24.37s23.64-14.78,39.15-15.07A35.67,35.67,0,0,1,1058.28,1531.48Z"/><path class="cls-9" d="M988.59,865.45c-.51,37.95.54,157.25,3.64,208,3.12,50.89,23.37,190.59,74.26,423.25"/><path class="cls-9" d="M1119.86,1093c-.76,28.87-.45,48.83,1.39,51.62s11.08,16.95,16.31,61.57,15.39,138.47,17.54,164.32,12.62,82.16,16,96.93,5.85,19.69,4.31,21.85-4.31,5.23-4.31,5.23"/><path class="cls-9" d="M1195.69,862.61c4.35,18.69,9.43,27.1,27.94,31.51L1218,858.25"/><path class="cls-9" d="M1226.82,860.33s39.84,216.53,43.93,218.76,8.56,2.23,8.94,10.42-2.23,22.34,1.86,23.83,12.29-2.61,15.27,1.86,2.23,8.19,8.56,9.31,27.55,30.53,38.72,44.68,24.57,33.14,29.41,45.8,107.23,190.26,107.23,190.26-72.6,48.4-79.3,49.52-10.42,1.86-12.66-3.72-8.94-13.78-13.78-21.59-92.34-125.47-118.77-154.89-73.89-86.83-77.82-96.06c-5.67-13.34-28.14-52.41-39.36-94.27"/><path class="cls-9" d="M1226.42,909.57c5.75,34.7,17.25,90.73,26.42,143.94,4.55,26.39,16.36,45.36,26.42,49.14"/><path class="cls-9" d="M1293.08,1131.28c-9.21,14.71-25.08,27.82-27,26.66"/><path class="cls-9" d="M1275,1128.21c-16.19,8.57-33.33,12.38-33.65,8.57s33.65-18.73,33.65-18.73"/><path class="cls-10" d="M1302.63,609.93a510.26,510.26,0,0,0,65.43-4.16c16.37-2.38,34.28-9.42,34.28-9.42s-.66-29-4.45-35.06c0,0-14.59,19.47-28.35,21.59-10.93,1.69-76.28,3.18-76.28,3.18Z"/><path class="cls-7" d="M1307.33,611c0-.32-.11-.66-.19-1-1-4.65-4.17-13-9.14-24-6.62-14.59-16.39-33.75-28.22-54.7-7.43,8.67-41.38,46.67-83.63,68l16.74,14.33s-6.56,11.35-3.92,13.36,9.44,4.62,9.44,4.62l-2.65,17.57-.14.16c-1.06,5.52-2.29,11.35-3.47,16.67l.07,0,4.27,2.31c5.65,3,10.3,5.44,14.5,7.4h0a97,97,0,0,0,20.09,7h.08c1.88.43,3.86.85,6,1.25a94.72,94.72,0,0,1,11.18,2.88h0a97.33,97.33,0,0,1,10.36,4c5.51,2.49,9.33,4.93,10.4,6.21C1308.39,636.27,1308.78,620.57,1307.33,611Z"/><path class="cls-11" d="M1204,683.21s-7.34,31.14-15.81,52.65-19.14,39.77-30.44,42.34c-13.88,3.15-39.82-.92-46.69,0,0,0-1.6,6.87,4.35,16.25s13,23.68,13.27,28c0,0,33-.51,38.45-2.11s40.84-17.16,60.36-52S1263.42,705,1263.42,705C1238.16,692.44,1219.21,691.81,1204,683.21Z"/><path class="cls-1" d="M1165.65,1022.66c-26.94,6.89-80.59,58.47-80.59,58.47a101.19,101.19,0,0,0-28.5-2.16c.68-.78,1.36-1.58,2.06-2.4,17.53-20.58,36.81-44.78,40.39-52,1.91-3.8-5.43-19.45-5.43-19.45L1155,985.9S1160.35,1004.4,1165.65,1022.66Z"/><path class="cls-12" d="M958.89,433.85S953.43,444,936.45,456.6"/><path class="cls-12" d="M878.39,436.92c-4.48-13.62-3.36-19.93-3.36-22"/><path class="cls-12" d="M876.65,409.49c1.55-4.29,6-18,40.44-39"/><path class="cls-11" d="M1051.75,396s-22.25,34.09-41.79,49.44c-14.88,11.69-51.07-11.59-51.07-11.59s1.88-5.65,0-8.47c-.6-.92-3.7-6-7.62-12.39l-1.58-2.62c-8-13.18-18.26-30.18-18.26-30.18l34.11-18.8,39-21.49c10.59,19.59,27.48,51.59,33.51,52.77S1051.75,396,1051.75,396Z"/><path class="cls-13" d="M1005.85,396.69c-5.46,12.85-21.3,17.66-34.43,17.36-5.27-.12-13.47-1.75-21.73-3.66-8-13.18-18.26-30.18-18.26-30.18l34.11-18.8,41.19-11.46S1008.33,390.85,1005.85,396.69Z"/><path class="cls-11" d="M996,293.83c5.77-10,14.58-3.17,17.17,3.75s2,23.67-6.49,27.13c0,0,5.63,12.41,5.48,18.47s-11.55,44.3-19.77,50.51-21.79,8.84-37.38,4.28-27.56-13.8-29.87-16.11-12-17.35-12-17.35-13.42,3.06-22.66-6.9-7.36-18.33-5.63-20.2,10.51-2.6,10.51-2.6-21.91-39.48-20.32-46,14.58-44.48,28-50.54,75.33-2.31,79.08,7.65S996,293.83,996,293.83Z"/><path class="cls-6" d="M1010.63,351.2c-3.43,13.35-11.78,37.66-18.19,42.5-8.23,6.21-21.79,8.84-37.38,4.28a84.39,84.39,0,0,1-17.9-7.71"/><path class="cls-6" d="M953.43,291.93a44.32,44.32,0,0,0,4.73,22.32c3.78,7.47,10.4,20.52,11.73,22.89"/><path class="cls-6" d="M976.89,299.12c3.12-1.89,5.77-5.67,6.24-8.23"/><path class="cls-6" d="M918.35,318.6c3.78.28,9.74-.09,12.29-1.7"/><path class="cls-6" d="M973.59,341.63c3.14-4.3,5.54-7.27,5.54-7.27"/><path class="cls-6" d="M956.07,345.43c5.12-.5,12.81-.41,12.81-.41"/><path class="cls-12" d="M1264.54,452.1c-13-19.95-17.1-26.69-14-43.07s4.34-19.51-2.17-27.94-11.32-20.47-13-41.18"/><path class="cls-13" d="M887,336.32c3-.76,8.35.39,10.1,2.86S904.52,350,904.52,350s2.39-12.77,0-16-10.69-16-12-20,5.11-22.34-7.42-33.83c0,0,10.1-19.19,25.29-26.57,19.23-9.33,47.39,22.34,68,1.84,0,0,8.87,10.17,17.65,38.51,0,0,2.42-5.14,7.57-5,0,0-7.22-38.68-10.59-48.93-4.1-12.51-15.22-14.52-21.21-11.71,0,0,8.47-20.92-13.36-24s-43.81,7-57.89,17-33.56,30.4-21,50.71c0,0-16.48-.7-18.45,18S887,336.32,887,336.32Z"/><path class="cls-14" d="M890.85,231.32c21-7.78,36.07-2.91,47.52,6.31,12.3,9.9,40.94,9.36,32.22-3-7.84-11.13-18.94,4.93-6.12,9.73,8.23,3.08,17,5.14,27.41-.92"/><path class="cls-14" d="M922.73,210.73c12.71-2,24.61,2.31,27.38,6.52,3,4.63,13,13.62,20.42,9"/><path class="cls-14" d="M876,312.23c7.07-7.91,12.45-15.63,9.08-32.17,0,0-.76-28.44,14.88-36.33,14.66-7.41,39.25,16,65.38,17"/><path class="cls-14" d="M879.91,320c5.11-2.94,9.71-11.22,11.39-20.13"/><path class="cls-14" d="M892.08,317.55a18.42,18.42,0,0,1-4.5,6.92"/><path class="cls-14" d="M894.71,263.93c.27-5.38,1.93-17.93,13.31-21.6"/><path class="cls-1" d="M1170.93,359.21c-5.91,5.9-11.68,6.67-18.86,3.34s-19.5-17.57-19.5-17.57a38.84,38.84,0,0,0-2.53-27,53,53,0,0,0-13.37-17.54,41.62,41.62,0,0,1-7.18,5.61c-4.33,2.61-7.65,3.07-9.88,2.73-3.33-.51-23.47-15.9-38.73-28.85s-12.69-15.39-13.72-20.65-9.11-9.24-14-15.78-18.09-38.23-3-59.26S1069,167.58,1069,167.58c15.06,27.29,40.35,29.84,50.89,29.93.95,0,1.86,0,2.73-.08a35.83,35.83,0,0,0,11.28-2.78c5.08-2,9.68-4.43,16.81-4.68,11.37,18.47-3.39,34-3.39,34,5,17.06,32,64,40.5,75.79a71.51,71.51,0,0,0,13.8-2.31C1202.46,326.86,1176.83,353.32,1170.93,359.21Z"/><path class="cls-13" d="M1148.71,289.48c-4.08,9.89-12,20.54-18.66,28.53a53,53,0,0,0-13.37-17.53c15.3-12.45,24.89-28.29,30.14-45.55C1150.2,263,1153.91,276.87,1148.71,289.48Z"/><path class="cls-15" d="M1131.83,217.73c.9-8.34-5-16-9.26-20.3a35.83,35.83,0,0,0,11.28-2.78C1141.32,210.75,1131.83,217.73,1131.83,217.73Z"/><path class="cls-6" d="M1057.1,414.92c10.92-5.29,34.48-11,36.81-11.37s10.8.13,10.8.13"/><path class="cls-6" d="M1050,408.77c10.61-6.21,32.68-16.63,35.89-17.57s13.57.31,13.57.31"/><path class="cls-6" d="M1282.62,454.57a214.86,214.86,0,0,1,21.19,12.08"/><path class="cls-10" d="M1277.83,437.47c.76,8.11-.38,16-1.11,21.47,0,0,53.75,4.78,73.9,34.11,2.06-4.19,3.95-51.2,3.95-51.2S1327.91,418.43,1277.83,437.47Z"/><g class="cls-16"><path class="cls-17" d="M1130.47,357.37l6.53,5.52s-12.22,11.21-12.72,11-5.75-8.28-5.75-8.28Z"/><polygon class="cls-17" points="1142.52 365.65 1148.21 368.41 1142.52 383.81 1134 378.79 1142.52 365.65"/><polygon class="cls-17" points="1156.75 371.26 1164.11 371.26 1164.95 387.26 1155.07 387.26 1156.75 371.26"/><polygon class="cls-17" points="1170.64 369.75 1178 385.99 1186.2 379.26 1175.16 365.65 1170.64 369.75"/><polygon class="cls-17" points="1183.19 357.37 1180.85 361.38 1193.15 369.58 1197.25 357.37 1183.19 357.37"/><path class="cls-17" d="M1191.16,344.72l10.44,11L1212,342.47s-9.45-5.69-9.41-5.52S1191.16,344.72,1191.16,344.72Z"/><polygon class="cls-17" points="1206.11 324.46 1204.76 329.04 1217.41 336.94 1218.35 325.27 1206.11 324.46"/><polygon class="cls-17" points="1206.78 317.6 1221.58 320.16 1213.1 310.06 1206.78 317.6"/><polygon class="cls-17" points="1210.28 304.42 1218.35 307.91 1225.75 301.19 1216.47 298.63 1210.28 304.42"/></g><path class="cls-12" d="M1367.09,442.89c6.12,32.36,17.8,68.31,27.69,74.9s12.58,15,13.48,20.67"/><path class="cls-12" d="M1299.66,589.58c25.55-1.16,50.9-1.74,61.48-1.44s23.21-4.46,33.32-16.07,14.51-17.77,13.8-27.37"/><path class="cls-12" d="M1131.83,338.33c6.35,7,20.5,22.36,30.76,19.43s32.78-30.7,34.49-57.24c15.59-10.78,54.49-33.76,82-25.38,27.87,8.49,57.94,60.2,65.6,73.6s30.62,49.76,31.32,66.12-9.57,33.23-21.85,39.71"/><path class="cls-12" d="M1223,775.81c27.59-4.36,45.69-5.55,66.76-4.07s51.33-3.29,81.3-37.55,30.27-63.34,31.75-103.1a337.28,337.28,0,0,0-.4-34.11"/><path class="cls-12" d="M1267.47,728c29.22.27,59.46,1.34,75-32.45,15.78-34.4,17.88-88.79,17.88-88.79"/><path class="cls-12" d="M1336.14,614.39c.52,13.3,1.47,18.1-1.29,24-3.62,7.75-4.06,18,.94,20.41a72.2,72.2,0,0,1,10.81,7.1"/><path class="cls-12" d="M1331.32,588.44c.87,13.14.59,19.84.76,19.83"/><path class="cls-12" d="M1321.78,588.72c.62,5.54.75,19.75.75,19.75"/><path class="cls-6" d="M1148.71,247.9c-.55,2.37-1.18,4.71-1.89,7-5.25,17.26-14.84,33.1-30.14,45.55"/><path class="cls-6" d="M1027,237.63c3.17-7.18,9.18-13.36,11.52-13.52"/><path class="cls-6" d="M1061.17,212.56c2.31-7.35,15.74-14.59,24.34-11.33"/><path class="cls-13" d="M1103.85,267.35c-.09,5.16-1.28,12-6.49,15.44s-9.5,1.39-12.43-1a19.35,19.35,0,0,1-3.69-4.1c7.73-6,22.15-17,22.15-17A37.25,37.25,0,0,1,1103.85,267.35Z"/><path class="cls-6" d="M1074.87,228.2a29.05,29.05,0,0,0,8.76-8.31"/><path class="cls-6" d="M1035.29,251.62c4.23,0,10.57-3.72,10.57-3.72"/><circle class="cls-13" cx="1046.87" cy="247.9" r="4.17"/><circle class="cls-13" cx="1075.53" cy="229.12" r="4.68"/><path class="cls-6" d="M1041.83,225.45c6.33.89,10.69,8.91,12.57,19.5s6.43,27.5,9.5,28.4,11.88-6.33,18-9"/><path class="cls-12" d="M1205.78,649.08c-30.7,5.49-76.3,9.67-102.76,11.76s-49.79,3.83-67.89,18.8-39,58.14-33.77,75.55,70.33,222.13,70.33,222.13"/><path class="cls-12" d="M1095.82,828.31c1.72,4.95,3.13,10.21,4.75,16,3.7,13.34,23.34,76.31,30.75,115.57"/><path class="cls-12" d="M1090.23,815.9a62.22,62.22,0,0,1,3.3,6.53"/><path class="cls-12" d="M1091.2,734c-9,3.21-13,7.32-11.38,10.92,4.45,9.75,6.9,13.83-.44,15.31s-14,8.15-10.3,13.34,10.37,4.07,9.26,13,.37,13.34,8.15,23.71"/><path class="cls-12" d="M1112.34,729.58a119.69,119.69,0,0,0-12.67,2.07"/><path class="cls-12" d="M1178.73,732.49c-24-3.9-44.08-4.63-59.82-3.51"/><path class="cls-13" d="M902.33,315.33c-.71-5.57-.43-7.83.57-9.56s10.85-15.72,18.14-17.44,14.85,6.28,15.57,9.14c0,0-9.85-1.43-12.71-.29S906.62,309.33,902.33,315.33Z"/><path class="cls-13" d="M987,283.09c-10.28-2-23.44-.46-31.72,6.4,0,0-.11-12.39,11.34-16.07C978.45,269.63,985.05,279.15,987,283.09Z"/><circle class="cls-13" cx="931.43" cy="316.68" r="5.17"/><circle class="cls-13" cx="976.58" cy="299.61" r="4.6"/><path class="cls-13" d="M975.32,372c-7.06,2.39-14.27,1.24-19-1.95a13.26,13.26,0,0,1-4.28-4.47c10.15-3.31,22.13-7.41,28.72-9.65,2.47-.85,4.19-1.42,4.77-1.61C985.49,354.36,985.77,368.5,975.32,372Z"/><path class="cls-6" d="M904.52,350c3.7,6.12,8.7,14.57,8.7,14.57"/><path class="cls-6" d="M996,293.83c.27.8,10.68,30.88,10.68,30.88"/><path class="cls-8" d="M1269.79,531.24c-7.43,8.67-41.38,46.67-83.63,68C1173.1,588,1152.34,570,1136,554.57c0,0,49-27.17,74.29-77.23,0,0,48.06,38.74,56.25,41.85l-2,2.85C1266.33,525.15,1268.09,528.21,1269.79,531.24Z"/><path class="cls-12" d="M1094.64,766.07c9.15,4.12,22.45,9.38,24.27,12.13"/><path class="cls-6" d="M1113.57,791.06a58.39,58.39,0,0,1,15.81,6.49"/><path class="cls-12" d="M1111.11,778.2s-15.1,1.52-20.89,4.46"/><path class="cls-12" d="M1111.11,778.2c-1.13,9.2,4.35,16.25,8.17,22.67a109.17,109.17,0,0,1,9.45,21.55,386.9,386.9,0,0,1,12.22,59c2.13,15.81,22.2,109.78,22.2,109.78,1.33,5.65-6.51,1.86-78.95,27,0,0-12.95-12.15-17.3-40.85,0,0,21.35-4.29,30.81-7s36.49-13.24,53.79-14.6"/><path class="cls-2" d="M1166.22,1071.76c-7.22,4-76.65,33.33-109.94,53.78-10,6.14-21.28,7.07-25.9,4.16-2.73-1.72-3.75-11.86,1.66-22,3.8-7.13,12.9-15.35,24.53-28.72.68-.78,1.36-1.58,2.06-2.4l3.93-4.64c7.15.42,15.16,1.23,20.77,2.73,0,0,47.19-47.8,80.31-58.91l2,6.92c4.84,16.68,9.63,33.15,10.2,35.07C1177.06,1061.73,1173.44,1067.75,1166.22,1071.76Z"/><path class="cls-9" d="M1070.38,1502.24c21.95,1.85,80.41-5.33,94.57-8.62"/><path class="cls-7" d="M1365.88,1552.79c1.71-10.54,17.72-30.23,29.71-36.48,1.23-.64,2.42-1.31,3.57-2,15.74,5.14,28.09-13.46,28.84-15.69s2.18-20.51,1-21.52-15,0-15,0l-.48-2.75a105.73,105.73,0,0,0-7.29-21.73c-1.76-3.81-2.35-4.86-2.35-4.86l70.2-44.89,6.62,9.58s7.38,12.71,10.79,15.8,23.8,33.11,24.93,39.61c0,0-18.83,8.31-42.07,30.31s-22.24,26.59-33.91,41.32c-1,1.21-11.19,13.11-26.46,16.08C1402.89,1557.76,1389.77,1556.73,1365.88,1552.79Z"/><path class="cls-12" d="M946.76,686.84c-23.06-.11-31.58.34-45.06,10.94s-29.8,28-34.41,38.63-12.06,32-16.32,91.9c-4,56.05-15.1,145.06-16.52,156.39"/><path class="cls-12" d="M926.53,997.48c2.87-25.08,10.35-68.32,16.72-86.07C949.7,893.47,960.35,860.33,957,785"/><path class="cls-9" d="M957.63,810.28c2.92.38,6.64-3.74,9.7-11.72"/><path class="cls-12" d="M935.85,833.12c-2,14.47-4.64,31.14-7.78,44.6-4.75,20.41-9,29.67-9,38.92s0,17.56-3.09,28.48-6.41,15.19-7.83,43.67"/><path class="cls-18" d="M964.33,754.28c-5.16-8.51-16.79-10.7-16.08-2.37s6.58,19.59,0,20.25-13.5,1.84-11.12,10.51,3.56,14.19,1.42,30.53c-.57,4.35-1.24,9.5-2,15.11"/><path class="cls-12" d="M841.85,985.9c-6.31-2.32-12.2-1.46-12,4.28s1.66,10.91,0,15.9-5.73,11.65-3.14,17.2,11.65,6.1,16.83,7.58a342.63,342.63,0,0,0,52,9.62c25,2.59,29.45,2.18,29.45.33s.88-13.27,3.28-18.08,3.14-18.68,1.85-22.56-12.2-4.44-25.52-4.62S849.07,988.56,841.85,985.9Z"/><circle class="cls-19" cx="1106.76" cy="235.35" r="16.86"/><path class="cls-20" d="M1103.82,264.86c-4.12,5.82-12.61,12-15.07,12.32-1.54.2-3.91-.14-5-1.5,8-6.16,19.59-15,19.59-15A34.28,34.28,0,0,1,1103.82,264.86Z"/><path class="cls-6" d="M1136.48,209.13c7.06,9.15,10.8,14.89,10.8,14.89"/><path class="cls-20" d="M980,361.32c-1.33,3.66-15,7.61-23.73,8.77a13.26,13.26,0,0,1-4.28-4.47c10.15-3.31,22.13-7.41,28.72-9.65A13.87,13.87,0,0,1,980,361.32Z"/><path class="cls-10" d="M939.12,454.57l-9.48,6s-12.17-4.92-23.89-8.5c-9-2.74-25.79-1.65-38.79.3,10.26-13.9,23-28.46,23-28.46,29.29-2.71,46.63,17.83,48.13,21.29S939.18,454.53,939.12,454.57Z"/><path class="cls-21" d="M1066.59,161.46c1.84,9.57,19.22,31.93,43,35.18,29.32,4,44.59-18.25,55.44,1.06"/><path class="cls-12" d="M1148.21,392.17c15.9,4.09,28.67,9.39,35.65,2.41s31.6-39.5,37.72-56.11,9.25-39.83,9.25-39.83"/><path class="cls-7" d="M1219.63,780.44l8.95,70c-32.18,1.1-74.26,10.17-90.91,9.88a377,377,0,0,0-8.94-37.9s33-.51,38.45-2.11c4.81-1.4,32.53-13.52,52.44-39.88Z"/><path class="cls-7" d="M1177,613.82c4.69,20.05,9.83,37.67,10,38.23-28.47,4-62.48,7.09-83.92,8.79-26.46,2.08-49.79,3.82-67.89,18.8s-39,58.14-33.77,75.55c2.49,8.3,18.54,59,34.68,109.88,0,0-51.93-.22-57.51.78l-3.61.31-.58-7.48s-4.38-52.81-4.58-61.14.41-14.38-3-19.34S962,766,963.58,759a39.49,39.49,0,0,0,.75-4.77c.74-7.18.3-16.79-1.95-22.63-2.79-7.28-6.17-22.81-7.57-37-.72-7.31-4.32-30.27-7.92-52.67C1004.54,653.15,1143.74,621.69,1177,613.82Z"/><path class="cls-9" d="M978.52,865.85c5.58-1,57.51-.77,57.51-.77"/><path class="cls-9" d="M1137.67,860.33c16.65.3,58.73-8.78,90.91-9.88l-8.95-70"/><path class="cls-9" d="M959.78,449.8c12.25,6.61,32.09,14.78,43.17,14s36.95-24.89,44.92-39.86"/><path class="cls-9" d="M956.44,437.51c-1.11,4.46,0,9.28,2.45,8.87s7.32-8.3,7.32-8.3-5,12.63-.71,14.64S976,442.85,976,442.85s-4.5,11.79-.4,14.38,9.55-10.94,9.55-10.94-3.44,13.45.73,14.65,9.36-12.21,9.36-12.21-2.54,14.87,3.89,15,5.69-15.79,5.69-15.79,3.5,14.87,8.17,11.7,0-16.76,0-16.76,5.57,12.39,10.66,8.83-4.23-14.89-4.23-14.89,9,10,12.32,7.41-6.49-13.62-6.49-13.62,9.49,9.29,13.76,5.74-8.45-11.9-8.32-12.05,10.87,8.32,13.84,5-8.07-12.12-8.07-12.12,9.91,6.63,12.28,2.22"/><path class="cls-9" d="M1264.54,522c1.79,3.1,3.55,6.16,5.25,9.2,11.83,21,21.6,40.11,28.22,54.7,5,10.94,8.17,19.33,9.14,24,.08.37.14.71.19,1,1.6,10.57,1,28.51-37.79,105.71,0,0-9.88-12.32-34.84-18.6s-36.94-13-36.94-13,9.49-39,10.67-53.59"/><path class="cls-9" d="M1202.24,665.93c21,11.4,28.82,14.92,45,18s29.8,10.46,32,13.1"/><path class="cls-9" d="M1206.51,668.24s-1.1,20.41.74,21.13,12.49-14.32,13.79-13.72,1,18.87,1,18.87"/><path class="cls-9" d="M1227.54,696.15c4.5-5.21,12.42-13.74,13.68-13.46s-.51,17.08-.51,17.08"/><path class="cls-9" d="M1245,701.27c3.63-4.2,12.7-14.65,13.39-14.42s-4.06,18.56-3.27,19,12.71-15.44,13.64-15-4.07,21.29-4.07,21.29l12.76-11.54"/><path class="cls-9" d="M1239.68,617.84C1228,626.68,1219.12,633.46,1215,633s-15.26-4-16-6.17c-1.22-3.4,2.47-10.89,4.73-14.8"/><path class="cls-9" d="M1116,534.14c3.39,4.05,8.49,9.31,14.51,15.15,1.77,1.72,3.61,3.49,5.51,5.28,14.88,14,33.46,30.29,46.52,41.51l3.62,3.11c7.6,6.51,12.58,10.69,12.58,10.69"/><path class="cls-9" d="M1186.95,652.06s-5.22-17.87-10-38.24c-2.12-9.09-4.16-18.69-5.6-27.41"/><path class="cls-9" d="M903.27,516c6.47,15.35,20.65,38,30.42,45.15"/><path class="cls-9" d="M974.33,858.68s-4.38-52.81-4.58-61.14.41-14.38-3-19.34S962,766,963.58,759s1.6-20.12-1.2-27.4-6.17-22.81-7.57-37c-.72-7.31-4.32-30.27-7.92-52.67-3.38-20.94-6.77-41.42-7.82-48.16-.76-4.81-1.95-11.65-3.23-19-2.43-14-5.23-30-6.13-38"/><path class="cls-9" d="M1515.19,1476.44c-39.87,26.84-65.14,61.23-69.83,68.27s-17.07,14.87-28.28,17.22-51.46-3-51.46-3,.18-3.68.26-6.1"/><path class="cls-9" d="M1401.26,1513c9-5.72,15-12.13,15.7-13.65s-1.12-12-2.42-19.46"/><path class="cls-9" d="M1413.57,1474.35c3.75-.53,16.17-1.32,17.77,0s1.33,20.94,0,24.68-17.7,27.34-35.75,17.28"/><path class="cls-9" d="M1415.4,1485c6.32-1.9,12.59.77,12.59.77"/><path class="cls-9" d="M1420.52,1492.62c3.2,0,10.14,1.6,11.48,2.54"/><path class="cls-9" d="M1416.16,1500.53c3.82-.17,12.86,2.43,12.86,2.43"/><path class="cls-9" d="M1409,1507.41a57.08,57.08,0,0,1,11.94,4.45"/><path class="cls-9" d="M1420.52,1478.87c-9.48-6.41-40-12.15-39.65-1.33s33.48,1.33,33.48,1.33"/><path class="cls-9" d="M1414.63,1480.43c-8.52,2.18-22.27,11.52-20.4,17.4s18.29-5.23,21.56-10.42"/><path class="cls-9" d="M1051.6,1525.23c8.8-6.63,28.52-21.39,31.47-22.74"/><path class="cls-9" d="M1181.27,1557.94c-2.58,8.62-6.89,12.35-18.81,12.64s-155.07,5.74-159.52,5c-3.66-.59-6.92-1.91-8.29-5.84"/><path class="cls-9" d="M1045,1530.1c3.26-.17,13.6,5,14.18,5s35.9-22.4,35.9-22.4a42.81,42.81,0,0,0-8.47-6.46"/><path class="cls-9" d="M1071.93,1510.14c5.91.81,16.71,6.67,16.71,6.67"/><path class="cls-9" d="M1065.78,1514.65c6.4,1,15.65,6.72,15.65,6.72"/><path class="cls-9" d="M1056.61,1521.47c8.2,2.43,11,4.5,11,4.5"/><path class="cls-9" d="M1064.33,1536.14a19.38,19.38,0,0,1,5.27.56"/><path class="cls-9" d="M994.65,1564.07s131.86-4.71,180.72-4.71"/><path class="cls-9" d="M1061.39,1513.47c-1.89-6.5-18-26.3-24.41-22.11s3.29,18.12,30.61,28.18"/><path class="cls-9" d="M1055.13,1522.58c-10.46.12-22.85-1.17-21.84-7.93,1.09-7.25,18.43-2.38,18.43-2.38"/><path class="cls-9" d="M1367.63,1547.34s34.5,10,50.84,1.49,18.95-12.08,28-25.58,50.61-59.67,68.77-60.27a18.43,18.43,0,0,1,2.52,9.81"/><line class="cls-6" x1="1081.24" y1="277.68" x2="1103.39" y2="260.65"/><line class="cls-6" x1="985.49" y1="354.36" x2="952" y2="365.62"/></svg>