<svg id="Layer_1" data-name="Layer 1" xmlns="http://www.w3.org/2000/svg" viewBox="0 0 2267.72 1700.79"><defs><style>.cls-1,.cls-12,.cls-16,.cls-18,.cls-19,.cls-20,.cls-21,.cls-22,.cls-24,.cls-5,.cls-8{fill:none;stroke-linecap:round;stroke-linejoin:round;}.cls-1,.cls-12,.cls-8{stroke:#505c7b;}.cls-1,.cls-12,.cls-21,.cls-22,.cls-24,.cls-5,.cls-8{stroke-width:2px;}.cls-1,.cls-11,.cls-15,.cls-25,.cls-6,.cls-7{opacity:0.25;}.cls-2{fill:#fcc9a1;}.cls-3{fill:#2c2f53;}.cls-4,.cls-7{fill:#63cdf6;}.cls-13,.cls-16,.cls-17,.cls-19,.cls-21,.cls-26,.cls-4,.cls-8,.cls-9{opacity:0.5;}.cls-5{stroke:#2c2f53;}.cls-10,.cls-17,.cls-6{fill:#505c7b;}.cls-13,.cls-15{fill:#f06082;}.cls-14{fill:#0d1536;}.cls-16,.cls-18{stroke:#54c3e5;}.cls-16,.cls-18,.cls-19,.cls-20{stroke-width:3px;}.cls-19,.cls-20,.cls-21,.cls-22,.cls-24{stroke:#f06082;}.cls-22{opacity:0.75;}.cls-23{fill:#fff;}.cls-25,.cls-26{fill:#54c3e5;}.cls-27{fill:#dc6437;opacity:0.3;}</style></defs><title>Pria membonceng wanita di sepeda</title><path class="cls-1" d="M1649.9,951.45c-5.74-4.1-7-4.51-7.17-9.43s3.07-161.8,3.07-161.8"/><path class="cls-1" d="M1767.83,949.35c18.07-54.81,31.43-92.88,45.38-182.38"/><path class="cls-1" d="M1645,818.84c24.86,4.66,164.61,4.66,164.61,4.66"/><path class="cls-1" d="M1651.35,853.45c5.93,1.68,153-.93,153-.93"/><path class="cls-1" d="M1651.35,881.87c5.44,4,6.77,4.31,29.32,4.15s99.69-2.06,99.69-2.06"/><path class="cls-1" d="M1649.9,913.82c5.67,2.18,112.26,1.61,130.46,0"/><path class="cls-1" d="M1648.34,933.8c5,.52,9.17,3.41,59.23,4.46s60.27,0,60.27,0"/><path class="cls-1" d="M1787.23,796.41c-5.56,66.89-24.6,148.88-24.6,148.88"/><path class="cls-1" d="M1762.63,802.09c-1.76,39.24-17.28,143.19-17.28,143.19"/><path class="cls-1" d="M1736.86,805.31c-3.51,29.87-16.4,140-16.4,140"/><path class="cls-1" d="M1712,796.41c-2.34,37-12.3,150.05-12.3,150.05"/><path class="cls-1" d="M1689.71,796.37c-4.39,76.29-14.05,148.92-14.05,148.92"/><path class="cls-1" d="M1669.52,795.52c-2.94,37.31-11.61,149.76-11.61,149.76"/><path class="cls-2" d="M1208.38,560.81c21.81,13,44.56,29.63,51.91,38.64s21.33,23.7,26.07,24.89,11.14-2.67,23.23,8.26,42.67,24.68,73.48,31.56,80.59,25.13,80.59,25.13,11.61,25.6,18,29.16,16.12,4,21.57,4,14-7.11,14-7.11,1.66,6.16,3.79,7.11,8.77-6.4,8.77-6.4-.19,16.53,4.74,12.8a65,65,0,0,0,7.37-6.32s1.16,9.88,4.48,8.69,17.3-15.41,22.76-18.25,7.11-4,2.13-18.49-13-33.66-16.36-35.32-54,8.3-61.16,7.35-36.5-23.7-55-37.45-85.81-61.16-100.27-68.27-18-8.77-30.34-19.2-32-29.87-32-29.87S1232.08,537.11,1208.38,560.81Z"/><path class="cls-3" d="M1273.33,205.07c-8.73,9.53-15.49-2.45-15.7-19.52,0-2.25-6.44-10.46-12.27-14.29s-18.71-1.81-18.71-1.81c-6.64-16.5-27.77-19.72-40.44-16.9s-20.32,12.88-20.32,12.88c-17.1-.8-36,3-44.47,16.5s-6.64,39.24-6.64,39.24c-22.13,1.61-17.34,20.91,6.25,38l11.06,6,111.33-24.57C1257.38,241.47,1276.73,235,1273.33,205.07Z"/><path class="cls-2" d="M1249.19,232.61c-4.28,31.66-19.84,88.27-21.19,90.41-.43.68-3.25,3.7-7,7.53-8,8.23-20.11,20.19-21.22,20.37a56.85,56.85,0,0,1-5.91.27s-5.36,13.15-9.92,22.27c-.11.23-.23.46-.32.7-4.17,9.39-3.15,24-3.15,24-34.8-28.12-78.37-37.28-78.37-37.28,7.78-6.44,20.67-35.41,25.22-50.7s3-19.93,3-19.93c-20.66,2.68-25-23-20.4-31s16.9,0,16.9,0a79.53,79.53,0,0,0,5.37-24.15c28.72-.27,44.54-14,52.59-27.63s-2.88-27.09-2.88-27.09c25.48-6.17,18.45,19.31,32.93,35.41C1227,229.15,1249.19,232.61,1249.19,232.61Z"/><path class="cls-3" d="M1193.92,351.2s-5.36,13.15-9.92,22.27c-.11.23-.23.46-.32.7-12.2-7.08-33.29-19.8-34.38-23.8-1-3.78-4.72-20-7.06-30.35,13.5,15.09,27,28.67,30.77,29.91C1177.45,351.4,1193.92,351.2,1193.92,351.2Z"/><path class="cls-2" d="M1164.72,640.26c-1.06-7,.23-13.4,2.57-12.6s36,9.74,38.53,11.44,4.91,6.81,2.56,11.92,0,7.24,2.76,10,.21,7-1.7,8.52-2.75,5.11-1.06,8.09-.86,6.6-2.35,8.73,1.7,9.15-1.06,11.71-31.29-3.19-36-4.68-4-10-1.06-9.79l23.84,1.7s-25.44-15.11-28.36-16.82-1.24-10.64-1.24-10.64a9.29,9.29,0,0,1-5.74-4c-2.13-3.41-1.92-15.75,0-15.75S1164.72,640.26,1164.72,640.26Z"/><path class="cls-2" d="M1367.77,975c6.32,9.14,11.59,25.56,9.53,37.62s-21.06,85.89-21.06,85.89l-9.82-2.68-2.57,10.79-6.54-2.28c-.95,18.24-21.62,85.07-25.56,89.45l15.5,6.91-6.76,18,5.78,3-15.69,38.71-41.53.94s-10.34-42.09-13.34-51.86c0,0,12.21-53.93,20.67-84.75s22.74-63.89,22.74-63.89L1275,1036.17S1330.35,983.16,1367.77,975Z"/><path class="cls-4" d="M1166.22,917.62c4.84,17.58,15,54.51,21.46,78.59-29.57-29.72-60.1-60.59-71.87-73.19C1134.78,921.4,1151.56,919.54,1166.22,917.62Z"/><path class="cls-4" d="M1377.3,976.26l-1.13,6.45c-12.59-4.95-39.6,9.9-79.65,41s-40.5,41-40.5,41-24.87-24.78-54-54l-24.34-94.53c44.23-6.31,65.7-12.67,65.7-12.67s42,5.32,50.21,7.48S1324,918.2,1324,918.2C1346,938.76,1377.3,976.26,1377.3,976.26Z"/><path class="cls-2" d="M1352.52,879.85h49.26s-10.45,15.18-21.65,59.22-8.72,82.61-38.56,164.22c0,0,29.65,12.11,55.38,18.73,0,0,20.54-45.6,30.6-69.24s34.19-80.61,44.39-102.26,41.3-103.75,44.29-113.71-3.73-45.72-6.47-50-32.9-29-77.91-30.19C1431.86,756.63,1389.1,794.5,1352.52,879.85Z"/><path class="cls-5" d="M1368.56,1003a534.87,534.87,0,0,1-21.83,85.69"/><path class="cls-6" d="M1063.28,884c20.1,26.42,30.51,46.31,30.51,46.31s143.65-10.76,167.54-24.53c0,0-139.43-15.67-155-18.7S1063.28,884,1063.28,884Z"/><path class="cls-7" d="M1223.79,1343.25c.92-.23,21.59-.42,21.59-.42s6.46,34.35,29,45,37.58,6.69,37.58,6.69,20.06,33.89,19.6,43.11-3.46,17.29-5.3,17.06-78.39-37.81-94.76-46.8-28.13-19.6-29-22.13S1211.26,1353.17,1223.79,1343.25Z"/><path class="cls-8" d="M1749.36,1270.65a23.37,23.37,0,0,0-3.46,10.24"/><path class="cls-8" d="M1746.23,1287.59a23.5,23.5,0,1,0,14-26.19"/><g class="cls-9"><path class="cls-10" d="M1957.45,1095a266.56,266.56,0,0,0-301.13-52.88l7.72,21.47a241.94,241.94,0,0,1,105.28-24c134.26,0,243.49,109.23,243.49,243.49s-109.23,243.5-243.49,243.5c-125.43,0-229-95.34-242.1-217.35l-22.44,2.5A266.07,266.07,0,1,0,1957.45,1095ZM1525.82,1283.1c0-92.74,52.11-173.53,128.6-214.64l-7.57-21.69a266.8,266.8,0,0,0-143.59,236.33q0,12.58,1.15,25c4-.48,15.53-1.75,22.44-2.5Q1525.83,1294.46,1525.82,1283.1Z"/></g><g class="cls-11"><path class="cls-12" d="M388.66,490.11c10.68,24.49,19.19,51.75,21.81,73.56"/><path class="cls-12" d="M391.72,511.77c10.47,38.38,12.65,60.08,13.08,70.38"/><path class="cls-12" d="M380.33,489.37c8.55,42.45,11.82,61.86,11.38,80.62"/><path class="cls-12" d="M299,392.22c-16.25-10.61-27.8-14.91-27.8-14.91"/><path class="cls-12" d="M327.42,373c27.09,36.74,37.47,51.87,37.47,51.87"/><path class="cls-12" d="M331.18,405.29a90.81,90.81,0,0,1,24.74,19.53"/></g><path class="cls-6" d="M1360.93,1355.76a62,62,0,0,1-120.87-6.2l22.66,1.16,75.53,3.88Z"/><path class="cls-2" d="M857.46,988.41c15.72,25.88,38.14,51.86,44.43,69,0,0-2.45,69.21-2.8,100.12s24.11,132.94,30.4,159.85,16.07,123.26,33.2,156c0,0,22.71,6.07,38.44,0s26.9-12.71,25.68-13.76-16.6-35.64-16.6-35.64-10.13,4.89-24.81-18.87-51.1-69.19-44.59-84.21,27.82-43.51,27.82-43.51l20.27-150.77v-84.21c0-14-15.89-50.93-15.89-50.93S911.85,998.58,857.46,988.41Z"/><path class="cls-2" d="M1092.86,937.66c11.91,13.07,6.09,57.68,2.8,67.47s-15.24,39.73-24.31,72.53-32,103.47-40.53,130.94-32.27,95.47-31.7,101.33,33.44,81.6,33.44,81.6c-32.39-10.67-40.67,12.53-40.67,12.53-18.67-10.13-35.47-42.39-39.48-48.9s-.52-16.17.55-33.77-3.88-25.66-3.88-25.66c31.88-63.5,23.64-140.77,26.95-170.17s18.64-65.43,23-78.49,7.25-30.84,7.25-30.84-9.11-19.88-14.49-30.23c0,0,27.9-14.35,45.39-30.18S1069.26,936.79,1092.86,937.66Z"/><path class="cls-5" d="M958.63,1273.12c20.55-58.21,14.45-121.57,17.37-147.56a192.09,192.09,0,0,1,6.58-30.92"/><g class="cls-9"><path class="cls-10" d="M885.16,1020.77A263.91,263.91,0,0,0,741.64,1095a272,272,0,0,0-23.42,26.7l18.07,13.72a243.57,243.57,0,0,1,163-93.9Zm235.33,76.85c-3.9,4.1-10.56,11-15.75,16.33a242.66,242.66,0,0,1,68.52,169.16c0,134.26-109.23,243.5-243.49,243.5s-243.5-109.24-243.5-243.5a242.22,242.22,0,0,1,47.92-144.89L715.7,1125a266.07,266.07,0,1,0,404.79-27.42Zm-4.46-4.48a267.57,267.57,0,0,0-44.57-35.31c-2.18,6.91-5,15.82-7,22.53a245.08,245.08,0,0,1,36.18,29.46C1104.67,1105.48,1111.4,1098.16,1116,1093.14ZM979.63,1021.7c1,4.12,1.89,8.69,2.73,11.6a65.19,65.19,0,0,1,1.89,12.45q9.93,2.28,19.54,5.37a159.14,159.14,0,0,0,5.29-22.09A262.53,262.53,0,0,0,979.63,1021.7Z"/></g><g class="cls-11"><path class="cls-12" d="M848,1021.19c-77.25,24.35-141.9,82.3-173,159.37a5.62,5.62,0,0,1-7.22,3.14h0a5.65,5.65,0,0,1-3.22-7.41,287,287,0,0,1,134.35-147.38"/><path class="cls-12" d="M971.17,1000.27a282,282,0,0,1,36,7.58"/><path class="cls-12" d="M1009.77,1020.47a270.87,270.87,0,0,0-34-8"/><path class="cls-12" d="M1077.86,1038.53a287,287,0,0,1,49,37.56"/><path class="cls-12" d="M1119,1084.42a276.31,276.31,0,0,0-45.05-34.84"/><path class="cls-12" d="M1136.55,1085.81a283.7,283.7,0,0,1,79,191.51,5.65,5.65,0,0,1-5.64,5.78h0a5.62,5.62,0,0,1-5.63-5.5,273.54,273.54,0,0,0-75.51-183.47"/></g><path class="cls-13" d="M606.18,1002.84c6.63,55.07,54.66,66.1,79.69,65.39,58.76-1.66,94.28-35.43,150.68-39.17,25.13-1.66,52.42-2.91,52.42-2.91l-25.66-36.72c-42.62-7.16-98.65-25.07-147.84-31.81C652.23,949,600.57,956.29,606.18,1002.84Z"/><path class="cls-2" d="M984.43,485.79c9,20.09,21.39,61.86,21.39,61.86L1024.54,485S998.39,482.65,984.43,485.79Z"/><path class="cls-2" d="M836.08,582.15s-9.2-46.32-12.17-58.49a236.25,236.25,0,0,1-4.48-27.32s-24.61-.3-40.64,2.67-27.31,5-61.46,11.88-106.88,11.88-114.9,9.8-52.85-19-73.33-22-57.3-12.77-90-25.53c0,0-10.05-12.54-15.35-21.54s-15.09-9.27-20.12-10.86S378.25,427.55,374,423s-5.83,6.62-5.83,6.62-16.95-4.24-19.59-1.59-1.85,13.77,0,14.56a43.34,43.34,0,0,0,6.62,1.59s-11.08,8.47-8.32,11.65,12.29,4.77,12.29,4.77-10.86,9.53-3.71,12.18A57.06,57.06,0,0,0,366.86,476s-6.09,6.64-2.91,9,17.74,15.56,27.54,17,26.48-1.7,26.48-1.7,73.08,39.45,96.38,48.46,60.37,23.3,66.73,27.8,11.92,5.83,35.75,3.18S737,580,768,578.74C814.77,576.78,812.8,576.29,836.08,582.15Z"/><path class="cls-14" d="M873.76,345.79,826,374s4.17,6-4.17,13.13-47.94,25.22-60.86,39.39S734,459,753,468.42s59.61-6.67,64.82-10c0,0-5,12.71,7.5,15s47.52-13.55,52.52-17.09S873.76,345.79,873.76,345.79Z"/><path class="cls-12" d="M832.65,463.62c20.29-6.24,33.16-24.41,26-56"/><path class="cls-14" d="M961.55,325.85c8.88,25.58,15.44,33.22,23.17,41.57s19.64,20.25,9.34,39.08-26.65,31.62-26.47,37.31c0,0-7.64.53-17.05,5.68s-17.76,4.26-21.67,0,11.37-111.2,11.37-111.2Z"/><path class="cls-12" d="M954.27,350.36S964,377,982.34,384.83c24.87,10.66,31.44,43,11.55,49.38"/><path class="cls-12" d="M955.87,368.48c4.8,16.17,11.31,24,17.94,34,16.52,24.67-13.32,32.49-6.22,41.37"/><path class="cls-2" d="M967.94,543.12c-5.13,7.53-45.58,31.65-45.58,31.65C891.13,559.89,865,558.55,865,558.55c-6.7-13.76-10.93-48.67-8.81-61.9,0,0,19.73-6.46,20.27-13s-6.23-62.8-8-70c0,0-27.52.44-31.93-17.85s14.51-17.95,19.79-11.5c0,0,9-10.86,9.35-13.11s-1.45-15.75,1.67-21.23l68.27-44.76,21.79-14.29,0,0c.86,1.2,18.94,26.87,1,50.73l-.46.61s3.25,29.19,4.6,38.92,3.25,27.84-8.92,46.22c-1.68,2.54-3.25,4.74-4.69,6.64-9,11.88-13.52,12.31-13.52,12.31s.53,13.25,1.07,22.18c.19,3.27.38,6,.55,7.22,1.25,9.26,6.14,19.29,14.07,17.51l5-1.13s4.18,10.93,8.59,25.83S970.82,538.89,967.94,543.12Z"/><path class="cls-15" d="M606.18,1002.84c-3-25,26.33-47.59,87.76-42.53s159.32,39.49,219.41,39.83,88.39-5.27,118.48-32.34,55.64-27.07,77.61-18.29c0,0-23.14-45.6-26.64-52.66s-36.53-41.18-58.27-65.82a516.51,516.51,0,0,1-36-45.65l-17.44,1.76s1.69-137.38,37.13-247.09c0,0-11.11-45.57-20.34-55l-36.67,8.26S965.54,530.92,964.8,538s-42.75,31.33-42.75,31.33-35.94-14.57-54.4-14.57c0,0-11.41-36.91-6.07-59.5,0,0-7,2.43-12.39,2.19s-34.49-1.21-34.49-1.21a138.38,138.38,0,0,0,4.37,28.66c3.89,13.84,10,51.24,11.41,58.53,0,0-6.07,38.86-6.07,47.84s7.53,31.57,12.14,44.2,12.87,40.8,11.17,51.73S805,758,786.3,786.4s-27.2,49.59-35,67.05S721.7,890.1,680.9,912.69,600.51,967.81,606.18,1002.84Z"/><path class="cls-5" d="M1126.85,259.17c1.79,19.91,3.5,31.17,3.49,31"/><path class="cls-5" d="M1193.92,351.2s-16.47.2-20.9-1.27c-3.73-1.24-17.27-14.83-30.77-29.91-2.58-2.89-5.16-5.83-7.68-8.75"/><path class="cls-12" d="M1110.77,250.46c5.35-9,13.6-10.48,21.45-15.44,19.1-12.1,43.46-27.35,36.26-59.08"/><path class="cls-12" d="M1165.88,165.43c7.93,5.42,16,14.87,16,14.87"/><path class="cls-12" d="M1114.77,221.16c11.08,1.83,12.09,7.3,8.81,10.08C1119.54,234.68,1114.77,229.91,1114.77,221.16Z"/><path class="cls-12" d="M1226.65,169.45c4.7,12.06,6.74,20.63,7.56,30.83s.41,13.33,3.67,18.09,8.57,10.34,15.91,7.89,7.75-8.7,3.54-11.15-8.64,4.26-8.13,17.5"/><path class="cls-12" d="M1249.2,226.8c7.16,5.5,16.35,1.42,20.42-5.93a33.69,33.69,0,0,0,3.71-15.8"/><path class="cls-3" d="M1180,309.6c-.46-5.68-5.35-8.93-6.73-7.89S1173.69,306.66,1180,309.6Z"/><path class="cls-5" d="M1175.85,305.39c6.9,6.36,15.39,10.26,29.24,7.53"/><path class="cls-3" d="M1201.89,295.19c-3.15-6.68-7.57-5.58-8-4.52C1193,293.18,1199.71,293.84,1201.89,295.19Z"/><path class="cls-5" d="M1197.89,292c3.38,2.2,5.05,4.72,6.22,5a17.92,17.92,0,0,0,5.67-.21c.69-.26,5.09-5,6.15-6.63"/><path class="cls-3" d="M1161.76,236.8c5.51-2.66,30.11-2.84,31.53-2.49s.53-7.55-1.24-9.15S1171.8,227.65,1161.76,236.8Z"/><path class="cls-3" d="M1218,240.12c9.22-1,18,1.16,20.78,5.15,0,0,2.22-6.94-5.86-10.39C1227.58,232.61,1222.57,234.66,1218,240.12Z"/><path class="cls-5" d="M1223.22,236.8c-7.12,4.94-12.09,14.69-13.55,17.62s.91,26.57.11,42.44"/><g class="cls-9"><path class="cls-12" d="M1159.68,254.28a22.09,22.09,0,1,0,39.67,13.37,22.24,22.24,0,0,0-.29-3.59"/><path class="cls-12" d="M1195.95,255.86a22.1,22.1,0,0,0-30.82-6.67"/><path class="cls-12" d="M1250.28,252.88a22.1,22.1,0,0,0-29-4.71"/><path class="cls-12" d="M1215.64,253.35a22.08,22.08,0,1,0,37.59,4.28"/></g><path class="cls-5" d="M1222.26,264.25a19.69,19.69,0,0,0,5.45-1.72"/><circle class="cls-3" cx="1221.05" cy="264.26" r="3.83"/><path class="cls-5" d="M1174.91,262.21a19.7,19.7,0,0,0,5.62-1.55"/><circle class="cls-3" cx="1173.71" cy="262.17" r="3.83" transform="translate(864.18 1424.28) rotate(-87.68)"/><path class="cls-5" d="M1177.54,319.19c4.09,3.44,10.84,2.93,10.84,2.93"/><path class="cls-7" d="M1197.79,577.41c44.12-39.71,85.78-61.56,85.78-61.56s-24.74-31.1-48.27-59-37.14-54.05-62-70.23-63.85-34.32-76.6-25c-7.86,5.74-38.07,33.59-55.15,68.53s-36.26,92.74-46.77,132.41-28.37,124-30,232c0,0,33.1-1.84,60.16-10.77s106.93-42.82,173.14-39.93L1191,693.09s-15.45-3.38-15.73-4.88,24.62.09,24.62.09-30.16-21.61-32.23-23.77-.75-9.68-.75-9.68-6.2-.85-7-4-.66-6.76.28-6.76,10.52,2.82,10.52,2.82-1.88-12.68.09-12.87,19.26,5.73,19.26,5.73S1191.25,608.15,1197.79,577.41Z"/><path class="cls-16" d="M1126.54,502.75c18.39,27.91,61.21,82.14,61.21,82.14l10-7.47"/><path class="cls-16" d="M1153.86,627.66c-13-10.19-24.41-13.75-24.41-13.75"/><path class="cls-16" d="M1120,632.63c12.09-.47,28.21,4.5,28.21,4.5"/><path class="cls-5" d="M1164.72,640.26c15,5.63,33.07,12,33.07,12"/><path class="cls-5" d="M1162.17,657.83c11,3.28,35.62,14.81,35.62,14.81"/><path class="cls-17" d="M1519.35,712.81c-14.66-.11-23.3,1.71-27.62,0s-7-6.82-7.28-14.78,4-11.71,9.55-11.82,35.8-.05,35.8-.05,5,8.24,4.56,9.26S1519.35,712.81,1519.35,712.81Z"/><path class="cls-1" d="M1571,705.62a241.18,241.18,0,0,1,40.12-4.23c21-.29,31.81,9.34,26,19.26s-21.7,25.28-62,45.27"/><path class="cls-1" d="M1579.45,780s37.13-18.48,61.26-38.67,20-39.87,5.13-48.43-59.89-5-78.71-2.4"/><path class="cls-6" d="M1579.41,763.74c4,1.79,7.18,17.37,6.86,19s-30.33,15.12-33.7,14.16-9.26-18.3-6.55-20.37S1575.09,761.8,1579.41,763.74Z"/><path class="cls-8" d="M1583.58,878.85c-17-48.77-31-89.28-31-89.28"/><path class="cls-8" d="M1571,786.83c3.62,9.92,15.39,43.54,30.36,86.44"/><path class="cls-8" d="M1607.76,891.74c33.17,95.17,77.43,222.54,86.53,247.63,14,38.68,26.36,71.88,50.66,101.66s32.32,48.21,18.48,43.81c-7.53-2.4-46.21-55.11-59.21-77s-50.66-131.43-64-167.71c-6.81-18.51-29.48-83.34-50.06-142.41"/><path class="cls-17" d="M1631.18,846.37c-.66-8.07-5.53-8.18-8.07-6.75s-.55,25.44-.66,30.85c-.1,4.72-7.08,6-16.19,6.91a59.51,59.51,0,0,0-3.24-7.8c-1-1-12.21,2.11-23.23,6.87-1.19.52,5.56,22.25,7.69,24.21s24.21-6.05,24.38-6.87a80.42,80.42,0,0,0-2.79-8.68c5.93-.35,14.9-1.33,17.92-3.37C1633.84,877.11,1631.85,854.44,1631.18,846.37Z"/><path class="cls-8" d="M1401,1113.1a126.72,126.72,0,0,0,9.24-9.86c38.91-46.2,110.34-158.88,176.59-189.43"/><path class="cls-8" d="M1246.73,1156.76c6.86.48,14,.75,21.23.76"/><path class="cls-8" d="M1395.06,1146.74q6.34-4,12.41-8.65c65-50.13,95.62-157.54,194.63-209"/><path class="cls-8" d="M1253,1178.74c3.15,0,6.44,0,9.84-.07"/><path class="cls-1" d="M1444.43,1204.9c18.46-39.58,31.4-76.62,40.56-102.68,10.37-29.51,70.91-125.67,123.18-152.86"/><path class="cls-1" d="M1359.11,1296.11c18.16-8.67,46.73-25.12,68.72-59.52"/><path class="cls-1" d="M1452.85,1234.19a231.21,231.21,0,0,0,23.41-45.39c31.84-84.66,72.2-179.33,139.76-217"/><path class="cls-1" d="M1368.92,1312.55c15.92-4.25,50.82-31.4,78.65-70.64"/><path class="cls-4" d="M982.37,786.83c6,18.68,19.65,29.36,34.61,46.45s50.41,55.11,50.41,55.11,205.07,23.93,222.16,27.77,55.11,13,55.11,13-3-19.6,28.63-75.67,58.53-95.8,79-95.37c0,0-58.53-4.27-106.38-6.84s-147.85-7.45-147.85-7.45c-9.38-3.66-16.21-6-16.21-6s-49.08.88-91.38,17.12S1020,778,982.37,786.83Z"/><path class="cls-5" d="M1401.79,879.85c6.22-11.47,17.64-34,18.41-39.23"/><path class="cls-18" d="M1344.67,929.12c3.81,4.46,21.68-3.62,42.81-28.13"/><path class="cls-18" d="M1291.16,925.64c13.25-42,62.62-147.59,90.5-172.31"/><path class="cls-5" d="M1299.11,1060.84c6.15-12.83,8.23-24.52,8-27.54"/><path class="cls-18" d="M1256,1064.61c1.67,2.75,13.86,2.24,27.26-3.77"/><path class="cls-7" d="M1405,1119.88c-18.74-7.68-55.27-17.46-64.2-22.66s-8.93,2.26-10.06,7-12.64,59.15-27.32,93.24c0,0,26,9.93,65.49,21s81,25.74,83.28,23.93-.9-24.38-4.52-32.51-17.38-17.61-26.19-21.9-8.35-2.71-14.9-15.13-12-21.74-11.55-26.11S1404.78,1125.3,1405,1119.88Z"/><g class="cls-9"><path class="cls-18" d="M1405.54,1170.85c-5.69-.36-8.9,2.41-9.86,4.84"/><path class="cls-18" d="M1383.89,1166.93c3-4,10.11-7.91,15.9-6.95"/><path class="cls-18" d="M1397,1154.11c6.92-10.74,30.17-24.72,36.67-19.34C1441.32,1141.13,1412.69,1151.13,1397,1154.11Z"/><path class="cls-18" d="M1399.23,1158.88c9.54,2.52,27,2.18,27.18-3.87s-14.36-4.8-14.36-4.8"/><path class="cls-18" d="M1307.88,1186.29c23.09,10.68,56,22.6,69.87,25.9,20.91,5,51.13,12.53,75.1,23"/></g><path class="cls-6" d="M1319.42,1197.2c-3.54,9.8-9.16,25.5-9.16,25.5s27.52,12,53.69,20.74,33,9.11,33,9.11l12.92-25.58S1332.17,1204.89,1319.42,1197.2Z"/><path class="cls-17" d="M1314.33,1335.12c18.18-27.68,45.74-99.94,45.74-99.94a104.1,104.1,0,0,1-18.61-6.7c-11.86,32.63-24.56,61.41-44.09,98.26a17.43,17.43,0,1,0,16.86,8.33Z"/><path class="cls-8" d="M1004.69,1337.48l235.37,12.09,22.66,1.16,75.53,3.88,22.67,1.16,14.08.72s1.88-11.06-1.17-37.89-32.25-55.08-52.72-62.61"/><path class="cls-8" d="M1011.21,1254.76s276.37-2.44,294-2.22"/><path class="cls-6" d="M1338.25,1354.6a40.11,40.11,0,0,1-75.53-3.88Z"/><path class="cls-16" d="M1200.9,1376.1c36.38,30.56,91.1,55.45,129,72.24"/><path class="cls-6" d="M1242.78,1409.45c-3.67,6.91-11.87,25.25-11.87,25.25l79.22,38.64s10.79-23.25,11.44-25C1321.56,1448.34,1253.14,1415.71,1242.78,1409.45Z"/><path class="cls-17" d="M1251.34,1438.83c9.55,4.3,14.05,6.44,14.05,6.44l35.78-86.4c-5.37-.05-10.09-2.51-14.27-6.9Z"/><path class="cls-1" d="M1181.85,918.08c10,35.69,91.34,334.45,91.34,334.45"/><path class="cls-1" d="M1185.43,1013.59c-15.06-54.87-25.38-91.82-25.38-91.82"/><path class="cls-1" d="M1250,1253.67c-20.3-77.57-42.88-160.86-60.34-224.61"/><path class="cls-1" d="M1026.81,1199.5c17.82-14.68,162.87-170.43,162.87-170.43"/><line class="cls-1" x1="1092.86" y1="988.41" x2="1149.1" y2="1052.34"/><line class="cls-1" x1="1095.65" y1="967.79" x2="1162.3" y2="1038.26"/><g class="cls-11"><path class="cls-12" d="M1640.44,1040.75c-86.59,46.23-145.65,137.52-145.65,242.35a277.55,277.55,0,0,0,3.39,43.29,5.64,5.64,0,1,1-11.14,1.76,288.82,288.82,0,0,1-3.53-45.05,286.63,286.63,0,0,1,153-253.22"/><path class="cls-12" d="M1653.08,1021.84a285.06,285.06,0,0,1,116.24-24.54,288.09,288.09,0,0,1,55.21,5.33,5.64,5.64,0,0,1-2.16,11.07,276.77,276.77,0,0,0-53-5.12,273,273,0,0,0-112.46,24.1"/></g><path class="cls-1" d="M1919.76,1349.86c-10.28,7-59.36,68.71-50.48,66.37S1915.09,1363.41,1919.76,1349.86Z"/><path class="cls-1" d="M1882.57,1448c43.37-29.72,92.58-88.2,84.78-182.72"/><path class="cls-1" d="M1620.69,1404.18c30.93,23.92,40.08,31.29,40.69,36.78s-4.55,15.48-14.88,11.61-33.28-28.18-38.33-34.52C1602.23,1410.61,1610.59,1396.37,1620.69,1404.18Z"/><line class="cls-8" x1="1490.23" y1="1307.78" x2="1757.21" y2="1279.7"/><line class="cls-8" x1="1490.23" y1="1315.14" x2="1766.18" y2="1285.45"/><path class="cls-17" d="M1756.08,957.29h11.75a4,4,0,1,0,0-7.93H1650a4,4,0,0,0,0,7.93h97.42l17.66,316.17s3.16,6.48,2.44,12c5.46.54,6,1.4,6-10.11C1773.53,1264.63,1758.18,994.24,1756.08,957.29Z"/><path class="cls-6" d="M1744.18,776.7s-9.94,15.63-3.7,20.29c-34.05,0-72.56-.63-94.17-3.44V770.22l68.28-.46c-3,2.44-5.18,4.74-4.3,7.9,2.22,7.94,23.42-7.51,26.58-5.74-.9.72-17.21,16.73-15.54,18.4C1723.69,792.68,1744.18,776.7,1744.18,776.7Z"/><path class="cls-6" d="M1812.89,769l-4.5,27s-30.85.81-65.64.91c6.37-1.85,10.22-14.54,10.22-14.54s14.44,11,16.57,6.27c1.26-2.79-13.74-9.75-14.52-10.09,1,.15,23.52,3.5,24.18-6.1.11-1.68-.55-2.14-1.38-3.23Z"/><path class="cls-13" d="M1801.73,733.79s30.71-9.36,25-17.16c-5.55-7.57-23.76,6.82-25.15,8.7,1-2.24,10.59-26.94,2.82-27.18-8.3-.26-10.45,24.47-10.29,25.5s-8.49-38.77-16.29-27.59,8.06,34.87,8.06,34.87-23.16-5.72-23.23,3.91,23.49,7,23.49,7c-3.64,4.42-10.93,25-2.33,28.11s12-26,12-26c.79,7,6.51,22.9,13.87,17.95s-7.88-20-7.88-20,22.38,9.63,23.69,2.86S1817.86,732.24,1801.73,733.79Zm-7.55,4.25a4.9,4.9,0,1,1,4.9-4.9A4.9,4.9,0,0,1,1794.17,738Z"/><g class="cls-11"><path class="cls-12" d="M1807.42,708c9-20.24,26.39-26.54,35.51-28.69S1856,677,1856,677s-7.88,20.19-14.88,25.85-16.63,12.07-16.63,12.07"/><path class="cls-12" d="M1806.15,718.9c11.9-20.85,33.8-33.28,33.8-33.28"/><line class="cls-12" x1="1811.12" y1="711.35" x2="1820.87" y2="710.49"/><line class="cls-12" x1="1836.46" y1="697.39" x2="1824.85" y2="697.39"/></g><g class="cls-9"><path class="cls-12" d="M1823,745.49c16.4-5.64,41.94-3.94,45.1-3.13,0,0-2.49,28.84-46.11,36"/><path class="cls-12" d="M1810,769.06c7.33-11.37,36.28-21.1,49.11-22.36"/><path class="cls-12" d="M1838.12,755.73c7.53-.87,17,1.45,17,1.45"/><path class="cls-12" d="M1819.45,760.65c5.34,4,20.49,10.24,20.49,10.24"/><path class="cls-12" d="M1829.16,755.54a57.23,57.23,0,0,1,11.57-11.3"/></g><g class="cls-11"><path class="cls-12" d="M1731.94,734.62c3-12.19,19.79-27.14,32.69-31.78s15.34-3.5,15.34-3.5,8.32,27.23-25.24,43"/><path class="cls-12" d="M1739.34,744.24c17.49-22.2,33.2-33.32,33.2-33.32"/><path class="cls-12" d="M1761.33,709.63c-.55,5.57-.51,11.16-.51,11.16"/><path class="cls-12" d="M1748.36,717.66c-.27,7.1,0,11.47,0,11.47"/><path class="cls-12" d="M1755.19,726.27a76.08,76.08,0,0,0,12.16,2"/></g><g class="cls-9"><path class="cls-12" d="M1716.36,763.54c-16-3.68-24.35-2.53-33.67,12.13s-17.72,24.67-17.56,26.42,35,4.1,52.88-16.7"/><path class="cls-12" d="M1669.52,803.19c10.65-5.16,31.16-25.79,39.05-27.71"/><path class="cls-12" d="M1697.17,782.48a51,51,0,0,1-1.68,11.57"/><path class="cls-12" d="M1703.32,778.07c-4-1.36-16.9-1.67-16.9-1.67"/><path class="cls-12" d="M1676.52,785a71,71,0,0,1,13.81-.72"/></g><g class="cls-9"><path class="cls-12" d="M1676.52,776.4c-13.35,5.44-41.06,7.59-49.4-7.34,0,0,8.79-13.59,44.69-12.54"/><path class="cls-12" d="M1630.55,769.6c15.12-1.65,45.12.41,45.12.41"/><path class="cls-12" d="M1659.51,760.58c5.84,3,10.54,8.9,10.54,8.9"/><path class="cls-12" d="M1656.08,769.1c-1.15,2.91-6.86,9-6.86,9"/></g><g class="cls-9"><path class="cls-18" d="M1823.45,742.36c6.21-12.27,27.33-23.76,35.41-24.69"/><path class="cls-18" d="M1855.13,716.42c.62-8.7,4.5-16.15,7.3-12.73s-3.65,12-3.65,12"/><path class="cls-18" d="M1858.08,720.62c6.21,9.32,10.25,11.18,12.58,9.4s-4.19-6.91-8.85-10.17"/><path class="cls-18" d="M1862.24,709.63c3.58-3.43,6.42-3.15,6.51.51s-7.7,7.52-7.7,7.52"/><path class="cls-18" d="M1864.9,715.31c5.17-1.29,8.16.73,8.61,4s-5.45,3.9-7.81,3.41"/><path class="cls-18" d="M1801.55,659.15c-2.86,22.58-8.73,28.6-8.73,28.6"/><path class="cls-18" d="M1798.59,659.66c-9-1.78-13.27-6.4-10.07-8.18s11.38,6.16,11.38,6.16"/><path class="cls-18" d="M1794.49,653.26c-4.17-6.09-1.26-10.5,1.45-10.2s5.62,13.25,5.62,13.25"/><path class="cls-18" d="M1798.91,647.41c-.56-5.57,6.4-6.18,6.4,0s-1.67,8.9-1.67,8.9"/><path class="cls-18" d="M1805.31,647.41c2.32-2.19,6.48-.58,4.66,3.82a19.08,19.08,0,0,1-5.55,7.17"/><path class="cls-18" d="M1806.15,660.75c4.55.43,9.88-7.29,3.82-9.53"/><path class="cls-18" d="M1665.25,657.64c17.19,13.16,22.69,25.11,22.69,25.11"/><path class="cls-18" d="M1665.25,652.94c2.69-12.76.54-18.53-3.76-14.5s0,14.5,0,14.5"/><path class="cls-18" d="M1660,647.61c-4.84-9.18-14.47-6.16-8.08,1.74,4.85,6,8.53,7,8.53,7"/><path class="cls-18" d="M1659.06,661.12c-12.19-3-13.55-7.15-13.15-9.24.76-3.94,9.56,1.44,9.56,1.44"/><path class="cls-18" d="M1657,663.79c-11.45,4.76-18.5-.21-5.3-4.87"/></g><path class="cls-15" d="M1772.54,695.95c-1.8,4.88-20.2,6.89-20.2,6.89h-.08a12.84,12.84,0,0,0-13.81-11.11c-7.2.36-9.45,6.62-7.44,12.06-18.06-1.87-32.87-16.21-30.22-21s25.64,13.45,26.28,14c-11.39-12.17-16.77-27.13-13.35-34.39,4.42-9.39,19.95,23.14,19.95,23.14s-4.77-43,8.88-42.42c6,.26,1.54,32.35,1.13,35.28.34-2.1,3.31-19.12,9.31-18.66,6.27.47,1.44,20.87,1.26,21.66.44-.83,12.64-23.84,23-20.2,10.6,3.71-7,25.9-17.76,33C1759.54,694.08,1774.33,691.08,1772.54,695.95Z"/><g class="cls-11"><path class="cls-12" d="M1709.38,700c-13-13.92-47.07-17.38-55.3-12.21s11.06,30.89,28.9,27.17"/><path class="cls-12" d="M1659.58,693.41c19.35,3,30.68,11.71,30.68,11.71"/><path class="cls-12" d="M1676.59,688.34c1.95,3.12,2.47,10.65,2.47,10.65"/><path class="cls-12" d="M1696.21,694.08a57,57,0,0,1,0,8.7"/><path class="cls-12" d="M1664.25,709.63a41.4,41.4,0,0,1,13.58-3.53"/></g><path class="cls-15" d="M1723.32,734c-3.46-5.71-19.3-1-22.4,7.5-2.1,5.73.06,9,3.79,10.31-7.79,11.71-28.92,18.52-29.79,11.61s18.69-14.39,19.89-14.83c-1.42.35-29.84,7.53-29.69,0,.15-7.28,10.44-12.9,27.71-8.79-6.1-1.76-18.48-6.09-19.81-12.5-1.77-8.55,10.08-13,30.28,4.89-.48-.6-20.06-24.66-9.63-27,6.93-1.57,16.62,13.77,16.62,13.77s-1.94-13.3,3.71-13.77,6.45,10,5.81,17c0,0,4.53-6.57,8.48-4.42C1731.49,719.41,1728.82,727.65,1723.32,734Z"/><line class="cls-8" x1="709.66" y1="1109.75" x2="909.41" y2="1262.4"/><line class="cls-8" x1="702.23" y1="1119.61" x2="903.07" y2="1268.99"/><path class="cls-8" d="M921.25,1256c-15.2,3.85-32.08,25.83-27.15,48.66s22.52,30.85,43.5,30.85"/><path class="cls-1" d="M850.86,1104.72c-7.5-8.18-25.68-.91-39,6.95s-18.43,15.41-11.18,24.17,37.77-11.61,45.33-16.23S853.2,1107.28,850.86,1104.72Z"/><path class="cls-1" d="M756.26,1285.45c5.95,46.55,28.09,85,61.1,110.37"/><path class="cls-1" d="M723.81,1242.54c-.54,78.1,14.85,153.57,90.72,198.86"/><path class="cls-13" d="M960.94,1469.73c16.61,2.43,27.17,2.43,38.17-1.67s25.56-12.46,25.56-12.46,7.38,8.85,7.86,26.93-8.68,24.12-19.53,25.32S972.53,1508.25,960.94,1469.73Z"/><path class="cls-19" d="M939.49,1377.75c13.63-5.43,19.14-6.76,19.14-6.76"/><path class="cls-13" d="M987.38,1418.78c9.26,12.74,24,13.41,36.17,13.17s20.12-5.75,16.77-17.24-11.54-31.91-11.54-31.91-31.82-3.78-40,11.07c0,0-28.28-31.62-30.19-41.91s8-46-6.28-63.13c0,0-10.49,14.76-14.74,21-5.4,7.9-9.53,18,10.35,50.6S981.63,1410.87,987.38,1418.78Z"/><g class="cls-9"><path class="cls-20" d="M964.58,1466c16.53-21.16,34.53-40.55,34.53-40.55"/><path class="cls-20" d="M942.81,1397.73c28.82,30.78,58.85,49.73,78.43,50.61"/><path class="cls-20" d="M955.24,1282.06c8.94,17.47,26.24,29.95,43.86,27.88"/><path class="cls-20" d="M954.5,1346.23c15.51-1.9,51.75,5.86,70.42,27.57"/><path class="cls-20" d="M985.86,1392.07c2.24-18.09,14.13-35.81,24.3-44.8"/></g><line class="cls-1" x1="1149.1" y1="1052.34" x2="1033.45" y2="1175.69"/><line class="cls-1" x1="1185.43" y1="1013.59" x2="1162.3" y2="1038.26"/><path class="cls-21" d="M870.11,1026.16c-54.17,2.64-84.34,12.88-107.18,23.13s-100.73,45.39-143.78-18.16"/><path class="cls-5" d="M1006.24,1016.23a189.32,189.32,0,0,1,6.82-23.87"/><path class="cls-5" d="M368.18,429.67c0,6.63.56,8.56,5.82,12.24s15.43,10.34,15.43,10.34-2.28,12.8,13.15,24.89"/><path class="cls-5" d="M355.21,444.23c9.15,1.88,18.79,4.86,20.19,4s0-5.34,0-5.34"/><path class="cls-5" d="M359.18,460.65c10.79,2.64,19.38,3.17,20.43,1.94s.88-8.76,0-10.69-4.21-3.68-4.21-3.68"/><path class="cls-5" d="M366.86,476c8.19.78,18.71,2.37,19.76,0s-.91-8.16-1.24-9.74-5.77-3.68-5.77-3.68"/><path class="cls-5" d="M368.18,487.31c9.67,1.4,15.63,2.8,15.63,2.8"/><path class="cls-5" d="M386.93,478.37c5.48,2.28,7.41,2.8,7.41,4.91s-3.7,6.84-3.7,6.84"/><path class="cls-14" d="M958.49,341.67l-.46.61c-10.53-10.41-5.43-21.57-5.43-21.57-12.94,2-16.91-6.21-16.9-15.53l21.79-14.29,0,0C958.38,292.14,976.47,317.81,958.49,341.67Z"/><path class="cls-12" d="M952.6,320.71c-1-11.26,2-12.19,4.36-11.26S959.67,314.44,952.6,320.71Z"/><path class="cls-12" d="M952.6,320.71c5.89,11.23,18.74,8.35,26.77,0"/><path class="cls-22" d="M957.49,290.89c30.2-15.5,76-27.92,85.05-13.08,10.57,17.38-18.08,38.33-76.56,65.43"/><path class="cls-22" d="M866.21,353.44c-33.05,21-68.35,43.56-101.65,58.83s-61.09,25-80.37,13.27"/><path class="cls-22" d="M677.43,416c-3-11.27,10.52-23.78,36.8-29.79s105.9-26,118.42-34.8"/><path class="cls-12" d="M727.24,453c18.51,9.49,36,9.74,56.38-13s38.57-34.19,49-35.76"/><path class="cls-12" d="M817.83,458.41c13.12-11.68,19-20.09,13.48-28.49s-11.33,8.22-4.93,11,18.77-3.49,21.75-12.79c3.11-9.69,0-13.89,0-13.89"/><path class="cls-5" d="M858.27,382c4.85,20.18,10.29,31.64,10.29,31.64"/><polygon class="cls-13" points="828.3 345.79 828.3 362.11 873.76 345.79 874.14 350.36 959.3 293.71 952.42 286.48 828.3 345.79"/><path class="cls-22" d="M831,344.49c-.11-31.2,16.57-63.25,52.86-74.9s62.89,19.59,62.89,19.59"/><circle class="cls-3" cx="897.98" cy="365.14" r="5.18"/><circle class="cls-3" cx="945.54" cy="353.58" r="4.45"/><path class="cls-5" d="M936.72,447l-1.17.36c-16.46,4.84-36.62-3-51-13.08a79.16,79.16,0,0,1-7.45-5.9"/><path class="cls-5" d="M876.26,354.3c5-8.65,11.92-17.08,27.81-16.69"/><path class="cls-5" d="M951.87,328.09c-14.7-2.13-22,.26-23.65,10.85s-.86,19.07,2.66,28.34,8.75,21.28,8.75,21.28"/><path class="cls-5" d="M884.58,365.14c4.19,2.49,11.22,2.65,13.67,0"/><path class="cls-5" d="M946,353.58c3.34.16,8.27-2.82,8.71-7.62"/><path class="cls-5" d="M922.31,390.64c1.17-1.06,3.13-1.35,11.13-1.2s8.58-1.85,11.4-10.41"/><path class="cls-3" d="M904.07,406.14C899.27,408.66,912,423,921,425s16.05-6.63,18.17-11.34,3.61-8.94-.62-9.44S910,403.05,904.07,406.14Z"/><path class="cls-23" d="M907.22,407.09c5.58-2.17,27.83-1.25,28.3,0s-2.1,5.69-7.3,6.14-16.11-.23-18-1.25S905.18,407.89,907.22,407.09Z"/><g class="cls-9"><path class="cls-24" d="M904.61,787.24c20.72,38,38,89.79,38,89.79"/><path class="cls-24" d="M855.64,713.49c7.23,1.13,27.1,11.06,60.51,13.32s43.35,0,43.35,0"/><path class="cls-24" d="M847.88,725.89c8.66,3.53,15.18,4.32,21.38,5.28"/><path class="cls-24" d="M883.75,733.08c9.55,2.23,25.62,7.68,74.78,7.64"/><path class="cls-24" d="M836.88,693.18c-41.92-20.36-75.94-12-73.07,18.69"/><path class="cls-24" d="M782,707.8c1.68-13.65,24.69-19.41,62.05-7.67"/><path class="cls-24" d="M788,724.09c8.62,10.06,30.06,21.47,43.54,19.84"/><path class="cls-24" d="M770.52,724.09c26.11,23,34.34,27.54,53.82,25.39"/><path class="cls-24" d="M745.85,770.32c29.23-5.51,85.7-43.6,85.7-43.6"/><path class="cls-24" d="M841.19,713.49c-40.93,0-143.5,13.95-126.25,53"/><path class="cls-24" d="M713.77,763.22c17.83,14.35,65.21,5.72,104-8.64"/><path class="cls-24" d="M795.38,774.88c-37.72,5.44-71.55,11.45-86.59-13.36s.5-40.85,32.58-46.61,98.49-7.11,98.49-7.11"/><path class="cls-24" d="M753.66,833.45C737.25,843.7,728,851.18,722,851.18s-19-2.87-19-10.08c0-3.17,48.86-11.53,77.28-45.28"/><path class="cls-24" d="M770.52,778.3c-13.35,21.51-96,34.13-115.84,37.38s-31.21,14.93-31.21,14.93c-3-13-17.83-22.53-17.83-22.53s11.23-11.54,48-17S717,784,733.84,778.3"/></g><path class="cls-25" d="M258.09,378.79c3.18-7.19,8.33-14,10.74-12.35s6.48,8.77,4.91,11.9C270.17,385.51,256.34,382.75,258.09,378.79Z"/><path class="cls-26" d="M266.25,366.58c-4.46-9.94.25-27.28,5.48-26.9S272.76,357.79,266.25,366.58Z"/><path class="cls-26" d="M266.25,366.58c-.18-14.78-2.24-28.64-9.29-28.75S255.8,360.4,266.25,366.58Z"/><path class="cls-26" d="M261,382.18c-1.21,9.33-19,16-21.18,13s6.1-13.9,18.49-14.61C258.35,380.57,258.59,381.67,261,382.18Z"/><path class="cls-26" d="M260.53,374c-12.57-4-30.06,4.25-28,8.77s11.39,4.55,25.83-2.21C258.35,380.57,256.69,380.36,260.53,374Z"/><path class="cls-26" d="M263.36,369.79c-18.06-11-21.55-19-19.58-22.54s21.38,12.41,22.24,19.81Z"/><path class="cls-26" d="M260.07,374.81c-14.82.23-25.14-7.58-25-13.25s14.1-5.69,28.92,7.42Z"/><circle class="cls-25" cx="312.8" cy="359.66" r="4.53"/><path class="cls-26" d="M311.55,355.66C303,346,301.78,327.31,306.66,326S319.16,339.09,311.55,355.66Z"/><path class="cls-26" d="M311.55,355.66c-.12-8.1,12.14-23.86,19.21-20S326.94,352.79,311.55,355.66Z"/><path class="cls-26" d="M312.8,355.14c-6.29-7.53-18-12.14-20.88-7.83s8,11.12,16.58,11A4.28,4.28,0,0,1,312.8,355.14Z"/><path class="cls-26" d="M308.28,359.66c-5.95-3.31-22.23-1.16-21.2,5.55s16.37,7.81,22.92-2A5.67,5.67,0,0,1,308.28,359.66Z"/><path class="cls-26" d="M309.62,362.81c-1.58-1.64-4.84,14.27.38,17.76s9.84-8.4,5.3-17.13C315.29,363.44,311.55,364.82,309.62,362.81Z"/><path class="cls-26" d="M317.14,360.95c10.61,3.25,18.41,9.13,15.82,14.7s-14.64-.39-17.67-12.21A3.27,3.27,0,0,0,317.14,360.95Z"/><path class="cls-26" d="M316.42,356.95c1.28,3.24.73,4,.73,4s8.94,8.52,21.28,5.25,8.11-12.61-2.66-14C329.39,351.39,323.23,353.63,316.42,356.95Z"/><circle class="cls-25" cx="325.05" cy="405.86" r="5.1"/><path class="cls-26" d="M320.69,403.2c-10.25-3.46-19.95-13.36-14.39-16.29s15.13,9.5,18.08,13.89C324.38,400.8,321.35,401.51,320.69,403.2Z"/><path class="cls-26" d="M324.38,379.94c3.32-1.38,9.43,8.65,3.31,21.56a4,4,0,0,0-3.31-.69S316.46,383.23,324.38,379.94Z"/><path class="cls-26" d="M320.69,403.2c-8-4.86-20.29-5.54-21.65-1s12.54,9.72,21,4.87A6,6,0,0,1,320.69,403.2Z"/><path class="cls-26" d="M320.09,407.05c-8.68-1.12-33.68,8.79-26.25,14.42,7.88,6,28-11.65,28-11.65A3.84,3.84,0,0,1,320.09,407.05Z"/><path class="cls-26" d="M327.42,410.37c2.53,7.58.64,19.44-4,18.69S316.25,415.9,321,409A5.13,5.13,0,0,0,327.42,410.37Z"/><path class="cls-26" d="M327.68,401.49s2.11,1,2.61,4.69c0,0,17.56-6.54,18.87-15.53s-9.61-9.45-15.22-.92A61.6,61.6,0,0,0,327.68,401.49Z"/><path class="cls-26" d="M329.49,408.36c9.13,5.09,17,18.25,14.06,21.76-3.89,4.72-17.17-8-16.13-19.75A4,4,0,0,0,329.49,408.36Z"/><path class="cls-26" d="M330.15,405.86a3.84,3.84,0,0,1-1.08,3.14s15.17,16.47,21.12,9.94S344,404.61,330.15,405.86Z"/><circle class="cls-27" cx="884.65" cy="394.02" r="17.39"/><path class="cls-3" d="M936.57,468.55c-17.62,1.68-32.64-4.75-38.59-9.44-4.56-3.6-10.22-16.7-13.39-24.78,14.34,10.1,34.5,17.92,51,13.08C935.68,450.7,936.12,461.12,936.57,468.55Z"/><line class="cls-8" x1="1128.6" y1="254.26" x2="1156.66" y2="259.69"/><line class="cls-8" x1="1211.93" y1="260.66" x2="1200.18" y2="260.66"/><path class="cls-5" d="M1517.24,715.36c-1.55-7.12-.44-7.91,1.13-9.33s11.49-10.23,12-11.34-6.92-10.55-6.92-10.55"/><path class="cls-5" d="M1535.69,673.28c7.56,12.75,14.8,26.14,13.23,28s-19.11,14.76-19.11,14.76"/><path class="cls-5" d="M1540.46,723.89c6.87-6.52,22.15-18.65,24-21.33s-13.7-34.17-13.7-34.17"/><g class="cls-9"><path class="cls-18" d="M1780.36,805.31c-2.36,47.65-17.55,111.32-30.76,134"/><path class="cls-18" d="M1756.41,805.31c-16.29,88-47,123.81-47,123.81"/><path class="cls-24" d="M1727.31,808.66c.78,71.49,9.55,111.74,9.55,111.74"/><path class="cls-24" d="M1715.85,808.66c-1.44,53.3-20.36,125.14-20.36,125.14"/><path class="cls-24" d="M1700.47,808.66c-2,81.82-35.22,133.72-35.22,133.72"/><path class="cls-24" d="M1682.69,808.66c-4.28,67.79-27.61,111.74-27.61,111.74"/></g><path class="cls-21" d="M1752.11,705.4a5.44,5.44,0,0,0,.15-2.56,12.84,12.84,0,0,0-13.81-11.11c-7.2.36-9.45,6.62-7.44,12.06h0a12.12,12.12,0,0,0,8.33,7.55"/><path class="cls-21" d="M1713,744.24a81,81,0,0,1,15.25,16.34"/><path class="cls-21" d="M1723.88,735.41c-1.6-7.82-19.64-3-23,6.06s4,12.12,11.48,10.53S1726,746,1723.88,735.41Z"/><path class="cls-13" d="M1762.63,764.79s12-9.44,5.21-14.91-10.69,8.29-11.42,9.09,2.74-22.48-4.49-23.49-11.79,7.75-6.57,24.41c0,0-13.42-25.28-18-18.42s8.56,23.11,8.56,23.11c-14-2.4-29.71,5.2-27.09,13.74,2.54,8.31,23.74-3.84,24.84-4.48-.9.72-16.35,13.16-14,18s21.67-11.66,21.67-11.66-9.83,14.27-.8,16.75S1754,784.66,1754,784.66s14.39,10,17.41,5.83-10.84-10.11-11.61-10.45c1,.15,20.45,3,21.11-6.62C1781.56,763.59,1762.63,764.79,1762.63,764.79Zm-13,12.23a6.82,6.82,0,1,1,6.82-6.81A6.81,6.81,0,0,1,1749.59,777Z"/></svg>