<svg id="Layer_1" data-name="Layer 1" xmlns="http://www.w3.org/2000/svg" viewBox="0 0 2267.72 1700.79"><defs><style>.cls-1{fill:#fcc9a1;}.cls-2{fill:#e7a184;}.cls-3{fill:#63cdf6;}.cls-12,.cls-3{opacity:0.5;}.cls-10,.cls-13,.cls-4,.cls-7,.cls-8,.cls-9{fill:none;stroke-linecap:round;stroke-linejoin:round;}.cls-4,.cls-8{stroke:#2c2f53;}.cls-10,.cls-13,.cls-4,.cls-7,.cls-9{stroke-width:3px;}.cls-5{fill:#2c2f53;}.cls-6{fill:#0d1536;}.cls-7{stroke:#505c7b;}.cls-8{stroke-width:5px;}.cls-9{stroke:#54c3e5;}.cls-10{stroke:#f06082;opacity:0.75;}.cls-11{fill:#fff;}.cls-12{fill:#f06082;}.cls-13{stroke:#fff;}.cls-14{fill:#dc6437;opacity:0.3;}</style></defs><title>Pria memeluk kekasihnya color</title><path class="cls-1" d="M1160.59,933.18l-57.15,3.63c-17.35-11.68-37.7-24.62-53.62-33.14,3.72-.45,7.73-.73,11.95-.86a200.35,200.35,0,0,1,35.05,2.22C1123,909,1148.88,918.11,1160.59,933.18Z"/><path class="cls-2" d="M916.64,1083.2c-52.09,4.57-61.81,5.13-76.13,9.41s-25,16.43-23.76,21.63,6.36,6.94,11,14.33c2.77,4.45-4,3.62-2.32,15.63.73,5.13,6.45,5.58,7.33,13.35s-.88,17.88,3.81,21.69,6.6,7.77,6.89,14.66.15,18,9.53,23.6,18.62,8.06,31.23,8.65l-1-24.48a15.11,15.11,0,0,0,9-11.08c1.72-8.68-1.38-9.88,2.17-16.79,4-7.73,2.87-12.75,2.87-12.75l29.49.9C902.69,1142,903.84,1098.08,916.64,1083.2Z"/><path class="cls-3" d="M1439,1116.71c12,48.65,17.91,69,22.74,97.63s9.33,62,8.67,70.17-16.33,22-16.33,22l7.67,54.17-223.31,37.59-12.79-111.34c33.8,23.24,79.26,35.34,114.83,13.43,6.87-4.23,26.55-27.24,31.76-34.6C1410.62,1211.44,1424.72,1178,1439,1116.71Z"/><path class="cls-4" d="M925.16,853.59c-16.75,26.89-53,50.56-78.1,33.49s-21.42-38-3.54-44,29.63,24-11.11,36.71-57.14-9.47-57.16-29.47c0-27.05,24.8-67.15,64.09-77.29"/><path class="cls-1" d="M1133.25,833.44h0q-2.16,1-4.53,1.91A242.32,242.32,0,0,0,1117,884.91,160.12,160.12,0,0,0,1116,915.5s-43.21-10-80.15,0l-107.9-76.8,93.92-212.26c12.94,7.94,54.87,22.11,65.53,30.89s24.21,17.74,24.84,28.6a336.94,336.94,0,0,0,26.71,28.17c14.61,13.57,21.22,34.44,21.67,57.19C1161,793.3,1176.08,814.51,1133.25,833.44Z"/><path class="cls-5" d="M1128.7,835.36A242.32,242.32,0,0,0,1117,884.91c-25.44-5.75-37.66-30.65-41.83-41.42a211.54,211.54,0,0,0,51.67-8h0Z"/><path class="cls-2" d="M1145.72,1018.73s-4.06-.29-13.63,5.8-36.54,17.7-36.54,17.7c-21.75-21.47-76-46.7-80.05-41.77s.58,10.15,14.79,18.27,37.13,31.11,37.13,31.11c-18.57,5.3-32.2,8.92-32.2,8.92-15.37-11.89-49.37-32.78-71.35-48.15-33.19-23.21-63.37-32.28-64.42-40.06-3.71-27.46-.5-59,10.14-63.2,12.89-5.11,35.75-26.42,62.62-40.79s57-2.13,70.5,3.5,28.38,4,30.26,5.87c5.29,5.29,17.61,21,23.85,29.1a200.35,200.35,0,0,0-35.05-2.22l-4.5-4.15c-1.16-.87-17.41,0-17.41,0,3,1.4,6.39,3.09,10,5,15.92,8.52,36.27,21.46,53.62,33.14s31.7,22.14,35.61,25.66c8.71,7.83,1.45,20.88-6.38,16.82s-54.81-27.84-66.12-33.06-11.61,2.32-5.51,7C1073.4,962.61,1145.72,1018.73,1145.72,1018.73Z"/><path class="cls-6" d="M992.51,586.51c-24.61,13.22-35.08,22-34.25,38.57,0,0-19.93-6.8-45.82,7.9s-50.09,32.94-55.1,63.91c-7.16,44.26,9.86,61.31,1.47,82.28-5.14,12.86-22.22,28.47-43.16,37.47s-27.92,23.33-28.1,36,2.2,49,43.9,57.49,96.24-1.65,132.05-22.41,47.57-32.88,47.2-53.63c0,0-39.67,7-47.75-17.82,0,0,21.86-22.41,26.45-42.43,0,0,14-1.54,16.53-26.81a111.46,111.46,0,0,0-1.29-32.32s36.73-39.49,17.21-88.26Z"/><path class="cls-7" d="M984.06,631.51c-.55-20,20.39-26.26,20.39-26.26"/><path class="cls-7" d="M990.09,679.16c16.8,16.48,27.21,90.18-1.4,94.69"/><path class="cls-7" d="M974,701.57c16.37,21.15,20.05,41.35,15.19,70.23"/><path class="cls-7" d="M956.6,667.81c-17.37,3.1-35.38,32-25.18,61.76,14.88,43.39-1.51,84.3-45.57,79.51"/><path class="cls-7" d="M989.17,771.8c-9.4,42.76-57,78.81-101.67,66.66"/><path class="cls-1" d="M1412.92,1002.6l41.43,27s12.7-48.46,19.74-70,14.27-46.9,17.39-60.77-1.76-21.89-5.47-36.74-25.65-87.55-28.75-97.71-13.46,2.54-12.87,11.53c0,0-8.79,2.74-7.23,14.66s11.92,70,12.31,75.82-3.52,3.52-4.89,10c0,0-6.45-27.16-16.22-28.53s-9.34,3.91-8.48,7.62,8.09,31.07,6.33,41.62-18.76,41.23-18.37,54.91,10.75,25.79,10.75,25.79Z"/><path class="cls-5" d="M940.14,535.36c-10,3.15-11.95,4.15-19.92-4.48s-14.94-19.42-17.09-33.52,5.48-70.7,30.87-96.92,49.29-34.85,89.79-33.19,102.73,53.11,105.72,83.64S940.14,535.36,940.14,535.36Z"/><path class="cls-7" d="M961.24,375.68c-14.91,13.34-15.41,63.94,3.49,68.24"/><path class="cls-7" d="M1019,379.44c23.11,9.94,32.51,22.3,25.52,32.78s-18.88,5-13.16,0c14.2-12.47,27.14,14.51,6.18,29.29"/><path class="cls-7" d="M1052.35,455.47c29.79-15.92,45.28-48.75,22.09-66.26"/><path class="cls-7" d="M921.6,427.9c-8.78,20.16-7,71.36,30.07,60"/><path class="cls-5" d="M964.19,391.09c-19.55.9-53.57,9.23-66.78-27.69s15.38-72,29.32-76c0,0,7.06-37.1,30.59-37.1,17.74,0,17.37,35.47,17.37,35.47s20.63-24.61,33.12-19.36c12.09,5.08,0,34.39,0,34.39,10.78,3.12,20.14,43.28-40.56,83C965.88,384.65,965.45,390,964.19,391.09Z"/><path class="cls-7" d="M939.64,368.41c-22.42,5-21.29-25-3.25-28.45,17.81-3.37,19.49,14.35,13.17,15.28-17.72,2.6-9.27-38.36,11.22-40.33"/><path class="cls-7" d="M1007.81,300.79c-5.55,10.39-16.43,17.61-18.72,13.14S998.69,300.93,1007.81,300.79Z"/><path class="cls-7" d="M926.73,287.39c14.71,1,14.48,13.93,8.07,17S923,299.74,926.73,287.39Z"/><path class="cls-2" d="M1227.58,526.62s-9.71,31.72-30.93,73.13A517.16,517.16,0,0,1,1163,656.38s-11.41-7.72-18.73-9.26c0,0-5.83,6.23-12.17,12.23-5,4.7-10.3,9.26-13.35,10.54-5.77,2.42-11.72.19-19.35-3.16s-54.33-24.19-70.14-31.07S996.72,612,990.77,601.8,967,588.59,961,583.75s-35.34-52.22-41.3-69c-6.14-17.3,11.53-24.37,19.53-26.23s12.84-17.67,19.91-29.21,11.72-12.84,20.28-10.79,14.14-12.46,26-13.39,20.46,15.25,29.95,15.62,20.65-10.23,30-1.11,17.68,22.51,26.24,20.46,9.62-11.94,10.42-23.63c1.42-21,52.43-10,45.9,27.63C1174.33,496.8,1209.2,519.27,1227.58,526.62Z"/><path class="cls-5" d="M1186.49,618.64c-6.89,12.24-14.7,25-23.47,37.74,0,0-11.41-7.72-18.73-9.26,15.39-24.83,17.22-72.84,9.82-109.45C1154.11,537.67,1182.9,577.15,1186.49,618.64Z"/><path class="cls-4" d="M1071,628.46c14.38-7.88,22.06-32.57,23.17-40a24.06,24.06,0,0,0-.94-10"/><path class="cls-4" d="M1092.21,622.83c5.15-4.1,8.19-9.78,8.46-13.87"/><path class="cls-4" d="M1087.89,460.59c20.75,7.59,34.66,19.54,49.64,36.45"/><path class="cls-4" d="M1144.29,647.12c15.39-24.83,17.22-72.84,9.82-109.45a152.09,152.09,0,0,0-5-18.85"/><path class="cls-5" d="M1001.73,539.43c-.66-11.77.07-16.28,1.1-20s17.48-26,21.22-28.19,16.49-.84,16.49-.84S1014.81,514.8,1001.73,539.43Z"/><path class="cls-5" d="M961,583.75c-3.36-7.6-3-11.78-2.15-13.75s10.67-9.13,13.63-9.79,14,1.1,14,1.1S970.41,572.76,961,583.75Z"/><path class="cls-4" d="M1038.15,622.83c11.75-3.92,14.47-6.27,15-15.8s2.23-15.09,4.58-16.95"/><path class="cls-5" d="M1053.54,601.9c6-2.81,9.59-12.51,5.58-13.9C1055.59,586.78,1052.56,592.54,1053.54,601.9Z"/><path class="cls-8" d="M1033.62,549c12-7.7,15.06-24.41,15.06-24.41"/><path class="cls-8" d="M987.38,597.66a30.24,30.24,0,0,0,12.37-12.06"/><path class="cls-4" d="M986.45,561.31c11.38,1.53,33.4,36.89,47.17,62.37"/><path class="cls-3" d="M1448.1,784.08c11.54-7.69-12.81-108.25-21.24-132.2-15.59-44.29-70.77-67.06-100.72-80.67s-67.3-35.88-83.14-48-22.63-7.89-24.43-3c-.23.62-.46,1.23-.68,1.84-24.55,66-44.95,98.74-65.08,128.28l-2.11,3.08a55.48,55.48,0,0,0-8.42-4.17c-5,5.23-17.93,18.27-23.46,20.59-5.77,2.42-11.72.19-19.35-3.16-3.18-1.39-13.16-5.83-24.85-11-.88,2-1.81,4.39-2.68,7,2.77,2.26,26.84,7.69,31.56,24.31,16.34,25.37,48.88,43.21,47.86,75.91-.35,11,6.34,32.65,2.37,42.12-8,19.18-27,13-34.68,35.17s-11.22,49.45-10.85,75.52c41.19,4.5,70.88,48.71,70.88,48.71h0c-6.26,10-11.63,17.87-13.38,20.7-3.24,5.26-3.24,11.94-3.24,11.94-4,8.1-.2,22.87-.2,22.87s-12.75-5.87-20.65-4.86-14,5.47-25.71,12.35-36.64,14.17-59.51,20.85-61.13,12.55-80.76,14.37-23.08,8.1-29.35,13-12.14,3-29.35,4.86-17.81,36.23-13,57.28,21.12,26.18,21.12,26.18c17.38.38,30,3,40.82,9.87,21.06,13.34,35.84,17,74.08,15.66,46.11-1.55,133.28-19.4,196.6-31.15,21.83-4,37.46-13.07,49.84-26.51,6.05,8,20.42,23.65,36.43,17.87,3.07-1.11,22.92-41.89,45.78-81,15.28-26.11,15.48-39.2,30.5-42,13.69-11.58,25-23.13,26.8-50.71-22.23-31.22,4.23-47.91,8.27-73.35,2.32-14.63-10.26-46.22-7.72-47,7.28-2.35,15.13,30.32,15.5,31.47,2.65,8.2,15.27-18.55,15.27-18.55C1458.26,867.42,1441.66,788.37,1448.1,784.08Z"/><path class="cls-4" d="M1108.92,725.85c-2.85,2.51-5.76,5.12-8.25,7.43"/><path class="cls-4" d="M1112.21,723c4.51-3.92,8.34-7.11,9.3-7.75s1.13-3,1-5.44-.54-4.66-1-5.15-2.95-1.62-6.76-3.24c-5.13-2.19-12.6-5.13-20.43-7.94-13.66-4.9-17-8.24-20.29-16.08-1.74-4.09.63-8,5.58-11.4a42.56,42.56,0,0,1,8.39-4.32"/><path class="cls-4" d="M1015.52,725.85c3-20.51,17.37-38.64,33.74-45.18"/><path class="cls-9" d="M1301.39,656.51c20.68-22.91,79.07-53.08,106.73-57.55"/><path class="cls-9" d="M1150.65,653.46c-5.08,8.67.29,15.3,9.94,17.44s19,11.25,19,11.25"/><path class="cls-9" d="M949.33,1079.52c-6.7,18.34,1.28,66.1,7.11,81.53"/><path class="cls-9" d="M909.57,1091.1c9-5.56,30.3-5.46,38-4.68"/><path class="cls-9" d="M900.33,1099.7c7-3.73,43.39-8.4,51.79-6.77"/><path class="cls-9" d="M901.42,1109.38c13.38-5.13,45.18-7.11,45.18-7.11"/><path class="cls-9" d="M901.31,1117.31c12.91.23,45.33-4.43,50.81-6.18"/><path class="cls-9" d="M907.45,1127.23c9.1-.35,29.86-2,35.81-4.32"/><path class="cls-9" d="M903.61,1136.27c9.43,1.22,45.62-4.46,45.62-4.46"/><path class="cls-9" d="M908.88,1150c17.34.86,43.24-3.16,43.24-3.16"/><path class="cls-9" d="M917.75,1159.84c11.86.4,36.6-4.62,36.6-4.62"/><path class="cls-10" d="M883.15,1201.66s1.57,53.45,3.57,91.48c.53,10.16,1.09,19.22,1.66,25.87,2.72,31.51.12,55.38-6.19,69-.11.24-.23.49-.34.74-6.34,13.85-15.88,41.5,6.53,61.78"/><path class="cls-10" d="M1235.67,1302.37c.36,4.28.8,8.93,1.3,13.8,3.62,35.31,10.17,82.33,9,87.13-.14.58-.31,1.18-.51,1.81-2,6.58-7.11,16.54-17.74,37.44"/><path class="cls-9" d="M1461.76,1360.68c6.08,37.5,8.73,85.25,8.73,85.25"/><path class="cls-9" d="M1235.54,1346.79c25.41-3.63,140.81-29.9,179.68-35.09"/><path class="cls-9" d="M1422.27,1309.56c16-2.64,28.79-5.28,28.79-5.28"/><path class="cls-9" d="M1439,1312.25c4.18,14.32,11.1,50.39,11.1,50.39"/><path class="cls-9" d="M1424.72,1309.15c2.75,16,10.92,55.92,10.92,55.92"/><path class="cls-9" d="M1410.62,1312.25c3,14.2,8.86,55.54,8.86,55.54"/><path class="cls-9" d="M1390.27,1315.84c2.11,16.28,8.57,31.65,11.23,48"/><path class="cls-9" d="M1379.35,1317.89c-.42,16.79,6.68,38.47,6.17,52.79"/><path class="cls-9" d="M1364.11,1320.88c0,14.26,7.06,40.6,8.13,54.87"/><path class="cls-9" d="M1351.63,1323.39c5.4,19.58,7,50.94,7,50.94"/><path class="cls-9" d="M1339.11,1325.95c.83,13.61,7.87,40.56,8.87,49.8"/><path class="cls-9" d="M1326.92,1328.47c4.19,19.13,10.2,53.19,10.2,53.19"/><path class="cls-9" d="M1311.41,1338.55c1,14.47,5.83,39.39,5.83,39.39"/><path class="cls-9" d="M1306.62,1386.79c-2.38-13.27-7.87-32.76-8.64-52.3"/><path class="cls-9" d="M1288.21,1336.52c-.12,16.1,8.3,52,8.3,52"/><path class="cls-9" d="M1269.4,1336.52c4.42,16.3,8.73,39.82,8.64,47.45"/><path class="cls-9" d="M1255.76,1343.14c-.43,16.32,10.22,50.49,10.22,50.49"/><path class="cls-9" d="M1155.59,1052.63c-1.16,10,7.41,30.58,11.58,26.64s-5-59.37-5-59.37"/><path class="cls-9" d="M1162.42,997c15.18,25.48,19.12,35.21,19.12,35.21"/><path class="cls-4" d="M881.88,1161.31c18.05-.7,24.17,0,24.17,0"/><path class="cls-8" d="M1045.71,725.23c3.07-15.3,19.08-14.34,19.08-14.34"/><path class="cls-8" d="M1099.45,692c4.91-8.49,12.76-6.08,12.76-6.08"/><path class="cls-5" d="M1135.66,771c-3.56,3.48-19,6.9-33.32,2.82a38.54,38.54,0,0,1-9.76-4.26c13.5-6.89,27.86-17.3,35.15-22.84,3-2.32,4.87-3.78,4.87-3.78S1140.06,766.67,1135.66,771Z"/><path class="cls-11" d="M1129,756.33s-14.45,10.59-26.68,17.47a38.54,38.54,0,0,1-9.76-4.26c13.5-6.89,27.86-17.3,35.15-22.84A28,28,0,0,1,1129,756.33Z"/><path class="cls-7" d="M901.31,909.57c35-16.49,71.23-35.77,77.54-76.13"/><path class="cls-7" d="M792.26,879.59c9.17,4.7,22.33,5.81,40.15.25,1.55-.48,3-1,4.43-1.53-13.27-14.86-8.21-30.22,6.68-35.19,17.19-5.72,28.73,21.77-6.68,35.19a55.26,55.26,0,0,0,10.22,8.77c25.12,17.07,61.35-6.6,78.1-33.49"/><path class="cls-4" d="M1039.67,973.29c33.46,18.44,79.45,58.17,79.45,58.17"/><path class="cls-4" d="M1011.47,885c22.31,10.37,38.79,18.86,38.79,18.86"/><path class="cls-4" d="M1133.25,833.44s-2.28.83-6.38,2h0a211.54,211.54,0,0,1-51.67,8c-2.15.06-4.33.09-6.54.07"/><path class="cls-4" d="M1010.69,834.09c11.45-3.64,11.16-8.44,11.16-8.44"/><path class="cls-4" d="M989.38,773.85a277.61,277.61,0,0,0,22.08,28.5"/><circle class="cls-11" cx="1004.26" cy="822.67" r="7.2"/><path class="cls-12" d="M1178.64,952.68,1125,958l-15.77-13.16,57.22-6.07S1173.05,945.94,1178.64,952.68Z"/><path class="cls-4" d="M1444.58,876.36c5.66,18.92,10.08,29.61,10.08,29.61"/><path class="cls-4" d="M1450.15,783.72c8.22,33,23.1,91.57,23.1,91.57"/><path class="cls-12" d="M1445.91,1053.11s-19.16-27.69-42.18-36.13c0,0-2.18-4.34,1.69-6.51,20.26-1.31,40.47,15.24,46.11,32.83C1451.53,1043.3,1452.54,1051.31,1445.91,1053.11Z"/><path class="cls-10" d="M1320,1137.21c9.9,11,40.17,43.49,40.17,43.49"/><path class="cls-10" d="M1309.81,1142.76c17,19.72,35.17,41.86,41.9,56.16"/><path class="cls-10" d="M1312.79,1146.24c10.05,21.85,13.7,61.65,14.54,79"/><path class="cls-10" d="M872.08,1061.19C873.48,1086.86,874,1087,874,1087"/><path class="cls-3" d="M920,898c-11.42,14.49-14.56,20.57-15.29,42.84s-1.32,33,10.57,41.64l-10.9,3.31a128.79,128.79,0,0,1,1.8,25.62c-.49,13.66-.73,28.06-12.93,36.35a479.71,479.71,0,0,1-43,25.73c-12.15,6.23-21.66-4-21.91-9.39s.87-6.59-11.64-10.25-25.45-9-30.57-32-5.86-43.78,0-62.64,17.08-49,42.94-55.39C829,903.9,869.87,916.82,920,898Z"/><path class="cls-9" d="M904.33,985.81C889,992.13,881,996.16,881,996.16"/><path class="cls-9" d="M862.34,986.74c14.85-6.69,44.15-15.32,44.15-15.32"/><path class="cls-9" d="M854,977.53c17.12-3,38.17-12.33,50.3-14.1"/><path class="cls-9" d="M857.81,964.44c17.62-3,32.68-10.82,46.55-12.59"/><path class="cls-9" d="M851,950.85c20.44-2.27,45.11-14.85,59.46-16.36"/><path class="cls-9" d="M854,937.9c19.63-2.4,47.32-13.94,59.15-16.1"/><path class="cls-9" d="M857.81,928.2c22.4-7.8,50.89-12.69,50.89-12.69"/><path class="cls-9" d="M875.93,993c-42.79-14.87-18.37-65.39-4.24-84.94"/><path class="cls-9" d="M800.17,951.86c8.05-17.62,40.64-30.42,65.63-34.72"/><polyline class="cls-13" points="1396.26 1246.25 1416.63 1271.19 1436.66 1237.43 1420.05 1202.67"/><polyline class="cls-13" points="1391.04 1017.88 1372.28 988.22 1392.46 958.01 1410.67 984.58 1406.83 998.66"/><polygon class="cls-13" points="1377.9 875.29 1391.47 841.6 1373.93 810.49 1350.76 843.56 1377.9 875.29"/><polygon class="cls-13" points="1290.2 742.92 1307.74 707.89 1325.61 741.32 1307.9 774.09 1290.2 742.92"/><polyline class="cls-13" points="1149.3 727.01 1163.51 703.26 1144.24 670.91 1127.64 703"/><polygon class="cls-13" points="1231.62 854.51 1246.51 885.03 1264.57 858.15 1248.1 824.06 1231.62 854.51"/><polygon class="cls-13" points="1369.63 674.47 1388.83 706.24 1407.83 670.91 1388.73 641.37 1369.63 674.47"/><polygon class="cls-13" points="1252.47 628.46 1271.33 658.36 1294.5 626.44 1269.68 594.87 1252.47 628.46"/><polygon class="cls-13" points="1182.64 740.99 1198.85 776.91 1217.06 737.68 1203.49 706.24 1182.64 740.99"/><polygon class="cls-13" points="1133.25 876.36 1155.5 909.57 1175.69 876.36 1154.47 847.56 1133.25 876.36"/><polygon class="cls-13" points="1295.85 932.62 1278.62 966.37 1301.78 1006.75 1321.64 969.68 1295.85 932.62"/><polygon class="cls-13" points="1260.41 1054.74 1240.22 1096.11 1264.57 1130.53 1285.9 1089.82 1260.41 1054.74"/><polygon class="cls-13" points="1177.67 981.27 1193.89 1011.72 1218.05 979.28 1197.86 952.8 1177.67 981.27"/><polyline class="cls-13" points="1148.73 1174.68 1167.28 1130.53 1195.15 1166.07"/><polygon class="cls-13" points="1081.58 1099.7 1103.45 1130.53 1120.94 1099.7 1100.13 1071.51 1081.58 1099.7"/><polyline class="cls-13" points="1029.2 1189.67 1019.68 1180.7 1039.67 1146.89 1068.25 1180.7"/><polyline class="cls-13" points="1000.64 1059.5 1014.92 1088.57 993.34 1116.71 973.97 1088.57 984.02 1061.72"/><circle class="cls-14" cx="1039.56" cy="769.64" r="29.09"/><path class="cls-9" d="M1419.86,790.1s-4.09,0-9.7,15.83-37.79,123.58-68.43,205.28-41.87,135.32-105.19,147.07-150.49,29.6-196.6,31.15c-38.24,1.29-53-2.32-74.08-15.66-10.8-6.84-23.44-9.49-40.82-9.87,0,0-16.26-5.12-21.12-26.18s-4.25-55.46,13-57.28,23.08,0,29.35-4.86,9.72-11.13,29.35-13,57.89-7.69,80.76-14.37,47.77-14,59.51-20.85,17.81-11.34,25.71-12.35,20.65,4.86,20.65,4.86-3.85-14.78.2-22.87c0,0,0-6.68,3.24-11.94s19-27.93,29.76-49.39,37.85-115,44.13-140.68,14.2-66.84,28.15-78.46"/><path class="cls-4" d="M1061.77,902.81a200.35,200.35,0,0,1,35.05,2.22c18.18,2.75,36.26,8,49.52,16"/><polyline class="cls-13" points="861.17 1067.56 850.2 1055.94 871.68 1019.91 893.2 1047.79"/><polygon class="cls-13" points="795.67 992.97 813.57 1011.72 824.3 980.44 805.21 961.75 795.67 992.97"/><path class="cls-10" d="M1181.54,956.26c-.9-1.15-1.88-2.36-2.9-3.59-5.59-6.74-12.19-13.9-12.19-13.9s10.38-17.2,2.25-18.85-9.53,11.54-9.53,11.54c-1.78-11.07-15.32-8.47-15.44-.46-3.06-10.25-16-8.6-16.67,2.25-5.44-12-15.2-3.44-15.23.81-3.4-10.19-10.62-4.24-11.7-2,0,0-4.35-3.55-8.79-3.33"/><path class="cls-10" d="M1292.5,1124.44a243,243,0,0,1,17.31,18.33s5.31-6,10.14-5.56c0,0,13-25.35,22.7-41.52s29.21-54.56,33.07-64.7,15.21-13.52,19.32-14a46,46,0,0,1,8.69,0s-2.18-4.34,1.69-6.51a13,13,0,0,1-4.35-11.83c1.18-7.32,7.72,2.63,7.72,2.63-1.81-7.5,7.6-14.66,12.56,1.23,0,0,8-14.25,13.76,6.28,0,0,15-7.49,12.8,10.38,0,0,14.48-6.52,13.28,11.34,4.58-.63,10.53,9.7-9.66,12.8,0,0,1,8-5.62,9.81h0c.19.56,7,20.48,5.41,30.58-1.65,10.25-6.17,13.72-6.17,13.72s4.52,15.07-8.29,57.41-18.54,54.4-38.28,87.55-39.86,57.07-55,67.19-41.86,16.29-77.57,6.27-97.72-54.16-140-129.21"/><path class="cls-4" d="M861.47,1206.3a128.32,128.32,0,0,0,21.69-4.64"/><path class="cls-10" d="M946.22,1216.27s13.53-1,15-14.31-24.15-2.69-27.56,8.8,14,10,7.61-15c-5.23-20.53-21.47-6-12.4,12.4-24.09-11.93-34.61,20.27-.7,10.23-21.6,12.24-3.31,43.09,6.12,4.77,6.49,31.46,36.79,15.3,8.79-1.78"/><path class="cls-10" d="M1077.71,1289.89s1.62,13.47,15,14.37,1.59-24.25-10.05-27.13-9.39,14.43,15.32,6.92c20.27-6.16,5.06-21.73-13-11.82,10.81-24.6-21.83-33.65-10.25-.24-13.21-21-43.2-1.34-4.49,6.33-31.13,7.92-13.6,37.45,2.18,8.7"/><path class="cls-10" d="M1236.7,1192.46s-2-13.41-15.39-13.93-.88,24.29,10.84,26.83,9-14.69-15.52-6.47c-20.08,6.75-4.43,21.87,13.29,11.44-10.09,24.91,22.8,33,10.26-.06,13.82,20.62,43.22.07,4.3-6.46,30.88-8.83,12.5-37.83-2.43-8.63"/><path class="cls-10" d="M950.3,1046.88s11.68,6.9,20.52-3.16-18.29-16-27.65-8.51,5.75,16.22,14.81-8c7.43-19.84-14.18-17.23-17.26,3.1-13-23.54-40-3.12-6.42,8-24.72-2.28-27.32,33.49,2.3,7.41-12.63,29.53,21.47,33.57,8.23,3.56"/><path class="cls-10" d="M951.56,1388.07s-6.85-11.71-19.47-7.2,8.22,22.87,20,20.87,2.85-17-16.81-.23c-16.13,13.73,4,21.95,16.59,5.68-.1,26.88,33.44,22.16,9.5-3.87,20.5,14,40.14-16,1.59-7.6,25.39-19.68-2.46-39.77-5.47-7.11"/><path class="cls-10" d="M1186.88,1370.3s8.53-10.55-.14-20.76-18.49,15.77-12.45,26.12,16.89-3.33-5.72-15.81c-18.54-10.24-19.11,11.51.55,17.53-25.18,9.4-8.92,39.11,7,7.52-5.86,24.12,29.15,31.9,7.67-1.19,27.38,16.8,36.33-16.35,4.72-7.62"/><path class="cls-10" d="M1418.26,1083.94s13-4,11.51-17.27-24.15,2.7-24.94,14.66,15.85,6.7,4.12-16.3c-9.62-18.87-22.28-1.17-9.36,14.83-26.12-6.32-29.29,27.4,1.57,10.13-18.37,16.7,6.28,42.76,7,3.31,13.27,29.25,39.26,6.81,8.18-3.67"/><path class="cls-10" d="M1306.83,1275.6s-10,9.21-2.86,20.56,20.57-12.94,16.08-24.05-17.19.86,3.38,16.47c16.87,12.8,20.57-8.64,2-17.43,26.27-5.67,14.46-37.41-5.82-8.44,9.27-23-24.25-35.77-7.76.08-24.67-20.57-38.31,10.94-5.77,6.86"/><path class="cls-4" d="M1092.58,769.54s32.63-18.14,40-26.62"/></svg>