<svg id="Layer_1" data-name="Layer 1" xmlns="http://www.w3.org/2000/svg" xmlns:xlink="http://www.w3.org/1999/xlink" viewBox="0 0 2267.72 1700.79"><defs><style>.cls-1,.cls-13,.cls-14,.cls-16,.cls-17,.cls-3,.cls-6,.cls-9{fill:none;}.cls-10,.cls-12,.cls-13,.cls-2,.cls-4{opacity:0.5;}.cls-3{stroke:#f06082;}.cls-13,.cls-14,.cls-16,.cls-17,.cls-3,.cls-6,.cls-9{stroke-linecap:round;stroke-linejoin:round;}.cls-14,.cls-16,.cls-17,.cls-3,.cls-6,.cls-9{stroke-width:2px;}.cls-15,.cls-3{opacity:0.75;}.cls-4,.cls-7{fill:#63cdf6;}.cls-5{fill:#fcc9a1;}.cls-6{stroke:#2c2f53;}.cls-11,.cls-7{opacity:0.25;}.cls-8{fill:#0d1536;}.cls-13,.cls-9{stroke:#505c7b;}.cls-10,.cls-11{fill:#f06082;}.cls-12{fill:#505c7b;}.cls-13{stroke-width:3px;}.cls-14{stroke:#54c3e5;}.cls-15,.cls-21{fill:#dc6437;}.cls-16{stroke:#dc6437;}.cls-17{stroke:#fff;}.cls-18{fill:#2c2f53;}.cls-19{fill:#fff;}.cls-20{clip-path:url(#clip-path);}.cls-21{opacity:0.3;}</style><clipPath id="clip-path"><path class="cls-1" d="M924.83,715.26l174.69,13.27-2.21,24.93S1071,749,1070,750.84s-.42,11.93,8.43,13.8,21.42,2.84,21.42,2.94-.61,16.17-.61,16.17-36.67-6.17-38.28-5.37-2.62,11.45,9.24,15.67c0,0-6.23,19.5,11.66,21.31-.81,12,.66,20.55,7.24,21.11l-.8,8.24L921,832.86Z"/></clipPath></defs><title>Pria dan wanita saling bertukar kado</title><g class="cls-2"><path class="cls-3" d="M880.21,756.55s8.08-.6,9-8.55-14.43-1.61-16.47,5.26,8.36,6,4.55-9c-3.12-12.27-12.83-3.62-7.41,7.41-14.39-7.13-20.69,12.11-.42,6.11-12.91,7.32-2,25.75,3.66,2.85,3.88,18.8,22,9.14,5.25-1.06"/><path class="cls-3" d="M810.28,753.68s.07,8.11,7.95,9.53,2.55-14.3-4.17-16.78-6.53,7.95,8.64,5.12c12.44-2.32,4.45-12.57-6.91-7.88,8.05-13.9-10.74-21.43-6.07-.82-6.46-13.36-25.57-3.65-3.09,3.46-19,2.64-10.56,21.34.72,5.31"/><path class="cls-3" d="M684.87,668.69a42.71,42.71,0,0,0,4.17,1.54"/><path class="cls-3" d="M692.7,677.59s.07,8.11,7.95,9.53,2.55-14.3-4.17-16.78-6.53,7.95,8.64,5.12c12.44-2.32,4.45-12.57-6.91-7.88,8.05-13.9-10.74-21.43-6.07-.82-3-6.29-8.89-7.47-11.88-6.21"/><path class="cls-3" d="M754.59,776.62s8.08-.6,9-8.55-14.43-1.61-16.47,5.26,8.36,6,4.55-9c-3.12-12.27-12.83-3.62-7.41,7.41-14.39-7.13-20.69,12.11-.42,6.11-12.91,7.32-2,25.75,3.66,2.85,3.88,18.8,22,9.14,5.25-1.06"/><path class="cls-3" d="M647.54,874.11s3.59,7.27,11.3,5.12-3.93-14-11.06-13.29-2.42,10,10,.85c10.2-7.5-1.47-13.25-9.65-4.09,1.2-16-19-14.62-5.83,1.91-11.63-9.22-24.61,7.84-1.27,4.46-16,10.65-.22,23.81,3,4.47"/><path class="cls-3" d="M691.36,927.18s3.59,7.27,11.3,5.12-3.93-14-11.06-13.29-2.42,10,10,.85c10.2-7.5-1.47-13.25-9.65-4.09,1.2-16-19-14.62-5.83,1.91-11.63-9.22-24.61,7.84-1.27,4.46-16,10.65-.22,23.81,3,4.47"/><path class="cls-3" d="M632.94,952.91s-7.35-3.43-12,3.07,11.81,8.45,16.94,3.45-4.36-9.31-8.34,5.6c-3.26,12.23,9.43,9.42,10.09-2.85,9.08,13.25,24-.47,3.35-5.13,14.84-.08,14.3-21.51-1.8-4.28,5.8-18.3-14.72-18.72-5.1-1.64"/></g><path class="cls-4" d="M983.79,567.93c-21.27-6.26-19.68-21.28,5.4-14.38,0,0-2.37-11.07,6.39-12.47,6.51-1,11.24,9.2,11.24,9.2s1.65-12.13,10.71-12.13c6.53,0,3,18.8,3,18.8s8.44-7.9,13.11-5.52c5,2.53,1,10,1,10s9.63-2.17,11.86,4.54-19.17,12.41-19.17,12.41l-14.19-7Z"/><path class="cls-5" d="M991.68,669.8s-2,33.7,13,41.54l-2.14,15,41,2.14s13-14.8,14.44-17.47,15.33-41,13.73-46.06-6.24-40.73-6.77-44.14L1046.06,673Z"/><path class="cls-6" d="M1029.66,712c-1.25-12.88,5.69-25.41,9.24-30.86"/><path class="cls-4" d="M1052.4,586.78,1041.18,581l-29.93,81.83-25.86-.49c-8.42-5.36-15.15-9.63-15.15-9.63l1.11-6.35,1.24-7.15,3-17.33,4.21-24.22,5.76-33-15.95-1.66-4.71,40.47-2.84,24.4-1.53,13.17-.87,7.5-.46,3.93,15,9.64-14.91-.28c4.33,2.37,8.86,4.85,12.89,7l12.95.27,10.42,6.69c3.52.21,7.67.46,12.05.74-3.35-2.17-7.23-4.66-11.2-7.2l25,.53Z"/><path class="cls-5" d="M1013.86,1354.35s-21.94,1.16-43.31,26.55c0,0-66.77-23.47-91.77-74.64a251.75,251.75,0,0,0,7.19-28.68,78.2,78.2,0,0,0,1.36-13c0-.91,0-1.78-.09-2.6-.71-8.74-11.11-43.51-19-69.05-5-16.06-9-28.47-9-28.47,24.68-.69,66.07-15.94,66.07-15.94s.09,3.66.71,11c.68,7.91,1.94,20.1,4.33,36.62,3.24,22.38,5,50.24,7,67.15a100.74,100.74,0,0,0,1.82,11.13,13.47,13.47,0,0,0,1.16,3.27C944.17,1284.33,987.76,1335.5,1013.86,1354.35Z"/><path class="cls-5" d="M1137.31,1337.77c-28.21-5.14-47.47,16.72-59.63,9.52-7.89-4.67-30.84-42.18-40.12-60.2-6.91-13.42-10.73-21-20.25-27.57.68-3.55,2.3-12.18,2.65-15.47a47.44,47.44,0,0,0,.13-10.43c-.06-.48-.11-1-.18-1.47-2.32-18.57-9.93-49.05-15.63-64.13-.07-.16-.13-.32-.19-.48-.2-.52-.4-1-.57-1.55a127.63,127.63,0,0,1-6.51-30.07c19.46.37,47.56-2.83,66.65-12.95.31.91.93,5.95,1.8,13.87,0,.1,0,.2,0,.3,1.19,10.79,2.8,26.78,4.66,44.89a436.72,436.72,0,0,0,6.94,46.4c1.26,5.8,2.54,10.73,3.81,14.78.5,1.6,1,3.07,1.5,4.38,4.32,11.53,16.25,35.18,25.89,49.52C1115,1307,1128.76,1326.55,1137.31,1337.77Z"/><path class="cls-7" d="M945,1128.94c11.29,14.48,49.79,37.43,64,37.55,0,0-7.16-22.19-6.58-30.58H984l-8.75-38.44S968.76,1112.15,945,1128.94Z"/><path class="cls-6" d="M736.94,611.36c-9.76-31.88-18.5-86.91-5.46-122.15"/><path class="cls-8" d="M759.39,632.94c-16.22-27.64-21.25-34.63-25.73-71s-2-83.33,6.71-115.49,31.32-66.84,62.08-66.84c0,0,24.61-8.11,42.79-1.4s45.3,26.29,54,64.32S909.84,496.25,911,545.74s5.54,69.63,5.54,69.63l-24,35.57c-5.54,2.26-17.82,1.86-18.52-.2-2.59-7.63-5.47-21.89-7.88-39.18l-11.92.47L836,616Z"/><path class="cls-9" d="M813.65,396.5c-23,45.54-71.74,66.8-79.51,83.14"/><path class="cls-9" d="M751.8,476c19.71-5.26,75.66-26.28,108.32-70.21"/><path class="cls-9" d="M867.48,416.1c2.49-8.43,2.37-19.28,1.16-24.08"/><path class="cls-9" d="M745.41,510.81c-3.18,31.35,8.63,81.69,23.4,95.47"/><path class="cls-9" d="M844.22,565.78c.68,19.31,0,52.85,0,52.85"/><path class="cls-9" d="M854.22,554.88c2,23.4,0,42.62-4.09,51.41"/><path class="cls-9" d="M866.12,579.64a280.53,280.53,0,0,0-1.1,31.72"/><path class="cls-9" d="M879.65,506.35c-1.44,28.92-2.54,50.65-3.09,77.13s0,49.48,4.56,62.63"/><path class="cls-9" d="M897,635.15c.91-26.11.91-68.29-.91-98.6s-7.3-73.4-9.68-89.11-13.2-37.55-13.54-41.69"/><path class="cls-5" d="M866.12,532.18s8.13-2.5,12.89-5.38l.64-20.45S874.76,507.78,866.12,532.18Z"/><path class="cls-5" d="M835.09,582.73c0,2.35-.22,13.3,0,21.39,0,1.06.08,2.07.13,3,.17,3.1.43,5.38.84,5.91l23.62-1.22s.85,39.15,9.75,80.15c0,0-98.55,3.9-120.61,4.76,0,0-.47-40.88-17.33-80,0,0,8,.52,11.6,0s18.63-11.11,19.62-14.4c0,0,.68-44.3-1.74-52.09,0,0-4.54-9.75-11.22-33.69,0,0-13.3-1.19-18.63-12.71s-.41-28.77,7.39-29.27c7.12-.45,9.76,7.39,9.76,7.39s57.28-14.15,79.2-26.9,38.53-34.09,40-39c0,0,12.89,34.52,12.17,90.24,0,0-9.07,24-16.27,41.9-3.34,8.33-14.1,25-28.28,34,0,0,0,.14,0,.41Z"/><path class="cls-5" d="M645.71,818c0-.1,33.47-23.8,79.28-36.43l7.74,20.11s9.65-10.15,31-23.1,92.14-68.28,107.37-88.58,27.09-63.47,28.68-71.07c1.3-6.21,6.37-7,11.44-10.15s40.55-30,44.12-32.86,5.26,1.13,5.07,5.26-.94,6.76-2.63,9S938,608.16,935,613c0,0,24.22-10.89,53.51-21,1.92-.66,4.51,10-3.19,14.27,0,0,6.38,9.39-.56,14.46S942,640.45,942,640.45s28.91-5.07,38.3-5.82,15.77-2.44,14.08,2.07-4.32,10-10.33,10.89-35.57,5.72-40.08,8c0,0-6.3,48.35-39.53,55.86,0,0-18.4,20.09-47.12,69.09,0,0-12.19-11.7-13.5-12.83,0,0-40.42-1.1-69.52,39.08l-45.4,109.87s-28.85-7.71-50.5-33.79C657.27,857.41,646.72,820.88,645.71,818Z"/><path class="cls-7" d="M1077.09,599.4l-28.42,80s-22.68-1.56-41-2.73c-4.38-.28-8.53-.54-12.05-.74-6.47-.39-10.88-.6-10.91-.48s-5.48-2.71-12.46-6.48c-4-2.18-8.56-4.66-12.89-7-9.37-5.13-17.74-9.76-17.74-9.76s8.82-1.76,18.1-3.54c4-.77,8.17-1.55,11.68-2.19,4-.72,7.17-1.26,8.6-1.41,5.63-.6,11.55-6.84,10.34-7.9-.42-.37-8,.71-17.7,2.16l-12,1.84c-15.91,2.44-32.22,4.85-32,3.74.24-1.44,19.61-10.57,33.57-16.92,6.52-3,11.86-5.32,13.53-6l.08,0c4.86-2,12.31-4.4,6.38-17.18,0,0,6.74-3,5.63-8.5-.16-.83-3.21-.1-7.87,1.51-4,1.41-9.28,3.49-14.9,5.81-16.5,6.83-36.25,15.77-38.18,16-3.35.4,17.93-21.95,24-26.81s8.07-13.83,6.16-13.68-27.29,20.37-27.29,20.37l7.44-39.71,32.56,3.37,15.95,1.66,29.63,3.07,26,13.27,11.22,5.74Z"/><path class="cls-10" d="M903.28,767.78c-5.72-12.56-14-43.33-14-43.33S900,709.89,903.7,707.2c0,0,27.39-1,39-55.1,0,0,1.54,1.26,9.87,15.79,8.89,15.51,25.15,35.42,22.79,54.32l-43.57-1.62L930.53,749C923,749.81,911,759.07,903.28,767.78Z"/><path class="cls-11" d="M736.24,617.15c6.77,19.27,14.62,48.44,15.92,75.47L864.4,689s-6.41-48.19-9-77l16-.63s1.86,26.85,6.83,36.16l8.68.83s-1.13,7.34-7.18,10.45c0,0,6.27,1.57,7.63,3.76s-7.63,30.94-41.71,56.66c0,0-4.81.31-8.89-7.84,0,0,.94,9.51-7.21,10.24s-11-5.23-12-9.2c0,0-.63,8.36-10,7.84s-10.56-9.83-10.56-9.83-1.67,13.17-9,13.28S776.24,714,776.24,714s-.84,9.41-6.69,9.72-9.41-10-9.41-10,.1,9.72-7.63,10.77-8-12-8-12-9.52,8.31-15.47,3.14c-4.81-4.18,3.14-16.62,5.85-18.19,0,0-9.2,4.39-13.38,1.78s3.76-12.65,5.85-13.9c0,0-11,.52-12.86-4s3.45-11,7.32-14.53c0,0-9,2.39-11.81-6.17-2.4-7.42,5.33-13.69,5.33-13.69s-6.9-.52-8.47-5.54,6-11.6,12.34-11.6c0,0-17.13-.71-19.44-10.45-2-8.36,12.23-10.14,23.17-2.13Z"/><path class="cls-5" d="M628.17,628.31s-2.94-15.15-2.78-17,7.73-6.86,9-7.94,11.36.31,11.36.31c-.23-2.47,3.48-10.05,5.18-11.13s18.55-.93,20.1,0S683.52,605.12,686.3,609,693.73,619,693.73,619H681.36a53.91,53.91,0,0,1,4,8.66c.93,3.25-1.39,9.43-4.17,11.29s-10.36,1.86-10.36,1.86c2,7.42-1.39,10.51-2.47,12.37s-7,2.16-9.12.93S635,637.28,634.51,637.28s11.91,15.77,14.23,17.94,2,6.8,2.16,10.51-2,7-4.33,7.42-8.35-3.56-8.35-3.56v8.2a5.72,5.72,0,0,1-6.18,5.88c-2-.31-20.32-9.9-25.67-14.07-4-3.11-1.73-20.62,0-22.33s7.82-4.38,7.82-4.38-1.33-7.23.19-8.95,6.09-5.52,8.19-5.71A43.78,43.78,0,0,1,628.17,628.31Z"/><path class="cls-3" d="M680.14,616.83c11.09-.43,23.73.32,23.73.32"/><path class="cls-6" d="M670.19,600.75c4.92,6.68,11.17,18.28,11.17,18.28"/><path class="cls-6" d="M645.71,603.73c1.28,6.23,2.5,8.55,3.22,9.82s21.91,27.29,21.91,27.29"/><path class="cls-6" d="M628.06,627.77c1.42,4.91,3.35,6.68,6.44,9.51"/><path class="cls-6" d="M614.18,642.89c2,9,4.05,14.27,5.21,15.42s18.82,11.29,18.82,11.29"/><path class="cls-3" d="M611,805.4c6,34.18,16,89.06,15.37,128.89,0,0-13.45,12.7-13.17,22.27S623,971,620.43,980.38c-2,7.26-7.65,14.7,1.57,23.21,8,7.37,9.72,6,19.13-1.25s39.83-29.16,60.52-34.5"/><path class="cls-10" d="M607.17,665C602.71,672.41,587,728.6,595.7,765.4s42.22,42.8,46.1,42.22,20.72-14.14,48.23-24.79,30.8-11,30.8-11,11.23-10.07,5.23-26.34-30-55-39.32-73.21S668.79,644,668.79,644s-3,7.69-6.08,6.72-30.52-17.79-30.52-17.79-.3,9.64,3.57,13.32a59,59,0,0,1,9.91,12.41c1.74,3.29,1.94,10.27,0,10.65s-12.4-5.23-12.4-5.23,2.52,13.56,1,15.11S607.17,665,607.17,665Z"/><path class="cls-12" d="M1242.11,1384.37c-22.48,3.09-45-19.21-53-29.09-9-11.19-13.37-26.26-12.88-53.24s9.72-39.87,12.88-50.81.73-26-3.4-32.58-3.89-23.58-2.68-28.2c.56-2.15,5.95-4.09,12.6-5.5a119.84,119.84,0,0,1,8.34,32.36c1.23,10,1.87,18.82-.55,27.77-4.51,16.63-14.53,33.53-15.29,58.12C1187.15,1336.79,1204.38,1373.84,1242.11,1384.37Z"/><path class="cls-13" d="M1291.75,1265.08s-17,21.4-20.18,28.2-6.08,17-7.54,28-9.48,58.82-13.12,60.51a30,30,0,0,1-8.8,2.6c-22.48,3.09-45-19.21-53-29.09-9-11.19-13.37-26.26-12.88-53.24s9.72-39.87,12.88-50.81.73-26-3.4-32.58-3.89-23.58-2.68-28.2c.56-2.14,5.95-4.09,12.6-5.5,7.7-1.62,17.09-2.51,22.7-2.13"/><path class="cls-12" d="M1622,1384.71c-2,12.59-22.8,33.51-43,42.87s-29.78,12.59-44.57,15.31-30.49-1-39.13-2.55c-14.8-2.72-30.45-8.5-37.77-6.12s-19.94,7.71-30.62,6.63c-14.54-1.46-20.13-6.4-24.55-11.52h0s19.93.47,29.12-2.77,38.81-13.1,58.54-6.29,58.87,9.94,82.86-2.34c21.76-11.15,40.72-27.72,47.63-43.4A18.24,18.24,0,0,1,1622,1384.71Z"/><path class="cls-5" d="M1341.19,1308.3c1.25,0,39.15-24.53,56.09-46l34.14,48.56s-21.33,4.63-28.89,21.92c-5.23,12,14.7,23.91,14.7,23.91s-28.79,18.35-31.77,15.61-12.31-17.6-20.78-20.34c0,0,3.74-14.7-2.74-21.42S1341.19,1308.3,1341.19,1308.3Z"/><path class="cls-14" d="M1042.14,581.23c6.16-21.84,10.19-36.09,13-43.08"/><path class="cls-14" d="M1006.82,529.85c.79,9.82,1.6,19.21,1.6,19.21"/><path class="cls-5" d="M1124.84,761.86c9.83,32.74,26.62,73.25,28.86,73.47s12.31-2.46,12.31,18.58-1.73,28.46-6.43,33.16c0,0-19.31-7.64-24.91-7.64s-14.3-.1-19-4.92c-7.09-7.36-14.8-30.44-19.41-36.93C1097.19,826,1124.84,761.86,1124.84,761.86Z"/><path class="cls-5" d="M1070.55,746.73c9.32.51,44.5,5.42,49.54,6.84s5.8,14.58,5.42,17.67-5.29,11.74-5.29,11.74,5.8.9,7.35,5,2.19,10.06-3.22,16.38c0,0,1.93,3.1,1.81,9.42s-2.32,10.71-9.67,10.84c0,0,6.32,2.45,6.84,9.42s-5.8,9.93-7.74,10.06-29-1.42-33.67-6.32-5.29-12.88-4-18.24c0,0-17.16-1.75-14.71-23.43,0,0-8.9-3.87-9-13.93s3.35-10.19,6.45-9.67,35.69,5.69,35.69,5.69l.27-7.23s-21.14-1.09-27.32-6.33C1063.33,759.63,1058.81,746.09,1070.55,746.73Z"/><path class="cls-6" d="M1127.12,787.08a5.75,5.75,0,0,1,.45.93c1.55,4.13,2.19,10.06-3.22,16.38,0,0,1.93,3.1,1.81,9.42s-2.32,10.71-9.67,10.84c0,0,6.32,2.45,6.84,9.42s-5.8,9.93-7.74,10.06"/><path class="cls-6" d="M1096.31,778.22a191.7,191.7,0,0,1,23.91,4.76"/><path class="cls-6" d="M1096.58,771c5.11.33,19.14,4.13,19.14,4.13"/><path class="cls-6" d="M1063.2,796.14c10.11,1.24,48.62,4.73,54.53,4.83"/><path class="cls-6" d="M1077.9,819.57c11.86,1.45,35.84,4.49,38.57,5.08"/><path class="cls-15" d="M964.16,371.47c-5.06-6.29-10.53-19.42-11.35-23.8s-2.87-30.23-1.23-34.19,8.48-16.82,8.75-18.87,13.13-37.2,47-21.75c0,0,3.83-13.27,27.08-15.73s27.76,17.51,47.32,22.57,30.5,5.61,30.5,5.61,11.35,7.93,10.12,21.88-4.65,22-5.61,27.63c0,0,5.79,2.05,5.7,9.3S1120.63,365,1116,373s-7.8,23-7.8,23Z"/><path class="cls-16" d="M954.33,321.25a23.71,23.71,0,0,0,24.27,13"/><path class="cls-16" d="M960.33,294.61c-1.29,13.56,1.89,35.12,24,30.53"/><path class="cls-16" d="M978.6,304.16c.94-10.13,7.31-12.37,12.84-11.43s18.15,18.38,40.65,32.29"/><path class="cls-16" d="M1013.86,276.12c9.17-.47,12.23,7.88,15.18,18.49s11.55,27.11,27.22,28.88,20.62-5.66,20.62-9.78-6.72-6.56-10.25-3.52c-7.66,6.58,9.54,33.45,46.55,54.57"/><path class="cls-16" d="M1116.8,334.82c-10.76-.89-17-8.09-25-17.93-18-22.28-22.84-51.47-54.28-52.13"/><path class="cls-5" d="M1122.07,385.73c-3.58,7.8-23,22.78-23,22.78s-1.69,16-2.53,21.3-7,12.23-7,12.23,2.22,41,1.8,44.81-15.7,21.62-17.56,24.16c-.49.69-72.6,1.26-72.6,1.26s-5-12.77-6.68-19.62c-.2-.78-.35-1.48-.44-2.07-.19-1.19-.67-3.38-1.3-6.08-2.4-10.28-7.07-28.19-7.28-29h0v0h0a131.17,131.17,0,0,1-8.17-10.76h0a15.27,15.27,0,0,1-2-3.91c-.89-3.7-5.78-31.62-5.78-31.62s-4.21-2.56-8.93-10.21-6.89-28.46-3.07-32.66,9.79,1.87,10.08,2.16h0s-.13-1-.11-6.91c0-2.35,0-5.48.11-9.61v-.18c.25-14.81,8.17-30.11,13.27-38.53s17.48-13.66,20.33-11.36,20.89,17.6,32.75,21.56,34.2.63,34.2.63c5.62,11.23,25.78,29.35,25.78,29.35.24,25.29,3.57,34.68,5.86,38.16,1.23,1.87,2.17,2,2.17,2l1.11-23.7c2.11-2.53,10-8,16-3.38C1123.48,369.87,1125.66,377.93,1122.07,385.73Z"/><path class="cls-3" d="M630.44,1008.48S625,1082.68,645,1115.08s52.05,51.32,96.46,52.42,76.8-21.11,88.82-49.14"/><path class="cls-6" d="M710.64,844.48c.19-11.23,9.52-30.12,22.1-42.86"/><path class="cls-6" d="M928.52,631c19.49-9,56.83-24.69,56.83-24.69"/><path class="cls-6" d="M935,613c-8.34,3.31-18.54,7.75-18.54,7.75"/><path class="cls-3" d="M660.46,1080.5c30.12-94.61,102-263.51,111.06-278.87,16.8-28.34,65.72-42.08,76.19-35.25,23.56,15.36,37.66,38.5,40,44.49,2.25,5.83,2,13,4.63,32.31s12.16,60.58,15.74,77.51,17.89,89.2,27.19,232.3c0,0-9.79,1.58-26.89,7.4s-37.27,12.31-64.63,9.92c0,0-26-108.4-34.88-142.26s-21.2-129.26-23.6-131-10.6,4.1-10.6,0,5.36-6.69,2.05-11.28c-3.89-5.39-17.1-24.62-17.1-24.62"/><path class="cls-3" d="M790.75,1157.69c11.14,8.61,40.46,8.41,50.68,3"/><path class="cls-10" d="M880.6,1300.16c-3.46,11.69-10.86,37.58,1.86,56.76s40.43,24.73,54.08,33.29,39.31,24.27,64.27,24.73,46.46-6.93,45.54-27.28-25.57-26.89-37-36.75c0,0-23.11-1.62-40.45,21.26C968.9,1372.18,913.43,1358.54,880.6,1300.16Z"/><path class="cls-11" d="M939.17,1274.52c-7.55,1.49-24.08,3.84-53.21,3.06a78.19,78.19,0,0,0,1.36-13c11.42-.35,37.53-1,50-1.23A100.75,100.75,0,0,0,939.17,1274.52Z"/><path class="cls-3" d="M875.37,791.76c-.28-.35,35.74-46.47,54.33-46"/><path class="cls-3" d="M1013.86,834.23c9.56,30.63,27.89,109.17,34.17,142.68s30.37,146.35,30.37,146.35-40.32,24-98.7,18c0,0-20.16-89-25.92-111.22s-17.8-56.29-26.44-73.57S915,908.84,910.85,827.94"/><path class="cls-3" d="M972.58,1110c-4.39,7.8-21.54,23.9-38.52,25.87"/><path class="cls-11" d="M1080.92,1243.21c-13.15,1.17-40.77,3.09-60.94.84a47.44,47.44,0,0,0,.13-10.43c-.06-.48-.11-1-.18-1.47,15.13-.78,42.92-2.32,57.18-3.72C1078.37,1234.22,1079.65,1239.16,1080.92,1243.21Z"/><path class="cls-10" d="M1137.47,1388.84c-24,11.29-49.35-3.76-62.66-23.52s-22.25-33.87-38.48-41.16-21.24-13.91-22.48-30.34c-1.07-14.28,2.22-27.62,4.5-39.53,9.51,6.6,14.45,14,21.37,27.38,9.28,18,32,55.12,39.85,59.79,12.16,7.2,26.47-12.77,54.69-7.63a127.34,127.34,0,0,0,9.56,11.51C1151.58,1353.09,1161.46,1377.55,1137.47,1388.84Z"/><path class="cls-6" d="M836.11,582.5c-12.08,6.78-20.83,7.23-27.68,5.94-10.19-1.92-26.53-13.19-38.83-27A91.45,91.45,0,0,1,761,550.23"/><path class="cls-6" d="M749.79,516.54A142,142,0,0,1,748.31,482"/><path class="cls-17" d="M754.79,450.31C758.49,464,766,478,767.38,476.87s-4.79-28.86-4.29-29.36,12.69,25.77,12.69,25.77"/><path class="cls-8" d="M859.63,478.88c1.75-3.7,5.81-5.8,7.13-6.35s14.7,2.74,16.34,7.57l-1,3.84A34.07,34.07,0,0,0,859.63,478.88Z"/><path class="cls-8" d="M808,456.76c9.21,1.5,19.68,5.49,21.92,7.27,1.69,1.34,2.38,8.44,2.38,8.44s-10.39-7.57-32.87-9.39Z"/><circle class="cls-18" cx="807.83" cy="491.73" r="4.82"/><circle class="cls-18" cx="861.3" cy="501.52" r="4.82"/><path class="cls-6" d="M820.67,531.36c7.66,4,16.05,6.59,19,6.38s7.55-5.56,7.55-5.56"/><path class="cls-6" d="M797.49,483.94c1.49,5.42,9.14,6.69,9.14,6.69"/><path class="cls-6" d="M862.88,499.78c4.15.43,8.19-1.16,9.46-3.08"/><path class="cls-6" d="M839.7,537.74c1.92-11.79,2.45-33.21,2.67-36.21S856.47,481,856.47,481"/><path class="cls-6" d="M761,604.69c9.62,17,36.66,32.58,50.24,30.46s24.55-14.8,26.26-22.18"/><circle class="cls-19" cx="816.86" cy="643.28" r="10.12"/><path class="cls-18" d="M839.7,551.36c-8.74,9.79-14.87,12.55-14.87,12.55s-7.26,2.74-14.75-3.06c-4.6-3.57-6.59-9.59-7.28-14.16-.56-3.73-.26-6.5.21-6.19.85.55,17.1,5.48,29.19,8.83C835,550.12,837.58,550.83,839.7,551.36Z"/><path class="cls-19" d="M832.19,549.34c-.94,2.2-2.49,5.05-4.28,5-1.38,0-14.87-2.6-25.12-7.69-.56-3.73-.26-6.5.21-6.19C803.85,541.05,820.1,546,832.19,549.34Z"/><path class="cls-12" d="M924.83,715.26l174.69,13.27-2.21,24.93S1071,749,1070,750.84s-.42,11.93,8.43,13.8,21.42,2.84,21.42,2.94-.61,16.17-.61,16.17-36.67-6.17-38.28-5.37-2.62,11.45,9.24,15.67c0,0-6.23,19.5,11.66,21.31-.81,12,.66,20.55,7.24,21.11l-.8,8.24L921,832.86Z"/><g class="cls-20"><path class="cls-17" d="M992.74,773.06c-8.21-6.17-12.31-18.66-6.34-20.6,5-1.64,7.27,10.34,7.27,10.34s2.72-12.44,10.44-8C1009.34,757.75,1003.74,769.69,992.74,773.06Z"/><path class="cls-17" d="M1034.35,754.68c9.15-4.65,15.35-16.25,9.81-19.2-4.68-2.49-9,8.93-9,8.93s-.53-12.72-8.9-9.71C1020.64,736.74,1024.09,749.46,1034.35,754.68Z"/><path class="cls-17" d="M1054.56,808c9.15-4.65,15.35-16.25,9.81-19.2-4.68-2.49-9,8.93-9,8.93s-.53-12.72-8.9-9.71C1040.85,790.07,1044.3,802.79,1054.56,808Z"/><path class="cls-17" d="M1071.29,848.38c9.15-4.65,15.35-16.25,9.81-19.2-4.68-2.49-9,8.93-9,8.93s-.53-12.72-8.9-9.71C1057.58,830.44,1061,843.17,1071.29,848.38Z"/><path class="cls-17" d="M1024.62,796.14c9.15-4.65,15.35-16.25,9.81-19.2-4.68-2.49-9,8.93-9,8.93s-.53-12.72-8.9-9.71C1010.91,778.2,1014.36,790.92,1024.62,796.14Z"/><path class="cls-17" d="M1034.35,834.68c9.15-4.65,15.35-16.25,9.81-19.2-4.68-2.49-9,8.93-9,8.93s-.53-12.72-8.9-9.71C1020.64,816.74,1024.09,829.47,1034.35,834.68Z"/><path class="cls-17" d="M1079.67,752.14c9.15-4.65,15.35-16.25,9.81-19.2-4.68-2.49-9,8.93-9,8.93s-.53-12.72-8.9-9.71C1066,734.2,1069.42,746.92,1079.67,752.14Z"/><path class="cls-17" d="M974.11,742.59c-8.21-6.17-12.31-18.66-6.34-20.6,5-1.64,7.27,10.34,7.27,10.34s2.72-12.44,10.44-8C990.71,727.29,985.11,739.23,974.11,742.59Z"/><path class="cls-17" d="M946.3,793.26C938.1,787.1,934,774.6,940,772.66c5-1.64,7.27,10.34,7.27,10.34s2.72-12.44,10.44-8C962.9,778,957.31,789.9,946.3,793.26Z"/><path class="cls-17" d="M946.3,840.33c-8.21-6.17-12.31-18.66-6.34-20.6,5-1.64,7.27,10.34,7.27,10.34s2.72-12.44,10.44-8C962.9,825,957.31,837,946.3,840.33Z"/><path class="cls-17" d="M983.64,824.46c-8.21-6.17-12.31-18.66-6.34-20.6,5-1.64,7.27,10.34,7.27,10.34s2.72-12.44,10.44-8C1000.24,809.16,994.64,821.1,983.64,824.46Z"/><path class="cls-17" d="M931,752.3c-8.21-6.17-12.31-18.66-6.34-20.6,5-1.64,7.27,10.34,7.27,10.34s2.72-12.44,10.44-8C947.63,737,942,748.93,931,752.3Z"/></g><path class="cls-6" d="M1126.55,879a37.26,37.26,0,0,0,15-7.65"/><path class="cls-4" d="M1153.7,835.33l36.45.11s7.52,35.17-6.36,58.89l-29.48-8.84S1167,852.09,1153.7,835.33Z"/><path class="cls-14" d="M1158,843.54c13.3-1.61,29.76,0,29.76,0"/><path class="cls-14" d="M1159.61,852.45c11.33.14,32.4-1.43,32.4-1.43"/><path class="cls-14" d="M1159.65,860.26c7.69-.45,32.54,2.68,32.54,2.68"/><path class="cls-14" d="M1163.73,867.65c8.31-1.41,27.43,4.37,27.43,4.37"/><path class="cls-14" d="M1158,872.47c6.5,4.6,23.35,10.52,31.18,9"/><path class="cls-14" d="M1188.37,839.21c-.48-9,1.54-15.94,6.25-22.68s17.42-3.34,25.09-4.86c16.62-3.29,50.33-41.39,92.67-10.82"/><path class="cls-14" d="M1262.79,909c16.14,2,43.29-1.4,65.33-10.86s37.09-18.31,43.14-39.88,4.66-36.16,6.21-45.31,5.74-23.9,0-31.81-16.6-11-18.62-18-16.91-42.67-20.79-53.23-30.57-81.31-34.91-94.66A291,291,0,0,0,1276.29,558c-12.41-19.86-33.36-42.52-82.71-59.43s-99-40.81-99-40.81"/><path class="cls-14" d="M901.66,499.85c6.94-3.5,69.26-30.23,85.08-30.69"/><path class="cls-14" d="M1219,612.29c-6.89,50.66-.41,90.37,6.89,116.31s17.81,50.53,32.61,64.17"/><path class="cls-14" d="M1261.68,791.73c.86-9.63,20.7-32,24.92-34"/><path class="cls-14" d="M1268.11,790.11c3.41-7.35,21.59-17.88,24.7-19.43"/><path class="cls-7" d="M1669,901.51c-7.53-30.58-29.95-45.38-34.93-48.87s-47.7-19.78-58.33-20.44-83.09,6.32-102,8.14-106.59,10.89-106.59,10.89c-10,34.73-37.5,41.79-69.91,49s-54.18,0-54.18,0c-6.81,15.16-33.3,38.84-45.92,49.61-14.41-18.55-28.37-34.9-39.16-44.09-31.41-26.72-80-40.14-124.53,29.16l39.51,185.65-14.4,7.29c4.32,34.4,5.76,50.61,5.76,50.61s11.89.18,35.48-8.64,60.51-30.62,60.51-30.62,45.93,41.26,67.56,64.47,108.5,117.6,108.5,117.6,12.23-7.53,21-12.54,46.41-35.16,55.82-54.43l-31.52-44.44c25-18.47,165.88-122.5,212.31-160.16,51-41.39,63.27-63.5,73.15-78.09S1676.54,932.09,1669,901.51Zm-347.7,223.16L1295,1087.55l96-29.16C1368.72,1084.49,1333.79,1114.29,1321.31,1124.67Z"/><path class="cls-14" d="M1051,1004.13c9.69,3.71,25.88,9.38,25.46,17s-2.47,8.76-2.58,15.67,4.12,8.45,10.52,7.73,16.91-2,17.11,9.07-2,20.62,5.36,21.75,7.94,2.89,8.66,8.25,2.78,9.79,11.44,20.52,28.3,30.52,33.33,35.06"/><path class="cls-14" d="M1391,1058.39c23.65-26,62.62-68.43,64.86-72.51s9.18-13.06,12.65-15.71,5.3-11,6.53-14.49,7.35-4.28,12.65-4.69,13.87-13.67,17.75-19.79,8.57-16.12,30.4-27.75,52-15.1,55.29-14.28"/><path class="cls-4" d="M1174.5,931.76s18.12,19.43,23.35,26.71c0,0,36.67-36.65,41.09-42.21a50.07,50.07,0,0,0,6.92-12.53l-30.08-6.15S1212.23,907.66,1174.5,931.76Z"/><path class="cls-14" d="M1178.9,892.86c8,2,48.05,13.16,68.22,14.71"/><path class="cls-14" d="M1185.59,924.42c5.28,8.24,12.6,16,16,17.92"/><path class="cls-14" d="M1191.16,920.5c6.24,10.73,15.37,20.1,21.85,23.19"/><path class="cls-14" d="M1200.93,918.42c5.23,9.93,12.94,16.07,16.08,17.12"/><path class="cls-14" d="M1205.49,909.17c7.72,11.73,12.3,17.61,16.87,20.23"/><path class="cls-14" d="M1211.93,902.87c5.34,9.93,14.87,19.73,21.08,20.45"/><path class="cls-14" d="M1226.58,904.41a27.3,27.3,0,0,0,9,10.22"/><path class="cls-13" d="M1593.9,1356.64s-29.77-3.4-41.68-5.1-41.17-7.32-65.5-15.77a197.62,197.62,0,0,1-44.06-21.83c-4.42-2.72-5.27-9.36-19.9-5.61a41.09,41.09,0,0,0-24.33,18c-2,3.4-4.42,11.74-2.21,18.37s11.74,12.42,11.74,12.42-7.32,1.53-10.89,4.59-10.55,2.55-10.55,2.55c-4.76-10.38-23.12-22.27-26.88-17-1.7,2.38-.17,8.51,7.83,24.33s28.92,50.32,28.92,50.32"/><path class="cls-13" d="M1400.13,1426.73c.71.87,1.42,1.74,2.16,2.61,4.41,5.12,10,10.06,24.55,11.52,10.69,1.07,23.31-4.25,30.62-6.63s23,3.41,37.77,6.12c8.64,1.59,24.33,5.28,39.13,2.55s24.33-6,44.57-15.31,41-30.28,43-42.87a18.24,18.24,0,0,0-1.53-10.19c-3.89-8.87-13.46-16.27-20.42-16.52"/><path class="cls-4" d="M1103.32,669.86l.72,8.46s59.84-1.62,74.68-5.86v-7.54S1126.88,668.92,1103.32,669.86Z"/><path class="cls-4" d="M985.51,455.48c5.57,5.81,10.66,26.89,11.38,32s6.78,17.93,8.24,27.61,1.7,14.78,1.7,14.78-17.2-5.34-22.29-23.5-2.66-32.94-1.94-39.24A49.42,49.42,0,0,1,985.51,455.48Z"/><path class="cls-4" d="M1055.15,538.15c7-18.81,15.55-29,21.47-37s9.77-12.29,9.63-16-.82-37.42-.82-37.42l4.16-5.68s3.33,1.89,8.81,15.68,9,26.38,4.89,47.11S1084.48,538.3,1055.15,538.15Z"/><path class="cls-14" d="M979.66,478.57c2.21-5.07,8.12-11.75,11.82-11.44"/><path class="cls-14" d="M985,486.72c2.07-6.21,7-9.47,9.79-8.94"/><path class="cls-14" d="M983.79,503.48a27.69,27.69,0,0,1,13.59-13.84"/><path class="cls-14" d="M989.19,516.33c1.33-10.2,5.8-18.61,10.48-19.77"/><path class="cls-14" d="M997.9,521.26c-.52-9.06,2.57-16.55,4.2-17.79"/><path class="cls-14" d="M1064.77,518c4,4.54,4,19.13,4,19.13"/><path class="cls-14" d="M1074,504.59c2.53,12.15,4.29,30.13,4.29,30.13"/><path class="cls-14" d="M1074.87,503.48s7.53.3,14.45,25.35"/><path class="cls-14" d="M1082.09,493.84c3.79,0,9.15,8.65,13.91,28.2"/><path class="cls-14" d="M1086.25,485.13c6.48.29,12.19,9.08,17,19.7"/><path class="cls-14" d="M1086.08,478.57c6.39-1.68,13.52.45,19,6.56"/><path class="cls-14" d="M1085.78,464.85c6-1.55,13.1,3.25,17.78,8.94"/><path class="cls-14" d="M1085.54,452.82c7.07-3,15.6,2.67,15.6,2.67"/><path class="cls-18" d="M1022.16,428.81c5.63-1.75,14.09-1.57,13.31-4.34S1030.19,422.44,1022.16,428.81Z"/><circle class="cls-18" cx="984.35" cy="388.65" r="5.31"/><circle class="cls-18" cx="1047.54" cy="389.66" r="5.31"/><path class="cls-15" d="M996,364c-2.45-.3-19.12-2.6-28.51-2.46,0-2.35,0-5.48.11-9.61a111.71,111.71,0,0,1,18.68.29C995.7,353.47,996,364,996,364Z"/><path class="cls-15" d="M1030.76,365.64c-1.76-6.76,3.06-12.5,6-13.24s15.23-1.2,28.75,1.67a31.68,31.68,0,0,1,19.54,12.5S1070.39,363.8,1062,364,1030.76,365.64,1030.76,365.64Z"/><path class="cls-6" d="M967.63,368.47c1.3,24.54,1.91,40.7,1.91,40.7"/><path class="cls-6" d="M1049.38,388.68c4.25-.06,9.2-2.75,9.72-4.33"/><path class="cls-6" d="M1085.44,447.71c-.66.76-1.46,1.64-2.37,2.62l0,0c-10.41,11.19-35.38,34.87-40.79,35.79-8.92,1.53-34.53-.62-36.24-1.64h0c-1.63-1-11-15.77-20.48-29h0l0,0"/><path class="cls-6" d="M1099.81,391.58c-.24,9.22-.73,16.93-.73,16.93"/><path class="cls-6" d="M1017.51,457.72c6.4,1.07,13.22-1.57,13.78-2.82"/><path class="cls-6" d="M1007.77,445c1.11,2.09,1.81,2.48,3.76,2.7s24.35-.61,30.76-4.37,6.12-4.31,6.12-4.31"/><path class="cls-6" d="M1000.19,424.22c2.92,3.92,5.23,6.54,9,6.94s9.16.2,10.36-.6,7.75-5.33,10.46-5.53"/><path class="cls-6" d="M993.77,362.4c8.09,5.55,13.28,12.48,13.41,14.45s1.07,39.69.59,54.06"/><path class="cls-6" d="M975,383.33c2.32,2.9,6,4.32,8.24,3.86"/><path class="cls-6" d="M1081,420.9c5.74-4.57,12.66-10.43,13.05-12.39"/><path class="cls-14" d="M1013.86,577.62c-5.44,24.2-19.75,72.1-19.75,72.1"/><path class="cls-14" d="M989.19,553.55c.82,6.91,5.41,12.95,8.65,9.83S989.19,553.55,989.19,553.55Z"/><path class="cls-14" d="M1006.82,551c-.71,8,.09,12.78,2.61,12.38S1008.54,553.11,1006.82,551Z"/><path class="cls-14" d="M1020.51,557c-4.13,4.1-5.84,6.82-4.23,8S1019.64,564.1,1020.51,557Z"/><path class="cls-14" d="M1034.6,561.41c-8.46,1-15.29,4.89-12.49,7.1C1024,570,1030.38,568.9,1034.6,561.41Z"/><polyline class="cls-14" points="956.16 652.47 989.19 653.15 1048.66 679.36"/><line class="cls-13" x1="1015.68" y1="733.61" x2="1010.33" y2="832.16"/><path class="cls-14" d="M1413.2,1254.29s-129.83-183-147.7-208.68S1189.37,932.46,1158,905.75"/><path class="cls-3" d="M641.79,807.62s2.29,6.07,5.93,15.6c0,0,45.59-29,78.88-38l-5.78-13.47"/><line class="cls-6" x1="870.44" y1="530.7" x2="878.5" y2="509.36"/><circle class="cls-21" cx="785.23" cy="519.26" r="20.09"/><path class="cls-18" d="M1083,450.36c-.68,1.31-15.38,32.48-26.67,44.62-4.79,5.16-38.86,11-51.72,2.06a41.5,41.5,0,0,1-11.85-12.54c-2.4-10.28-7.07-28.19-7.28-29,9.45,13.22,18.85,28,20.48,29h0c1.71,1,27.32,3.17,36.24,1.64C1047.66,485.22,1072.63,461.54,1083,450.36Z"/><path class="cls-18" d="M835.13,604.12c-3.94,2.76-9.44,5.28-14.46,5.54-25.59,1.37-51.07-48.25-51.07-48.25,12.3,13.85,28.83,24.31,38.83,27,8.3,2.26,15.89,0,26.66-5.77v0C835,585.08,834.88,596,835.13,604.12Z"/><line class="cls-6" x1="839.7" y1="551.36" x2="803" y2="540.51"/></svg>