<svg id="Layer_1" data-name="Layer 1" xmlns="http://www.w3.org/2000/svg" viewBox="0 0 2267.72 1700.79"><defs><style>.cls-1{fill:#e7a184;}.cls-17,.cls-19,.cls-2{fill:#63cdf6;}.cls-2,.cls-20,.cls-22,.cls-4,.cls-7{opacity:0.25;}.cls-15,.cls-3{fill:#2c2f53;}.cls-10,.cls-11,.cls-14,.cls-16,.cls-18,.cls-21,.cls-22,.cls-5{fill:none;stroke-linecap:round;stroke-linejoin:round;}.cls-16,.cls-22,.cls-5{stroke:#505c7b;}.cls-18,.cls-22,.cls-5{stroke-width:3px;}.cls-6,.cls-7{fill:#505c7b;}.cls-8{fill:#fcc9a1;}.cls-23,.cls-9{fill:#dc6437;}.cls-9{opacity:0.75;}.cls-10{stroke:#2c2f53;}.cls-10,.cls-11,.cls-14,.cls-16,.cls-21{stroke-width:2px;}.cls-11,.cls-21{stroke:#f06082;}.cls-12,.cls-20{fill:#f06082;}.cls-12,.cls-13,.cls-15,.cls-17,.cls-21{opacity:0.5;}.cls-14{stroke:#dc6437;}.cls-18{stroke:#54c3e5;}.cls-23{opacity:0.3;}</style></defs><title>Pria dan wanita berpacaran di bangku taman</title><path class="cls-1" d="M1209.58,1009.57s18.42,17.77,25.19,19.85,10.16,2.08,10.16,2.08l13.67,19s-24.87,21.39-44.92,29.73l-20.05-4.95s-12.5-14.32-16.41-18.49Z"/><path class="cls-2" d="M950.78,493.36c2.71,89.4,4.22,176.54-5.1,228.87a56.56,56.56,0,0,0-22.76-5.74c-12.81-.38-23.9,4.21-51.44,21,0,0,2.71-43.41,2.12-54.88s-5.86-64.06-7.53-78.59-4.21-42.64-6.86-55.26-13.19-43.44-6.1-53c0,0,46.49,21.36,49.07,21S950.78,493.36,950.78,493.36Z"/><path class="cls-1" d="M943.93,446.79a114.25,114.25,0,0,1-6.59,18,57.42,57.42,0,0,1-4.59,8,112.33,112.33,0,0,1-11,12.37c-10.18,10.29-22.8,21.52-22.8,21.52-23.39-19.33-45.82-47.49-45.82-47.49,5.49-15.75,12.5-61.86,12.5-61.86l13.08-3.23,26.9,21.72Z"/><path class="cls-3" d="M918.09,462.7c2.57,1.2,12.43,2,19.25,2.05a57.42,57.42,0,0,1-4.59,8,112.33,112.33,0,0,1-11,12.37c-5.06-.84-9.8-1.89-11.25-3.11-3.52-2.95-13.51-9.62-14.8-14.36-5.59-20.62-17.81-41.46-17.81-41.46,1.75,1.5,14.23,10.74,20.47,17.23S914.34,461,918.09,462.7Z"/><g class="cls-4"><polyline class="cls-5" points="1272.68 598.22 1561.66 598.22 1566.14 689.06 1314.84 689.06"/><polyline class="cls-5" points="1357.86 807.92 1574.22 808.62 1580.09 903.51 1442.86 903.51"/><path class="cls-5" d="M916.06,1008.79H543.44a12,12,0,0,1-12-12h0a12,12,0,0,1,12-12H916.2"/><line class="cls-5" x1="1092.77" y1="1008.79" x2="1036.99" y2="1008.79"/><path class="cls-5" d="M1517.48,984.81H1721.9a12,12,0,0,1,12,12h0a12,12,0,0,1-12,12H1521.51"/><line class="cls-5" x1="1039.83" y1="984.81" x2="1066.69" y2="984.81"/><polyline class="cls-5" points="691.09 597.96 517.37 597.96 525.24 689.84 695.78 689.84"/><polyline class="cls-5" points="703.01 807.36 528.52 808.98 534.71 902.97 717.97 902.97"/><line class="cls-5" x1="550.11" y1="671.75" x2="551.53" y2="689.84"/><line class="cls-5" x1="544.36" y1="597.96" x2="548.67" y2="653.29"/><line class="cls-5" x1="558.69" y1="814.37" x2="562.47" y2="867.77"/><line class="cls-5" x1="563.38" y1="880.15" x2="564.32" y2="897.5"/></g><g class="cls-4"><path class="cls-6" d="M574,604.15l-3.77-48.33a15.25,15.25,0,0,1,30.41-2.38l4,50.75C594.72,604.16,582.59,604.13,574,604.15Z"/><polygon class="cls-6" points="621.16 816.27 590.58 816.27 580.13 682.43 610.73 682.43 621.16 816.27"/><polygon class="cls-6" points="634.73 990.2 604.14 990.2 596.79 895.88 627.38 895.88 634.73 990.2"/></g><path class="cls-7" d="M762.11,1332.35H735.17c3-18.22,6.59-52.18,6.36-110.92-.4-101.86-16-158.34-46.53-183s-98.07-34.86-124.78,24.38c-26.12,57.91-35.62,214.9-18.59,269.59H529.79c-2.57-9.1-8.69-36.15-9-88.6-.41-66.55,14.46-189.91,49.43-241.45H718s26,6.9,42.22,134.72C772.76,1236,765.87,1305.83,762.11,1332.35Z"/><path class="cls-7" d="M1518.46,604.6H1492L1490.76,573c0-.18,0-.36,0-.54a13.21,13.21,0,0,1,26.41-.51Z"/><path class="cls-7" d="M1526.8,815.45h-26.31l-5.35-133.21,26.35-.68Z"/><path class="cls-7" d="M1533.72,990.19h-19.86c-1.57-8.71-3.94-21.58-7.4-26l-2.77-69H1530Z"/><path class="cls-1" d="M1233,675.27s-2.21,40.1-2.36,40.71,4.88,27.32,4.88,27.32L1223.13,746s.27,23.19,0,31.28c-.29,8.81-8.52,12.4-11.6,7.78-1.22-1.83-2.59-40-2.59-40l-5.47-.61s0,30.83,0,38.76-6.28,10.38-11.32,8.39c0,0-1.07,5.65-5.34,6.41s-8.85.31-9.46-2.44-1.83-26.1-3.51-35.86-3.05-20.3-2.9-30.06c0,0-2.75,11.75-3.05,17.24s.76,36.63,0,40-8.55,7.33-9.92,4.73-4.43-16.48-5.49-22.43-1.37-33.42-.92-36.47,11.75-67,11.75-67l22.89-21.06Z"/><path class="cls-8" d="M1271.26,754.71l0,.11c-9.1,5.84-24.36,7.25-26.6,6.27-2.48-1.09-9.24-9.14-11.12-9.44s-31.47-1.09-35-2-6.85-3.47-7.54-6.9,1.68-4.22,6.56-3.47,26.21.25,27.2,0,4.58-2.64,4.77-3.82-4.06-2.78-6.17-2.66-37.31.48-39.27,0c-5.48-1.33-5.75-8.58-2.81-9.91-4.47-2-7.53-6.63-4.92-9.33,1.3-1.35,11-3.57,15.79-4.16s31-3.36,31.21-4.1-5.4-4.3-14.13-4.6-29.44-.88-32.24-1.13-4-6-4.14-7.88,6.65-2.38,17.55-2.52,39.68-.45,42.64,1.18,22.19,17.31,26.33,21.44a40,40,0,0,0,10.66,7.73c.23,2.16.53,5.53.79,9.5C1271.26,736,1271.57,752.93,1271.26,754.71Z"/><path class="cls-8" d="M1139.88,694.09c2.46-2.73,5-5.14,7.05-5s8,.45,10.45,0,18.33-15.74,19-18.79.32-4.5,1.45-5.63,4.5-4.34,5.79-4.34,7.07,4,9,7.23,5,8.68,7.56,9.81,12.22,3.38,12.7-2.89c0,0,10.75.16,13.49-2.09s-.3-5.57-.3-5.57a9.69,9.69,0,0,0,11.37-5.87c.8-1.77-19.41-21-22.46-24.09s-26-12.38-26-12.38,25-1.13,31.58-1.13,13.5.16,15.43-1.29,6.43-9.32,5.31-11.74-65.94-3.63-69.45,0c-9.46,9.78-49.6,47.12-56.65,55Z"/><path class="cls-9" d="M1037.24,421.68c-2.29-6.19-1.2-29,14-41.34-4.34-9.76-2.17-44.6,23.69-48.16,0,0-5.57-15.18,10.07-29.58s47.54-10.84,55.75,15.64c0,0,5.65-4.93,18.43.15,13.63,5.42,25.86,32.52,7,53.11,8.06,8,9.53,26.62-17.06,31.29,0,0,6.35,13.79,3.12,39.32Z"/><path class="cls-8" d="M1156.69,538.47c-16.74,1.41-44.73.19-55.61-.11l-1.45,0a78.78,78.78,0,0,0-14.5.68l-1.66-16.08s-17,1.61-25.81-2.47-13.57-12.94-17.12-22.86-5.84-28.49-4.79-45,1.47-30.57,1.65-36.49,8.12-17.06,19.45-25.31c0,0-.3,3.34,2.77,9.08,3.18,5.92,19.11,21.86,56.38,8.74,6.16,29,26.17,28.48,26.17,28.48,19.23-4,18,18,9,26.16C1150.52,479.17,1156.69,538.47,1156.69,538.47Z"/><path class="cls-10" d="M1136.16,473.44s-1.41,3.4-3.29,7.66c-2.4,5.44-5.56,12.29-7.53,15.33-3.08,4.74-17,15.71-41.86,26.49"/><line class="cls-10" x1="1137.22" y1="437.08" x2="1141.41" y2="463.24"/><path class="cls-10" d="M1151.17,463.24a23.74,23.74,0,0,1-5.81,4.29"/><path class="cls-10" d="M1032.31,432c4.8-6.53,10.85-10.19,17.51-5.88s5.23,15.94,3.53,19.08-8.62,14.11-9,16.33,2.19,4.18,10.44,8.23"/><path class="cls-10" d="M1076.73,421.1c10.73-6.57,25.84-8.82,33.51,3.2"/><path class="cls-10" d="M1034.85,440.64c2.71,1,7.61.68,8.69,0"/><path class="cls-10" d="M1082,434.6c5.7.41,8.62-1.7,9.91-3.8"/><path class="cls-10" d="M1068.17,495.76c4.6.61,10.78-4.84,10.78-4.84"/><path class="cls-10" d="M1055.82,488.74c8.6-.73,33-15,33-15"/><path class="cls-10" d="M1087.73,472c.48,1.45,3,2.91,3,2.91"/><path class="cls-3" d="M1129,516.44c-2.14,3.55-13.18,13.85-27.88,21.92l-1.45,0a78.78,78.78,0,0,0-14.5.68l-1.66-16.08s13.89-5.47,20.78-9.94c12-7.69,18-11.81,21.08-16.54,2-3,5.13-9.88,7.53-15.33C1132.94,481.68,1135.1,506.24,1129,516.44Z"/><path class="cls-11" d="M1085.45,564.42c9,4.56,9.94,4.88,9.94,4.88"/><path class="cls-11" d="M1092,539.31c-.65,7.66,2.12,18.75,3.42,21.84"/><path class="cls-11" d="M1106.48,540.94c-.82,8.31,2.93,23.31,5.38,29.1"/><path class="cls-11" d="M1117.49,540.94c1,9.62,1.7,22.5,1.86,25.92"/><path class="cls-11" d="M1125.88,542.57c-.49,6.85,4.08,22.18,6.19,24.29"/><path class="cls-11" d="M1136.15,540.94c1.62,14.67,2.93,24,4.56,26.73"/><path class="cls-11" d="M1149.68,540.94c2.61,9.13,3.1,21.67,3.1,21.67"/><path class="cls-11" d="M1159.13,540.94c.33,5.87,3.1,21.67,3.1,21.67"/><path class="cls-11" d="M1009.77,753.57c6.87-13.27,10.19-15.41,15.41-18.72s27.73-17.07,37.69-25.6,40.29-36,45.27-42.43"/><path class="cls-11" d="M1057.9,687.14c2.2,13.35,3.82,23,3.82,23"/><path class="cls-11" d="M1047.61,622.59c2.14,14.61,6.22,39.79,9.45,59.41"/><path class="cls-11" d="M1113.63,663.75c9.35,9.4,27.85,32.11,27.78,32.33-.16.49-10,14.95-16.55,23.88A314.13,314.13,0,0,0,1107,747.58c-5.36,9.26-13,30.05-42.46,61.5"/><path class="cls-11" d="M1097.84,689.84c6.38-6.62,21.55-19.93,21.55-19.93"/><path class="cls-11" d="M1103.53,696.22l17.53-19.73"/><path class="cls-11" d="M1128.36,680.68c-5.44,7.18-19,22-19,22"/><path class="cls-11" d="M1114.44,710.19c8.12-9.21,19.47-23,19.47-23"/><path class="cls-11" d="M1120.24,714.21c4.41-5,11.72-14.62,11.72-14.62"/><path class="cls-11" d="M1251.9,657c11.6,17.47,18,25.91,17.87,43.53-.09,10.74,0,18.46,0,18.46"/><path class="cls-11" d="M1275,768.59c-8.2-7-9.11-10-9.56-10s5.24-2,5.76-3.74l0-.11c.3-1.78,0-18.7-.44-25.68-.26-4-.56-7.34-.79-9.5-.16-1.63-.28-2.57-.28-2.57,5.19,0,21.35,8.15,44.17,20s22.36,11.87,26.78,16.3"/><path class="cls-11" d="M1270.64,726.32c7.52,2.27,20.57,8.49,20.57,8.49"/><path class="cls-11" d="M1271.09,734.81c6,.6,18.56,9,18.56,9"/><path class="cls-11" d="M1271.34,744.75c3.7.24,18.31,8.62,18.31,8.62"/><path class="cls-11" d="M1271.27,754.71c6.76,3.09,16.58,9.67,16.58,9.67"/><path class="cls-12" d="M1085.45,564.42c-27.39-10.76-58.54-21.14-80.71-15.6s-31.63,21.07-31,51.94,8.48,97.72,12.06,118.59S990.39,765,990.39,765l55.43,56.93s18.59-9.32,26.74-22c0,0,8.48,54.78,12.06,65.21l24.13,27.72s13.69-17,41.08-37.82,75-48.31,153.9-38.83c0,0-22.39-32.58-25.87-37.8a15.24,15.24,0,0,1-2.83-9.78s14,11.41,20.22,18.59,15,18.81,18.59,23.43,4.31,6.35,18.42,9.52,20.3,2.54,23-.79,1.9-7,2.85-13.48,4-16.33-1.27-29.18-20.3-43.76-28.22-59.94-60.08-120.07-60.08-120.07l-30.93,81.51-8.62-5.4-2.11,20.42s5.09.42,6.84,1.51,26.92,24.37,28.67,25a24.28,24.28,0,0,1,4.4,2.64s.95,22.37-.13,31c0,0-15.24,8.16-21.12,2.71s-9.17-7-11.57-7-16.92-1.11-16.92-1.11,2.74,26.39,2.52,29.88-3.7,5.23-3.92,2.4-3.28-32.06-3.28-32.06l-13.06-.65s1.28,34.89.85,38.16-5.67,4.36-8.51-.65c-2.18,6.09-9.8,12.21-10,7.42-.57-11.63-4.9-45.53-6.14-52.18s-2.17-16.71-2.17-16.71-5.18,1.24-6.54,3.56-2.13,11.3-2.59,25.69.15,28.78-.77,31.42-2.48,3.56-2.94,2.32-3.87-19-3.71-23.52-.77-25.84-.46-30.49,10.48-58.19,10.48-58.19-9.4,10.06-10.79,10.37-14.24,1.24-15.79,1.55l-19-21.67s22.44-20.43,28-25.84,23.83-24.3,23.83-24.3l10.37-.62s13.93-36.83,17-48.9c0,0-27.86,1.86-29.56-.62s-4.64-28.48-6-29.4-32.19-.46-49.68-.93-30.39-1.43-33.58.77C1073,540.62,1085.45,564.42,1085.45,564.42Z"/><g class="cls-13"><path class="cls-11" d="M1265.46,824.92c8.67,9.52,20.16,15.68,22.4,17.64s2.24,12.32,2.24,12.32"/><path class="cls-11" d="M1251.73,862.76c6.94-.32,10.16-2.1,17.43-5.49s38.72-14,42.27-15.17"/><path class="cls-11" d="M1273,865c9.84-1.77,22.75-8.23,22.75-8.23"/><path class="cls-11" d="M1297.72,865c13.55,14.84,47.11,47.27,59.54,57.6s74.22,69.38,80.19,77"/><path class="cls-11" d="M1313.94,823.48c48.12,29.87,95.29,57.6,120.89,74.67s60.83,40.73,74.43,61.63c7.4,11.38,7.59,23.47,11.61,45.51s19.78,102.26,22.1,139.19"/><path class="cls-11" d="M1189.83,974.73c61,33,118.23,53.56,122.94,54.56s23.29,13.56,23.29,13.56"/><path class="cls-11" d="M1443.76,1006.85c7.8,12.71,20.69,37.7,27.7,48.65s26.12,34.8,33.22,43.74,29.89,34.71,36.47,43,14.29,17.88,14.29,17.88,4.73-1.67,6.4,1.4.26,13.06,2.1,14.46,6.75-.26,10,2.1,1.4,9,2.63,10.69,13,11,13,11"/><path class="cls-11" d="M1363.31,1080.2c29.48,39.32,53,65.53,77.59,83.78s68,46.45,80,58.06a200.1,200.1,0,0,1,18.91,20.9"/></g><path class="cls-14" d="M1051.21,380.34c14.67-12.66,30.25-17.33,48.68-17.33"/><path class="cls-14" d="M1110.24,364.49c17.07,5.35,26.86,16.49,38.82,38.31"/><path class="cls-14" d="M1123.21,419c5.4,4.68,18.51,5.91,27-6.52"/><path class="cls-14" d="M1135.73,375.34c17.21-1.63,10-22.81-4.48-18.63"/><path class="cls-14" d="M1117.1,348.36c5.74-13.27,24.13-3.15,18,7.8"/><path class="cls-14" d="M1166.11,371.51c-4.69-3.33-10.92-1.55-10.92-1.55"/><path class="cls-14" d="M1076.69,356.67c-.9-10,6.47-17.79,14.11-15.91s-.18,9.55-5.57,1.28c-4.81-7.37,3-19.79,13.84-14"/><path class="cls-14" d="M1056.85,390.78c-.4-5.9,3.47-17.53,12.72-22.1"/><path class="cls-14" d="M1082,364.76c-5.21,8.66-5.08,17.29-3.19,25.1s15,23,37.17,18.74c-1.58-6.66.51-15,5.06-13.75,6.66,1.79-.09,12.07-5.06,13.75"/><path class="cls-1" d="M992.24,321.37s-2.23,30.22-4.13,45.37c-.36,2.84-.7,5.15-1,6.63,0,.16-.07.3-.1.44-2,8.49-18.23,55.68-19.72,58.92a55.34,55.34,0,0,1-3.19,5.05c-6,8.8-18.13,25.44-20.28,26.41-.87.39-3.35.56-6.47.56-6.81,0-16.68-.86-19.25-2.05C914.34,461,904.6,450,898.35,443.47s-18.72-15.73-20.47-17.23S871.64,399,871.64,399a7.51,7.51,0,0,1-6-1.68c-8.79-6.73-13.14-30.45-5.72-37,2.21-27.88,13.39-52.28,13.39-52.28l29.77,3.32Z"/><path class="cls-10" d="M874.51,414c1.24,5.94,2.59,11.54,3.37,12.21,1.75,1.5,14.23,10.74,20.47,17.23s16,17.48,19.73,19.23c2.57,1.2,12.43,2,19.25,2.06a28.5,28.5,0,0,0,6.13-.44,2,2,0,0,0,.34-.12"/><path class="cls-15" d="M903.05,311.42v18.25c-11.87,5-8,25.36-9,26.59-3.65,4.58-10.69,17.64-10.69,17.64-8.77-15.44-17.64-17.46-23.51-13.52,2.21-27.88,13.39-52.28,13.39-52.28Z"/><path class="cls-3" d="M877.08,301.32c-11-1-18.89,8.65-4.75,21.08s36.07,11.09,47-1.1c0,0-1.22,17.06,17.91,17.06s24.36-9.84,24.36-9.84,3.16,11.55,21.21,12.16c22.24.75,30-6.95,31.44-15.23s-5.45-19-22-24.19c.59-21-31.45-36.61-56.31-22.84,0,0,6.46-17.91-6-21.81s-27.17,11.45-32.41,25c0,0-10.6-9.63-19.62-2.19S872.81,297.67,877.08,301.32Z"/><path class="cls-16" d="M992.24,301.26c-2,6.36-10.49,10.4-11.78,6.06C979,302.55,984.86,299.56,992.24,301.26Z"/><path class="cls-16" d="M953.43,306.35c2.42,6.51,9,10.41,14.69,8.18s2.6-13.48-2.51-16.46"/><path class="cls-16" d="M900,285.57c-6.69,26.17,16.58,26.13,19.48,15.52,4.8-17.54-9.4-11.54-4.65-3.66,5.32,8.82,17.35,3.35,16.67-8.66"/><path class="cls-3" d="M988.11,366.74c-.36,2.84-.7,5.15-1,6.63-3-1.89-8.15-3.53-16.35-1.8,5.39-7.34,9.93-8.1,9.93-8.1A24.22,24.22,0,0,1,988.11,366.74Z"/><path class="cls-3" d="M904.25,359.27c3.45-5.18,8.63-8.85,10-9s28.23-1,33,.54,1.54,10.58-.95,12.63c0,0-3-4.86-10.47-5.61S912.13,356.47,904.25,359.27Z"/><circle class="cls-3" cx="972.28" cy="388.33" r="3.65"/><circle class="cls-3" cx="936.86" cy="382.03" r="4.4"/><path class="cls-3" d="M947.31,415.27c-2-7.22-7.73-7.34-8-5C938.92,413.1,943.53,414.6,947.31,415.27Z"/><path class="cls-17" d="M968.92,414.43s9.94,12.3,10.59,14.24-1.54,8.2,2.68,11.44,10.7,8.63,13.29,17.48-1.73,13.6-6,18.13S907.2,522.78,900.29,521,873.09,509,847.84,498s-65.66-25.86-71.06-36.22c0,0-7.08,1.13-10.75,3,0,0,.43-11.7,1.51-13.86s15.54-10,28.06-13.31,11-10,10.58-15.19,14.45-11.86,20.94-15.11c3-1.51,41.66-1.94,41.66-1.94s-2.81,38-8.85,54c0,0,24.65,24.17,39.07,40.79,0,0,29-27.62,37.46-42.73,0,0,3.68.54,5.41-.11s18-20.32,20.58-25.46S968.92,414.43,968.92,414.43Z"/><g class="cls-13"><path class="cls-18" d="M980.81,481.37c18.16-.73,46.64,5.38,58.85,11.48"/><path class="cls-18" d="M1153.88,504.11c11.26.29,34.79,6.91,55.58,10.09s35.51,4.33,45,15.88,21.94,30.31,23.1,40.13-1.51,15.2-4.91,28c-4.91,18.48-32.34,88.92-32.34,88.92s-14.24-14-21-15.79"/><path class="cls-18" d="M1199.19,531.9c1.14,18.3-2.29,40.89-22,79.75"/><path class="cls-18" d="M1196.36,562.61c5.9-14.77,24.85-30.71,28.75-31.42"/><path class="cls-18" d="M1031.07,545.91c2.75-13.53,6.13-24.8,6.13-24.8"/><path class="cls-18" d="M1037.2,544.64a21.28,21.28,0,0,1,4.65-7.4"/></g><g class="cls-13"><path class="cls-18" d="M826.31,437.59c5.68.36,24.3,20.8,41.24,38.43s31.39,30.67,31.39,30.67,29.87-27.16,33.81-33.89"/><path class="cls-18" d="M776.78,461.73c-12.65,3.09-48.75,14.63-62.85,26.37s-16.66,23.5-21.36,48.28-.64,79,1.28,107.87,10.47,89.93,10.47,89.93"/><path class="cls-18" d="M705.21,741.19c1.1,10.49,3.31,25.67,13.52,26.77s14.08,1.93,16.84,6.07,17.68,11.18,59.91,20"/><path class="cls-18" d="M747.11,699.68c20.4-11.61,42.39-10.55,48.37-9.85"/><path class="cls-18" d="M806.92,691.77c18.12,9.5,82.75,36.36,82.75,36.36"/><path class="cls-18" d="M800.73,688.14c0-3.37,1-4.07,3.51-6.6s2.95-8.14.84-9.83-9.6-4.91-9.6-4.91a486.24,486.24,0,0,0-4.87-48.44c-3.93-25.41-13.76-52.23-23.17-74.42"/><path class="cls-18" d="M731,490.76c15.16,11.23,25.27,23.86,27.52,31.53"/><path class="cls-18" d="M695,657.77c1.17,58.8,4.24,146.85,16,218.47"/><path class="cls-18" d="M837.85,499.86c10.85,41.59,16.34,59.4,18.88,98.1s9,103.71,9,103.71"/></g><g class="cls-13"><path class="cls-18" d="M945.49,506.7c1.92,27,3.38,186.14-4.62,214.62"/><path class="cls-18" d="M854.82,508.21c0,6.26,1.36,9.8,4.63,22s7.89,39.46,11.7,80,7.89,65.88,5.44,101.53"/></g><g class="cls-13"><circle class="cls-19" cx="847.38" cy="521.22" r="4.4"/><circle class="cls-19" cx="859.22" cy="577.17" r="4.4"/><circle class="cls-19" cx="865.7" cy="642.33" r="4.4"/><circle class="cls-19" cx="869.21" cy="703.2" r="4.4"/></g><path class="cls-18" d="M709.69,867.77s11.61,71.78,38.19,88.67,52.22,26,72.85,28.14,56.6-12.19,61.91-13.45,33.77,3.75,33.77,3.75"/><path class="cls-18" d="M768.29,809a670.61,670.61,0,0,0-54.16,53.67"/><path class="cls-18" d="M1042.43,807.36c-5.2-5.77-61.21-63.81-80.27-81.71s-46.49-15.3-56.59-11.8-37.25,15-98.66,62.9c-10.49,8.18-20.23,16.23-29.17,23.94"/><path class="cls-18" d="M1050.09,816.16c32.48,36.36,167,189.56,167,189.56"/><path class="cls-18" d="M884.1,839.49c18.1,6.82,29.08,13.07,37,13"/><path class="cls-18" d="M879.45,944.26c25.29-38.53,40.59-75.31,50.93-82.58"/><path class="cls-18" d="M889.17,810.6c12.25,18,27.15,40.12,48.29,57.18s187.4,170.59,187.4,170.59"/><path class="cls-18" d="M1178.86,971.17c-9.6,14-40,52.59-62.58,76.58,0,0,25.19,25.39,43.19,37,0,0,39.79-41.19,56.38-74.78"/><path class="cls-18" d="M930.38,889.66c-9.4,15.37-14,26.82-14.31,36.3"/><path class="cls-18" d="M1042.43,962.54c-1.39,12.38-12.52,105.85-15.83,133.52s-27.85,220-27.85,223.83"/><path class="cls-18" d="M917.05,1156.61c.54,49.2,1.11,93.41,1.11,93.41"/><path class="cls-18" d="M916.07,936.15c.25,23.55.12,55.93,0,98.61,0,18,.31,58.9.75,100.31"/><path class="cls-18" d="M998.75,1256c-15.47-1.63-85.21-6-90.11-4.36,0,0-1.36,49.3,1.09,54.75,0,0,13.89-.27,19.07,0"/><path class="cls-18" d="M960.4,1310.52c12.26.82,32.42,9.37,32.42,9.37"/><path class="cls-17" d="M1257.37,1061.15c8.27-11.07,19.84-20.89,19.84-20.89l57.45,2.62C1329.14,1055,1282,1062,1257.37,1061.15Z"/><path class="cls-17" d="M1372.66,1063.35a23.3,23.3,0,0,1-.16,2.46c-1.38,10.77-2.76,10.64-5,12.16s-25.41,12.57-47.92,21.68-34.53,14.78-40.32,15.75-10.78,1-11.61,1.38-5,5.24-9.08,8.56-26.13,9-28.48,9.52c-.92.22-5.84-1.11-12.1-7.13,26-4.5,38.13-10.44,52.05-17.79C1285.6,1101.74,1347.66,1084,1372.66,1063.35Z"/><path class="cls-17" d="M931.34,1333.28c11.94-5.32,31.8-3.45,31.8-3.45l-5.32,43.31s-13.53-5.61-26.48-4.89-21.87.86-21.87.86S919.83,1351.12,931.34,1333.28Z"/><g class="cls-13"><path class="cls-18" d="M1195.54,1070.28c4.5,1.55,18.69,2.81,18.69,2.81s30.21-18.27,36.68-23.89"/><path class="cls-18" d="M1191.3,1072.6c.32,3.39,3.56,10.22,5,15,6.55,21.58,14.92,33.62,21.71,40.13,6.26,6,11.18,7.34,12.1,7.13,2.35-.55,24.44-6.21,28.48-9.52s8.25-8.15,9.08-8.56,5.8-.42,11.61-1.38,17.81-6.63,40.32-15.75,45.71-20.17,47.92-21.68,3.6-1.39,5-12.16a23.3,23.3,0,0,0,.16-2.46c.16-10.39-6.22-22.81-7.75-22.81s-28.59,2.48-30.24,2.34-57.45-2.62-57.45-2.62c-7.88-6.91-30.7-31.8-32.34-30.69-7.25,4.91-11.17,13.15-7.67,20.55s13.7,19.09,19.28,25.6"/><path class="cls-18" d="M1273.79,1057c8.23-11.65,13.84-16.3,13.84-16.3"/><path class="cls-18" d="M1290.12,1059.09c3.55-5.93,11.94-17.69,11.94-17.69"/><path class="cls-18" d="M1317.43,1042c-3.73,6.83-9.32,19.41-9.32,20.34"/><path class="cls-18" d="M922.52,1335.94a268.73,268.73,0,0,1,32.83-3.6"/><path class="cls-18" d="M919.68,1345.41c10.79-2.27,28.1-1,31.31,0s7.47,5.2,7.47,5.2"/><path class="cls-18" d="M955.35,1360.16c-3-2.55-26.77-2.08-42.76-1.42"/><path class="cls-18" d="M931.34,1333.28s-11.19-31.66-9.94-51.66c.19-3,16-3,26.68,0s16.61,11.76,17.54,15.11,0,26.87,0,26.87"/><path class="cls-18" d="M993.8,1320.83a42.92,42.92,0,0,0-4,8.68c-1.27,4.22-1.45,40.32-1.57,56.44,0,6.06-.16,12.86-.81,19.44-.83,8.39-2.54,16.43-6.11,22.14-6.36,10.19-68.3,12.73-82.31,10.83-11.5-1.57-19.44-3.72-21.89-14.9a40.56,40.56,0,0,1-.81-8.65c0-22.28,17.18-36.07,21.43-40.73s18.89-33.31,28.26-58.86"/></g><path class="cls-17" d="M987.4,1405.38c-.83,8.39-2.54,16.43-6.11,22.14-6.36,10.19-68.3,12.73-82.31,10.83-11.5-1.57-19.44-3.72-21.89-14.9,6.55,1.73,16.35,2.76,34.47,1.66C946.19,1423,970.46,1421.58,987.4,1405.38Z"/><path class="cls-10" d="M936.54,381.74c-5.71-1.82-6.62-3.74-7.58-5.45"/><path class="cls-10" d="M973.87,388.33a11.76,11.76,0,0,0,6.57-.66"/><path class="cls-10" d="M943.93,411.15c4.91,5.52,6.38,7,8.34,8.1s5.46,1.23,7.36-.61,3.8-4.17,5-4.66"/><path class="cls-10" d="M957,419.93c2.6-8.27,2.69-12.56,3.7-18.14s5-12.06,4.39-14.12-3.38-4.89-3.2-7.08,8.87-9.84,11.56-12.29"/><path class="cls-10" d="M884.8,381.74c2.36,8.76,9.08,17.09,9.08,17.09"/><path class="cls-10" d="M918.89,421c7.71,6.1,18.54,10.7,30,10.2"/><path class="cls-10" d="M928.22,435.91a21.25,21.25,0,0,0,11,3.36"/><path class="cls-10" d="M871.64,399c3.12-12.49,8.16-30.73,8.16-30.73"/><path class="cls-10" d="M1189,624.48a34,34,0,0,1-8.79-4.85"/><path class="cls-10" d="M1183.36,638.08c1.43.38,3.54,1,7,6.12s20,27.15,20,27.15"/><path class="cls-10" d="M1181.28,630.08c5.72,4.63,28.5,15.16,29.77,16.24s14.61,20.15,14.61,20.15"/><path class="cls-10" d="M1192.15,791.67c-1-17.13-3.49-39.16-3.49-43.7V737.88"/><path class="cls-10" d="M1181.28,722.9c11.37-1.84,16.31-2.31,40.84-3.92"/><path class="cls-20" d="M1536.38,1241.94c-3.79-4.65,11.7-18.66,26.92-32.17a130.2,130.2,0,0,1,20.75-14.44s.12-1.19,22,16.64,46.47,33.12,57.42,33.75,14.7.39,21.27-2.78,19.4-13.49,37.54-7.23,16.89,19.4,14.39,27.84-25.34,34.41-33.16,42.55-29.09,19.71-29.09,19.71,8.13,11.26,7.82,12.2-52.87,36.29-54.12,36-16.89-15.64-22.84-24.09-19.08-19.71-25.34-35S1544,1251.33,1536.38,1241.94Z"/><path class="cls-20" d="M1494.89,1260.57c7-7.71,32.35-19.51,46.29-20.9,1.41,0,36.85,53.69,41.81,71.42s4,24.64,8.46,35.34,11.7,33.6,19.66,44.55,15.93,28.62,5.72,43.8-30.61,10.45-44.8,3.24-23.39-15.43-28.12-29.37S1532,1386,1524,1379.78s-12.94-12.69-12.94-15.43-.25-25.14-2.49-40.81S1494.89,1260.57,1494.89,1260.57Z"/><g class="cls-13"><path class="cls-11" d="M1667.89,1245.94c-13.08,7.4-27,22.08-29.59,29.15s-3.15-9.44,6.29-17.56,11.69-10.22,7.68-9.44-16.86,7.86-23.93,14.68-11,7.34-9.18-.26,25.21-26.48,24.14-27.79-18.11,6.29-31.74,16.78-11-.26-4.72-6.29,18.47-12.5,26.27-14.12"/><path class="cls-11" d="M1646.61,1362.4c-8.12-10.43-9.66-14.17-9.66-14.17a130.63,130.63,0,0,1,16-10.76c9.89-5.71,21.45-11.67,21.45-11.67"/><path class="cls-11" d="M1609.7,1355.46a240.12,240.12,0,0,0,58.19-38.73c12.84-11.88,21.12-32,38.09-48.38s27.4-21.11,30.68-21.06"/><path class="cls-11" d="M1605.3,1349.9c22.76-12.59,38.69-20.5,53.88-36.31,28.93-30.11,34.15-54,66.62-69.81"/><path class="cls-11" d="M1545.46,1344.11c3.48-6.6,16-9.14,29.18-9.89s16.81.23,7.54,4.94-21.45,14.77-20.48,18.05,6.18-1.35,15.65-2.71,17.58.39,16.62,1.74-18,9.27-22,13.53-2.71,5.72.19,4.21,11.42-4.3,23.38-3.64c3.48.19-14.11,12.75-14.3,15.27s7.92-4.44,22-1.16"/><path class="cls-11" d="M1510.71,1350c6.91,10,14.67,18.34,21.82,24,10.23,8.11,12.28,19.1,16.63,30.1s18.68,32.92,42.47,32.75,26.1-14.07,26.1-14.07"/></g><path class="cls-7" d="M1516.56,1336.12h-28.2s.55-87.49,1.69-106.79C1490,1229.34,1508.66,1279,1516.56,1336.12Z"/><path class="cls-21" d="M1469.09,1184c13.36,34.4,20,51.8,25.8,76.56"/><line class="cls-22" x1="733.06" y1="984.81" x2="733.06" y2="1008.79"/><path class="cls-7" d="M1686.6,1003.7c54,47.11,62.62,201.91,63.11,230.8s.65,103.13.65,103.13H1724c5.16-38.9,1-63.27,1-63.27s7.75-9,8.88-19.53-10.65-13.57-10.65-13.57c1.7-67.33-24.28-159.59-33.34-176.19-29.77-54.57-80.19-46-109-24.81-25.33,18.64-47.14,70.46-47.14,70.46s-6.89-45.75-6.89-46.45c0,0,26.77-60.64,62.72-60.58Z"/><circle class="cls-3" cx="1080.83" cy="435.32" r="4.51"/><circle class="cls-3" cx="1043.94" cy="440.96" r="4.19"/><path class="cls-3" d="M1054.77,488.74c1.64-3.38,3.54-5.63,5.54-6.24s4.95.26,5.38-.35,2.43-5.3,6.08-5.73,14.32-1.18,14.32-1.18S1060,490.46,1054.77,488.74Z"/><circle class="cls-23" cx="1110.24" cy="459.32" r="16.42"/><path class="cls-14" d="M1140.72,318.24c1.71,10.11-.65,12.87-4.37,11.28S1134.64,322.41,1140.72,318.24Z"/><path class="cls-16" d="M947.29,320.76c8.28,2.14,11.58-2.47,10.1-8.6"/></svg>