<svg id="Layer_1" data-name="Layer 1" xmlns="http://www.w3.org/2000/svg" viewBox="0 0 2267.72 1700.79"><defs><style>.cls-1{fill:#fcc9a1;}.cls-11,.cls-14,.cls-16,.cls-17,.cls-18,.cls-2,.cls-21,.cls-22,.cls-23,.cls-24,.cls-25,.cls-27,.cls-4,.cls-8{fill:none;stroke-linecap:round;stroke-linejoin:round;}.cls-2,.cls-23{stroke:#2c2f53;}.cls-11,.cls-16,.cls-18,.cls-2,.cls-21,.cls-24,.cls-25,.cls-27,.cls-4,.cls-8{stroke-width:2px;}.cls-3{fill:#0d1536;}.cls-14,.cls-17,.cls-18,.cls-24,.cls-4{stroke:#505c7b;}.cls-11,.cls-12,.cls-15,.cls-24,.cls-25,.cls-28,.cls-5{opacity:0.5;}.cls-13,.cls-28,.cls-6{fill:#f06082;}.cls-29,.cls-7{fill:#dc6437;}.cls-21,.cls-26,.cls-7{opacity:0.75;}.cls-8{stroke:#dc6437;}.cls-9{fill:#2c2f53;}.cls-10{fill:#fff;}.cls-11,.cls-16{stroke:#54c3e5;}.cls-12{fill:#63cdf6;}.cls-13,.cls-14,.cls-17,.cls-18,.cls-19,.cls-20{opacity:0.25;}.cls-14,.cls-22{stroke-width:3px;}.cls-15,.cls-19{fill:#505c7b;}.cls-17{stroke-width:5px;}.cls-21,.cls-25,.cls-27{stroke:#f06082;}.cls-22{stroke:#fff;}.cls-23{stroke-width:4px;}.cls-29{opacity:0.3;}</style></defs><title>Pria dan wanita dating di cafe</title><path class="cls-1" d="M642.7,1262c-.74.84-1.48,1.71-2.24,2.64-5.12,12.11-8.88,30.75-25.1,80.37-2.41,3.22-4.13,8-5.33,13-14.35-25.65-43.31-27.87-43.31-27.87,1.78-12.68,16.24-46.26,22.47-74.28,3.45-15.52,7.5-24.15,11.73-31.14a93,93,0,0,1,13.8-1.56C617.91,1228.78,638.07,1256.53,642.7,1262Z"/><path class="cls-1" d="M662.17,1245.68c-5.27,3.85-9.72,6.82-14.27,11-1-2.14-20.86-32.64-26.39-38.39,10.65-8.12,24.85-21,39.51-41.3C661,1177,669,1217,662.17,1245.68Z"/><path class="cls-1" d="M700.76,1207.44c33-41.37,97.76-125.12,117.44-148.14s53.92-60.79,58.59-67.46c0,0-24.36,16.24-37,5.23s-16.22-19-29.56-6.74-25.08,28.38-33.73,37S700.76,1207.44,700.76,1207.44Z"/><path class="cls-1" d="M683.85,1270.33a70.72,70.72,0,0,0-1.1,13.41c0,15.27-.55,57.82-2.76,85.54-15.41,1.87-43.5,2.63-56.24,1-13.17-1.72-16.28-4.65-17.49-17.05,8-25.37,33.9-65.93,38.24-76.66a85.84,85.84,0,0,0,3.1-9.69C650.41,1268.06,677.88,1270.06,683.85,1270.33Z"/><path class="cls-2" d="M608.93,1345.74a308.59,308.59,0,0,1,14.87-30.94"/><path class="cls-1" d="M776.47,1027.35c-.16.83-5.88,27.5-21.93,63-16.3,36-45.51,115.67-56.74,142.63-5.11,12.29-8.69,20.28-11.06,27-5.35-1-20.24-1.16-37.24-.91a342.07,342.07,0,0,0,5.68-34.85c1.57-15.05,6.58-91.84,4.7-119.75C695,1090.33,751.37,1054.62,776.47,1027.35Z"/><path class="cls-2" d="M652.49,1243.42c1.18-7,2.11-13.82,2.67-19.24.47-4.47,1.24-14.39,2-26.85"/><path class="cls-1" d="M540.82,709.44c1.55-10.53,6.86-21.76,10.76-35,0,0-17.89-7.21-30-9.11s-37.23-8.84-37.23-8.84-5.86,23.22-9.77,37.6-6.51,26.27-5.13,45.71.17,27.75.52,33.3,12.65,13.69,17.33,14.9,13.86-3.57,21.31-4.47,52.5-12.16,81.08-28.45,47-24.95,48.69-25.64,24.25,2.69,33.61,1.86,20.79-2.56,24.95-7.93,3.47-21.31,4.16-23.56,7.1-11.9,0-18.34c0,0,9.7-2.53,8-10.72s-3.64-7-11.26-4.9-33.09,10.71-34.3,10-1.73-3.28-.35-4.32,16.81-7.1,19.4-11.78,1.56-11.43.17-12-12.44,6.11-22,9.36c-12.48,4.23-13.34,3.12-18.54,12.82S632.6,687.42,628,689.61a226.35,226.35,0,0,1-40.19,14.3C565.47,709.78,554,708.37,540.82,709.44Z"/><path class="cls-3" d="M712.79,473.89c44.61,8.66,61.78-.29,72.86,0A150.22,150.22,0,0,0,807,472.77s6.56-12.49,1.72-20.14-5.89-18.34-3.12-24.61,6.56-22.07,1.41-30.5-14.21-9.37-14.68-24-.16-51.92-20.92-64.92S709.06,280.16,670,303.83c-36.38,22-22.48,56.46-41.56,78.41-4.75,5.47-22.25,16.07-21.94,29.48s4.27,24.73-.91,30.12-6.4,9.74,6.55,13.74,47.39,8.42,54.56,7.65S712.79,473.89,712.79,473.89Z"/><path class="cls-4" d="M712.79,298.43c17.65,6.93,32,17.25,31,24.64"/><path class="cls-4" d="M581.13,443.09c11.57-1.64,14.66-7.32,14.08-16.73s1.37-21.16,24.3-28.89S650,372.4,654.23,357.93s15.43-40.51,36.26-49.38"/><path class="cls-4" d="M751,309.54c12.68,2.14,31.09,8.16,35.87,21.56"/><path class="cls-4" d="M607.06,454.3c13.75-.54,27.3-9.78,23.81-25.2-4.75-21-18-10-8.22-2.74s21.26-.38,22.53-11.15"/><path class="cls-4" d="M778.93,389.89c15.29,2.13,21.53,16.72,18.12,23.66s-10.79.65-6.4-6.44,16.33-1.69,17.75,14.62,4.4,27.1,15.37,25.9"/><path class="cls-1" d="M778.89,414.36c-.2,14.78-1.91,24.5-13.8,41.15-5.88,8.22-13.77,16.61-16.8,17.8a11,11,0,0,1-1.56.47c-5.2,1.19-13.83.11-13.83.11-2.41,7.17-5.71,18-9.31,30.09-5.37,18-11.41,38.79-16.18,54.14-8,25.65-13.58,42.21-16.59,47.84,0,0-23.92-50.21-33.42-68.52s-21.12-45.51-21.12-45.51,19,2.61,22.41-5.79,12.51-40,13.15-62.27c0,0-18.75,2.35-27.79-14s1.72-34.48,16.16-19.61c0,0,6.69,1.5,15.3-10.35s23.49-47.13,48.72-54.74c25-7.55,37.07,1.51,45,9s9.88,22.15,9.59,37C778.52,388,779.09,399.59,778.89,414.36Z"/><path class="cls-1" d="M778.1,683.62s18.65,43.69,21.31,49.37a24.78,24.78,0,0,0,15.8,14c8.88,2.84,15.09,9.05,19.18,10.83s12.25,4.23,22.2-5.7,16.87-35.14,17-42.78-2.84-26.28-12.79-50.79S825,542.45,824.62,533.74c-.18-4.62,5.86-11.19,12.79-25.39s12.95-34.9,14.43-41.33c.24-1-2.95-7.26-7.17-15,0,0-7.55-32.11-8.14-34.31s-7.4,2-7.81,6.12c0,0-3.2-7.73-4.37-7.58s-8.54,5.37-4,14.62c0,0-4.44,2.95-1,11.21,4,9.61,5.43,12.18,5.43,12.18s-4-2.2-5.87-1.47-2.2,10.27-.59,13.8,3.52,9.69,3.52,9.69-9.69,6.16-13.65,8.81c0,0,6.6-10.86,5.43-15.41s-4.26-8.07-6-8.07-3.08,1.17-6.6,9.83-8.81,16.14-14.09,23.78-6.31,11.45-5.43,25.39,8.07,16.29,10.27,25.24,9,36,12,62.08,3.82,61.79,4,68.83C807.77,676.79,786.14,679.6,778.1,683.62Z"/><g class="cls-5"><path class="cls-6" d="M777.2,484.8a7.13,7.13,0,1,1-14.26,0,7,7,0,0,1,.59-2.82,17.66,17.66,0,0,1,1.78-.54,24.76,24.76,0,0,1,10.58-.74A7,7,0,0,1,777.2,484.8Z"/><circle class="cls-6" cx="784.34" cy="557.47" r="7.13"/><circle class="cls-6" cx="766.77" cy="599.52" r="7.13"/><path class="cls-6" d="M784.34,646.37a7.23,7.23,0,0,1-.15,1.47h-14a7.23,7.23,0,0,1-.15-1.47,7.13,7.13,0,1,1,14.26,0Z"/><circle class="cls-6" cx="722.69" cy="559.89" r="7.13"/><circle class="cls-6" cx="643.42" cy="559.89" r="7.13"/><circle class="cls-6" cx="607.58" cy="599.52" r="7.13"/><circle class="cls-6" cx="591.32" cy="670.77" r="7.13"/><circle class="cls-6" cx="535.84" cy="790.67" r="7.13"/><path class="cls-6" d="M474.57,800a7.12,7.12,0,0,1-11.64,5.52c1.59-4.43,3.14-8.67,4.61-12.66A7.13,7.13,0,0,1,474.57,800Z"/><circle class="cls-6" cx="502.63" cy="824.98" r="7.13"/><circle class="cls-6" cx="523.51" cy="896.2" r="7.13"/><circle class="cls-6" cx="470.89" cy="870.01" r="7.13"/><circle class="cls-6" cx="631.24" cy="746.95" r="7.13"/><circle class="cls-6" cx="558.15" cy="837.49" r="7.13"/><path class="cls-6" d="M657.84,792.91a7.13,7.13,0,1,1-10.12-6.46h6A7.13,7.13,0,0,1,657.84,792.91Z"/><circle class="cls-6" cx="619.33" cy="827.16" r="7.13"/><circle class="cls-6" cx="673.14" cy="862.88" r="7.13"/><path class="cls-6" d="M713.52,834.29a7.13,7.13,0,1,1-11-6c3.35,1.84,7,3.75,10.94,5.7A2.85,2.85,0,0,1,713.52,834.29Z"/><circle class="cls-6" cx="791.97" cy="882.76" r="7.13"/><circle class="cls-6" cx="887.68" cy="953.82" r="7.13"/><circle class="cls-6" cx="843.62" cy="936.38" r="7.13"/><circle class="cls-6" cx="851.87" cy="997.24" r="7.13"/><path class="cls-6" d="M799.09,920.48a7.08,7.08,0,0,1-4,6.42c-3.27-2.69-6.63-5.36-10-8a7.13,7.13,0,0,1,14.07,1.61Z"/><circle class="cls-6" cx="799.1" cy="970.75" r="7.13"/><path class="cls-6" d="M731.3,877.14a7,7,0,0,1-.37,2.25q-5.92-4.09-11.34-7.71a7.12,7.12,0,0,1,11.71,5.46Z"/><circle class="cls-6" cx="745.7" cy="903.33" r="7.13"/><circle class="cls-6" cx="734.2" cy="956.49" r="7.13"/><circle class="cls-6" cx="698.75" cy="1012.46" r="7.13"/><circle class="cls-6" cx="638.81" cy="971.98" r="7.13"/><circle class="cls-6" cx="671.59" cy="917.59" r="7.13"/><circle class="cls-6" cx="607.77" cy="893.52" r="7.13"/><circle class="cls-6" cx="578.07" cy="932.13" r="7.13"/><circle class="cls-6" cx="559.51" cy="989.03" r="7.13"/><circle class="cls-6" cx="765.95" cy="1035.68" r="7.13"/><circle class="cls-6" cx="671.59" cy="1058.56" r="7.13"/><circle class="cls-6" cx="612.2" cy="1017.83" r="7.13"/><path class="cls-6" d="M609.83,1086a7.13,7.13,0,0,1-7.1,7.13h0A6.57,6.57,0,0,1,601,1093l-.11-3h0c-1.46-2.51-2.91-5-4.39-7.47a7.13,7.13,0,0,1,13.32,3.52Z"/><path class="cls-6" d="M657.6,1111a7.09,7.09,0,0,1-1.4,4.24c-3,.78-6,1.49-9,2.11A7.13,7.13,0,1,1,657.6,1111Z"/><circle class="cls-6" cx="486.66" cy="938.06" r="7.13"/><path class="cls-6" d="M680.27,759.63a7.16,7.16,0,0,1-.54,2.74H666.56a7.13,7.13,0,1,1,13.71-2.74Z"/><circle class="cls-6" cx="618.99" cy="518.99" r="7.13"/><circle class="cls-6" cx="572.41" cy="558.76" r="7.13"/><circle class="cls-6" cx="528.71" cy="609.39" r="7.13"/><circle class="cls-6" cx="482.66" cy="639.23" r="7.13"/><circle class="cls-6" cx="546.89" cy="656.51" r="7.13"/><path class="cls-6" d="M597.85,479.77a7.13,7.13,0,0,1-12.49-6.88A72.51,72.51,0,0,1,597.85,479.77Z"/><circle class="cls-6" cx="561.15" cy="516.19" r="7.13"/><circle class="cls-6" cx="717.23" cy="628.93" r="7.13"/><circle class="cls-6" cx="654.29" cy="631.11" r="7.13"/><circle class="cls-6" cx="802.17" cy="618.74" r="7.13"/></g><path class="cls-1" d="M1284.54,718.13c2.66,10.27,12,40.14,12,40.14s-44.73.73-52.53.16-25.14-11.42-31.76-27.17c0,0-5.93,9.89-10.48,15.22s-8,10.27-10.83,10.84-11.35-2.66-8.91-6.66,11.42-14.27,12.83-17.31,6.91-13.13,6.91-13.13-14.26,8.56-15.78,9.51-11.59,11.61-17.5,17.69-15.8-4.76-15.42-6.47c0,0-9.7-4.38-5.33-11.42s18.22-21.5,20.81-23.4,16.65-6.66,16.65-6.66l-16.65.76s-15.29,3.81-22.9,3.81-12-5.76-10.84-10.46c.76-3,10.46-2.66,24.16-5.33s36.8-7.17,40.79-8,7.79-1,14.32,4.76,42.87,34,45.72,34.23S1284.54,718.13,1284.54,718.13Z"/><path class="cls-1" d="M1086.67,1285.61c.25,15.58-2,39.51-2,39.51s7.73,3,6.23,8.72-6.23,25.67-6.23,25.67,43.37-10,61.82-27.67c0,0,2.49-40.3,3.24-46.24C1149.73,1285.61,1106.11,1286.48,1086.67,1285.61Z"/><path class="cls-1" d="M996.27,1340.63c.72,0,9.42-1,9.42-1s10.66-64.32,12.25-71.91c0,0-22.91-1.72-22.91-1.35S996.27,1340.63,996.27,1340.63Z"/><path class="cls-1" d="M981.37,1264.42V1349s-23.62-12.34-32.61-15.34c-.35-1.06,1.94-14.1.88-17.1l9.39-55Z"/><path class="cls-7" d="M1165.59,355.4c-26.1-18.27-16.3-57.69,32.92-66.6,33.49-6.06,53.52-8.42,65.55-1.35s10.56,13.86,10.56,13.86c17.46-4.72,44.13,8.83,39.63,49.07,0,0,25,8.5,30.43,20.29s5.74,33.13,1.42,43.32c-2.6,6.14.71,19.9.71,19.9,10.15,9.38,8.42,22.26,8.42,22.26s-10.58-3.46-25.77,4-72.53-4.42-72.53-4.42l-50.78,20s-21.86-.58-27.44,5.38-9.42,11-9.42,11-13.66-7.69-19.43-17.11-.38-24.8,4.61-29.9,6.15-18.37-.77-28S1141.8,380.85,1165.59,355.4Z"/><path class="cls-1" d="M1192.69,400.31c-6.47-2.68-10.7-5-12-3.38s-1,19.64-2.07,28-4.73,19.86-2.84,22.79,17.83,27.56,18.78,35.76-4.08,26.37-4.08,26.37,31.86,14,31.86,13.56,3.47-29.2,9-36.62,13.89-10.89,13.26-20.83S1192.69,400.31,1192.69,400.31Z"/><path class="cls-1" d="M1337.64,454.84s-9.58,30.07-31.17,39-35.69,2.71-38,0c-.62-.73-1.72-2.14-3.19-4.08-4-5.22-10.67-14.25-17.75-23.83L1285.7,414l12.54-17.08C1308.29,420.25,1325.67,444.74,1337.64,454.84Z"/><path class="cls-8" d="M1256.93,319.26c6.71-6.9,18.44-2.06,24.61,5s21.12,22.33,32.71,26.14"/><path class="cls-8" d="M1251.36,283.53c9.93,2.52,19.38,12.4,7.63,27.58"/><path class="cls-8" d="M1214.71,286c18.09,1.59,38.76,8.82,32.37,29.9"/><path class="cls-8" d="M1200.26,327.92c3.24-21.72,25.53-28.08,35.08-16.81,7.39,8.72,8.61,13.64,8.61,13.64"/><path class="cls-8" d="M1227.22,325.87c-2.76-12-18.77-14.58-23-15.47"/><path class="cls-8" d="M1219.34,326.65c-4.16-7-16.37-7.61-16.37-7.61"/><path class="cls-8" d="M1165.59,355.4c7.08-6.59,15-7.7,15.12-2.44C1180.81,357.54,1173.42,358.56,1165.59,355.4Z"/><path class="cls-8" d="M1306.48,379.88c11.42,18.53,39.63,34.11,39.63,34.11"/><path class="cls-8" d="M1302.62,389.23c12,20.31,33.37,37,44.19,44.66"/><path class="cls-8" d="M1151.14,417.25c0-18.85,19.55-38.64,36.32-38.54"/><path class="cls-8" d="M1128.47,454.63c13.87,1,28.86-.78,34.76-19.46s-3.75-35.08,27.27-49.06"/><path class="cls-9" d="M1294.45,449.32c-.25,5.28-18.53,27.81-29.13,40.46-4-5.22-10.67-14.25-17.75-23.83L1285.7,414l6.91,5.42C1292.68,420.12,1294.8,441.88,1294.45,449.32Z"/><path class="cls-1" d="M1311.14,387.17c-4.36,13.13-17,20.27-17,20.27,1.91,23.83,1.91,27.11-4.38,33.13s-34,28.37-36.46,30.57-26.25,1.2-26.25,1.2c-4.65-11.51-21.09-22.46-22.17-23.55s-12-35.59-22.46-69.55c5.58-4,9.72-7.36,12.28-11.73a21.77,21.77,0,0,0,2.78-8.45c.07-.49.12-1,.18-1.49A252.63,252.63,0,0,0,1199,327.9a136.16,136.16,0,0,0,19.74-1.17c11.41-1.47,35.4-2.49,35.4-2.49,12.14,8.19,16.38,29.1,24,40.51s12.72,9.07,12.72,9.07C1302,353.28,1317.72,367.38,1311.14,387.17Z"/><path class="cls-2" d="M1193.85,415.94c5.84,18.46,10.36,32.16,11,32.84"/><path class="cls-2" d="M1253.33,471.13c2.46-2.19,30.16-24.54,36.46-30.57,3.71-3.55,5.23-6.14,5.47-12.54"/><path class="cls-7" d="M1206.84,366.73c-1.23,1-6.68.46-12.11.76a21.77,21.77,0,0,0,2.78-8.45c.07-.49.12-1,.18-1.49,3.07.08,6.52.4,7.54,1.47C1207.16,361.06,1208.65,365.23,1206.84,366.73Z"/><path class="cls-7" d="M1238.1,354.42c8.27-2.26,27.62.86,31.58,7.17s3.21,8.56,3.21,8.56-4.71-3.21-14.77-4.18-20-1.7-22.48-2.83S1232.21,356,1238.1,354.42Z"/><circle class="cls-9" cx="1245.61" cy="383.97" r="5.26"/><circle class="cls-9" cx="1200.89" cy="386.12" r="5.26"/><path class="cls-2" d="M1247.08,382.94c4.71.36,9.41-2.07,9.85-4.23"/><path class="cls-2" d="M1200.26,385.44c-5.93-.13-8.46-2.06-9-3.46"/><path class="cls-2" d="M1212.15,370.67c5.37,8.82,5.56,8.45,5.56,11.32s-.07,3.22-5.56,9.39c-1.44,1.62,1.15,28.64,1.34,30.84"/><path class="cls-2" d="M1206.54,415.71c2.2,2.58,4.5,6.48,8.17,6.51s13.4-6.28,15.75-7.34,6.3-.38,6.3-.38"/><path class="cls-9" d="M1227.38,416c2.61.12,11.52,1.53,11.34-2S1231,411.47,1227.38,416Z"/><path class="cls-9" d="M1253.32,426.77a37.94,37.94,0,0,1-2.85,4.87c-5.19,7.64-13.27,14.68-16.77,13.27-9.11-3.69-12-13.59-12-13.59.51-.09,1.65-.27,3.23-.5C1233.21,429.59,1253.32,426.77,1253.32,426.77Z"/><path class="cls-10" d="M1253.32,426.77a37.94,37.94,0,0,1-2.85,4.87c-6.19,2.17-15.4,5-17.83,5-3,0-5.42-2.14-7.75-5.81C1233.21,429.59,1253.32,426.77,1253.32,426.77Z"/><path class="cls-2" d="M1182.7,396.44c4,1.33,6.36,5.77,6.84,13s.78,28.88,1.73,30.15,30.94,16.57,34.41,35.51"/><path class="cls-11" d="M1494.54,766.42c-16.37,4.47-50.82,2.13-50.82,2.13"/><path class="cls-12" d="M1332.86,564.4c-.12,6.63-.13,15.68-.05,26,0,5.54.1,11.44.17,17.55.05,4.35.12,8.8.18,13.3.61,40.1,1.75,83.65,2,87.66,0,0-29.15,5-46.24,6,0,0-2-30.6-4.23-47.9-1.22-9.6-4.42-27.53-7.69-46.57-.77-4.5-1.55-9.07-2.32-13.6-1-5.76-1.89-11.46-2.74-16.92-.75-4.82-1.42-9.44-2-13.73s-1.16-9.15-1.74-14.35c-3.34-30.14-6.23-71.67-3.43-78.76,0,0,6.43,9.72,10,10.5s19.28,3.76,32.14-4.55,28.32-36,28.53-36l2.11,1.87s-.24,23-1,39.87c-.75,16.18-2.95,33-3.68,65.49C1332.91,561.56,1332.88,563,1332.86,564.4Z"/><path class="cls-12" d="M1332.86,564.4c-.12,6.63-.13,15.68-.05,26-11,.6-38.88,1.72-60.81-.53-.75-4.82-1.42-9.44-2-13.73s-1.16-9.15-1.74-14.35c14.73,1.36,51.53-.84,64.69-1.61C1332.91,561.56,1332.88,563,1332.86,564.4Z"/><path class="cls-12" d="M1333.16,621.27c-12.32.9-35.79,2-56.11-.86-.77-4.5-1.55-9.07-2.32-13.6,10.58,1.59,30.46,3.44,58.24,1.16C1333,612.32,1333.1,616.77,1333.16,621.27Z"/><path class="cls-11" d="M1099.91,701c7-24.46,13.37-38.39,13.37-38.39"/><path class="cls-13" d="M1134.62,766.6s59.49-1.13,59.79-.74.44-17.22.44-17.22c-4.44,5.31-8.07,4.55-8.26,3.22s11.94-16.87,12.32-18.2,8.15-18.78,8.15-18.78-20.48,8.73-21.86,9.68-16.43,16.49-19.66,19-9.75-5.31-9.75-5.31c-3.88.95-6.55-4.93-5.22-6.45s22-23.51,24.27-24.46,21.07-10.13,21.07-10.13-25.24-.67-29.6,0-17.63,3.5-21.82,3.87-5.1-4.35-4.16-5.28,5.88-.4,15.46-2.48,37.73-7.2,37.73-7.2V665s-59.53-2.38-73.28-.88Z"/><path class="cls-14" d="M1484,872c14.65.79,27.74,1.83,35.59-5.23s31.33-48.5,38.73-94.73c8.37-52.34-8.12-98.57-20.94-112.17A60,60,0,0,0,1508.86,643"/><path class="cls-15" d="M1498.68,867.22s7.86.54,12.87-1.61l-12.87,83.29h-13Z"/><path class="cls-14" d="M1460,942.9c26.7-1,49.73-.19,54.81,2.9s9.72,6.84,9.27,23-2.65,25.83-20.31,26.28-260.11,0-260.11,0"/><path class="cls-16" d="M1283.83,818.4c16.86,0,39.67-1.19,39.67-1.19"/><path class="cls-16" d="M1283.83,824c18.56,1,40.86,3.75,40.86,3.75"/><path class="cls-16" d="M1294.11,843.82c-2.89-7.3-1.52-11,2.89-13.78s7.26-6.88,7.26-19.85V799.08"/><path class="cls-16" d="M1160.08,1291.78c-34.24,3.22-86.25,2.14-106.1-6.17"/><path class="cls-16" d="M1049,1287.45c8.11-56.48,30.75-171.07,36.06-204.06s19.57-102,28.79-132.49,14.81-36.9,38.29-47,48.08-24.12,84.13-34,50.62-16.56,54.22-21.34"/><path class="cls-16" d="M1229,993c-19.34-4.48-22.88-5.9-22.88-5.9"/><path class="cls-16" d="M1186.82,1005c11.56.47,36.56,0,36.56,0"/><line class="cls-17" x1="1478.54" y1="990.32" x2="1538.04" y2="1395.84"/><line class="cls-17" x1="1412.72" y1="990.32" x2="1453.74" y2="1395.84"/><line class="cls-17" x1="1252.44" y1="990.32" x2="1218.57" y2="1395.84"/><line class="cls-17" x1="1318.26" y1="990.32" x2="1302.87" y2="1395.84"/><line class="cls-17" x1="498.44" y1="990.32" x2="455.61" y2="1395.84"/><path class="cls-17" d="M600.9,1090h0l.11,3,4.84,131"/><line class="cls-17" x1="432.61" y1="990.32" x2="371.31" y2="1395.84"/><g class="cls-5"><path class="cls-16" d="M1331.45,453.44c6-3,13-4.47,16.58-4s27.85,8.72,60.6,12.76,48.05,3.19,49.54,5.1,20.41,32.53,31.89,77.4,15.1,61.24,20.2,91.22,13.4,59.75,15.73,73.14,1.91,21.26-1.7,28.49c-2.87,5.73-9.61,17.75-20.44,24.71"/><path class="cls-16" d="M1292.95,767.79s-12.81-38.9-14.86-55.14c0,0,21.73-2.52,41.16-5.26s59.23-11.66,80.5-17.84,60.14-10.52,88.27,4.8"/><path class="cls-16" d="M1440.81,671.55c21.24-7.35,35.95-9.15,35.95-9.15"/><path class="cls-16" d="M1425.21,534.22c9.86-31.63,25.88-58.74,25.88-58.74"/><path class="cls-16" d="M1411.08,581.44c9.08,31.91,26.5,80.11,20.48,84.2-4,2.7-12.07,8.6,1.1,18.25"/><path class="cls-16" d="M1376,695.77c5.14-28,11.44-53.35,9.86-61s-29.67-17.08-29.67-20.23,10.11-8.77,10.11-8.77"/><path class="cls-16" d="M1373.06,601.81c10.46-5.59,16.33-8.74,16.62-11.32s-1.29-32.37-4.44-52.14S1361.71,453,1361.71,453"/><path class="cls-16" d="M1268.65,714.88c-9.13-25.5-25.05-61.52-24-66.46s-1.17-9.06-2.4-15.75,8.14-9.16,13.2-11.63,6.29-6.91,2.59-9.87-14.31-10.36-17.76-12.58-1-20.23,0-36.51,10.06-74,13-88.33"/><path class="cls-16" d="M1152,588.22c13.69-27,36.27-75.41,39.79-83.5,30.37,14.49,45.07,19.22,45.69,20.17s-.17,5.21-3.33,14.83-11.36,39.28-18.77,62.95-15.3,46.54-16.25,51.27-2.05,21.14-2.05,21.14"/><path class="cls-16" d="M1194.85,471c-11.79,1.05-22.12,1.58-31.57,21.88s-23.11,57.77-34.84,89.1-18.38,42.71-23.11,64.77-11,44.11-11.2,57.07,8.8,33.79,22.46,62"/><path class="cls-16" d="M1219.3,589.89c12.16,58.3,22.14,102.75,22.83,111.15"/><path class="cls-16" d="M1201.76,679.18c14-27.54,23.18-50.85,24.64-55.57"/><path class="cls-16" d="M1339.73,783.61c.89,16.51,3.35,23.87,0,27.67s-8.53,8-8.28,19.19,5.83,13.39.92,29.9-34.14,40.38-46.18,58.9c0,0,11.34,4,36.11,19.18s51.87,34.84,51.87,34.84"/><path class="cls-16" d="M1376.75,977.68c28.65-8.26,58.84-19.61,79.49-32.26s32.52-35.1,34.84-64.78,5.16-118.43,5.16-118.43"/><path class="cls-16" d="M1219.53,867.64c21.33-18,39.62-28.32,50.9-41.75s17.68-32.32,18.29-40.85"/><path class="cls-16" d="M1213.78,867.64c-26.46-15.5-48.17-21.29-61.81-20.26"/><path class="cls-16" d="M1147.22,849.3c1.9-6.93,10.6-11.15,26.64-18.35s52.33-15.77,58.45-42"/></g><path class="cls-16" d="M1150.94,848.6c-25.37,6.3-56.75,16.88-81,24.37s-48.18,13.69-57.3,23.54-18.54,34.67-18.54,34.67"/><path class="cls-11" d="M1093.21,1351.5c3.47-9.11,5.6-16.67,2.85-23s-17.29-13.42-27.7-9.37-13.53,17.76-8.75,18.62,10.54-1.2,14.32,3.76c4.63,6.08,10.56,10.27,15.19,10.71s39.06-12.44,46-18.81"/><path class="cls-11" d="M991.16,1378.78c6.1-5.33,14.32-5.79,20-7.47s35.95-25.64,46.55-35.53"/><path class="cls-11" d="M1048,1344.23c11.4,1.3,18.35,12.32,19.27,16"/><path class="cls-11" d="M1037.48,1352.76c7.13-.32,14.1,2.73,20.13,13.14"/><path class="cls-11" d="M1033.65,1360.23c5.41,1.27,11.33,8.46,11.33,8.46"/><path class="cls-11" d="M1146.61,1329.91c2.41,2,3.1,2.61,3.12,7.84s-1.14,60.11-3.76,62.72-19.16,3.48-43.55,8.71-33.39,10.16-67.22,8-51.68-11.18-55.6-14.52"/><path class="cls-16" d="M1051.07,1273.78c-29.08-1.94-57.74-2.72-57.74-2.72"/><path class="cls-15" d="M1000.07,783.89v594.75a17.94,17.94,0,0,0-5.11,3.83H976.48V783.89Z"/><path class="cls-11" d="M996.27,1336.77c5.06-.13,11-.13,11.85.93s2.13,23.16-2.93,34.35"/><path class="cls-14" d="M986.42,1377.22c-51.48-1.9-85.71.58-95.79,0s-37.68,17.2-33.17,18.26,123.9,0,123.9,0"/><path class="cls-11" d="M879.14,1382.47c-21.32-1.79-52.35-16.57-52.35-16.57"/><path class="cls-11" d="M828.08,1357.28c6.52-14.08,15-17.17,24.88-16.65s39.07-5.14,52.1-8.74,13.89-5.49,27.26-5.49,40,12.86,40,12.86"/><path class="cls-11" d="M923.53,1326.84c4.25-12,14.85-22,23.12-21.52s6.8,26.08,6.8,26.08"/><path class="cls-11" d="M903.26,1330.4c9,.47,22.92,8.11,22.92,8.11"/><path class="cls-11" d="M891.27,1333.81c8,1.41,16.92,8,16.92,8"/><path class="cls-16" d="M977.8,1269.45c-13.54-3.09-33.49-4.75-33.49-4.75s15.91-113,34.2-199"/><rect class="cls-18" x="561.06" y="759.63" width="877.1" height="29.32" rx="9.15" ry="9.15"/><path class="cls-19" d="M1004.27,764.87c2.13-11.31,20-71.36,16.41-72.43s-66.11-1-66.86,1.83c-.61,2.27,10.25,60.79,11.65,70.59Z"/><g class="cls-20"><path class="cls-4" d="M997,687.46c-1.16-7.57-.74-14.52,2.52-17.88"/><path class="cls-4" d="M998.42,671c3.15.36,22.33.67,34.17-1.38S1055.43,656.4,1059,651s3.79-12.9-4.14-8.52a52.49,52.49,0,0,1-25,7C1021.1,649.54,1002.6,651.65,998.42,671Z"/><path class="cls-4" d="M974,686.21c-.57-18,1.29-26.21,8.31-32.22"/><path class="cls-4" d="M981.35,654.89c7.85-2.38,22.5-10,32.4-22.58s12.55-35.89,10-38.86c-1.42-1.68-14.23-.33-19.56,14.25C995.33,632,982.56,641.85,981.35,654.89Z"/><path class="cls-4" d="M990.33,625.18c.35-10.73-1.3-25.6-5.66-35.15s-.56-16.09-3.32-16.75-9.16,5.33-8.95,19.6c.47,31.85,12.86,29.7,13,34.54"/><path class="cls-4" d="M969.2,647.64c1.27-14.12,2.26-20.9-3.67-28.25S946,609.5,941.65,601.87s-9.32-11.58-11-5.51-4.94,21.72-3.25,31.06,17.07,19.93,26.4,24,19,1.08,25.58,9.89c4.71,6.31,4,23.73,4,23.73"/><path class="cls-4" d="M963,673.51c.28-6.5-3.32-10-13.28-11.34s-18.68,1-27.67,3-11.34,1.38-12.17,1.8,4.91,13.71,18.88,18.06,28.85,1.31,35.21-4.37"/></g><path class="cls-14" d="M451,942.53c-36.9.2-45,1.21-51.79,2-8.92,1.08-11.33,12-10.52,26.87s-1.51,21.66,18.06,22.27,127.84,0,127.84,0"/><polygon class="cls-15" points="412.12 865.12 425.76 865.12 439.8 947.94 425.96 947.94 412.12 865.12"/><path class="cls-14" d="M440.93,871.3c-24.91,0-34.69.89-41.59-2.67S373.32,843.06,360,793s-5.56-86.29-1.56-98.75,16.9-35.81,22.46-40"/><path class="cls-14" d="M387.13,649.78C403,640.27,418,637.77,452,635.6"/><path class="cls-21" d="M607.23,1359.38c8.26-9.1,41.89-22.67,72.88-27.13,0,0-20.25-32.41-38.08-45.37,0,0,32.34-8.94,39.5-16.68"/><path class="cls-21" d="M619,1229.69c8.18,31.42,17.45,55.77,14.4,56.57-8.28,2.16-41.32-6.56-52.88,0-2.86,1.62,22.91,19.76,32.61,49.74"/><path class="cls-2" d="M842.41,448c-6.88-12.35-12.37-21.39-13.68-24.1"/><path class="cls-2" d="M820.1,431.11c3.68-2.89,4.11-2.55,7.27,3.51s15,31.29,15,31.29"/><path class="cls-2" d="M824.79,454.3c4.77,10.51,13.46,25.05,15.26,26.66"/><path class="cls-2" d="M821.86,476.31a104.53,104.53,0,0,0,7.72,15.62"/><path class="cls-2" d="M797.12,529.47c-2.36-12.08,2.49-20.75,5.65-24.29s16.28-12.08,21-16.54"/><path class="cls-2" d="M732.9,475c-20.78-1.78-39.07-13.06-50-25a46.72,46.72,0,0,1-8.51-12.69"/><path class="cls-22" d="M655.77,421a11.73,11.73,0,1,0,9.4-4.72"/><path class="cls-22" d="M772.74,442.85a11.73,11.73,0,0,0,5.95-22.66"/><path class="cls-9" d="M745.58,425.18c-5.46-4.27-9.55-4.18-9.74-1.83S743.48,425.18,745.58,425.18Z"/><path class="cls-23" d="M762.68,393.55A6.89,6.89,0,0,1,773,394.71"/><path class="cls-23" d="M712.06,394.21c3.73-4.58,11-4.65,15.44-.13"/><path class="cls-2" d="M692.88,374.63c8.08-10,29.66-18.52,39-12.67"/><path class="cls-2" d="M754,394.71c-.45,15.83.28,31.39.28,31.39"/><path class="cls-2" d="M778.8,363.83c-8.52,0-23.56,4.77-24.54,23.83"/><path class="cls-2" d="M739.78,423.49c7.07,1.93,10.82,2.93,13.3,2.88s6.12-3.85,9.08-6.17"/><path class="cls-2" d="M707.61,389c2.13-3.45,7.93-6.35,10.36-6.74"/><path class="cls-9" d="M742.46,451c-9.4.38-22.46-10.55-20.91-16,.1-.33.91-.4,2.61-.36,2.6.05,7.26.36,14.53.36,6.08,0,10.65-.23,13.73-.33s4.65-.1,4.94.33C757.95,435.94,751.85,450.65,742.46,451Z"/><path class="cls-10" d="M752.42,434.74c-.67,2.4-1.91,6.25-3,6.75-1.63.72-20.75.17-23-.54-1.72-.55-2.19-3-2.23-6.24,2.6.05,7.26.36,14.53.36C744.77,435.07,749.33,434.84,752.42,434.74Z"/><path class="cls-2" d="M728.91,454.3c3.26,3.08,8.9,4.05,17.25,3.29"/><path class="cls-24" d="M677.46,674.81c-.16-7.38-3.77-19.34,24.75-18.19"/><path class="cls-24" d="M702.21,690.85c3.83-.33,7.3-2.08,8.38-3.91a36.5,36.5,0,0,0,27.89,13.25c18.23.11,32.66-7.16,40.69-19.75s6.51-23.77,6.29-28.32"/><path class="cls-24" d="M700.83,656.57c-.31-6-1.23-8.84,4.1-8.74s73.24,0,76.16,0"/><path class="cls-16" d="M1160.08,1285.61c41.08-155.4,65.34-259.16,65.34-268.57,0-10.78,15.86-8.81,16.29-13.87s-4.46-4.42-4.54-8.3c-.09-4.17,13.23-9.37,27.67-9.61s93.73-17,104.62-20.59"/><polyline class="cls-24" points="1832.37 1116.62 1915.22 1386.34 1899.93 1386.34 1826.7 1147.96"/><path class="cls-24" d="M1851.2,939.25H1657.61L1654.4,956l-65.89,342.51-3.21,16.71-13.69,71.15h15.29l13.69-71.15h178.3l-13.69,71.15h15.29l13.69-71.15,3.21-16.71L1863.27,956l3.22-16.71Z"/><path class="cls-14" d="M1689.36,1146.37h83.32"/><path class="cls-14" d="M1669.88,1194.56H1731"/><path class="cls-14" d="M1665.78,1228.66h57.17"/><path class="cls-14" d="M1726.13,989.41c-10.28,9.09-10.5,17.4-3.94,30s-.85,19.92-.85,19.92"/><path class="cls-14" d="M1760.14,999.57c-6.77,7.24-6.67,13.86-1.82,23.86s0,15.86,0,15.86"/><path class="cls-14" d="M1743.12,1010.31c-7.65,7.56-7.54,14.47-2.06,24.92s0,16.56,0,16.56"/><path class="cls-14" d="M1713.12,1057.51l60.06,2.4"/><path class="cls-14" d="M1707.82,1056.13c-2,13.06-5,51.31,24,52.31,29.67,1,36.19-18.35,37.56-41.68"/><path class="cls-14" d="M1701.28,1063.93c.36-11,.93-10.62-1.78-13.73-3.91-4.5-19.17-6.85-20.24,5.94s7.93,19.86,16.33,20.57"/><polygon class="cls-18" points="1782.09 1298.47 1603.79 1298.47 1669.69 955.97 1847.98 955.97 1782.09 1298.47"/><path class="cls-2" d="M1290.81,373.82s2.79,26.35,3.36,33.62"/><path class="cls-2" d="M1218.44,431.87c26.79-4.68,34.89-5.1,34.89-5.1"/><path class="cls-11" d="M1265.94,505.81c4.83,7.74,40.19,15.36,63.83-7.29"/><path class="cls-18" d="M1195.91,630.42c-2-18.07-25.26-28.07-40-28.6s-33.38,8.36-38.54,22.89c-1.19,3.34-.53,8.19-.53,8.19"/><path class="cls-18" d="M1193.49,673.82c.25-14-.75-39.26-.75-39.26"/><path class="cls-18" d="M1113.28,632.89c5.85.07,71.93,1.66,71.93,1.66"/><path class="cls-18" d="M1115,643.69c11.44-.28,78.11,0,78.11,0"/><path class="cls-18" d="M1116.65,635.46c.87,10.78,16.59,123.44,16.59,123.44"/><path class="cls-18" d="M1127.44,633.19c.15,5.53,0,8.58,0,8.58"/><path class="cls-18" d="M1141.86,635.82c.3,5.35.3,7.81.3,7.81"/><path class="cls-18" d="M1155.7,635.82a74.26,74.26,0,0,1,0,7.87"/><path class="cls-18" d="M1168.49,635.82c.15,3.87,0,7.87,0,7.87"/><path class="cls-18" d="M1180.9,634.45c.45,4.49,1.12,9.24,1.12,9.24"/><line class="cls-25" x1="1163.66" y1="663.66" x2="1160.72" y2="647.2"/><line class="cls-25" x1="1153.07" y1="648.67" x2="1155.7" y2="663.89"/><path class="cls-25" d="M1158.2,630.79c0-.63-10.52-64.37-10.52-64.37l-7.78,1.26,10.94,63.1"/><path class="cls-2" d="M1231.94,472.48s11.1.48,14.16.08"/><path class="cls-9" d="M732.9,473.89c-2.41,7.17-5.71,18-9.31,30.09-12.69-8-34.1-23.35-36.22-30.09-1.84-5.85-3.5-16.53-4.5-23.95C693.83,461.93,712.12,472.11,732.9,473.89Z"/><g class="cls-26"><path class="cls-27" d="M662.35,834.29c16.05,11.55,33.21,21.36,57.24,37.4q5.42,3.62,11.34,7.71,5.37,3.7,11.18,7.84c12.91,9.2,28.28,20.19,42.91,31.63,3.39,2.66,6.75,5.34,10,8,22.63,18.57,41.35,37.45,42.79,51"/><path class="cls-27" d="M628.25,1120.2a164.59,164.59,0,0,0,19-2.82c3-.62,6-1.33,9-2.11,64-16.89,114.3-68.62,144.49-106.3,14.81-18.5,27.66-25.34,32.3-23.9,9.22,2.86,1.44,27,24.3,22.91,19.89-3.57,38.46-38.49,50-38.49,4.33,0,.65,12.17-6.25,24.35s-36.2,29-55.62,39.81"/><path class="cls-27" d="M721.72,495.49c5.35-.14,16.28-2,25.87-5.61,5-1.88,10.35-6,15.94-7.89a17.68,17.68,0,0,1,1.78-.54,24.76,24.76,0,0,1,10.58-.74c8.37,1.56,11.33,9.38,15.06,18.64"/><path class="cls-27" d="M747.59,489.87c5,26.3,7.44,49.2,7.82,53.7"/><path class="cls-27" d="M758.05,567c-.21,23.78,4.21,58.09-.84,77.87"/><path class="cls-27" d="M774,685.66c5.53,1.26,6.55,1.67,10.37.83s14.61-3.33,23.45-5"/><path class="cls-27" d="M645.18,491.93c-13.37,1.56-40.88-7.81-40.88-7.81"/><path class="cls-27" d="M455.76,652.23c12.84-23.51,29-42.69,46-77.88s23.68-53.7,29.51-69.7,18.52-35.46,26.52-36.69c8.88-1.37,19,1.23,27.53,4.94a72.51,72.51,0,0,1,12.49,6.88c.65.46,1.26.91,1.83,1.35"/><path class="cls-27" d="M474,671.68c-13.4-4.43-19.79-11.06-16-13.15s20.41,2.46,34.3,5.78,36.27,5.53,57.9,14.87"/><path class="cls-27" d="M552.86,670.77c10.94-31.38,25.48-70.45,27.62-78.38"/><path class="cls-27" d="M602.6,488.11c.52,28.28,1.68,33.84-3.85,57.31"/><path class="cls-27" d="M685.46,762.37c5.13-12.42,10-21.6,15.1-27.54s36.47-36.45,38.63-40.5"/><path class="cls-27" d="M572.53,800a474,474,0,0,1,65.84,7.13"/><path class="cls-27" d="M908.28,964.56c-22.18-42.88-51.2-64.42-79.35-78.93s-74-33.28-101.53-45.23c-5-2.15-9.6-4.32-13.89-6.43-3.95-1.95-7.59-3.86-10.94-5.7-13.17-7.25-21.76-13.46-25.52-16.67-5.75-4.9-4.48-8.1-2.77-16.42"/><path class="cls-27" d="M472.9,778.46c-1.57,4.3-3.39,9.17-5.35,14.45-1.47,4-3,8.23-4.61,12.66-10.31,28.87-21.76,65.78-20.36,95.08,1.9,39.75,15.3,54.13,44.08,67.61S528.5,986.55,531.22,989c2.23,2,35.47,43.43,65.29,93.5,1.48,2.47,2.94,5,4.39,7.47h0l1.83,3.18c4.34,7.6,8.55,15.34,12.51,23.13"/><path class="cls-27" d="M820.3,989.8c3.76.45,15.46,16.38,27.45,18"/></g><path class="cls-2" d="M807.75,675.91c0,33.72,3.27,44.46,14.65,55.41"/><path class="cls-2" d="M767.26,1058.56c-3.22,9.21-7.41,20-12.73,31.78-8.4,18.57-20.22,48.7-31.24,77.24"/><path class="cls-28" d="M649,1259c21.54-.32,39.8,0,39.8,1.83s-1.28,9.49-4,9.49-36.7-2.38-37.43-3.66S645.21,1259.1,649,1259Z"/><path class="cls-28" d="M680.22,1365.94c-.33,4.14-.93,11.29-1.33,14.63-3.13,25.71-18.12,35.09-47,26.95s-32.45-24.08-27.23-48.54c.39-1.82,2.76-9.06,3.4-11.1,1.21,12.4,3.57,17.06,16.74,18.78C637.59,1368.31,664.82,1367.81,680.22,1365.94Z"/><path class="cls-28" d="M614.72,1223.18c-1-1.72,3.14-5.8,5.56-5.8s26.47,37,27.61,39.31-3,6.78-4.29,6.25S618.23,1229.35,614.72,1223.18Z"/><path class="cls-28" d="M611.27,1353.11c-4.17,9.48-5.72,24.81-4,25.09,0,0-18.94,16.19-28.49,14.59s-23.36-15.66-27.61-32.11-4.24-23.09,6.37-43.26,15.92-39.81,16.45-52.77S584,1232.22,584,1232.22c3.38-4,14.69-7.39,21.13-8.19-4.23,7-9.56,23.44-13,39-6.23,28-17.61,51.12-19.39,63.8C572.77,1326.78,596.92,1327.45,611.27,1353.11Z"/><circle class="cls-29" cx="701.31" cy="420.19" r="18.44"/><path class="cls-2" d="M721.55,435.07c6.22-1.2,35.81,0,35.81,0"/><path class="cls-2" d="M1153.07,741c11.43-13.49,20.69-22.31,23.59-24.34s22-9.55,22-9.55"/><path class="cls-2" d="M540.82,709.44c-19.09,1.7-43.09,6-51,19.82"/><line class="cls-2" x1="667.8" y1="384.58" x2="669.09" y2="410.41"/></svg>